<?xml version="1.0" encoding="iso-8859-1"?>
<!-- Generator: Adobe Illustrator 19.0.0, SVG Export Plug-In . SVG Version: 6.00 Build 0)  -->
<svg version="1.1" id="Capa_1" xmlns="http://www.w3.org/2000/svg" xmlns:xlink="http://www.w3.org/1999/xlink" x="0px" y="0px"
	 viewBox="0 0 512 512" style="enable-background:new 0 0 512 512;" xml:space="preserve">
<path style="fill:#5997C9;" d="M504.391,88.201v186.86c0,16.602-13.463,30.066-30.066,30.066H167.409
	c-16.613,0-30.077-13.463-30.077-30.066V88.201c0-16.613,13.463-30.077,30.077-30.077h306.916
	C490.928,58.124,504.391,71.588,504.391,88.201z"/>
<g>
	<path style="fill:#467EB7;" d="M504.402,88.201v186.86c0,16.602-13.463,30.066-30.077,30.066H190.344L437.346,58.124h36.978
		C490.938,58.124,504.402,71.588,504.402,88.201z"/>
	<path style="fill:#467EB7;" d="M394.353,211.79v93.337H167.409c-16.613,0-30.077-13.463-30.077-30.066v-93.348h226.944
		C380.89,181.712,394.353,195.177,394.353,211.79z"/>
	<path style="fill:#467EB7;" d="M344.591,453.877H37.68c-16.61,0-30.076-13.465-30.076-30.076V236.944
		c0-16.61,13.465-30.076,30.076-30.076h306.912c16.61,0,30.076,13.465,30.076,30.076v186.857
		C374.667,440.41,361.202,453.877,344.591,453.877z"/>
</g>
<path style="fill:#3570A0;" d="M394.353,211.79v93.337h-204.01l123.414-123.414h50.518
	C380.89,181.712,394.353,195.177,394.353,211.79z"/>
<path style="fill:#5997C9;" d="M374.669,236.95v186.86c0,16.602-13.463,30.066-30.077,30.066H60.61l247.003-247.003h36.978
	C361.205,206.874,374.669,220.337,374.669,236.95z"/>
<path style="fill:#F4B74A;" d="M103.183,295.823H55.971c-6.493,0-11.757-5.264-11.757-11.757v-23.151
	c0-6.493,5.264-11.757,11.757-11.757h47.212c6.493,0,11.757,5.264,11.757,11.757v23.151
	C114.941,290.559,109.677,295.823,103.183,295.823z"/>
<rect x="137.329" y="106.244" style="fill:#2E3842;" width="367.063" height="48.129"/>
<g>
	<polygon style="fill:#525D66;" points="301.432,106.247 253.308,154.37 177.515,154.37 225.638,106.247 	"/>
	<polygon style="fill:#525D66;" points="369.318,106.247 321.206,154.37 289.619,154.37 337.742,106.247 	"/>
</g>
<path d="M474.319,50.52H167.408c-20.776,0-37.68,16.903-37.68,37.68v18.048v48.124v19.686c0,4.199,3.404,7.604,7.604,7.604
	s7.604-3.405,7.604-7.604v-12.082h351.856v113.082c0,12.391-10.081,22.471-22.473,22.471h-69.697c-4.201,0-7.604,3.405-7.604,7.604
	s3.404,7.604,7.604,7.604h69.697c20.777,0,37.681-16.903,37.681-37.68V154.37v-48.123V88.2C512,67.423,495.097,50.52,474.319,50.52z
	 M144.936,146.766v-32.915h44.154c4.2,0,7.604-3.405,7.604-7.604s-3.404-7.604-7.604-7.604h-44.154V88.2
	c0-12.391,10.08-22.471,22.471-22.471h306.912c12.392,0,22.473,10.081,22.473,22.471v10.444H209.369c-4.2,0-7.604,3.405-7.604,7.604
	c0,4.199,3.404,7.604,7.604,7.604h287.423v32.915H144.936V146.766z"/>
<path d="M344.591,199.264H37.68c-20.776,0-37.68,16.903-37.68,37.68V423.8c0,20.776,16.903,37.68,37.68,37.68h245.694
	c4.201,0,7.604-3.405,7.604-7.604s-3.404-7.604-7.604-7.604H37.68c-12.392,0-22.471-10.081-22.471-22.471V236.943
	c0-12.391,10.08-22.471,22.471-22.471h306.912c12.392,0,22.471,10.081,22.471,22.471V423.8c0,12.391-10.08,22.471-22.471,22.471
	h-35.869c-4.2,0-7.604,3.405-7.604,7.604s3.404,7.604,7.604,7.604h35.869c20.776,0,37.68-16.903,37.68-37.68V236.943
	C382.271,216.167,365.368,199.264,344.591,199.264z"/>
<path d="M44.214,352.279c4.2,0,7.604-3.405,7.604-7.604v-14.303c0-4.199-3.404-7.604-7.604-7.604s-7.604,3.405-7.604,7.604v14.303
	C36.61,348.875,40.015,352.279,44.214,352.279z"/>
<path d="M99.373,344.675v-14.303c0-4.199-3.404-7.604-7.604-7.604s-7.604,3.405-7.604,7.604v14.303c0,4.199,3.404,7.604,7.604,7.604
	S99.373,348.875,99.373,344.675z"/>
<path d="M75.595,344.675v-14.303c0-4.199-3.404-7.604-7.604-7.604s-7.604,3.405-7.604,7.604v14.303c0,4.199,3.404,7.604,7.604,7.604
	S75.595,348.875,75.595,344.675z"/>
<path d="M115.546,322.769c-4.2,0-7.604,3.405-7.604,7.604v14.303c0,4.199,3.404,7.604,7.604,7.604c4.2,0,7.604-3.405,7.604-7.604
	v-14.303C123.15,326.172,119.746,322.769,115.546,322.769z"/>
<path d="M259.121,330.373v14.303c0,4.199,3.404,7.604,7.604,7.604c4.201,0,7.604-3.405,7.604-7.604v-14.303
	c0-4.199-3.404-7.604-7.604-7.604C262.524,322.769,259.121,326.172,259.121,330.373z"/>
<path d="M306.675,330.373v14.303c0,4.199,3.404,7.604,7.604,7.604c4.201,0,7.604-3.405,7.604-7.604v-14.303
	c0-4.199-3.404-7.604-7.604-7.604C310.079,322.769,306.675,326.172,306.675,330.373z"/>
<path d="M290.502,322.769c-4.201,0-7.604,3.405-7.604,7.604v14.303c0,4.199,3.404,7.604,7.604,7.604c4.2,0,7.604-3.405,7.604-7.604
	v-14.303C298.106,326.172,294.703,322.769,290.502,322.769z"/>
<path d="M338.057,322.769c-4.201,0-7.604,3.405-7.604,7.604v14.303c0,4.199,3.404,7.604,7.604,7.604c4.2,0,7.604-3.405,7.604-7.604
	v-14.303C345.661,326.172,342.256,322.769,338.057,322.769z"/>
<path d="M163.073,344.675v-14.303c0-4.199-3.404-7.604-7.604-7.604s-7.604,3.405-7.604,7.604v14.303
	c0,4.199,3.404,7.604,7.604,7.604S163.073,348.875,163.073,344.675z"/>
<path d="M195.42,330.373v14.303c0,4.199,3.404,7.604,7.604,7.604s7.604-3.405,7.604-7.604v-14.303c0-4.199-3.404-7.604-7.604-7.604
	S195.42,326.172,195.42,330.373z"/>
<path d="M186.851,344.675v-14.303c0-4.199-3.404-7.604-7.604-7.604s-7.604,3.405-7.604,7.604v14.303
	c0,4.199,3.404,7.604,7.604,7.604S186.851,348.875,186.851,344.675z"/>
<path d="M226.801,322.769c-4.2,0-7.604,3.405-7.604,7.604v14.303c0,4.199,3.404,7.604,7.604,7.604s7.604-3.405,7.604-7.604v-14.303
	C234.406,326.172,231.002,322.769,226.801,322.769z"/>
<path d="M122.545,284.066v-23.151c0-10.676-8.685-19.361-19.362-19.361H55.971c-10.675,0-19.361,8.685-19.361,19.361v23.151
	c0,10.676,8.685,19.361,19.361,19.361h47.212C113.86,303.427,122.545,294.741,122.545,284.066z M51.818,284.066v-23.151
	c0-2.29,1.862-4.153,4.153-4.153h47.212c2.29,0,4.154,1.863,4.154,4.153v23.151c0,2.29-1.864,4.153-4.154,4.153H55.971
	C53.681,288.219,51.818,286.355,51.818,284.066z"/>
<path d="M44.214,409.881h41.301c4.2,0,7.604-3.405,7.604-7.604s-3.404-7.604-7.604-7.604H44.214c-4.2,0-7.604,3.405-7.604,7.604
	S40.015,409.881,44.214,409.881z"/>
<path d="M109.837,409.881h66.821c4.2,0,7.604-3.405,7.604-7.604s-3.404-7.604-7.604-7.604h-66.821c-4.2,0-7.604,3.405-7.604,7.604
	S105.636,409.881,109.837,409.881z"/>
<path d="M345.661,277.594c0-4.199-3.404-7.604-7.604-7.604H234.261c-4.2,0-7.604,3.405-7.604,7.604s3.404,7.604,7.604,7.604h103.796
	C342.256,285.199,345.661,281.794,345.661,277.594z"/>
<path d="M338.057,256.033c4.2,0,7.604-3.405,7.604-7.604s-3.404-7.604-7.604-7.604h-73.902c-4.201,0-7.604,3.405-7.604,7.604
	s3.404,7.604,7.604,7.604H338.057z"/>
<g>
</g>
<g>
</g>
<g>
</g>
<g>
</g>
<g>
</g>
<g>
</g>
<g>
</g>
<g>
</g>
<g>
</g>
<g>
</g>
<g>
</g>
<g>
</g>
<g>
</g>
<g>
</g>
<g>
</g>
</svg>
