<?xml version="1.0" encoding="iso-8859-1"?>
<!-- Generator: Adobe Illustrator 19.0.0, SVG Export Plug-In . SVG Version: 6.00 Build 0)  -->
<svg version="1.1" id="Capa_1" xmlns="http://www.w3.org/2000/svg" xmlns:xlink="http://www.w3.org/1999/xlink" x="0px" y="0px"
	 viewBox="0 0 512 512" style="enable-background:new 0 0 512 512;" xml:space="preserve">
<path style="fill:#38C183;" d="M469.078,331.331H42.923c-19.506,0-35.319-15.812-35.319-35.319V88.581
	c0-19.506,15.812-35.319,35.319-35.319h426.155c19.506,0,35.319,15.812,35.319,35.319v207.432
	C504.396,315.519,488.584,331.331,469.078,331.331z"/>
<path style="fill:#49E298;" d="M450.527,145.438c-21.156,0-38.307-17.15-38.307-38.307c0-6.491,1.62-12.6,4.469-17.958H95.312
	c2.849,5.357,4.469,11.467,4.469,17.958c0,21.156-17.15,38.307-38.307,38.307c-6.491,0-12.6-1.62-17.958-4.469v102.653
	c5.357-2.849,11.467-4.469,17.958-4.469c21.156,0,38.307,17.15,38.307,38.307c0,6.491-1.62,12.6-4.469,17.958h321.377
	c-2.849-5.357-4.469-11.467-4.469-17.958c0-21.156,17.15-38.307,38.307-38.307c6.491,0,12.6,1.62,17.958,4.469V140.969
	C463.127,143.819,457.017,145.438,450.527,145.438z"/>
<circle style="fill:#38C183;" cx="256" cy="192.299" r="70.027"/>
<path style="fill:#467EB7;" d="M474.024,257.643v173.218c0,15.39-12.481,27.871-27.881,27.871h-284.5
	c-15.401,0-27.881-12.481-27.881-27.871V257.643c0-15.401,12.481-27.881,27.881-27.881h284.5
	C461.543,229.762,474.024,242.243,474.024,257.643z"/>
<path style="fill:#5997C9;" d="M474.024,257.643v173.218c0,15.39-12.481,27.871-27.881,27.871H182.894l228.97-228.97h34.279
	C461.543,229.762,474.024,242.243,474.024,257.643z"/>
<path style="fill:#F4B74A;" d="M222.364,312.223h-43.765c-6.019,0-10.899-4.88-10.899-10.899v-21.46
	c0-6.019,4.88-10.899,10.899-10.899h43.765c6.019,0,10.899,4.88,10.899,10.899v21.46
	C233.262,307.344,228.383,312.223,222.364,312.223z"/>
<path d="M111.021,338.935H42.923C19.255,338.935,0,319.681,0,296.013V88.581c0-23.668,19.255-42.923,42.923-42.923h426.155
	c23.667,0,42.922,19.255,42.922,42.923v207.431c0,9.409-2.988,18.341-8.642,25.833c-2.528,3.353-7.297,4.02-10.65,1.489
	c-3.353-2.53-4.019-7.298-1.489-10.65c3.646-4.832,5.573-10.597,5.573-16.673V88.581c0-15.282-12.433-27.715-27.715-27.715H42.923
	c-15.282,0-27.715,12.433-27.715,27.715v207.431c0,15.282,12.433,27.715,27.715,27.715h68.098c4.199,0,7.604,3.405,7.604,7.604
	C118.625,335.53,115.221,338.935,111.021,338.935z"/>
<path d="M112.035,303.023H95.312c-2.67,0-5.143-1.4-6.518-3.687c-1.374-2.288-1.449-5.13-0.195-7.486
	c2.374-4.465,3.578-9.305,3.578-14.387c0-16.929-13.773-30.703-30.703-30.703c-5.081,0-9.923,1.204-14.387,3.579
	c-2.356,1.254-5.197,1.18-7.486-0.196c-2.288-1.375-3.688-3.849-3.688-6.518V140.971c0-2.669,1.399-5.143,3.687-6.518
	c2.289-1.375,5.131-1.448,7.486-0.196c4.465,2.374,9.305,3.579,14.387,3.579c16.929,0,30.703-13.773,30.703-30.703
	c0-5.081-1.204-9.923-3.578-14.387c-1.253-2.357-1.179-5.198,0.195-7.486c1.375-2.288,3.849-3.687,6.518-3.687h40.04
	c4.199,0,7.604,3.405,7.604,7.604c0,4.199-3.405,7.604-7.604,7.604h-29.153c0.783,3.386,1.185,6.865,1.185,10.354
	c0,25.315-20.596,45.911-45.911,45.911c-3.489,0-6.966-0.401-10.354-1.185v80.879c3.386-0.784,6.865-1.185,10.354-1.185
	c25.315,0,45.911,20.596,45.911,45.911c0,3.489-0.401,6.967-1.185,10.354h5.836c4.199,0,7.604,3.405,7.604,7.604
	C119.639,299.621,116.235,303.023,112.035,303.023z"/>
<path d="M468.484,221.144c-4.2,0-7.604-3.405-7.604-7.604v-61.683c-3.386,0.784-6.865,1.185-10.354,1.185
	c-25.315,0-45.91-20.596-45.91-45.911c0-3.489,0.401-6.966,1.185-10.354H160.701c-4.199,0-7.604-3.405-7.604-7.604
	s3.405-7.604,7.604-7.604h255.988c2.669,0,5.143,1.4,6.518,3.687c1.375,2.288,1.45,5.129,0.196,7.486
	c-2.374,4.465-3.578,9.305-3.578,14.388c0,16.929,13.773,30.703,30.702,30.703c5.082,0,9.923-1.204,14.387-3.579
	c2.355-1.252,5.196-1.18,7.486,0.196c2.288,1.375,3.688,3.849,3.688,6.518v72.57C476.088,217.74,472.684,221.144,468.484,221.144z"
	/>
<path d="M187.57,214.871c-3.497,0-6.644-2.426-7.421-5.983c-1.186-5.428-1.787-11.01-1.787-16.588
	c0-42.811,34.83-77.642,77.642-77.642c42.806,0,77.631,34.83,77.631,77.642c0,5.553-0.597,11.129-1.774,16.572
	c-0.887,4.104-4.926,6.714-9.039,5.825c-4.105-0.887-6.713-4.934-5.826-9.04c0.95-4.389,1.431-8.882,1.431-13.358
	c0-34.426-28.003-62.434-62.423-62.434c-34.427,0-62.434,28.008-62.434,62.434c0,4.488,0.484,8.977,1.437,13.341
	c0.896,4.103-1.703,8.156-5.805,9.052C188.654,214.813,188.109,214.871,187.57,214.871z"/>
<path d="M420,184.937H362.54c-4.2,0-7.604-3.405-7.604-7.604s3.404-7.604,7.604-7.604H420c4.2,0,7.604,3.405,7.604,7.604
	S424.201,184.937,420,184.937z"/>
<path d="M398.453,214.865H362.54c-4.2,0-7.604-3.405-7.604-7.604c0-4.199,3.404-7.604,7.604-7.604h35.913
	c4.2,0,7.604,3.405,7.604,7.604C406.057,211.46,402.653,214.865,398.453,214.865z"/>
<path d="M149.46,184.937h-57.46c-4.199,0-7.604-3.405-7.604-7.604s3.405-7.604,7.604-7.604h57.46c4.199,0,7.604,3.405,7.604,7.604
	S153.66,184.937,149.46,184.937z"/>
<path d="M149.46,214.865h-35.912c-4.199,0-7.604-3.405-7.604-7.604c0-4.199,3.405-7.604,7.604-7.604h35.912
	c4.199,0,7.604,3.405,7.604,7.604C157.064,211.46,153.66,214.865,149.46,214.865z"/>
<path d="M450.523,115.204c-3.115,0-5.966-1.968-7.083-4.867c-1.202-3.12-0.18-6.783,2.501-8.795
	c5.522-4.144,13.527,0.932,12.002,7.73C457.173,112.703,454.037,115.204,450.523,115.204z"/>
<path d="M63.268,115.204c-6.886,0-10.206-8.903-4.933-13.384c5.25-4.461,13.44,0.085,12.456,6.897
	C70.259,112.407,66.982,115.204,63.268,115.204z"/>
<path d="M63.268,284.59c-6.966,0-10.229-9.065-4.818-13.478c2.53-2.063,6.165-2.266,8.92-0.522c2.585,1.637,3.938,4.807,3.367,7.807
	C70.061,281.951,66.893,284.59,63.268,284.59z"/>
<path d="M446.148,466.342h-49.216c-4.2,0-7.604-3.405-7.604-7.604s3.404-7.604,7.604-7.604h49.216
	c11.18,0,20.276-9.095,20.276-20.276V257.642c0-11.181-9.096-20.276-20.276-20.276H161.642c-11.18,0-20.276,9.095-20.276,20.276
	v173.215c0,11.181,9.096,20.276,20.276,20.276h209.941c4.2,0,7.604,3.405,7.604,7.604s-3.404,7.604-7.604,7.604H161.642
	c-19.566,0-35.484-15.918-35.484-35.484V257.642c0-19.567,15.919-35.484,35.484-35.484h284.506
	c19.566,0,35.484,15.918,35.484,35.484v173.215C481.632,450.424,465.714,466.342,446.148,466.342z"/>
<path d="M167.7,365.113c-4.199,0-7.604-3.405-7.604-7.604v-13.258c0-4.199,3.405-7.604,7.604-7.604c4.199,0,7.604,3.405,7.604,7.604
	v13.258C175.304,361.708,171.899,365.113,167.7,365.113z"/>
<path d="M211.782,365.113c-4.199,0-7.604-3.405-7.604-7.604v-13.258c0-4.199,3.405-7.604,7.604-7.604
	c4.199,0,7.604,3.405,7.604,7.604v13.258C219.386,361.708,215.982,365.113,211.782,365.113z"/>
<path d="M189.741,365.113c-4.199,0-7.604-3.405-7.604-7.604v-13.258c0-4.199,3.405-7.604,7.604-7.604
	c4.199,0,7.604,3.405,7.604,7.604v13.258C197.345,361.708,193.941,365.113,189.741,365.113z"/>
<path d="M233.824,365.113c-4.199,0-7.604-3.405-7.604-7.604v-13.258c0-4.199,3.405-7.604,7.604-7.604
	c4.199,0,7.604,3.405,7.604,7.604v13.258C241.428,361.708,238.023,365.113,233.824,365.113z"/>
<path d="M373.966,365.113c-4.2,0-7.604-3.405-7.604-7.604v-13.258c0-4.199,3.404-7.604,7.604-7.604s7.604,3.405,7.604,7.604v13.258
	C381.57,361.708,378.166,365.113,373.966,365.113z"/>
<path d="M418.049,365.113c-4.2,0-7.604-3.405-7.604-7.604v-13.258c0-4.199,3.404-7.604,7.604-7.604s7.604,3.405,7.604,7.604v13.258
	C425.652,361.708,422.249,365.113,418.049,365.113z"/>
<path d="M396.007,365.113c-4.2,0-7.604-3.405-7.604-7.604v-13.258c0-4.199,3.404-7.604,7.604-7.604c4.2,0,7.604,3.405,7.604,7.604
	v13.258C403.611,361.708,400.208,365.113,396.007,365.113z"/>
<path d="M440.091,365.113c-4.2,0-7.604-3.405-7.604-7.604v-13.258c0-4.199,3.404-7.604,7.604-7.604s7.604,3.405,7.604,7.604v13.258
	C447.695,361.708,444.29,365.113,440.091,365.113z"/>
<path d="M270.833,365.113c-4.2,0-7.604-3.405-7.604-7.604v-13.258c0-4.199,3.404-7.604,7.604-7.604c4.2,0,7.604,3.405,7.604,7.604
	v13.258C278.437,361.708,275.033,365.113,270.833,365.113z"/>
<path d="M314.915,365.113c-4.2,0-7.604-3.405-7.604-7.604v-13.258c0-4.199,3.404-7.604,7.604-7.604c4.2,0,7.604,3.405,7.604,7.604
	v13.258C322.519,361.708,319.115,365.113,314.915,365.113z"/>
<path d="M292.874,365.113c-4.2,0-7.604-3.405-7.604-7.604v-13.258c0-4.199,3.404-7.604,7.604-7.604s7.604,3.405,7.604,7.604v13.258
	C300.478,361.708,297.074,365.113,292.874,365.113z"/>
<path d="M336.957,365.113c-4.2,0-7.604-3.405-7.604-7.604v-13.258c0-4.199,3.404-7.604,7.604-7.604s7.604,3.405,7.604,7.604v13.258
	C344.561,361.708,341.157,365.113,336.957,365.113z"/>
<path d="M222.364,319.828h-43.765c-10.202,0-18.503-8.301-18.503-18.503v-21.46c0-10.202,8.3-18.503,18.503-18.503h43.765
	c10.202,0,18.503,8.301,18.503,18.503v21.46C240.866,311.527,232.567,319.828,222.364,319.828z M178.599,276.569
	c-1.817,0-3.295,1.478-3.295,3.295v21.46c0,1.817,1.478,3.295,3.295,3.295h43.765c1.817,0,3.295-1.478,3.295-3.295v-21.46
	c0-1.817-1.478-3.295-3.295-3.295H178.599z"/>
<path d="M205.986,418.51H167.7c-4.199,0-7.604-3.405-7.604-7.604s3.405-7.604,7.604-7.604h38.286c4.199,0,7.604,3.405,7.604,7.604
	S210.186,418.51,205.986,418.51z"/>
<path d="M290.474,418.51H228.53c-4.199,0-7.604-3.405-7.604-7.604s3.405-7.604,7.604-7.604h61.944c4.2,0,7.604,3.405,7.604,7.604
	S294.675,418.51,290.474,418.51z"/>
<path d="M440.091,302.93h-96.219c-4.2,0-7.604-3.405-7.604-7.604s3.404-7.604,7.604-7.604h96.218c4.2,0,7.604,3.405,7.604,7.604
	S444.29,302.93,440.091,302.93z"/>
<path d="M440.091,275.893h-68.507c-4.2,0-7.604-3.405-7.604-7.604c0-4.199,3.404-7.604,7.604-7.604h68.507
	c4.2,0,7.604,3.405,7.604,7.604C447.695,272.488,444.29,275.893,440.091,275.893z"/>
<g>
</g>
<g>
</g>
<g>
</g>
<g>
</g>
<g>
</g>
<g>
</g>
<g>
</g>
<g>
</g>
<g>
</g>
<g>
</g>
<g>
</g>
<g>
</g>
<g>
</g>
<g>
</g>
<g>
</g>
</svg>
