<?xml version="1.0" encoding="iso-8859-1"?>
<!-- Generator: Adobe Illustrator 19.0.0, SVG Export Plug-In . SVG Version: 6.00 Build 0)  -->
<svg version="1.1" id="Capa_1" xmlns="http://www.w3.org/2000/svg" xmlns:xlink="http://www.w3.org/1999/xlink" x="0px" y="0px"
	 viewBox="0 0 512 512" style="enable-background:new 0 0 512 512;" xml:space="preserve">
<path style="fill:#38C183;" d="M469.078,310.854H42.923c-19.506,0-35.319-15.812-35.319-35.319V68.105
	c0-19.506,15.812-35.319,35.319-35.319h426.155c19.506,0,35.319,15.812,35.319,35.319v207.432
	C504.396,295.042,488.584,310.854,469.078,310.854z"/>
<path style="fill:#49E298;" d="M450.527,124.962c-21.156,0-38.307-17.15-38.307-38.307c0-6.491,1.62-12.6,4.469-17.958H95.312
	c2.849,5.357,4.469,11.467,4.469,17.958c0,21.156-17.15,38.307-38.307,38.307c-6.491,0-12.6-1.62-17.958-4.469v102.653
	c5.357-2.849,11.467-4.469,17.958-4.469c21.156,0,38.307,17.15,38.307,38.307c0,6.491-1.62,12.6-4.469,17.958h321.377
	c-2.849-5.357-4.469-11.467-4.469-17.958c0-21.156,17.15-38.307,38.307-38.307c6.491,0,12.6,1.62,17.958,4.469V120.493
	C463.127,123.342,457.017,124.962,450.527,124.962z"/>
<circle style="fill:#38C183;" cx="256" cy="171.82" r="70.027"/>
<circle style="fill:#F4B74A;" cx="355.47" cy="365.66" r="113.563"/>
<path style="fill:#FFD488;" d="M435.761,365.657c0,44.346-35.952,80.298-80.298,80.298c-21.251,0-40.575-8.263-54.931-21.747
	c-10.534-9.865-18.391-22.548-22.396-36.854c-1.936-6.894-2.971-14.174-2.971-21.697c0-44.346,35.952-80.298,80.298-80.298
	c7.523,0,14.802,1.034,21.697,2.971c14.306,4.005,26.989,11.862,36.854,22.396C427.508,325.082,435.761,344.406,435.761,365.657z"/>
<path style="fill:#F9C662;" d="M414.013,310.726L300.532,424.207c-10.534-9.865-18.391-22.548-22.396-36.854l99.024-99.024
	C391.465,292.334,404.148,300.192,414.013,310.726z"/>
<path d="M469.078,25.182H155.251c-4.199,0-7.604,3.405-7.604,7.604s3.405,7.604,7.604,7.604h313.827
	c15.282,0,27.715,12.433,27.715,27.715v207.432c0,12.131-8.102,23.045-19.702,26.541c-4.021,1.212-6.298,5.454-5.087,9.475
	c0.992,3.29,4.011,5.412,7.277,5.412c0.727,0,1.465-0.105,2.197-0.325C499.448,311.223,512,294.32,512,275.536V68.105
	C512,44.437,492.745,25.182,469.078,25.182z"/>
<path d="M228.629,303.251H42.923c-15.282,0-27.715-12.433-27.715-27.715V68.105c0-15.282,12.433-27.715,27.715-27.715h86.98
	c4.199,0,7.604-3.405,7.604-7.604s-3.405-7.604-7.604-7.604h-86.98C19.255,25.182,0,44.437,0,68.105v207.432
	c0,23.668,19.255,42.923,42.923,42.923h185.706c4.199,0,7.604-3.405,7.604-7.604C236.233,306.656,232.829,303.251,228.629,303.251z"
	/>
<path d="M423.206,64.782c-1.375-2.288-3.849-3.687-6.518-3.687H95.312c-2.67,0-5.143,1.4-6.518,3.688
	c-1.375,2.288-1.449,5.13-0.195,7.486c2.374,4.464,3.578,9.304,3.578,14.387c0,16.929-13.773,30.703-30.703,30.703
	c-5.081,0-9.922-1.204-14.387-3.579c-2.355-1.253-5.197-1.179-7.486,0.196c-2.288,1.375-3.687,3.849-3.687,6.518v102.653
	c0,2.669,1.399,5.143,3.687,6.518c2.289,1.375,5.13,1.449,7.486,0.196c4.465-2.374,9.306-3.579,14.387-3.579
	c16.929,0,30.703,13.773,30.703,30.703c0,5.081-1.204,9.923-3.578,14.387c-1.253,2.357-1.179,5.198,0.196,7.486
	c1.374,2.288,3.849,3.687,6.518,3.687h162.719c4.199,0,7.604-3.405,7.604-7.604c0-4.199-3.405-7.604-7.604-7.604H106.2
	c0.783-3.386,1.185-6.865,1.185-10.354c0-25.315-20.596-45.911-45.911-45.911c-3.489,0-6.966,0.401-10.354,1.185V131.38
	c3.387,0.784,6.865,1.185,10.354,1.185c25.315,0,45.911-20.596,45.911-45.911c0-3.489-0.401-6.966-1.185-10.354h299.602
	c-0.784,3.387-1.185,6.865-1.185,10.354c0,25.315,20.596,45.911,45.911,45.911c3.488,0,6.966-0.401,10.353-1.185v80.879
	c-3.386-0.784-6.865-1.185-10.353-1.185c-20.309,0-38.442,13.61-44.097,33.096c-1.17,4.033,1.151,8.252,5.184,9.422
	c4.036,1.172,8.252-1.151,9.422-5.184c3.781-13.027,15.907-22.127,29.49-22.127c5.081,0,9.922,1.204,14.387,3.579
	c2.356,1.253,5.199,1.18,7.486-0.196c2.288-1.375,3.688-3.849,3.688-6.518V120.493c0-2.67-1.4-5.143-3.688-6.518
	c-2.288-1.375-5.129-1.449-7.486-0.196c-4.465,2.374-9.305,3.579-14.387,3.579c-16.929,0-30.703-13.773-30.703-30.703
	c0-5.081,1.204-9.922,3.579-14.387C424.656,69.911,424.581,67.07,423.206,64.782z"/>
<path d="M178.366,171.82c0,42.808,34.827,77.635,77.634,77.635s77.635-34.827,77.635-77.635S298.808,94.185,256,94.185
	S178.366,129.012,178.366,171.82z M318.428,171.82c0,34.423-28.005,62.428-62.428,62.428s-62.426-28.005-62.426-62.428
	s28.005-62.426,62.426-62.426S318.428,137.398,318.428,171.82z"/>
<path d="M427.604,156.857c0-4.199-3.405-7.604-7.604-7.604h-57.46c-4.199,0-7.604,3.405-7.604,7.604
	c0,4.199,3.405,7.604,7.604,7.604H420C424.2,164.461,427.604,161.056,427.604,156.857z"/>
<path d="M362.541,179.179c-4.199,0-7.604,3.405-7.604,7.604c0,4.199,3.405,7.604,7.604,7.604h35.912
	c4.199,0,7.604-3.405,7.604-7.604c0-4.199-3.405-7.604-7.604-7.604H362.541z"/>
<path d="M149.46,149.253h-57.46c-4.199,0-7.604,3.405-7.604,7.604c0,4.199,3.405,7.604,7.604,7.604h57.46
	c4.199,0,7.604-3.405,7.604-7.604C157.064,152.658,153.66,149.253,149.46,149.253z"/>
<path d="M149.46,179.179h-35.912c-4.199,0-7.604,3.405-7.604,7.604c0,4.199,3.405,7.604,7.604,7.604h35.912
	c4.199,0,7.604-3.405,7.604-7.604C157.064,182.584,153.66,179.179,149.46,179.179z"/>
<path d="M447.623,94.147c3.103,1.312,6.85,0.308,8.906-2.353c1.832-2.371,2.108-5.645,0.683-8.283
	c-1.565-2.9-4.935-4.482-8.171-3.842c-3.069,0.607-5.492,3.13-6.016,6.206C442.438,89.32,444.4,92.815,447.623,94.147z"/>
<path d="M456.849,252.289c-1.741-2.642-5.109-3.926-8.17-3.15c-3.081,0.781-5.401,3.467-5.723,6.633
	c-0.686,6.752,7.58,10.905,12.622,6.426C458.395,259.695,458.911,255.422,456.849,252.289z"/>
<path d="M56.952,91.348c3.737,5.677,12.866,3.62,13.839-3.104c0.996-6.881-7.335-11.385-12.55-6.818
	C55.407,83.909,54.89,88.219,56.952,91.348z"/>
<path d="M57.895,251.133c-2.288,2.306-2.874,5.894-1.406,8.797c1.382,2.733,4.349,4.422,7.412,4.164
	c3.329-0.281,6.187-2.805,6.83-6.097c0.598-3.061-0.779-6.287-3.435-7.93C64.323,248.227,60.38,248.667,57.895,251.133z"/>
<path d="M355.466,244.491c-66.809,0-121.164,54.354-121.164,121.164s54.354,121.164,121.164,121.164s121.164-54.354,121.164-121.164
	S422.275,244.491,355.466,244.491z M355.466,471.611c-58.424,0-105.956-47.532-105.956-105.956S297.042,259.7,355.466,259.7
	s105.956,47.532,105.956,105.956S413.89,471.611,355.466,471.611z"/>
<path d="M355.466,277.752c-48.47,0-87.903,39.433-87.903,87.903s39.433,87.903,87.903,87.903c16.743,0,33.03-4.727,47.098-13.67
	c3.544-2.253,4.591-6.952,2.338-10.497c-2.253-3.543-6.952-4.592-10.496-2.338c-11.626,7.39-25.091,11.296-38.939,11.296
	c-40.084,0-72.695-32.611-72.695-72.695s32.611-72.695,72.695-72.695s72.695,32.611,72.695,72.695
	c0,17.747-6.464,34.835-18.203,48.117c-2.781,3.147-2.485,7.952,0.662,10.733s7.953,2.485,10.733-0.662
	c14.197-16.064,22.015-36.729,22.015-58.189C443.369,317.185,403.936,277.752,355.466,277.752z"/>
<path d="M376.535,341.761c0,4.199,3.405,7.604,7.604,7.604c4.199,0,7.604-3.405,7.604-7.604c0-15.103-12.309-27.753-28.673-30.796
	v-2.655c0-4.199-3.405-7.604-7.604-7.604s-7.604,3.405-7.604,7.604v2.655c-16.364,3.044-28.673,15.693-28.673,30.796
	s12.309,27.752,28.673,30.796v32.167c-7.866-2.365-13.465-8.267-13.465-15.174c0-4.199-3.405-7.604-7.604-7.604
	c-4.199,0-7.604,3.405-7.604,7.604c0,15.103,12.309,27.752,28.673,30.796v2.655c0,4.199,3.405,7.604,7.604,7.604
	s7.604-3.405,7.604-7.604v-2.655c16.364-3.044,28.673-15.693,28.673-30.796s-12.309-27.753-28.673-30.796v-32.167
	C370.935,328.951,376.535,334.854,376.535,341.761z M334.397,341.761c0-6.907,5.6-12.81,13.465-15.174v30.35
	C339.996,354.571,334.397,348.668,334.397,341.761z M376.535,389.549c0,6.907-5.6,12.81-13.465,15.174v-30.35
	C370.935,376.739,376.535,382.642,376.535,389.549z"/>
<g>
</g>
<g>
</g>
<g>
</g>
<g>
</g>
<g>
</g>
<g>
</g>
<g>
</g>
<g>
</g>
<g>
</g>
<g>
</g>
<g>
</g>
<g>
</g>
<g>
</g>
<g>
</g>
<g>
</g>
</svg>
