<?xml version="1.0" encoding="iso-8859-1"?>
<!-- Generator: Adobe Illustrator 19.0.0, SVG Export Plug-In . SVG Version: 6.00 Build 0)  -->
<svg version="1.1" id="Capa_1" xmlns="http://www.w3.org/2000/svg" xmlns:xlink="http://www.w3.org/1999/xlink" x="0px" y="0px"
	 viewBox="0 0 511.999 511.999" style="enable-background:new 0 0 511.999 511.999;" xml:space="preserve">
<path style="fill:#38C183;" d="M474.433,424.966H113.021c-16.543,0-29.953-13.41-29.953-29.953V219.095
	c0-16.543,13.41-29.953,29.953-29.953h361.411c16.543,0,29.953,13.41,29.953,29.953v175.917
	C504.386,411.556,490.975,424.966,474.433,424.966z"/>
<path style="fill:#49E298;" d="M458.7,267.315c-17.942,0-32.487-14.545-32.487-32.487c0-5.504,1.374-10.686,3.79-15.229H157.451
	c2.416,4.543,3.79,9.725,3.79,15.229c0,17.942-14.545,32.487-32.487,32.487c-5.504,0-10.686-1.374-15.229-3.79v87.058
	c4.543-2.416,9.725-3.79,15.229-3.79c17.942,0,32.487,14.545,32.487,32.487c0,5.504-1.374,10.686-3.79,15.229h272.552
	c-2.416-4.543-3.79-9.725-3.79-15.229c0-17.942,14.545-32.487,32.487-32.487c5.504,0,10.686,1.374,15.229,3.79v-87.058
	C469.386,265.941,464.205,267.315,458.7,267.315z"/>
<g>
	<circle style="fill:#38C183;" cx="293.722" cy="307.052" r="59.39"/>
	<path style="fill:#38C183;" d="M398.978,322.857H37.567c-16.543,0-29.953-13.41-29.953-29.953V116.986
		c0-16.543,13.41-29.953,29.953-29.953h361.411c16.543,0,29.953,13.41,29.953,29.953v175.917
		C428.931,309.446,415.521,322.857,398.978,322.857z"/>
</g>
<path style="fill:#49E298;" d="M383.245,165.206c-17.942,0-32.487-14.545-32.487-32.487c0-5.504,1.374-10.686,3.79-15.229H81.997
	c2.416,4.543,3.79,9.725,3.79,15.229c0,17.942-14.545,32.487-32.487,32.487c-5.504,0-10.686-1.374-15.229-3.79v87.058
	c4.543-2.416,9.725-3.79,15.229-3.79c17.942,0,32.487,14.545,32.487,32.487c0,5.504-1.374,10.686-3.79,15.229h272.552
	c-2.416-4.543-3.79-9.725-3.79-15.229c0-17.942,14.545-32.487,32.487-32.487c5.504,0,10.686,1.374,15.229,3.79v-87.058
	C393.932,163.832,388.75,165.206,383.245,165.206z"/>
<circle style="fill:#38C183;" cx="218.271" cy="204.941" r="59.39"/>
<path d="M452.365,239.45c1.683,2.466,4.677,3.791,7.633,3.272c3.205-0.563,5.749-3.15,6.23-6.376
	c0.479-3.216-1.209-6.459-4.108-7.919c-2.689-1.355-6.046-0.951-8.342,0.995C450.886,231.875,450.232,236.29,452.365,239.45z"/>
<path d="M461.614,371.855c-2.795-1.181-6.152-0.489-8.294,1.645c-2.315,2.306-2.856,5.885-1.416,8.801
	c1.342,2.72,4.338,4.402,7.355,4.169c3.377-0.26,6.241-2.773,6.902-6.098C466.858,376.88,464.946,373.189,461.614,371.855z"/>
<path d="M136.613,374.657c-1.841-2.691-5.204-3.979-8.366-3.11c-3.075,0.845-5.315,3.599-5.559,6.773
	c-0.228,2.962,1.385,5.876,4.003,7.275c2.921,1.56,6.632,1.008,8.968-1.335C138.177,381.736,138.621,377.632,136.613,374.657z"/>
<path d="M436.545,292.905V116.986c0-20.714-16.853-37.567-37.567-37.567H37.567C16.853,79.419,0,96.272,0,116.986v175.917
	c0,20.714,16.853,37.567,37.567,37.567h361.412C419.693,330.472,436.545,313.619,436.545,292.905z M15.228,292.905V116.986
	c0-12.318,10.021-22.339,22.339-22.339h361.412c12.318,0,22.339,10.021,22.339,22.339v175.917c0,12.318-10.021,22.339-22.339,22.339
	H37.567C25.249,315.243,15.228,305.222,15.228,292.905z"/>
<path d="M406.089,248.475v-87.058c0-2.673-1.401-5.15-3.693-6.527c-2.29-1.377-5.137-1.451-7.496-0.196
	c-3.617,1.924-7.537,2.898-11.654,2.898c-13.715,0-24.873-11.158-24.873-24.873c0-4.117,0.975-8.037,2.898-11.654
	c1.255-2.359,1.181-5.205-0.196-7.496s-3.854-3.692-6.527-3.692H81.997c-2.673,0-5.15,1.402-6.527,3.692s-1.451,5.137-0.196,7.496
	c1.924,3.617,2.898,7.538,2.898,11.654c0,13.715-11.158,24.873-24.873,24.873c-4.117,0-8.037-0.975-11.654-2.898
	c-2.359-1.255-5.205-1.181-7.496,0.196c-2.291,1.377-3.693,3.854-3.693,6.527v87.058c0,2.673,1.402,5.15,3.693,6.527
	c2.291,1.377,5.137,1.451,7.496,0.196c3.616-1.923,7.537-2.898,11.654-2.898c13.715,0,24.873,11.158,24.873,24.873
	c0,4.117-0.975,8.037-2.898,11.654c-1.255,2.36-1.181,5.205,0.196,7.496s3.854,3.692,6.527,3.692h272.552
	c2.673,0,5.15-1.402,6.527-3.692c1.377-2.291,1.451-5.137,0.196-7.496c-1.923-3.616-2.897-7.537-2.897-11.654
	c0-13.715,11.158-24.873,24.873-24.873c4.117,0,8.037,0.975,11.654,2.898c2.359,1.255,5.205,1.182,7.496-0.196
	C404.688,253.625,406.089,251.148,406.089,248.475z M390.861,237.803c-2.505-0.484-5.056-0.732-7.615-0.732
	c-22.111,0-40.101,17.99-40.101,40.101c0,2.558,0.248,5.112,0.732,7.615H92.669c0.485-2.505,0.732-5.057,0.732-7.615
	c0-22.111-17.99-40.101-40.101-40.101c-2.558,0-5.112,0.248-7.615,0.732v-65.714c2.504,0.484,5.057,0.732,7.615,0.732
	c22.111,0,40.101-17.99,40.101-40.101c0-2.558-0.248-5.111-0.732-7.615h251.208c-0.485,2.505-0.732,5.056-0.732,7.615
	c0,22.111,17.99,40.101,40.101,40.101c2.559,0,5.111-0.248,7.615-0.732V237.803z"/>
<path d="M263.265,155.291c-3.116-2.825-7.931-2.589-10.755,0.527s-2.588,7.931,0.527,10.755
	c10.812,9.803,17.014,23.789,17.014,38.372c0,28.551-23.227,51.778-51.778,51.778c-28.55,0-51.777-23.227-51.777-51.778
	c0-28.55,23.227-51.777,51.777-51.777c5.729,0,11.354,0.927,16.719,2.756c3.982,1.357,8.307-0.77,9.664-4.75
	c1.356-3.981-0.771-8.306-4.75-9.664c-6.95-2.37-14.228-3.571-21.632-3.571c-36.948,0-67.005,30.058-67.005,67.005
	c0,36.948,30.058,67.006,67.005,67.006s67.006-30.058,67.006-67.006C285.278,186.073,277.255,167.975,263.265,155.291z"/>
<path d="M157.191,417.352h-44.17c-12.318,0-22.339-10.021-22.339-22.339v-52.145c0-4.205-3.409-7.614-7.614-7.614
	s-7.614,3.409-7.614,7.614v52.145c0,20.714,16.853,37.567,37.567,37.567h44.17c4.205,0,7.614-3.409,7.614-7.614
	S161.396,417.352,157.191,417.352z"/>
<path d="M474.433,181.528h-24.181c-4.205,0-7.614,3.409-7.614,7.614s3.409,7.614,7.614,7.614h24.181
	c12.318,0,22.339,10.021,22.339,22.339v175.917c0,12.318-10.021,22.339-22.339,22.339H182.572c-4.205,0-7.614,3.409-7.614,7.614
	s3.409,7.614,7.614,7.614h291.86c20.714,0,37.567-16.853,37.567-37.567V219.095C512,198.381,495.147,181.528,474.433,181.528z"/>
<path d="M458.697,339.183c-22.111,0-40.101,17.99-40.101,40.101c0,2.556,0.249,5.109,0.735,7.614H168.123
	c0.484-2.504,0.732-5.056,0.732-7.614c0-22.111-17.99-40.101-40.101-40.101c-2.639,0-5.271,0.263-7.851,0.779
	c-0.841-3.29-3.825-5.723-7.378-5.723c-4.205,0-7.614,3.409-7.614,7.614v8.731c0,2.672,1.401,5.149,3.691,6.526
	c2.29,1.377,5.135,1.452,7.495,0.198c3.617-1.922,7.539-2.896,11.656-2.896c13.715,0,24.873,11.158,24.873,24.873
	c0,4.116-0.975,8.037-2.897,11.656c-1.254,2.36-1.179,5.204,0.198,7.495c1.377,2.29,3.854,3.691,6.526,3.691h272.555
	c2.672,0,5.149-1.401,6.526-3.691c1.377-2.29,1.452-5.135,0.198-7.495c-1.929-3.63-2.907-7.552-2.907-11.656
	c0-13.715,11.158-24.873,24.873-24.873c4.066,0,8.094,1.001,11.65,2.893c2.36,1.257,5.206,1.184,7.498-0.193
	s3.694-3.854,3.694-6.528v-87.055c0-2.674-1.402-5.151-3.694-6.528c-2.292-1.377-5.138-1.45-7.497-0.194
	c-3.555,1.893-7.585,2.893-11.651,2.893c-2.203,0-4.374-0.286-6.451-0.851c-4.059-1.104-8.242,1.293-9.344,5.351
	c-1.103,4.058,1.293,8.242,5.351,9.344c5.813,1.58,12.081,1.808,18.057,0.653v65.714
	C463.809,339.43,461.257,339.183,458.697,339.183z"/>
<path d="M293.725,374.055c20.61,0,39.767-9.276,52.56-25.448c2.609-3.298,2.05-8.087-1.248-10.695
	c-3.298-2.608-8.086-2.05-10.695,1.248c-9.886,12.499-24.691,19.668-40.617,19.668s-30.731-7.168-40.617-19.668
	c-2.609-3.298-7.398-3.857-10.695-1.248c-3.298,2.609-3.857,7.397-1.248,10.695C253.958,364.78,273.115,374.055,293.725,374.055z"/>
<path d="M357.356,184.641h-48.73c-4.205,0-7.614,3.409-7.614,7.614s3.409,7.614,7.614,7.614h48.73c4.205,0,7.614-3.409,7.614-7.614
	S361.563,184.641,357.356,184.641z"/>
<path d="M339.083,210.021h-30.456c-4.205,0-7.614,3.409-7.614,7.614s3.409,7.614,7.614,7.614h30.456
	c4.205,0,7.614-3.409,7.614-7.614S343.289,210.021,339.083,210.021z"/>
<path d="M127.918,184.641h-48.73c-4.205,0-7.614,3.409-7.614,7.614s3.409,7.614,7.614,7.614h48.73c4.205,0,7.614-3.409,7.614-7.614
	S132.124,184.641,127.918,184.641z"/>
<path d="M127.918,210.021H97.462c-4.205,0-7.614,3.409-7.614,7.614s3.409,7.614,7.614,7.614h30.456c4.205,0,7.614-3.409,7.614-7.614
	S132.124,210.021,127.918,210.021z"/>
<path d="M376.214,136.031c1.262,2.99,4.337,4.927,7.595,4.677c3.183-0.245,5.908-2.484,6.768-5.555
	c1.906-6.793-6.089-12.306-11.807-8.191C375.969,128.978,374.869,132.845,376.214,136.031z"/>
<path d="M390.275,273.856c-1.183-2.802-3.966-4.7-7.026-4.7c-3.18,0-6.1,2.064-7.169,5.053c-1.043,2.914-0.167,6.314,2.194,8.327
	c2.52,2.148,6.233,2.448,9.043,0.669C390.409,281.245,391.672,277.241,390.275,273.856z"/>
<path d="M54.828,140.731c6.935,0,10.213-8.948,4.915-13.423c-2.46-2.077-6.046-2.372-8.813-0.73
	c-2.717,1.612-4.165,4.851-3.58,7.951C48.021,138.087,51.204,140.731,54.828,140.731z"/>
<path d="M54.828,269.156c-7.057,0-10.303,9.262-4.679,13.622c5.518,4.277,13.695-0.864,12.092-7.724
	C61.447,271.653,58.329,269.156,54.828,269.156z"/>
<g>
</g>
<g>
</g>
<g>
</g>
<g>
</g>
<g>
</g>
<g>
</g>
<g>
</g>
<g>
</g>
<g>
</g>
<g>
</g>
<g>
</g>
<g>
</g>
<g>
</g>
<g>
</g>
<g>
</g>
</svg>
