<?xml version="1.0" encoding="iso-8859-1"?>
<!-- Generator: Adobe Illustrator 19.0.0, SVG Export Plug-In . SVG Version: 6.00 Build 0)  -->
<svg version="1.1" id="Capa_1" xmlns="http://www.w3.org/2000/svg" xmlns:xlink="http://www.w3.org/1999/xlink" x="0px" y="0px"
	 viewBox="0 0 512 512" style="enable-background:new 0 0 512 512;" xml:space="preserve">
<path style="fill:#DDDDDD;" d="M447.914,97.177H64.084c-31.676,0-57.354,25.679-57.354,57.354v251.601
	c0,31.675,25.679,57.354,57.354,57.354h383.83c31.676,0,57.354-25.679,57.354-57.354V154.532
	C505.268,122.855,479.59,97.177,447.914,97.177z"/>
<path style="fill:#38C183;" d="M408.385,139.935L218.94,329.379c-8.351,8.351-21.892,8.351-30.243,0l-95.799-95.799
	c-8.351-8.351-8.351-21.892,0-30.243L282.343,13.893c8.351-8.351,21.892-8.351,30.243,0l95.799,95.799
	C416.736,118.043,416.736,131.584,408.385,139.935z"/>
<path style="fill:#49E298;" d="M313.865,68.289c-9.058,9.058-23.744,9.058-32.802,0c-2.779-2.779-4.702-6.088-5.775-9.601
	L137.692,196.284c3.513,1.073,6.823,2.996,9.601,5.775c9.058,9.058,9.058,23.744,0,32.802c-2.779,2.779-6.088,4.702-9.601,5.775
	l43.951,43.951c1.073-3.513,2.996-6.823,5.775-9.601c9.058-9.058,23.744-9.058,32.802,0c2.779,2.779,4.702,6.088,5.775,9.601
	l137.597-137.597c-3.513-1.073-6.823-2.996-9.601-5.775c-9.058-9.058-9.058-23.744,0-32.802c2.779-2.779,6.088-4.702,9.601-5.775
	L319.64,58.687C318.567,62.199,316.644,65.509,313.865,68.289z"/>
<circle style="fill:#38C183;" cx="250.642" cy="171.64" r="42.403"/>
<rect x="67.78" y="158.23" style="fill:#C2C4C2;" width="376.447" height="244.213"/>
<g>
	<polygon style="fill:#EFEFEF;" points="375.417,158.228 131.195,402.441 67.779,402.441 67.779,340.408 249.96,158.228 	"/>
	<polygon style="fill:#EFEFEF;" points="444.226,158.228 444.226,198.61 240.395,402.441 189.993,402.441 434.205,158.228 	"/>
	<polygon style="fill:#EFEFEF;" points="444.226,236.132 444.226,304.992 346.777,402.441 277.918,402.441 	"/>
</g>
<g>
	<path style="fill:#2E3842;" d="M116.687,236.839H64.801c-10.114,0-18.313-8.198-18.313-18.313l0,0
		c0-10.114,8.198-18.313,18.313-18.313h51.886c10.114,0,18.313,8.198,18.313,18.313l0,0C135,228.64,126.801,236.839,116.687,236.839
		z"/>
	<path style="fill:#2E3842;" d="M116.687,360.45H64.801c-10.114,0-18.313-8.198-18.313-18.313l0,0
		c0-10.114,8.198-18.313,18.313-18.313h51.886c10.114,0,18.313,8.198,18.313,18.313l0,0C135,352.251,126.801,360.45,116.687,360.45z
		"/>
</g>
<circle style="fill:#FFD488;" cx="303.538" cy="280.331" r="77.1"/>
<path style="fill:#F4B74A;" d="M303.53,203.229v42.081c-19.341,0-35.02,15.679-35.02,35.02c0,6.379,1.709,12.372,4.69,17.52
	l-36.454,21.04c-6.562-11.344-10.317-24.51-10.317-38.56C226.43,237.75,260.951,203.229,303.53,203.229z"/>
<g>
	<path style="fill:#2E3842;" d="M102.105,505.387H83.629c-6.468,0-11.712-5.244-11.712-11.712v-30.188h41.9v30.188
		C113.817,500.143,108.573,505.387,102.105,505.387z"/>
	<path style="fill:#2E3842;" d="M428.37,505.387h-18.476c-6.468,0-11.712-5.244-11.712-11.712v-30.188h41.9v30.188
		C440.082,500.143,434.838,505.387,428.37,505.387z"/>
</g>
<path d="M150.676,145.564c1.49,1.49,3.442,2.234,5.395,2.234c1.952,0,3.906-0.745,5.396-2.235l79.196-79.206l47.078-47.069
	c2.593-2.596,6.045-4.027,9.72-4.027s7.127,1.431,9.725,4.03l95.8,95.79c5.364,5.364,5.364,14.092,0.006,19.451l-0.234,0.234
	c-2.983,2.977-2.988,7.809-0.011,10.792c2.977,2.983,7.809,2.987,10.791,0.011l0.24-0.24c11.314-11.315,11.314-29.725-0.001-41.04
	L317.981,8.503C312.505,3.02,305.217,0,297.462,0s-15.042,3.02-20.514,8.5L246.2,39.237l-95.526,95.536
	C147.695,137.753,147.695,142.585,150.676,145.564z"/>
<path d="M365.831,109.932c2.561-0.784,4.521-2.854,5.168-5.451c0.648-2.599-0.115-5.347-2.008-7.24l-43.953-43.953
	c-1.893-1.893-4.642-2.656-7.24-2.009c-2.6,0.647-4.668,2.61-5.451,5.171c-0.752,2.454-2.056,4.621-3.881,6.446
	c-2.938,2.941-6.845,4.561-11.001,4.561c-4.156,0-8.064-1.62-11.004-4.563c-1.822-1.823-3.128-3.99-3.879-6.443
	c-0.784-2.561-2.854-4.522-5.451-5.171c-2.602-0.648-5.347,0.116-7.24,2.009l-81.465,81.486c-2.98,2.98-2.979,7.812,0.001,10.792
	c2.981,2.979,7.813,2.978,10.791-0.001l74.279-74.297c0.68,0.841,1.404,1.648,2.17,2.414c5.822,5.828,13.563,9.037,21.8,9.037
	c8.237,0,15.979-3.209,21.796-9.034c0.768-0.767,1.494-1.575,2.175-2.418l29.577,29.578c-0.842,0.681-1.648,1.406-2.411,2.173
	c-11.53,11.516-12.091,30.063-1.277,42.223c1.508,1.696,3.602,2.56,5.705,2.56c1.803,0,3.615-0.636,5.068-1.929
	c3.149-2.8,3.432-7.624,0.631-10.773c-5.447-6.126-5.158-15.475,0.671-21.298C361.203,111.988,363.367,110.687,365.831,109.932z"/>
<path d="M217.103,134.512c-3.125,2.828-3.365,7.653-0.536,10.778c2.829,3.127,7.654,3.366,10.779,0.536
	c13.276-12.019,33.307-12.018,46.594,0.002c1.461,1.321,3.29,1.972,5.117,1.972c2.081,0,4.154-0.846,5.66-2.511
	c2.827-3.126,2.586-7.951-0.539-10.779C265.052,117.208,236.217,117.209,217.103,134.512z"/>
<path d="M505.268,215.967c-3.653,0-6.613,2.961-6.613,6.613v183.553c0,27.979-22.762,50.741-50.741,50.741h-7.832h-41.901H113.816
	H71.917h-7.832c-27.979,0-50.741-22.763-50.741-50.741V154.532c0-27.979,22.762-50.741,50.741-50.741h105.437
	c3.653,0,6.613-2.961,6.613-6.613c0-3.653-2.961-6.613-6.613-6.613H64.085c-35.272,0-63.968,28.695-63.968,63.968v251.601
	c0,35.272,28.695,63.968,63.968,63.968h1.219v23.575c0,10.105,8.221,18.325,18.325,18.325h18.476
	c10.104,0,18.325-8.221,18.325-18.325V470.1h271.139v23.575c0,10.105,8.22,18.325,18.325,18.325h18.477
	c10.104,0,18.325-8.221,18.325-18.325V470.1h1.219c35.272,0,63.968-28.695,63.968-63.968V222.58
	C511.881,218.928,508.921,215.967,505.268,215.967z M107.203,493.675c0,2.811-2.287,5.098-5.098,5.098H83.628
	c-2.811,0-5.098-2.287-5.098-5.098V470.1h28.673V493.675z M433.469,493.675c0,2.811-2.287,5.098-5.098,5.098h-18.477
	c-2.811,0-5.098-2.287-5.098-5.098V470.1h28.674L433.469,493.675L433.469,493.675z"/>
<path d="M447.914,90.564h-24.037c-3.653,0-6.613,2.961-6.613,6.613c0,3.653,2.961,6.613,6.613,6.613h24.037
	c27.979,0,50.741,22.763,50.741,50.741v42.611c0,3.653,2.961,6.613,6.613,6.613s6.613-2.961,6.613-6.613v-42.611
	C511.881,119.26,483.186,90.564,447.914,90.564z"/>
<path d="M67.778,379.272c-3.653,0-6.613,2.961-6.613,6.613v16.553c0,3.653,2.961,6.613,6.613,6.613h38.662
	c3.653,0,6.613-2.961,6.613-6.613s-2.961-6.613-6.613-6.613H74.392v-9.939C74.392,382.234,71.431,379.272,67.778,379.272z"/>
<path d="M131.877,409.051h312.349c3.653,0,6.613-2.961,6.613-6.613V158.225c0-3.653-2.961-6.613-6.613-6.613H67.778
	c-3.653,0-6.613,2.961-6.613,6.613v16.552c0,3.653,2.961,6.613,6.613,6.613s6.613-2.961,6.613-6.613v-9.939h363.221v230.986H131.877
	c-3.653,0-6.613,2.961-6.613,6.613S128.226,409.051,131.877,409.051z"/>
<path d="M61.165,262.278v36.105c0,3.653,2.961,6.613,6.613,6.613c3.653,0,6.613-2.961,6.613-6.613v-36.105
	c0-3.653-2.961-6.613-6.613-6.613C64.126,255.665,61.165,258.625,61.165,262.278z"/>
<path d="M141.614,218.527c0-13.744-11.182-24.926-24.927-24.926H64.801c-13.744,0-24.926,11.182-24.926,24.926
	c0,13.744,11.182,24.926,24.926,24.926h51.886C130.431,243.453,141.614,232.27,141.614,218.527z M53.102,218.527
	c0-6.452,5.248-11.699,11.699-11.699h51.886c6.451,0,11.7,5.248,11.7,11.699c0,6.451-5.249,11.699-11.7,11.699H64.801
	C58.35,230.226,53.102,224.978,53.102,218.527z"/>
<path d="M141.614,342.138c0-13.744-11.182-24.927-24.927-24.927H64.801c-13.744,0-24.926,11.181-24.926,24.927
	c0,13.744,11.182,24.926,24.926,24.926h51.886C130.431,367.064,141.614,355.882,141.614,342.138z M53.102,342.138
	c0-6.451,5.248-11.7,11.699-11.7h51.886c6.451,0,11.7,5.249,11.7,11.7c0,6.452-5.249,11.699-11.7,11.699H64.801
	C58.35,353.837,53.102,348.589,53.102,342.138z"/>
<path d="M387.253,280.332c0-46.163-37.556-83.719-83.719-83.719s-83.719,37.556-83.719,83.719s37.556,83.719,83.719,83.719
	S387.253,326.495,387.253,280.332z M275.12,280.332c0-15.666,12.746-28.413,28.414-28.413c15.667,0,28.413,12.746,28.413,28.413
	s-12.745,28.413-28.413,28.413C287.867,308.745,275.12,295.999,275.12,280.332z M310.147,350.504V321.44
	c10.297-1.65,19.343-7.087,25.663-14.837l25.158,14.524C349.383,337.389,331.087,348.547,310.147,350.504z M367.6,309.684
	l-25.164-14.528c1.762-4.609,2.737-9.603,2.737-14.824s-0.975-10.216-2.737-14.824l25.164-14.528
	c4.113,8.943,6.426,18.88,6.426,29.352S371.714,300.741,367.6,309.684z M360.968,239.537L335.81,254.06
	c-6.319-7.749-15.365-13.186-25.663-14.837v-29.064C331.087,212.118,349.383,223.274,360.968,239.537z M296.921,210.159v29.064
	c-10.297,1.651-19.344,7.088-25.664,14.837L246.1,239.537C257.686,223.274,275.981,212.118,296.921,210.159z M239.468,250.981
	l25.163,14.528c-1.762,4.609-2.737,9.603-2.737,14.824s0.975,10.216,2.737,14.824l-25.163,14.528
	c-4.113-8.943-6.426-18.88-6.426-29.352S235.354,259.924,239.468,250.981z M246.1,321.128l25.157-14.524
	c6.319,7.749,15.366,13.186,25.664,14.837v29.064C275.981,348.547,257.686,337.389,246.1,321.128z"/>
<g>
</g>
<g>
</g>
<g>
</g>
<g>
</g>
<g>
</g>
<g>
</g>
<g>
</g>
<g>
</g>
<g>
</g>
<g>
</g>
<g>
</g>
<g>
</g>
<g>
</g>
<g>
</g>
<g>
</g>
</svg>
