<?xml version="1.0" encoding="iso-8859-1"?>
<!-- Generator: Adobe Illustrator 19.0.0, SVG Export Plug-In . SVG Version: 6.00 Build 0)  -->
<svg version="1.1" id="Capa_1" xmlns="http://www.w3.org/2000/svg" xmlns:xlink="http://www.w3.org/1999/xlink" x="0px" y="0px"
	 viewBox="0 0 512 512" style="enable-background:new 0 0 512 512;" xml:space="preserve">
<circle style="fill:#467EB7;" cx="220.62" cy="290.425" r="214.018"/>
<path style="fill:#3570A0;" d="M220.618,504.442C102.426,504.442,6.6,408.625,6.6,290.424S102.426,76.406,220.618,76.406
	c-67.003,0-121.32,95.817-121.32,214.018C99.298,408.626,153.615,504.442,220.618,504.442z"/>
<path style="fill:#FFD488;" d="M504.388,108.228c0,55.048-44.618,99.666-99.666,99.666c-4.002,0-7.942-0.234-11.812-0.701
	c-12.584-1.483-24.457-5.312-35.152-11.04c-9.791-5.241-18.607-12.066-26.082-20.14c-14.849-15.976-24.497-36.828-26.295-59.893
	c-0.213-2.6-0.315-5.231-0.315-7.892c0-55.038,44.618-99.656,99.656-99.656c2.661,0,5.292,0.102,7.892,0.315
	c23.065,1.798,43.917,11.446,59.893,26.295c8.074,7.475,14.9,16.291,20.14,26.082c5.728,10.695,9.557,22.568,11.04,35.152
	C504.154,100.286,504.388,104.237,504.388,108.228z"/>
<g>
	<path style="fill:#F9C662;" d="M472.506,35.183l-140.83,140.83c-14.849-15.976-24.497-36.828-26.295-59.893L412.613,8.887
		C435.679,10.685,456.53,20.334,472.506,35.183z"/>
	<path style="fill:#F9C662;" d="M503.687,96.416L392.91,207.193c-12.584-1.483-24.457-5.312-35.152-11.04L492.647,61.265
		C498.375,71.959,502.204,83.832,503.687,96.416z"/>
</g>
<path d="M423.145,220.736c-3.483,1.079-5.432,4.777-4.353,8.259c5.49,17.729,8.55,36.143,9.135,54.828h-40.463
	c-0.437-19.663-2.81-39.057-7.104-57.74c-0.817-3.554-4.369-5.771-7.913-4.955c-3.554,0.818-5.772,4.359-4.955,7.913
	c4.073,17.717,6.336,36.116,6.769,54.782h-84.972c-0.283-32.719-2.675-64.219-6.95-92.659c7.172-2.088,14.252-4.538,21.221-7.367
	c3.378-1.371,5.005-5.221,3.633-8.6c-1.372-3.378-5.226-5.005-8.6-3.634c-6.049,2.455-12.187,4.61-18.4,6.473
	c-2.593-14.642-5.71-28.334-9.323-40.786c-6.862-23.649-15.039-41.315-24.24-52.624c13.816,1.728,27.39,4.831,40.577,9.299
	c3.451,1.171,7.201-0.68,8.371-4.135c1.17-3.453-0.682-7.201-4.134-8.371c-22.753-7.708-46.581-11.616-70.824-11.616
	c-58.929,0-114.332,22.949-156.003,64.619C22.949,176.092,0,231.495,0,290.425c0,20.051,2.69,39.924,7.998,59.066
	c0.81,2.923,3.465,4.84,6.358,4.84c0.584,0,1.177-0.078,1.767-0.242c3.514-0.974,5.572-4.612,4.598-8.125
	c-4.406-15.891-6.89-32.323-7.411-48.937h40.457c1.035,46.899,13.079,91.328,34.498,128.005c-4.979,3.744-9.818,7.71-14.504,11.897
	c-19.341-19.358-34.695-42.371-45.172-67.959c-1.381-3.374-5.239-4.99-8.612-3.608c-3.374,1.381-4.99,5.237-3.609,8.611
	c16.399,40.049,44.015,74.176,79.865,98.69c36.719,25.11,79.732,38.383,124.386,38.383c58.929,0,114.332-22.949,156.003-64.619
	c41.669-41.669,64.618-97.072,64.618-156.002c0-22.273-3.31-44.256-9.838-65.336C430.325,221.606,426.631,219.658,423.145,220.736z
	 M220.621,497.842c-13.001,0-27.046-21.653-37.569-57.923c-3.575-12.322-6.652-25.913-9.199-40.48
	c15.188-3.497,30.856-5.308,46.765-5.308c15.91,0,31.581,1.812,46.771,5.31c-2.547,14.566-5.624,28.158-9.199,40.479
	C247.667,476.189,233.621,497.842,220.621,497.842z M170.371,443.598c6.535,22.525,14.265,39.614,22.934,50.962
	c-34.389-8.355-64.835-32.199-87.23-65.96c17.009-11.299,35.517-19.965,54.975-25.78
	C163.643,417.459,166.759,431.15,170.371,443.598z M220.618,380.928c-16.615,0-32.984,1.858-48.867,5.446
	c-4.049-27.42-6.315-57.776-6.593-89.347h110.925c-0.277,31.572-2.544,61.928-6.594,89.349
	C253.606,382.786,237.235,380.928,220.618,380.928z M66.976,283.823c1.054-45.231,12.891-86.853,32.153-120.336
	c18.478,12.221,38.608,21.539,59.774,27.686c-4.274,28.438-6.665,59.935-6.949,92.652H66.976V283.823z M161.051,178.028
	c-19.457-5.817-37.967-14.48-54.976-25.777c22.395-33.762,52.842-57.608,87.231-65.961c-8.67,11.348-16.399,28.437-22.934,50.962
	C166.76,149.7,163.644,163.389,161.051,178.028z M276.083,283.823H165.158c0.277-31.572,2.544-61.929,6.594-89.35
	c15.882,3.588,32.252,5.446,48.866,5.446c16.604,0,32.944-1.829,48.874-5.435C273.54,221.902,275.806,252.256,276.083,283.823z
	 M258.19,140.93c3.576,12.324,6.653,25.917,9.2,40.487c-15.236,3.512-30.874,5.298-46.773,5.298
	c-15.907,0-31.576-1.811-46.764-5.308c2.547-14.566,5.624-28.157,9.198-40.478c10.523-36.269,24.568-57.923,37.569-57.923
	C233.621,83.007,247.667,104.661,258.19,140.93z M101.965,135.133c-2.302,3.073-4.519,6.23-6.667,9.449
	c-4.028-3.062-7.958-6.282-11.781-9.655c14.797-13.062,31.465-24.048,49.546-32.503
	C121.884,111.546,111.444,122.479,101.965,135.133z M73.85,144.006c4.658,4.156,9.467,8.097,14.414,11.816
	c-21.418,36.675-33.462,81.104-34.497,128.002H13.319C15.032,229.345,37.844,180.097,73.85,144.006z M66.976,297.027h84.979
	c0.283,32.716,2.674,64.211,6.948,92.649c-21.166,6.148-41.296,15.466-59.773,27.69C79.867,383.881,68.03,342.259,66.976,297.027z
	 M103.688,461.763c-7.108-4.86-13.866-10.126-20.258-15.757c3.851-3.402,7.81-6.648,11.87-9.735
	c2.148,3.218,4.364,6.373,6.666,9.447c9.548,12.745,20.069,23.745,31.34,32.907C123.048,473.856,113.145,468.23,103.688,461.763z
	 M335.43,440.004c-2.869-2.251-7.02-1.746-9.269,1.121c-21.948,27.989-49.053,46.34-78.213,53.421
	c8.665-11.348,16.391-28.432,22.923-50.947c3.612-12.449,6.728-26.139,9.321-40.776c28.445,8.504,54.862,23.104,77.527,43.107
	c-14.813,13.075-31.501,24.07-49.605,32.527c10.148-8.263,19.683-18.021,28.438-29.184
	C338.801,446.404,338.299,442.254,335.43,440.004z M367.385,436.85c-24.75-22.092-53.77-38.088-85.047-47.173
	c4.274-28.438,6.665-59.935,6.949-92.651h84.98c-0.842,35.801-8.51,70.645-22.319,101.163c-1.502,3.322-0.028,7.233,3.293,8.737
	c0.884,0.4,1.807,0.589,2.718,0.589c2.514,0,4.916-1.443,6.019-3.882c14.574-32.209,22.646-68.936,23.493-106.606h40.45
	C426.209,351.508,403.394,400.759,367.385,436.85z"/>
<path d="M386.341,149.173c-4.446-3.704-6.893-8.509-6.893-13.531c0-4.207-3.41-7.617-7.617-7.617s-7.617,3.411-7.617,7.617
	c0,17.063,14.186,31.306,32.893,34.398v3.976c0,4.207,3.41,7.617,7.617,7.617s7.617-3.411,7.617-7.617v-3.976
	c18.707-3.092,32.893-17.335,32.893-34.398s-14.186-31.306-32.893-34.398v-39.3c4.049,1.007,7.735,2.822,10.765,5.346
	c4.446,3.704,6.893,8.509,6.893,13.531c0,4.207,3.41,7.617,7.617,7.617c4.208,0,7.617-3.411,7.617-7.617
	c0-17.063-14.186-31.306-32.893-34.398v-3.976c0-4.207-3.41-7.617-7.617-7.617s-7.617,3.411-7.617,7.617v3.976
	c-18.707,3.092-32.893,17.335-32.893,34.398s14.186,31.306,32.893,34.398v39.3C393.055,153.513,389.369,151.698,386.341,149.173z
	 M423.104,122.113c4.445,3.704,6.893,8.509,6.893,13.531c0,5.021-2.448,9.826-6.893,13.531c-3.029,2.524-6.715,4.34-10.765,5.346
	v-37.754C416.389,117.773,420.075,119.588,423.104,122.113z M386.341,94.352c-4.446-3.704-6.893-8.509-6.893-13.531
	c0-5.021,2.448-9.826,6.893-13.531c3.029-2.524,6.715-4.34,10.765-5.346v37.754C393.055,98.692,389.369,96.876,386.341,94.352z"/>
<path d="M404.722,215.512c59.154,0,107.278-48.125,107.278-107.278S463.876,0.954,404.722,0.954S297.443,49.079,297.443,108.232
	S345.568,215.512,404.722,215.512z M404.722,16.189c50.753,0,92.043,41.29,92.043,92.043s-41.29,92.043-92.043,92.043
	c-50.754,0-92.044-41.29-92.044-92.043S353.969,16.189,404.722,16.189z"/>
<path d="M494.23,275.876l-8.833,8.833c-0.532-25.104-4.568-49.844-12.025-73.626c-1.091-3.48-4.794-5.415-8.275-4.324
	c-3.479,1.091-5.414,4.796-4.324,8.275c7.044,22.458,10.871,45.822,11.412,69.536l-8.695-8.694c-2.577-2.578-6.757-2.578-9.336,0
	c-2.578,2.579-2.578,6.758,0.001,9.336l20.038,20.038c1.238,1.238,2.917,1.934,4.668,1.934s3.43-0.696,4.669-1.934l20.038-20.038
	c2.578-2.579,2.578-6.758-0.001-9.336C500.99,273.298,496.809,273.298,494.23,275.876z"/>
<path d="M225.833,56.89c1.29,1.29,2.979,1.934,4.669,1.934c1.689,0,3.379-0.645,4.668-1.934c2.579-2.578,2.579-6.758,0.001-9.336
	l-8.694-8.694c24.541,0.561,48.688,4.637,71.862,12.154c0.677,0.219,1.364,0.324,2.038,0.324c2.784,0,5.373-1.775,6.279-4.567
	c1.124-3.468-0.775-7.192-4.242-8.316c-24.535-7.959-50.1-12.258-76.076-12.808l8.833-8.833c2.578-2.579,2.578-6.758-0.001-9.336
	c-2.577-2.578-6.757-2.578-9.336,0l-20.038,20.038c-2.578,2.579-2.578,6.758,0,9.336L225.833,56.89z"/>
<g>
</g>
<g>
</g>
<g>
</g>
<g>
</g>
<g>
</g>
<g>
</g>
<g>
</g>
<g>
</g>
<g>
</g>
<g>
</g>
<g>
</g>
<g>
</g>
<g>
</g>
<g>
</g>
<g>
</g>
</svg>
