<?xml version="1.0" encoding="iso-8859-1"?>
<!-- Generator: Adobe Illustrator 19.0.0, SVG Export Plug-In . SVG Version: 6.00 Build 0)  -->
<svg version="1.1" id="Capa_1" xmlns="http://www.w3.org/2000/svg" xmlns:xlink="http://www.w3.org/1999/xlink" x="0px" y="0px"
	 viewBox="0 0 512 512" style="enable-background:new 0 0 512 512;" xml:space="preserve">
<path style="fill:#FFD488;" d="M418.511,7.603H93.487c-22.366,0-40.504,18.138-40.504,40.504v415.785
	c0,22.366,18.138,40.504,40.504,40.504h325.024c22.376,0,40.504-18.138,40.504-40.504V48.107
	C459.015,25.741,440.887,7.603,418.511,7.603z M428.599,463.891c0,5.566-4.522,10.088-10.088,10.088H93.487
	c-5.556,0-10.088-4.522-10.088-10.088V48.107c0-5.566,4.532-10.088,10.088-10.088h325.024c5.566,0,10.088,4.522,10.088,10.088
	V463.891z"/>
<g>
	<path style="fill:#38C183;" d="M134.917,148.428L134.917,148.428c-8.576,0-15.528-6.952-15.528-15.528v-29.815
		c0-8.576,6.952-15.528,15.528-15.528l0,0c8.576,0,15.528,6.952,15.528,15.528V132.9
		C150.445,141.476,143.493,148.428,134.917,148.428z"/>
	<path style="fill:#38C183;" d="M191.23,148.428L191.23,148.428c-8.576,0-15.528-6.952-15.528-15.528v-29.815
		c0-8.576,6.952-15.528,15.528-15.528l0,0c8.576,0,15.528,6.952,15.528,15.528V132.9
		C206.759,141.476,199.807,148.428,191.23,148.428z"/>
	<path style="fill:#38C183;" d="M247.543,148.428L247.543,148.428c-8.576,0-15.528-6.952-15.528-15.528v-29.815
		c0-8.576,6.952-15.528,15.528-15.528l0,0c8.576,0,15.528,6.952,15.528,15.528V132.9
		C263.072,141.476,256.12,148.428,247.543,148.428z"/>
	<path style="fill:#38C183;" d="M373.906,148.428L373.906,148.428c-8.576,0-15.528-6.952-15.528-15.528v-29.815
		c0-8.576,6.952-15.528,15.528-15.528l0,0c8.576,0,15.528,6.952,15.528,15.528V132.9
		C389.434,141.476,382.482,148.428,373.906,148.428z"/>
</g>
<g>
	<path style="fill:#C17F49;" d="M377.082,179.921L377.082,179.921c8.576,0,15.528,6.952,15.528,15.528v29.815
		c0,8.576-6.952,15.528-15.528,15.528l0,0c-8.576,0-15.528-6.952-15.528-15.528v-29.815
		C361.554,186.873,368.506,179.921,377.082,179.921z"/>
	<path style="fill:#C17F49;" d="M320.77,179.921L320.77,179.921c8.576,0,15.528,6.952,15.528,15.528v29.815
		c0,8.576-6.952,15.528-15.528,15.528l0,0c-8.576,0-15.528-6.952-15.528-15.528v-29.815
		C305.241,186.873,312.193,179.921,320.77,179.921z"/>
	<path style="fill:#C17F49;" d="M264.456,179.921L264.456,179.921c8.576,0,15.528,6.952,15.528,15.528v29.815
		c0,8.576-6.952,15.528-15.528,15.528l0,0c-8.576,0-15.528-6.952-15.528-15.528v-29.815
		C248.927,186.873,255.879,179.921,264.456,179.921z"/>
	<path style="fill:#C17F49;" d="M138.093,179.921L138.093,179.921c8.576,0,15.528,6.952,15.528,15.528v29.815
		c0,8.576-6.952,15.528-15.528,15.528l0,0c-8.576,0-15.528-6.952-15.528-15.528v-29.815
		C122.565,186.873,129.517,179.921,138.093,179.921z"/>
</g>
<g>
	<path style="fill:#E05F5F;" d="M134.917,333.156L134.917,333.156c-8.576,0-15.528-6.952-15.528-15.528v-29.815
		c0-8.576,6.952-15.528,15.528-15.528l0,0c8.576,0,15.528,6.952,15.528,15.528v29.815
		C150.445,326.204,143.493,333.156,134.917,333.156z"/>
	<path style="fill:#E05F5F;" d="M191.23,333.156L191.23,333.156c-8.576,0-15.528-6.952-15.528-15.528v-29.815
		c0-8.576,6.952-15.528,15.528-15.528l0,0c8.576,0,15.528,6.952,15.528,15.528v29.815
		C206.759,326.204,199.807,333.156,191.23,333.156z"/>
	<path style="fill:#E05F5F;" d="M318.787,333.156L318.787,333.156c-8.576,0-15.528-6.952-15.528-15.528v-29.815
		c0-8.576,6.952-15.528,15.528-15.528l0,0c8.576,0,15.528,6.952,15.528,15.528v29.815
		C334.317,326.204,327.364,333.156,318.787,333.156z"/>
	<path style="fill:#E05F5F;" d="M373.906,333.156L373.906,333.156c-8.576,0-15.528-6.952-15.528-15.528v-29.815
		c0-8.576,6.952-15.528,15.528-15.528l0,0c8.576,0,15.528,6.952,15.528,15.528v29.815
		C389.434,326.204,382.482,333.156,373.906,333.156z"/>
</g>
<g>
	<path style="fill:#525D66;" d="M134.917,425.52L134.917,425.52c-8.576,0-15.528-6.952-15.528-15.528v-29.815
		c0-8.576,6.952-15.528,15.528-15.528l0,0c8.576,0,15.528,6.952,15.528,15.528v29.815
		C150.445,418.567,143.493,425.52,134.917,425.52z"/>
	<path style="fill:#525D66;" d="M191.23,425.52L191.23,425.52c-8.576,0-15.528-6.952-15.528-15.528v-29.815
		c0-8.576,6.952-15.528,15.528-15.528l0,0c8.576,0,15.528,6.952,15.528,15.528v29.815C206.759,418.567,199.807,425.52,191.23,425.52
		z"/>
	<path style="fill:#525D66;" d="M247.543,425.52L247.543,425.52c-8.576,0-15.528-6.952-15.528-15.528v-29.815
		c0-8.576,6.952-15.528,15.528-15.528l0,0c8.576,0,15.528,6.952,15.528,15.528v29.815C263.072,418.567,256.12,425.52,247.543,425.52
		z"/>
	<path style="fill:#525D66;" d="M305.236,425.52L305.236,425.52c-8.576,0-15.528-6.952-15.528-15.528v-29.815
		c0-8.576,6.952-15.528,15.528-15.528l0,0c8.576,0,15.528,6.952,15.528,15.528v29.815
		C320.764,418.567,313.812,425.52,305.236,425.52z"/>
</g>
<path d="M459.016,119.514c4.2,0,7.604-3.405,7.604-7.604V48.108C466.62,21.581,445.039,0,418.512,0H93.487
	C66.961,0,45.38,21.581,45.38,48.108v415.786C45.38,490.419,66.961,512,93.487,512h325.025c26.527,0,48.108-21.581,48.108-48.107
	V137.259c0-4.199-3.404-7.604-7.604-7.604s-7.604,3.405-7.604,7.604v326.635c0,18.141-14.759,32.899-32.9,32.899H93.487
	c-18.141,0-32.899-14.759-32.899-32.899V48.108c0-18.141,14.759-32.9,32.899-32.9h325.025c18.142,0,32.9,14.759,32.9,32.9v63.802
	C451.412,116.109,454.815,119.514,459.016,119.514z"/>
<path d="M144.227,481.584h274.286c9.754,0,17.691-7.936,17.691-17.692V48.108c0-9.755-7.936-17.692-17.691-17.692H93.488
	c-9.755,0-17.692,7.937-17.692,17.692v415.785c0,9.755,7.937,17.692,17.692,17.692h25.391c4.199,0,7.604-3.405,7.604-7.604
	c0-4.199-3.405-7.604-7.604-7.604H93.488c-1.37,0-2.484-1.114-2.484-2.484V48.108c0-1.37,1.114-2.484,2.484-2.484h325.025
	c1.37,0,2.483,1.114,2.483,2.484v415.785c0,1.37-1.114,2.484-2.483,2.484H144.227c-4.199,0-7.604,3.405-7.604,7.604
	C136.623,478.18,140.027,481.584,144.227,481.584z"/>
<path d="M134.917,79.953c-12.755,0-23.132,10.377-23.132,23.132v7.303h-8.106c-4.199,0-7.604,3.405-7.604,7.604
	c0,4.199,3.405,7.604,7.604,7.604h8.106v7.305c0,12.755,10.377,23.132,23.132,23.132s23.132-10.377,23.132-23.132v-7.305h10.048
	v7.305c0,12.755,10.377,23.132,23.132,23.132s23.132-10.377,23.132-23.132v-7.305h10.048v7.305
	c0,12.755,10.377,23.132,23.132,23.132s23.132-10.377,23.132-23.132v-7.305h80.098v7.305c0,12.755,10.377,23.132,23.132,23.132
	c12.754,0,23.131-10.377,23.131-23.132v-7.305h11.282c4.2,0,7.604-3.405,7.604-7.604c0-4.199-3.404-7.604-7.604-7.604h-11.28v-7.303
	c0-12.755-10.377-23.132-23.132-23.132c-12.754,0-23.131,10.377-23.131,23.132v7.303h-80.098v-7.303
	c0-12.755-10.377-23.132-23.132-23.132s-23.132,10.377-23.132,23.132v7.303h-10.048v-7.303c0-12.755-10.377-23.132-23.132-23.132
	s-23.132,10.377-23.132,23.132v7.303h-10.048v-7.303C158.049,90.331,147.672,79.953,134.917,79.953z M373.907,95.161
	c4.37,0,7.923,3.555,7.923,7.924V132.9c0,4.37-3.555,7.924-7.923,7.924h-0.001c-4.37,0-7.923-3.555-7.923-7.924v-29.815
	C365.982,98.717,369.537,95.161,373.907,95.161z M239.619,103.085c0-4.37,3.555-7.924,7.924-7.924c4.37,0,7.924,3.555,7.924,7.924
	V132.9c0,4.37-3.555,7.924-7.924,7.924c-4.37,0-7.924-3.555-7.924-7.924V103.085z M183.306,103.085c0-4.37,3.555-7.924,7.924-7.924
	c4.37,0,7.924,3.555,7.924,7.924V132.9c0,4.37-3.555,7.924-7.924,7.924c-4.37,0-7.924-3.555-7.924-7.924V103.085z M142.841,132.9
	c0,4.37-3.555,7.924-7.924,7.924s-7.924-3.555-7.924-7.924v-29.815c0-4.37,3.555-7.924,7.924-7.924s7.924,3.555,7.924,7.924V132.9z"
	/>
<path d="M103.678,217.961h11.282v7.303c0,12.755,10.377,23.132,23.132,23.132s23.132-10.377,23.132-23.132v-7.303h80.098v7.303
	c0,12.755,10.377,23.132,23.132,23.132c12.754,0,23.131-10.377,23.131-23.132v-7.303h10.048v7.303
	c0,12.755,10.377,23.132,23.132,23.132c12.755,0,23.132-10.377,23.132-23.132v-7.303h10.048v7.303
	c0,12.755,10.377,23.132,23.132,23.132c12.754,0,23.131-10.377,23.131-23.132v-7.303h8.106c4.2,0,7.604-3.405,7.604-7.604
	c0-4.199-3.404-7.604-7.604-7.604h-8.106v-7.304c0-12.755-10.377-23.132-23.131-23.132c-12.755,0-23.132,10.377-23.132,23.132v7.304
	h-10.046v-7.304c0-12.755-10.377-23.132-23.132-23.132c-12.755,0-23.132,10.377-23.132,23.132v7.304h-10.048v-7.304
	c0-12.755-10.377-23.132-23.131-23.132c-12.755,0-23.132,10.377-23.132,23.132v7.304h-80.098v-7.304
	c0-12.755-10.377-23.132-23.132-23.132s-23.132,10.377-23.132,23.132v7.304H103.68c-4.199,0-7.604,3.405-7.604,7.604
	C96.077,214.556,99.479,217.961,103.678,217.961z M369.158,195.449c0-4.37,3.556-7.924,7.924-7.924s7.923,3.555,7.923,7.924v14.849
	c0,0.02-0.003,0.04-0.003,0.059c0,0.019,0.003,0.04,0.003,0.059v14.848c0,4.37-3.555,7.924-7.923,7.924s-7.924-3.555-7.924-7.924
	V195.449z M320.77,187.525c4.37,0,7.924,3.555,7.924,7.924v29.815c0,4.37-3.556,7.924-7.924,7.924s-7.924-3.555-7.924-7.924v-29.815
	C312.844,191.079,316.4,187.525,320.77,187.525z M256.531,195.449c0-4.37,3.556-7.924,7.924-7.924s7.923,3.555,7.923,7.924v29.815
	c0,4.37-3.555,7.924-7.923,7.924s-7.924-3.555-7.924-7.924V195.449z M138.093,187.525c4.37,0,7.924,3.555,7.924,7.924v29.815
	c0,4.37-3.555,7.924-7.924,7.924s-7.924-3.555-7.924-7.924v-29.815C130.169,191.079,133.723,187.525,138.093,187.525z"/>
<path d="M103.678,310.324h8.106v7.304c0,12.755,10.377,23.132,23.132,23.132s23.132-10.377,23.132-23.132v-7.304h10.048v7.304
	c0,12.755,10.377,23.132,23.132,23.132s23.132-10.377,23.132-23.132v-7.304h81.292v7.304c0,12.755,10.377,23.132,23.132,23.132
	c12.755,0,23.132-10.377,23.132-23.132v-7.304h8.853v7.304c0,12.755,10.377,23.132,23.132,23.132
	c12.754,0,23.131-10.377,23.131-23.132v-7.304h11.282c4.2,0,7.604-3.405,7.604-7.604c0-4.199-3.404-7.604-7.604-7.604h-11.279
	v-7.303c0-12.755-10.377-23.132-23.132-23.132c-12.754,0-23.131,10.377-23.131,23.132v7.303h-8.853v-7.303
	c0-12.755-10.377-23.132-23.132-23.132c-12.755,0-23.132,10.377-23.132,23.132v7.303h-81.292v-7.303
	c0-12.755-10.377-23.132-23.132-23.132S168.1,275.058,168.1,287.813v7.303h-10.048v-7.303c0-12.755-10.377-23.132-23.132-23.132
	c-12.755,0-23.132,10.377-23.132,23.132v7.303h-8.106c-4.199,0-7.604,3.405-7.604,7.604
	C96.078,306.919,99.479,310.324,103.678,310.324z M373.907,279.889c4.37,0,7.923,3.555,7.923,7.924v29.815
	c0,4.37-3.555,7.924-7.923,7.924h-0.001c-4.37,0-7.923-3.555-7.923-7.924v-29.815C365.982,283.443,369.537,279.889,373.907,279.889z
	 M310.863,287.813c0-4.37,3.556-7.924,7.924-7.924s7.924,3.555,7.924,7.924v29.815c0,4.37-3.556,7.924-7.924,7.924
	s-7.924-3.555-7.924-7.924V287.813z M183.306,287.813c0-4.37,3.555-7.924,7.924-7.924c4.37,0,7.924,3.555,7.924,7.924v29.815
	c0,4.37-3.555,7.924-7.924,7.924c-4.37,0-7.924-3.555-7.924-7.924V287.813z M134.917,279.889c4.37,0,7.924,3.555,7.924,7.924v29.815
	c0,4.37-3.555,7.924-7.924,7.924s-7.924-3.555-7.924-7.924v-14.839c0-0.023,0.003-0.046,0.003-0.069
	c0-0.023-0.003-0.046-0.003-0.069v-14.838C126.992,283.443,130.547,279.889,134.917,279.889z"/>
<path d="M134.917,433.124c12.755,0,23.132-10.377,23.132-23.132v-7.304h10.048v7.304c0,12.755,10.377,23.132,23.132,23.132
	s23.132-10.377,23.132-23.132v-7.304h10.048v7.304c0,12.755,10.377,23.132,23.132,23.132s23.132-10.377,23.132-23.132v-7.304h11.427
	v7.304c0,12.755,10.377,23.132,23.132,23.132c12.755,0,23.132-10.377,23.132-23.132v-7.304h79.951c4.2,0,7.604-3.405,7.604-7.604
	c0-4.199-3.404-7.604-7.604-7.604h-79.948v-7.303c0-12.755-10.377-23.132-23.132-23.132c-12.755,0-23.132,10.377-23.132,23.132
	v7.303h-11.427v-7.303c0-12.755-10.377-23.132-23.132-23.132c-12.755,0-23.132,10.377-23.132,23.132v7.303h-10.048v-7.303
	c0-12.755-10.377-23.132-23.132-23.132S168.1,367.421,168.1,380.177v7.303h-10.048v-7.303c0-12.755-10.377-23.132-23.132-23.132
	c-12.755,0-23.132,10.377-23.132,23.132v7.303h-8.106c-4.199,0-7.604,3.405-7.604,7.604c0,4.199,3.405,7.604,7.604,7.604h8.106
	v7.304C111.784,422.746,122.161,433.124,134.917,433.124z M305.236,372.252c4.37,0,7.924,3.555,7.924,7.924v29.815
	c0,4.37-3.556,7.924-7.924,7.924s-7.924-3.555-7.924-7.924v-29.815C297.312,375.807,300.867,372.252,305.236,372.252z
	 M239.619,380.177c0-4.37,3.555-7.924,7.924-7.924c4.37,0,7.924,3.555,7.924,7.924v29.815c0,4.37-3.555,7.924-7.924,7.924
	c-4.37,0-7.924-3.555-7.924-7.924V380.177z M183.306,380.177c0-4.37,3.555-7.924,7.924-7.924c4.37,0,7.924,3.555,7.924,7.924v29.815
	c0,4.37-3.555,7.924-7.924,7.924c-4.37,0-7.924-3.555-7.924-7.924V380.177z M134.917,372.252c4.37,0,7.924,3.555,7.924,7.924v29.815
	c0,4.37-3.555,7.924-7.924,7.924s-7.924-3.555-7.924-7.924v-29.815C126.992,375.807,130.547,372.252,134.917,372.252z"/>
<g>
</g>
<g>
</g>
<g>
</g>
<g>
</g>
<g>
</g>
<g>
</g>
<g>
</g>
<g>
</g>
<g>
</g>
<g>
</g>
<g>
</g>
<g>
</g>
<g>
</g>
<g>
</g>
<g>
</g>
</svg>
