<?xml version="1.0" encoding="iso-8859-1"?>
<!-- Generator: Adobe Illustrator 19.0.0, SVG Export Plug-In . SVG Version: 6.00 Build 0)  -->
<svg version="1.1" id="Capa_1" xmlns="http://www.w3.org/2000/svg" xmlns:xlink="http://www.w3.org/1999/xlink" x="0px" y="0px"
	 viewBox="0 0 512.002 512.002" style="enable-background:new 0 0 512.002 512.002;" xml:space="preserve">
<circle style="fill:#F4B74A;" cx="302.065" cy="209.926" r="202.28"/>
<path style="fill:#FFD488;" d="M464.671,209.919c0,89.805-72.802,162.607-162.607,162.607c-38.603,0-74.056-13.445-101.945-35.912
	c-8.736-7.044-16.728-14.964-23.843-23.639c-4.016-4.893-7.757-10.03-11.182-15.382c-16.228-25.3-25.637-55.392-25.637-87.674
	c0-86.186,67.063-156.715,151.853-162.26c3.547-0.224,7.135-0.347,10.754-0.347c11.549,0,22.813,1.203,33.669,3.496
	c19.521,4.108,37.747,11.723,53.995,22.151c5.362,3.425,10.499,7.166,15.402,11.192c8.675,7.115,16.595,15.107,23.629,23.843
	C451.226,135.873,464.671,171.326,464.671,209.919z"/>
<g>
	<path style="fill:#F9C662;" d="M428.759,107.994l-228.641,228.62l-47.043,47.043c-8.919-16.646-16.014-34.383-21.039-53.006
		L389.728,72.959c5.362,3.425,10.499,7.166,15.402,11.192C413.805,91.266,421.726,99.258,428.759,107.994z"/>
	<path style="fill:#F9C662;" d="M335.733,50.808L156.572,229.959c-5.729-10.693-10.285-22.089-13.517-34.046L291.31,47.658
		c3.547-0.224,7.135-0.347,10.754-0.347C313.613,47.312,324.877,48.515,335.733,50.808z"/>
</g>
<path style="fill:#F4B74A;" d="M352.97,445.083c-60.845,60.835-150.793,74.82-225.022,41.936
	c-17.482-7.737-34.077-18.073-49.224-31.009c-4.057-3.456-7.992-7.105-11.824-10.927c-78.99-79-78.99-207.071,0-286.071
	c79-78.99,207.071-78.99,286.071,0c3.833,3.833,7.472,7.767,10.927,11.824c12.936,15.137,23.272,31.743,31.009,49.225
	C427.791,294.28,413.805,384.238,352.97,445.083z"/>
<path style="fill:#F9C662;" d="M394.906,220.061L127.948,487.019c-17.482-7.737-34.077-18.073-49.224-31.009l285.174-285.174
	C376.833,185.974,387.17,202.579,394.906,220.061z"/>
<path style="fill:#FFD488;" d="M372.542,302.048c0,89.805-72.802,162.607-162.607,162.607c-50.692,0-95.962-23.19-125.788-59.551
	C61.13,377.052,47.328,341.16,47.328,302.048c0-89.805,72.802-162.607,162.607-162.607c39.123,0,75.014,13.822,103.067,36.839
	C349.352,206.096,372.542,251.366,372.542,302.048z"/>
<path style="fill:#F9C662;" d="M313.002,176.28L84.167,405.114l-0.02-0.01c-6.718-8.185-12.65-17.044-17.676-26.452
	c-5.729-10.693-10.285-22.089-13.517-34.046c-3.67-13.568-5.627-27.838-5.627-42.558c0-89.805,72.802-162.607,162.607-162.607
	c14.73,0,29.001,1.957,42.558,5.627c11.957,3.231,23.353,7.798,34.046,13.527C295.948,163.62,304.806,169.563,313.002,176.28z"/>
<path style="fill:#FFD488;" d="M286.539,158.594L66.471,378.652c-5.729-10.693-10.285-22.089-13.517-34.046l199.538-199.538
	C264.45,148.299,275.846,152.866,286.539,158.594z"/>
<path d="M432.62,307.169c1.312,0.887,2.801,1.311,4.273,1.311c2.455,0,4.864-1.179,6.342-3.366
	c19.025-28.161,29.081-61.079,29.081-95.195c0-38.729-13.355-76.631-37.602-106.72c-7.348-9.126-15.669-17.524-24.732-24.956
	c-5.157-4.234-10.586-8.18-16.125-11.718c-17.378-11.153-36.404-18.958-56.543-23.196c-11.499-2.429-23.359-3.662-35.25-3.662
	c-3.655,0-7.435,0.121-11.253,0.363c-33.055,2.161-64.524,13.836-91.008,33.762c-3.374,2.538-4.051,7.331-1.513,10.705
	c2.539,3.373,7.331,4.053,10.705,1.513c24.1-18.132,52.735-28.755,82.795-30.721c3.481-0.219,6.937-0.331,10.272-0.331
	c10.831,0,21.627,1.121,32.095,3.332c18.323,3.856,35.629,10.956,51.454,21.112c5.043,3.221,9.977,6.807,14.669,10.66
	c8.255,6.771,15.833,14.418,22.525,22.728c22.386,27.779,34.22,61.366,34.22,97.128c0,31.054-9.15,61.012-26.46,86.635
	C428.202,300.053,429.121,304.805,432.62,307.169z"/>
<path d="M369.718,165.88c-3.553-4.171-7.369-8.301-11.342-12.273c-81.849-81.84-215.03-81.841-296.882,0.001
	c-81.841,81.85-81.841,215.031,0.007,296.888c4.042,4.032,8.169,7.845,12.258,11.329c15.441,13.186,32.633,24.015,51.093,32.185
	c26.932,11.931,55.753,17.992,84.889,17.992c12.341,0,24.741-1.088,37.074-3.277c42.412-7.53,80.99-27.667,111.561-58.234
	c0,0,0.001,0,0.001-0.001c30.566-30.571,50.704-69.15,58.234-111.565c7.36-41.451,2.271-83.624-14.713-121.956
	C393.717,198.483,382.887,181.29,369.718,165.88z M401.556,336.251c-6.98,39.316-25.65,75.08-53.991,103.425
	c-28.347,28.342-64.11,47.012-103.422,53.992c-38.44,6.827-77.549,2.109-113.1-13.64c-17.108-7.571-33.04-17.607-47.361-29.837
	c-3.793-3.231-7.624-6.772-11.375-10.513c-75.88-75.89-75.88-199.37-0.001-275.259c37.945-37.94,87.788-56.91,137.63-56.91
	s99.684,18.97,137.63,56.91c3.686,3.686,7.223,7.513,10.521,11.384c12.213,14.292,22.249,30.224,29.831,47.355
	C403.665,258.701,408.381,297.807,401.556,336.251z"/>
<path d="M89.547,181.66c-32.156,32.156-49.867,74.911-49.867,120.387s17.71,88.231,49.867,120.387s74.911,49.867,120.387,49.867
	s88.231-17.71,120.387-49.867c66.382-66.382,66.382-174.393,0-240.775C263.941,115.278,155.93,115.278,89.547,181.66z
	 M319.511,411.623c-29.269,29.269-68.183,45.388-109.576,45.388s-80.308-16.119-109.576-45.388
	C71.09,382.354,54.971,343.44,54.971,302.047s16.119-80.307,45.388-109.576c30.211-30.211,69.893-45.315,109.576-45.315
	c39.682,0,79.366,15.105,109.576,45.315C379.931,252.892,379.931,351.203,319.511,411.623z"/>
<path d="M140.555,87.853c1.421,1.163,3.135,1.729,4.838,1.729c2.213,0,4.41-0.956,5.92-2.803c4.09-4.997,8.504-9.87,13.12-14.486
	c17.425-17.425,37.614-31.192,60.008-40.92c3.873-1.682,5.648-6.185,3.966-10.058c-1.682-3.873-6.183-5.649-10.058-3.966
	c-24.163,10.495-45.94,25.344-64.728,44.131c-4.973,4.972-9.731,10.226-14.14,15.614C136.807,80.362,137.287,85.18,140.555,87.853z"
	/>
<path d="M450.5,61.481c-26.509-26.509-59.604-45.455-95.705-54.788c-35.038-9.058-72.038-8.919-107.001,0.403
	c-4.079,1.088-6.506,5.277-5.418,9.357c1.088,4.079,5.276,6.502,9.357,5.418c32.427-8.644,66.741-8.773,99.236-0.373
	c33.46,8.65,64.139,26.215,88.72,50.796c75.888,75.888,75.888,199.368,0,275.254c-4.621,4.621-9.494,9.035-14.486,13.12
	c-3.268,2.675-3.748,7.491-1.074,10.758c1.511,1.847,3.706,2.803,5.92,2.803c1.703,0,3.417-0.566,4.838-1.729
	c5.383-4.405,10.636-9.163,15.614-14.14C532.35,276.51,532.35,143.331,450.5,61.481z"/>
<path d="M274.491,216.548c-3.39-2.513-8.179-1.805-10.695,1.587l-53.862,72.636l-53.862-72.636
	c-2.515-3.392-7.303-4.103-10.695-1.587c-3.391,2.515-4.102,7.304-1.587,10.695l54.446,73.423h-20.41
	c-4.222,0-7.645,3.423-7.645,7.645c0,4.222,3.423,7.645,7.645,7.645h24.463v16.818h-24.463c-4.222,0-7.645,3.423-7.645,7.645
	c0,4.222,3.423,7.645,7.645,7.645h24.463v33.343c0,4.222,3.423,7.645,7.645,7.645s7.645-3.423,7.645-7.645v-33.343h24.463
	c4.222,0,7.645-3.423,7.645-7.645c0-4.222-3.423-7.645-7.645-7.645H217.58v-16.818h24.463c4.222,0,7.645-3.423,7.645-7.645
	c0-4.222-3.423-7.645-7.645-7.645h-20.409l54.446-73.423C278.593,223.851,277.883,219.062,274.491,216.548z"/>
<g>
</g>
<g>
</g>
<g>
</g>
<g>
</g>
<g>
</g>
<g>
</g>
<g>
</g>
<g>
</g>
<g>
</g>
<g>
</g>
<g>
</g>
<g>
</g>
<g>
</g>
<g>
</g>
<g>
</g>
</svg>
