<?xml version="1.0" encoding="iso-8859-1"?>
<!-- Generator: Adobe Illustrator 19.0.0, SVG Export Plug-In . SVG Version: 6.00 Build 0)  -->
<svg version="1.1" id="Capa_1" xmlns="http://www.w3.org/2000/svg" xmlns:xlink="http://www.w3.org/1999/xlink" x="0px" y="0px"
	 viewBox="0 0 512 512" style="enable-background:new 0 0 512 512;" xml:space="preserve">
<path style="fill:#215E87;" d="M287.831,470.031l209.928-309.687c9.899-14.602,8.591-34.067-3.172-47.214l-67.298-75.217
	c-7.294-8.153-17.716-12.812-28.655-12.812H113.374c-10.94,0-21.361,4.659-28.655,12.812L17.42,113.13
	c-11.763,13.147-13.071,32.611-3.172,47.214l209.928,309.687C239.429,492.532,272.579,492.532,287.831,470.031z"/>
<g>
	<path style="fill:#3570A0;" d="M504.236,135.494c0.739,8.549-1.393,17.342-6.481,24.846L287.827,470.035
		c-6.269,9.246-15.569,14.693-25.406,16.339l73.495-350.88H504.236z"/>
	<path style="fill:#3570A0;" d="M413.632,28.139l-77.716,107.355L256.004,25.1h142.63C403.838,25.1,408.935,26.165,413.632,28.139z"
		/>
</g>
<path style="fill:#4787B2;" d="M335.916,135.494l-73.495,350.88c-4.243,0.708-8.592,0.708-12.835,0l-73.494-350.88H335.916z"/>
<path style="fill:#3570A0;" d="M256.004,25.1l-79.912,110.395L98.376,28.139c4.697-1.974,9.795-3.039,14.998-3.039
	C113.374,25.1,256.004,25.1,256.004,25.1z"/>
<path style="fill:#4787B2;" d="M98.376,28.139l77.716,107.354H7.772c0.686-8.095,3.937-15.981,9.647-22.366l67.298-75.215
	C88.538,33.649,93.214,30.335,98.376,28.139z"/>
<path d="M500.25,108.057L432.952,32.84c-8.726-9.753-21.235-15.346-34.321-15.346H256.037c-0.011,0-0.022-0.002-0.033-0.002
	c-0.011,0-0.022,0.002-0.033,0.002H113.37c-13.086,0-25.596,5.593-34.321,15.346L11.75,108.057
	c-14.114,15.775-15.676,39.029-3.8,56.55l70.208,103.571c2.356,3.475,7.083,4.384,10.561,2.028
	c3.475-2.356,4.384-7.084,2.028-10.561l-70.209-103.57c-7.955-11.736-6.908-27.311,2.545-37.877L90.38,42.981
	c5.845-6.532,14.224-10.279,22.989-10.279H241.11l-65.02,89.822l-55.788-77.071c-2.463-3.4-7.215-4.162-10.618-1.7
	c-3.401,2.463-4.164,7.216-1.701,10.618l53.219,73.523H37.895c-4.199,0-7.604,3.404-7.604,7.604c0,4.199,3.404,7.604,7.604,7.604
	h132.021l64.384,307.382c0.751,3.585,3.911,6.046,7.434,6.046c0.517,0,1.041-0.053,1.566-0.163c4.11-0.861,6.744-4.891,5.883-9.001
	L185.453,143.1h141.099l-9.59,45.781c-0.861,4.11,1.773,8.14,5.883,9.001c0.526,0.109,1.05,0.163,1.566,0.163
	c3.522,0,6.683-2.462,7.434-6.046l10.242-48.899h132.016c4.199,0,7.604-3.404,7.604-7.604c0-4.199-3.404-7.604-7.604-7.604H350.802
	l53.219-73.523c2.463-3.401,1.701-8.155-1.7-10.618c-3.403-2.463-8.156-1.7-10.618,1.7l-55.788,77.071l-65.02-89.822H398.63
	c8.765,0,17.144,3.746,22.989,10.279l67.298,75.217c9.454,10.566,10.5,26.142,2.545,37.877L281.534,465.762
	c-5.832,8.604-15.139,13.538-25.535,13.538c-10.395,0-19.701-4.934-25.534-13.538L105.028,280.714
	c-2.356-3.476-7.083-4.384-10.56-2.028c-3.476,2.356-4.384,7.084-2.028,10.561l125.438,185.047
	c8.58,12.656,22.831,20.213,38.121,20.213c15.291,0,29.542-7.556,38.122-20.213l209.928-309.687
	C515.927,147.086,514.364,123.832,500.25,108.057z M256.003,38.063l65.025,89.829H190.979L256.003,38.063z"/>
<path d="M270.271,456.527c3.522,0,6.683-2.462,7.434-6.046l47.774-228.078c0.861-4.11-1.773-8.14-5.883-9.001
	c-4.109-0.858-8.14,1.773-9.001,5.883l-47.774,228.078c-0.861,4.11,1.773,8.14,5.883,9.001
	C269.23,456.474,269.754,456.527,270.271,456.527z"/>
<g>
</g>
<g>
</g>
<g>
</g>
<g>
</g>
<g>
</g>
<g>
</g>
<g>
</g>
<g>
</g>
<g>
</g>
<g>
</g>
<g>
</g>
<g>
</g>
<g>
</g>
<g>
</g>
<g>
</g>
</svg>
