<?xml version="1.0" encoding="iso-8859-1"?>
<!-- Generator: Adobe Illustrator 19.0.0, SVG Export Plug-In . SVG Version: 6.00 Build 0)  -->
<svg version="1.1" id="Capa_1" xmlns="http://www.w3.org/2000/svg" xmlns:xlink="http://www.w3.org/1999/xlink" x="0px" y="0px"
	 viewBox="0 0 512.001 512.001" style="enable-background:new 0 0 512.001 512.001;" xml:space="preserve">
<path style="fill:#E05F5F;" d="M256,7.604c0,0,94.945,84.056,248.396,94.702c0,127.74-51.102,328.197-248.396,402.09
	C58.706,430.503,7.604,230.046,7.604,102.305C161.055,91.661,256,7.604,256,7.604z"/>
<path style="fill:#FFD488;" d="M473.162,129.753c-2.646,45.593-12.876,113.187-46.212,180.254
	c-37.908,76.253-95.384,130.616-170.947,161.711C180.44,440.623,122.954,386.26,85.056,310.007
	C51.72,242.94,41.48,175.346,38.834,129.753c106.678-13.819,182.88-59.351,217.169-83.745
	C290.282,70.401,366.484,115.934,473.162,129.753z"/>
<path style="fill:#F9C662;" d="M256.003,46.008v425.71C180.44,440.623,122.954,386.26,85.056,310.007
	C51.72,242.94,41.48,175.346,38.834,129.753C145.513,115.934,221.715,70.401,256.003,46.008z"/>
<path d="M504.923,94.721c-77.73-5.392-139.855-30.306-178.285-50.257c-41.748-21.672-65.367-42.35-65.596-42.553
	c-2.877-2.548-7.203-2.548-10.081,0c-0.231,0.204-23.518,20.645-65.124,42.307C147.318,64.271,85.04,89.312,7.079,94.721
	C3.093,94.997,0,98.311,0,102.305c0,46.241,6.803,137.266,52.365,227.33c1.896,3.748,6.468,5.247,10.218,3.353
	c3.747-1.896,5.249-6.47,3.353-10.218c-39.083-77.256-48.722-155.345-50.417-203.385l15.924,13.996
	c2.95,45.764,13.553,113.114,46.803,180.008c37.934,76.316,95.17,131.244,170.151,163.365v16.497
	c-70.914-28.933-127.234-77.166-167.499-143.51c-2.178-3.591-6.857-4.733-10.446-2.556c-3.59,2.179-4.734,6.856-2.555,10.446
	c44.005,72.507,106.394,124.282,185.435,153.886c0.861,0.322,1.763,0.484,2.667,0.484c0.904,0,1.807-0.161,2.667-0.484
	c47.486-17.785,89.421-43.916,124.64-77.668c31.096-29.801,57.233-65.774,77.685-106.921C505.374,237.64,512,147.869,512,102.305
	C512,98.311,508.908,94.997,504.923,94.721z M486.067,108.294l-15.317,13.463c-99.343-13.58-171.235-54.692-207.145-79.696V23.324
	c11.336,8.412,30.091,21.136,55.538,34.384C355.963,76.878,413.81,100.446,486.067,108.294z M192.858,57.708
	c25.447-13.249,44.202-25.972,55.538-34.384v18.738c-35.91,25.005-107.801,66.116-207.144,79.696l-15.317-13.463
	C98.19,100.446,156.038,76.878,192.858,57.708z M91.863,306.621C60.67,243.865,50.09,180.547,46.884,136.33
	c99.622-14.349,172.109-55.445,209.117-81.033c37.008,25.589,109.495,66.684,209.117,81.033
	c-3.206,44.219-13.787,107.537-44.979,170.291C383.588,380.157,328.373,432.919,256,463.483
	C183.629,432.919,128.415,380.157,91.863,306.621z M447.375,320.159c-40.633,81.747-102.425,139.932-183.77,173.097v-16.501
	c74.982-32.12,132.219-87.048,170.151-163.364c33.25-66.893,43.853-134.244,46.803-180.008l15.923-13.995
	C494.805,166.766,485.381,243.695,447.375,320.159z"/>
<path d="M263.604,368.572v-11.09c30.864-3.214,54.854-25.705,54.854-52.905c0-7.575-1.818-14.895-5.403-21.756
	c-1.945-3.723-6.541-5.16-10.26-3.218c-3.723,1.945-5.164,6.538-3.219,10.261c2.437,4.667,3.674,9.616,3.674,14.714
	c0,18.925-17.196,34.664-39.646,37.607v-75.208c6.841,0.897,13.349,2.991,19.13,6.208c1.171,0.652,2.439,0.961,3.691,0.961
	c2.669,0,5.26-1.409,6.651-3.907c2.043-3.669,0.725-8.301-2.945-10.342c-8.017-4.463-17.069-7.256-26.526-8.235v-76.113
	c22.45,2.942,39.646,18.682,39.646,37.607c0,4.199,3.404,7.604,7.604,7.604c4.2,0,7.604-3.405,7.604-7.604
	c0-27.2-23.99-49.691-54.854-52.906v-11.09c0-4.199-3.404-7.604-7.604-7.604s-7.604,3.405-7.604,7.604v11.09
	c-30.864,3.214-54.854,25.706-54.854,52.906s23.99,49.691,54.854,52.905v76.124c-22.45-2.942-39.646-18.682-39.646-37.607
	c0-4.199-3.404-7.604-7.604-7.604c-4.2,0-7.604,3.405-7.604,7.604c0,27.2,23.99,49.691,54.854,52.905v11.09
	c0,4.199,3.404,7.604,7.604,7.604S263.604,372.771,263.604,368.572z M208.751,213.154c0-18.925,17.196-34.664,39.646-37.607v75.214
	C225.946,247.818,208.751,232.079,208.751,213.154z"/>
<g>
</g>
<g>
</g>
<g>
</g>
<g>
</g>
<g>
</g>
<g>
</g>
<g>
</g>
<g>
</g>
<g>
</g>
<g>
</g>
<g>
</g>
<g>
</g>
<g>
</g>
<g>
</g>
<g>
</g>
</svg>
