<?xml version="1.0" encoding="iso-8859-1"?>
<!-- Generator: Adobe Illustrator 19.0.0, SVG Export Plug-In . SVG Version: 6.00 Build 0)  -->
<svg version="1.1" id="Capa_1" xmlns="http://www.w3.org/2000/svg" xmlns:xlink="http://www.w3.org/1999/xlink" x="0px" y="0px"
	 viewBox="0 0 512 512" style="enable-background:new 0 0 512 512;" xml:space="preserve">
<path style="fill:#38C183;" d="M42.922,116.966h426.155c19.506,0,35.319,15.812,35.319,35.319v207.432
	c0,19.506-15.812,35.319-35.319,35.319H42.922c-19.506,0-35.319-15.812-35.319-35.319V152.284
	C7.604,132.778,23.416,116.966,42.922,116.966z"/>
<path style="fill:#49E298;" d="M61.473,302.858c21.156,0,38.307,17.15,38.307,38.307c0,6.491-1.62,12.6-4.469,17.958h321.377
	c-2.849-5.357-4.469-11.467-4.469-17.958c0-21.156,17.151-38.307,38.307-38.307c6.491,0,12.6,1.62,17.958,4.469V204.673
	c-5.357,2.849-11.467,4.469-17.958,4.469c-21.156,0-38.307-17.15-38.307-38.307c0-6.491,1.62-12.6,4.469-17.958H95.311
	c2.849,5.357,4.469,11.467,4.469,17.958c0,21.156-17.15,38.307-38.307,38.307c-6.491,0-12.6-1.62-17.958-4.469v102.653
	C48.873,304.478,54.983,302.858,61.473,302.858z"/>
<circle style="fill:#38C183;" cx="256" cy="256" r="70.027"/>
<path d="M469.077,402.638H42.922C19.254,402.638,0,383.384,0,359.716V152.284c0-23.668,19.254-42.922,42.922-42.922h426.155
	c23.668,0,42.923,19.255,42.923,42.922v207.432C512,383.384,492.745,402.638,469.077,402.638z M42.922,124.57
	c-15.281,0-27.714,12.432-27.714,27.714v207.432c0,15.282,12.433,27.714,27.714,27.714h426.155
	c15.282,0,27.715-12.433,27.715-27.714V152.284c0-15.282-12.433-27.714-27.715-27.714H42.922z"/>
<path d="M416.688,366.726H95.311c-2.67,0-5.143-1.4-6.518-3.688c-1.375-2.288-1.45-5.13-0.195-7.487
	c2.374-4.463,3.578-9.303,3.578-14.386c0-16.929-13.773-30.703-30.703-30.703c-5.08,0-9.922,1.204-14.388,3.579
	c-2.355,1.253-5.198,1.179-7.486-0.196c-2.287-1.375-3.687-3.849-3.687-6.518V204.673c0-2.669,1.4-5.143,3.688-6.518
	s5.132-1.449,7.486-0.196c4.465,2.374,9.306,3.579,14.387,3.579c16.929,0,30.703-13.773,30.703-30.703
	c0-5.082-1.204-9.923-3.578-14.387c-1.254-2.356-1.18-5.198,0.195-7.486c1.374-2.288,3.849-3.688,6.518-3.688h321.377
	c2.669,0,5.143,1.399,6.518,3.687c1.375,2.288,1.45,5.13,0.196,7.486c-2.375,4.466-3.579,9.307-3.579,14.388
	c0,16.929,13.773,30.703,30.703,30.703c5.082,0,9.923-1.204,14.387-3.578c2.355-1.253,5.196-1.18,7.486,0.195
	c2.288,1.375,3.688,3.849,3.688,6.518v102.653c0,2.669-1.4,5.143-3.688,6.518c-2.287,1.376-5.13,1.45-7.486,0.196
	c-4.465-2.374-9.306-3.579-14.387-3.579c-16.929,0-30.703,13.773-30.703,30.703c0,5.08,1.204,9.921,3.579,14.387
	c1.253,2.357,1.179,5.198-0.196,7.486C421.831,365.327,419.357,366.726,416.688,366.726z M106.199,351.518H405.8
	c-0.783-3.386-1.185-6.865-1.185-10.353c0-25.315,20.595-45.911,45.911-45.911c3.488,0,6.966,0.401,10.354,1.185v-80.878
	c-3.387,0.783-6.865,1.185-10.354,1.185c-25.316,0-45.911-20.595-45.911-45.911c0-3.488,0.401-6.966,1.186-10.354H106.199
	c0.783,3.386,1.185,6.865,1.185,10.354c0,25.315-20.596,45.911-45.911,45.911c-3.488,0-6.966-0.401-10.354-1.185v80.879
	c3.387-0.784,6.865-1.185,10.354-1.185c25.315,0,45.911,20.596,45.911,45.911C107.384,344.653,106.983,348.132,106.199,351.518z"/>
<path d="M256,333.635c-42.809,0-77.635-34.827-77.635-77.635c0-8.579,1.392-17.013,4.138-25.065
	c1.356-3.976,5.678-6.096,9.652-4.743c3.974,1.356,6.098,5.677,4.743,9.651c-2.206,6.468-3.323,13.249-3.323,20.157
	c0,34.423,28.005,62.428,62.428,62.428c34.422,0,62.427-28.005,62.427-62.428s-28.005-62.427-62.426-62.427
	c-17.583,0-34.447,7.476-46.265,20.512c-2.821,3.112-7.63,3.347-10.741,0.526c-3.112-2.821-3.348-7.629-0.527-10.741
	c14.696-16.209,35.666-25.506,57.532-25.506c42.808,0,77.634,34.827,77.634,77.635C333.634,298.808,298.808,333.635,256,333.635z"/>
<path d="M420,248.64H362.54c-4.2,0-7.604-3.405-7.604-7.604c0-4.199,3.404-7.604,7.604-7.604H420c4.2,0,7.604,3.405,7.604,7.604
	C427.604,245.236,424.2,248.64,420,248.64z"/>
<path d="M398.453,278.568H362.54c-4.2,0-7.604-3.405-7.604-7.604s3.404-7.604,7.604-7.604h35.913c4.2,0,7.604,3.405,7.604,7.604
	S402.652,278.568,398.453,278.568z"/>
<path d="M149.459,248.64H92c-4.2,0-7.604-3.405-7.604-7.604c0-4.199,3.404-7.604,7.604-7.604h57.46c4.2,0,7.604,3.405,7.604,7.604
	C157.063,245.236,153.66,248.64,149.459,248.64z"/>
<path d="M149.459,278.568h-35.912c-4.2,0-7.604-3.405-7.604-7.604s3.404-7.604,7.604-7.604h35.912c4.2,0,7.604,3.405,7.604,7.604
	S153.66,278.568,149.459,278.568z"/>
<path d="M61.473,348.301c-6.853,0-10.159-8.742-5.051-13.291c2.555-2.275,6.426-2.53,9.269-0.64
	c2.549,1.694,3.859,4.889,3.221,7.886C68.176,345.723,65.03,348.301,61.473,348.301z"/>
<path d="M61.473,178.915c-6.623,0-10.06-8.296-5.373-12.988c2.34-2.343,6.039-2.875,8.956-1.323c2.791,1.486,4.413,4.687,3.936,7.82
	C68.432,176.09,65.199,178.915,61.473,178.915z"/>
<path d="M448.728,348.301c-6.884,0-10.24-8.911-4.943-13.39c2.524-2.134,6.207-2.404,9.004-0.64c2.697,1.7,4.069,5.03,3.342,8.137
	C455.336,345.804,452.229,348.301,448.728,348.301z"/>
<path d="M448.728,178.915c-6.756,0-10.138-8.623-5.167-13.191c2.412-2.216,6.062-2.64,8.911-1.027
	c2.699,1.527,4.243,4.653,3.774,7.729C455.686,176.095,452.457,178.915,448.728,178.915z"/>
<g>
</g>
<g>
</g>
<g>
</g>
<g>
</g>
<g>
</g>
<g>
</g>
<g>
</g>
<g>
</g>
<g>
</g>
<g>
</g>
<g>
</g>
<g>
</g>
<g>
</g>
<g>
</g>
<g>
</g>
</svg>
