<?xml version="1.0" encoding="iso-8859-1"?>
<!-- Generator: Adobe Illustrator 19.0.0, SVG Export Plug-In . SVG Version: 6.00 Build 0)  -->
<svg version="1.1" id="Capa_1" xmlns="http://www.w3.org/2000/svg" xmlns:xlink="http://www.w3.org/1999/xlink" x="0px" y="0px"
	 viewBox="0 0 511.999 511.999" style="enable-background:new 0 0 511.999 511.999;" xml:space="preserve">
<rect x="366.275" y="28.979" style="fill:#E05F5F;" width="74.145" height="122.027"/>
<path style="fill:#FFD488;" d="M455.26,197.273v277.759c0,13.058-10.587,23.645-23.645,23.645H80.365
	c-13.058,0-23.635-10.587-23.635-23.645V197.273l3.357-9.907l3.429-10.103L253.513,35.154l108.134,86.899L455.26,197.273z"/>
<path style="fill:#F4B74A;" d="M455.26,197.273v43.387L255.995,96.43L56.73,240.65v-43.377l3.357-9.907L243.915,54.32
	c7.209-5.221,16.951-5.221,24.15,0l93.582,67.733L455.26,197.273z"/>
<path style="fill:#C17F49;" d="M483.656,219.321c-4.185,0-8.409-1.271-12.059-3.913L255.992,59.357L40.387,215.408
	c-9.215,6.67-22.091,4.607-28.762-4.609c-6.669-9.215-4.607-22.092,4.609-28.762L243.915,17.245c7.207-5.215,16.948-5.215,24.153,0
	L495.75,182.037c9.215,6.67,11.278,19.547,4.609,28.762C496.331,216.364,490.037,219.321,483.656,219.321z"/>
<path d="M511.636,194.242c-1.196-7.469-5.231-14.025-11.358-18.461L272.596,10.989c-9.93-7.189-23.278-7.189-33.211,0
	l-128.375,92.916c-3.455,2.501-4.23,7.33-1.728,10.786s7.33,4.231,10.786,1.728l128.374-92.916c4.516-3.267,10.582-3.267,15.096,0
	l227.682,164.792c2.786,2.016,4.619,4.996,5.164,8.391c0.545,3.395-0.268,6.799-2.284,9.586c-2.414,3.335-6.318,5.326-10.445,5.326
	c-2.716,0-5.319-0.846-7.531-2.446L260.519,53.1c-2.701-1.956-6.354-1.956-9.056,0L35.858,209.151
	c-2.785,2.016-6.189,2.827-9.584,2.282c-3.395-0.544-6.376-2.378-8.392-5.163c-4.162-5.751-2.869-13.815,2.88-17.977l80.26-58.091
	c3.455-2.502,4.23-7.33,1.728-10.786c-2.5-3.454-7.329-4.23-10.786-1.728l-80.26,58.091c-12.65,9.156-15.492,26.898-6.337,39.548
	c4.436,6.128,10.992,10.161,18.461,11.358c1.518,0.243,3.034,0.364,4.542,0.364c5.913,0,11.662-1.851,16.545-5.385L255.991,68.891
	l211.075,152.774c4.864,3.52,10.6,5.38,16.588,5.38c9.067,0,17.65-4.38,22.958-11.717C511.05,209.2,512.833,201.712,511.636,194.242
	z"/>
<path d="M455.257,410.004c-4.267,0-7.724,3.458-7.724,7.724v57.309c0,8.776-7.141,15.917-15.917,15.917H80.368
	c-8.776,0-15.917-7.141-15.917-15.917V247.94c0-4.266-3.458-7.724-7.724-7.724s-7.724,3.458-7.724,7.724v227.097
	c0,17.294,14.071,31.365,31.365,31.365h351.248c17.295,0,31.365-14.071,31.365-31.365v-57.309
	C462.981,413.463,459.524,410.004,455.257,410.004z"/>
<path d="M455.257,240.217c-4.267,0-7.724,3.458-7.724,7.724v144.04c0,4.266,3.457,7.724,7.724,7.724s7.724-3.458,7.724-7.724V247.94
	C462.981,243.675,459.524,240.217,455.257,240.217z"/>
<path d="M207.335,241.939c-24.701,0-44.796,20.095-44.796,44.796c0,24.701,20.095,44.796,44.796,44.796s44.796-20.095,44.796-44.796
	C252.131,262.034,232.036,241.939,207.335,241.939z M207.335,316.083c-16.183,0-29.349-13.166-29.349-29.349
	s13.166-29.349,29.349-29.349s29.349,13.166,29.349,29.349S223.518,316.083,207.335,316.083z"/>
<path d="M259.853,384.05c0,24.701,20.095,44.796,44.796,44.796s44.796-20.095,44.796-44.796c0-24.701-20.095-44.796-44.796-44.796
	S259.853,359.349,259.853,384.05z M333.998,384.05c0,16.183-13.166,29.349-29.349,29.349s-29.349-13.166-29.349-29.349
	s13.166-29.349,29.349-29.349S333.998,367.867,333.998,384.05z"/>
<path d="M311.545,268.915l-122.03,122.031c-3.016,3.016-3.016,7.907,0,10.923c1.508,1.508,3.485,2.263,5.461,2.263
	c1.976,0,3.954-0.754,5.461-2.263L322.47,279.838c3.016-3.016,3.016-7.907,0-10.923
	C319.452,265.899,314.563,265.899,311.545,268.915z"/>
<path d="M366.276,64.505c4.267,0,7.724-3.458,7.724-7.724v-20.08h58.698v75.69c0,4.266,3.457,7.724,7.724,7.724
	s7.724-3.458,7.724-7.724V28.977c0-4.266-3.457-7.724-7.724-7.724h-74.146c-4.267,0-7.724,3.458-7.724,7.724v27.805
	C358.552,61.047,362.01,64.505,366.276,64.505z"/>
<g>
</g>
<g>
</g>
<g>
</g>
<g>
</g>
<g>
</g>
<g>
</g>
<g>
</g>
<g>
</g>
<g>
</g>
<g>
</g>
<g>
</g>
<g>
</g>
<g>
</g>
<g>
</g>
<g>
</g>
</svg>
