<?xml version="1.0" encoding="iso-8859-1"?>
<!-- Generator: Adobe Illustrator 19.0.0, SVG Export Plug-In . SVG Version: 6.00 Build 0)  -->
<svg version="1.1" id="Capa_1" xmlns="http://www.w3.org/2000/svg" xmlns:xlink="http://www.w3.org/1999/xlink" x="0px" y="0px"
	 viewBox="0 0 511.999 511.999" style="enable-background:new 0 0 511.999 511.999;" xml:space="preserve">
<path style="fill:#C17F49;" d="M426.873,365.841c0-110.074-89.233-219.391-199.307-219.391S28.259,255.766,28.259,365.841
	s89.233,138.554,199.307,138.554S426.873,475.915,426.873,365.841z"/>
<path style="fill:#A56637;" d="M227.564,504.394c-110.075,0-199.305-28.479-199.305-138.554s89.23-219.389,199.305-219.389
	c-64.897,0-117.517,109.315-117.517,219.389S162.666,504.394,227.564,504.394z"/>
<path style="fill:#C17F49;" d="M260.47,78.733c0-17.056,29.631-25.18,29.631-71.13h-125.07c0,45.951,29.631,54.074,29.631,71.13"/>
<path style="fill:#A56637;" d="M215.179,78.734h-20.528c0-17.053-29.622-25.184-29.622-71.133h38.992
	C204.022,53.55,215.179,61.681,215.179,78.734z"/>
<g>
	<path style="fill:#467EB7;" d="M260.132,112.591h-65.131c-9.35,0-16.928,7.58-16.928,16.928l0,0c0,9.35,7.58,16.929,16.928,16.929
		h65.131c9.35,0,16.928-7.58,16.928-16.929l0,0C277.06,120.171,269.481,112.591,260.132,112.591z"/>
	<path style="fill:#467EB7;" d="M260.132,78.733h-65.131c-9.35,0-16.928,7.58-16.928,16.928l0,0c0,9.35,7.58,16.928,16.928,16.928
		h65.131c9.35,0,16.928-7.58,16.928-16.928l0,0C277.06,86.313,269.481,78.733,260.132,78.733z"/>
</g>
<g>
	<path style="fill:#1A6EC1;" d="M210.991,141.492c3.062,3.062,7.3,4.958,11.974,4.958h-27.962c-4.674,0-8.912-1.896-11.974-4.958
		c-3.062-3.072-4.958-7.3-4.958-11.974c0-9.348,7.584-16.931,16.931-16.931h27.962c-9.348,0-16.931,7.584-16.931,16.931
		C206.033,134.193,207.929,138.42,210.991,141.492z"/>
	<path style="fill:#1A6EC1;" d="M210.991,107.629c3.062,3.062,7.3,4.958,11.974,4.958h-27.962c-4.674,0-8.912-1.896-11.974-4.958
		c-3.062-3.062-4.958-7.29-4.958-11.964c0-9.358,7.584-16.931,16.931-16.931h27.962c-9.348,0-16.931,7.574-16.931,16.931
		C206.033,100.34,207.929,104.568,210.991,107.629z"/>
</g>
<rect x="368.163" y="380.349" style="fill:#525D66;" width="115.57" height="98.091"/>
<path d="M419.541,310.065c-4.092,0.947-6.641,5.031-5.695,9.123c2.965,12.816,4.733,25.788,5.256,38.554
	c0.167,4.091,3.535,7.293,7.592,7.293c0.105,0,0.211-0.002,0.316-0.006c4.196-0.171,7.458-3.713,7.287-7.908
	c-0.561-13.708-2.457-27.625-5.634-41.359C427.717,311.668,423.631,309.121,419.541,310.065z"/>
<path d="M345.069,479.248c-29.721,11.804-68.158,17.543-117.503,17.543c-130.788,0-191.703-41.611-191.703-130.95
	c0-51.862,20.588-105.061,56.486-145.957c37.263-42.451,85.285-65.83,135.217-65.83c69.619,0,136.673,47.285,170.826,120.466
	c1.775,3.805,6.301,5.451,10.106,3.675c3.805-1.776,5.451-6.301,3.675-10.106c-17.295-37.057-43.066-68.806-74.526-91.815
	c-18.692-13.67-38.813-23.739-59.647-29.969c4.127-4.392,6.664-10.296,6.664-16.783c0-6.561-2.593-12.523-6.802-16.929
	c4.21-4.406,6.802-10.369,6.802-16.928c0-10.015-6.034-18.642-14.656-22.45c1.328-2.144,3.31-4.609,5.865-7.725
	c9.213-11.231,21.831-26.611,21.831-57.885c0-4.199-3.405-7.604-7.604-7.604h-125.07c-4.199,0-7.604,3.405-7.604,7.604
	c0,31.275,12.618,46.655,21.831,57.885c2.556,3.116,4.537,5.58,5.865,7.725c-8.622,3.808-14.656,12.435-14.656,22.45
	c0,6.56,2.593,12.522,6.802,16.928c-4.21,4.406-6.802,10.369-6.802,16.929c0,6.479,2.529,12.374,6.646,16.764
	c-10.346,3.099-20.542,7.152-30.538,12.169c-24.364,12.229-46.453,29.521-65.656,51.397
	c-38.299,43.631-60.265,100.487-60.265,155.99c0,53.844,20.917,93.254,62.17,117.135c33.735,19.528,81.081,29.022,144.741,29.022
	c51.304,0,91.576-6.089,123.118-18.617c3.903-1.55,5.81-5.971,4.26-9.874C353.393,479.605,348.972,477.696,345.069,479.248z
	 M185.675,95.663c0-5.142,4.183-9.325,9.326-9.325h65.131c5.142,0,9.325,4.183,9.325,9.325c0,5.141-4.183,9.324-9.325,9.324h-65.131
	C189.858,104.987,185.675,100.804,185.675,95.663z M172.948,15.207h109.234c-1.774,20.776-10.725,31.687-18.066,40.636
	c-4.063,4.952-7.958,9.715-9.924,15.287h-53.254c-1.965-5.573-5.861-10.335-9.924-15.287
	C183.674,46.894,174.723,35.983,172.948,15.207z M195.001,138.845c-5.142,0-9.326-4.183-9.326-9.324
	c0-5.142,4.183-9.326,9.326-9.326h65.131c5.142,0,9.325,4.183,9.325,9.326c0,5.141-4.183,9.324-9.325,9.324H195.001z"/>
<path d="M206.498,359.455c0-4.199-3.405-7.604-7.604-7.604c-4.199,0-7.604,3.405-7.604,7.604c0,15.104,12.308,27.753,28.672,30.796
	v2.655c0,4.199,3.405,7.604,7.604,7.604c4.199,0,7.604-3.405,7.604-7.604v-2.655c16.364-3.043,28.673-15.693,28.673-30.796
	c0-15.103-12.309-27.752-28.673-30.796v-32.167c7.866,2.365,13.465,8.267,13.465,15.174c0,4.199,3.405,7.604,7.604,7.604
	c4.199,0,7.604-3.405,7.604-7.604c0-15.103-12.309-27.753-28.673-30.796v-2.655c0-4.199-3.405-7.604-7.604-7.604
	c-4.199,0-7.604,3.405-7.604,7.604v2.655c-16.364,3.043-28.672,15.693-28.672,30.796s12.308,27.753,28.672,30.796v32.167
	C212.096,372.266,206.498,366.363,206.498,359.455z M248.635,359.455c0,6.907-5.6,12.81-13.465,15.174v-30.349
	C243.035,346.645,248.635,352.548,248.635,359.455z M206.498,311.668c0-6.907,5.599-12.81,13.464-15.174v30.35
	C212.096,324.477,206.498,318.576,206.498,311.668z"/>
<path d="M156.349,383.572c-2.35-3.48-7.077-4.393-10.558-2.044c-3.48,2.351-4.395,7.078-2.044,10.558
	c18.852,27.904,50.186,44.563,83.818,44.563c55.74,0,101.088-45.348,101.088-101.087c0-55.74-45.348-101.088-101.088-101.088
	s-101.087,45.348-101.087,101.088c0,10.245,1.53,20.358,4.546,30.057c1.247,4.011,5.509,6.249,9.519,5.002s6.249-5.509,5.002-9.519
	c-2.561-8.236-3.86-16.828-3.86-25.54c0-47.354,38.526-85.88,85.879-85.88c47.354,0,85.88,38.526,85.88,85.88
	s-38.526,85.879-85.88,85.879C198.992,421.441,172.369,407.284,156.349,383.572z"/>
<path d="M483.74,419.171c4.199,0,7.604-3.405,7.604-7.604v-31.219c0-4.199-3.405-7.604-7.604-7.604h-6.462v-36.117
	c0-28.301-23.024-51.325-51.325-51.325c-28.301,0-51.325,23.024-51.325,51.325v36.117h-6.462c-4.199,0-7.604,3.405-7.604,7.604
	v98.086c0,4.199,3.405,7.604,7.604,7.604H483.74c4.199,0,7.604-3.405,7.604-7.604v-41.519c0-4.199-3.405-7.604-7.604-7.604
	c-4.199,0-7.604,3.405-7.604,7.604v33.915H375.77v-82.878h6.462h87.441h6.462v23.615
	C476.136,415.766,479.541,419.171,483.74,419.171z M389.836,372.743v-36.117c0-19.915,16.202-36.117,36.117-36.117
	c19.915,0,36.117,16.202,36.117,36.117v36.117H389.836z"/>
<path d="M425.953,457.697c4.199,0,7.604-3.405,7.604-7.604v-7.305c6.727-2.942,11.443-9.654,11.443-17.454
	c0-10.503-8.545-19.047-19.047-19.047c-10.503,0-19.047,8.545-19.047,19.047c0,7.8,4.716,14.511,11.443,17.454v7.305
	C418.349,454.293,421.754,457.697,425.953,457.697z M425.953,421.496c2.117,0,3.839,1.723,3.839,3.839
	c0,2.117-1.723,3.839-3.839,3.839c-2.117,0-3.84-1.723-3.84-3.839C422.114,423.218,423.836,421.496,425.953,421.496z"/>
<g>
</g>
<g>
</g>
<g>
</g>
<g>
</g>
<g>
</g>
<g>
</g>
<g>
</g>
<g>
</g>
<g>
</g>
<g>
</g>
<g>
</g>
<g>
</g>
<g>
</g>
<g>
</g>
<g>
</g>
</svg>
