<?xml version="1.0" encoding="iso-8859-1"?>
<!-- Generator: Adobe Illustrator 19.0.0, SVG Export Plug-In . SVG Version: 6.00 Build 0)  -->
<svg version="1.1" id="Capa_1" xmlns="http://www.w3.org/2000/svg" xmlns:xlink="http://www.w3.org/1999/xlink" x="0px" y="0px"
	 viewBox="0 0 512 512" style="enable-background:new 0 0 512 512;" xml:space="preserve">
<circle style="fill:#E05F5F;" cx="256" cy="256" r="248.396"/>
<g>
	<path style="fill:#525D66;" d="M500.648,212.859l-0.03,0.01L440.1,223.545c-3.832-21.889-11.467-42.461-22.214-61.014l53.228-30.73
		l0.03-0.02C485.409,156.438,495.568,183.782,500.648,212.859z"/>
	<path style="fill:#525D66;" d="M500.617,299.129l0.03,0.01c-5.079,29.078-15.238,56.421-29.503,81.079l-0.03-0.02l-53.228-30.73
		c10.747-18.554,18.381-39.125,22.214-61.014L500.617,299.129z"/>
	<path style="fill:#525D66;" d="M376.146,399.187l39.52,47.094c-21.981,18.462-47.205,33.194-74.691,43.191l-0.02-0.051
		l-21.007-57.739C340.63,424.158,359.61,413.077,376.146,399.187z"/>
	<path style="fill:#525D66;" d="M415.666,65.717l-39.52,47.094c-16.536-13.89-35.516-24.971-56.198-32.494l21.007-57.729l0.02-0.061
		C368.461,32.524,393.685,47.255,415.666,65.717z"/>
	<path style="fill:#525D66;" d="M255.993,442.914v61.481c-29.848,0-58.459-5.262-84.972-14.914l0.02-0.061l21.007-57.739
		C212.001,438.95,233.536,442.914,255.993,442.914z"/>
	<path style="fill:#525D66;" d="M255.993,7.603v61.481c-22.457,0-43.991,3.964-63.944,11.234l-21.007-57.729l-0.02-0.061
		C197.534,12.865,226.145,7.603,255.993,7.603z"/>
	<path style="fill:#525D66;" d="M96.33,65.717l39.52,47.094c-16.637,13.971-30.801,30.791-41.751,49.71l-53.218-30.72l-0.041-0.02
		C55.39,106.637,74.218,84.281,96.33,65.717z"/>
	<path style="fill:#525D66;" d="M135.85,399.187l-39.52,47.094c-22.112-18.564-40.94-40.919-55.489-66.063l0.041-0.02l53.218-30.72
		C105.049,368.396,119.213,385.216,135.85,399.187z"/>
	<path style="fill:#525D66;" d="M71.896,288.453l-60.517,10.676l-0.041,0.01c-2.464-14.012-3.741-28.429-3.741-43.14
		c0-14.711,1.277-29.128,3.741-43.14l0.041,0.01l60.517,10.676c-1.845,10.534-2.808,21.382-2.808,32.454
		C69.088,267.07,70.051,277.919,71.896,288.453z"/>
</g>
<circle style="fill:#F9C662;" cx="256" cy="256" r="186.915"/>
<g>
	<path style="fill:#DDDDDD;" d="M349.457,417.872l0.02,0.03c-27.496,15.907-59.422,25.012-93.478,25.012
		s-65.982-9.104-93.478-25.012l0.02-0.03l31.278-54.181c18.29,10.585,39.53,16.648,62.18,16.648s43.89-6.063,62.18-16.648
		L349.457,417.872z"/>
	<path style="fill:#DDDDDD;" d="M162.541,94.126l31.278,54.181c-37.158,21.494-62.16,61.673-62.16,107.692H69.084
		c0-69.176,37.584-129.582,93.437-161.904L162.541,94.126z"/>
	<path style="fill:#DDDDDD;" d="M442.914,255.999h-62.576c0-46.019-25.002-86.198-62.16-107.692l31.278-54.181l0.02-0.03
		C405.331,126.417,442.914,186.823,442.914,255.999z"/>
</g>
<circle style="fill:#E05F5F;" cx="256" cy="256" r="124.34"/>
<path d="M437.019,74.981C388.668,26.629,324.38,0,256,0C155.134,0,63.352,59.517,22.176,151.625
	c-1.713,3.834,0.005,8.332,3.838,10.045c3.834,1.712,8.331-0.005,10.045-3.838c2.379-5.321,4.939-10.524,7.667-15.608l40.177,23.196
	c-8.113,15.353-14.231,31.913-18.007,49.338l-45.64-8.047c1.51-7.261,3.354-14.448,5.534-21.539c1.234-4.014-1.02-8.269-5.035-9.502
	c-4.016-1.233-8.268,1.021-9.502,5.035C3.787,205.006,0,230.339,0,256c0,68.38,26.629,132.668,74.981,181.019S187.62,512,256,512
	s132.668-26.629,181.019-74.981S512,324.38,512,256S485.371,123.332,437.019,74.981z M496.792,256
	c0,11.584-0.825,23.04-2.423,34.309l-45.632-8.046c1.165-8.592,1.779-17.357,1.779-26.264c0-8.907-0.614-17.671-1.779-26.263
	l45.632-8.046C495.967,232.96,496.792,244.416,496.792,256z M428.095,165.421l40.229-23.227
	c10.876,20.227,18.755,41.916,23.432,64.514l-45.654,8.049C442.325,197.334,436.209,180.774,428.095,165.421z M435.136,248.396
	H387.72c-2.448-42.872-25.457-80.323-59.297-102.63l23.708-41.064C400.095,135.285,432.605,188.03,435.136,248.396z
	 M196.733,138.139l-23.704-41.057C197.854,84.067,226.08,76.691,256,76.691s58.146,7.377,82.971,20.391l-23.704,41.057
	c-17.831-9.003-37.966-14.084-59.267-14.084C234.699,124.055,214.563,129.137,196.733,138.139z M329.62,75.966l15.879-43.628
	c21.218,8.486,41.197,20.022,59.392,34.392l-29.835,35.555C361.263,91.578,345.997,82.687,329.62,75.966z M315.334,70.748
	c-16.409-5.268-33.761-8.408-51.73-9.103V15.339c23.281,0.718,45.995,4.717,67.604,11.794L315.334,70.748z M248.396,61.646
	c-17.97,0.694-35.321,3.835-51.73,9.103l-15.824-43.476c21.543-7.094,44.255-11.2,67.555-11.936V61.646z M182.38,75.966
	c-16.379,6.722-31.645,15.612-45.437,26.32l-29.794-35.507c18.04-14.173,38.045-25.741,59.402-34.302L182.38,75.966z
	 M159.868,104.702l23.708,41.064c-33.84,22.306-56.848,59.757-59.297,102.629H76.863C79.394,188.03,111.905,135.285,159.868,104.702
	z M124.279,263.604c2.448,42.872,25.457,80.323,59.297,102.63l-23.708,41.064c-47.963-30.582-80.473-83.327-83.005-143.695H124.279z
	 M315.251,373.835l23.72,41.084C314.146,427.933,285.92,435.31,256,435.31s-58.146-7.377-82.971-20.391l23.704-41.057
	c17.831,9.002,37.966,14.084,59.267,14.084C276.707,387.945,297.012,382.995,315.251,373.835z M182.38,436.035l-15.879,43.627
	c-21.218-8.486-41.197-20.022-59.392-34.392l29.834-35.554C150.736,420.423,166.002,429.313,182.38,436.035z M196.666,441.252
	c16.409,5.268,33.761,8.408,51.73,9.103v46.306c-23.281-0.718-45.995-4.717-67.604-11.794L196.666,441.252z M263.604,450.355
	c17.97-0.695,35.32-3.835,51.729-9.103l15.875,43.615c-21.609,7.077-44.323,11.076-67.604,11.794V450.355z M329.62,436.035
	c16.379-6.722,31.645-15.612,45.437-26.32l29.834,35.555c-18.195,14.371-38.174,25.906-59.392,34.392L329.62,436.035z
	 M352.132,407.299l-23.704-41.056c8.633-5.657,16.637-12.337,23.791-19.958c2.874-3.062,2.722-7.874-0.34-10.748
	c-3.062-2.874-7.874-2.722-10.748,0.34c-22.312,23.77-52.545,36.86-85.131,36.86c-64.369,0-116.737-52.368-116.737-116.737
	s52.368-116.737,116.737-116.737s116.737,52.368,116.737,116.737c0,22.134-6.219,43.671-17.985,62.284
	c-2.244,3.55-1.185,8.247,2.365,10.49c3.55,2.244,8.246,1.184,10.49-2.365c11.951-18.908,18.823-40.48,20.101-62.806h47.428
	C432.605,323.971,400.095,376.716,352.132,407.299z M446.102,297.242l45.654,8.05c-4.677,22.597-12.557,44.286-23.432,64.513
	l-40.229-23.227C436.209,331.227,442.325,314.666,446.102,297.242z M460.691,129.041l-40.218,23.219
	c-9.419-14.879-20.791-28.406-33.768-40.2l29.819-35.536c3.315,2.973,6.569,6.036,9.742,9.209
	C439.518,98.986,451.022,113.519,460.691,129.041z M51.345,129.063c12.248-19.716,27.164-37.351,44.15-52.515l29.8,35.515
	c-12.976,11.794-24.349,25.32-33.768,40.2L51.345,129.063z M63.262,229.737c-1.165,8.592-1.779,17.357-1.779,26.263
	s0.614,17.672,1.779,26.264l-45.631,8.045c-1.598-11.269-2.423-22.725-2.423-34.309c0-11.533,0.822-22.99,2.435-34.307
	L63.262,229.737z M51.31,382.959l23.528-13.584c3.637-2.1,4.883-6.75,2.783-10.387c-2.1-3.637-6.75-4.883-10.387-2.783
	l-23.558,13.601c-10.876-20.227-18.755-41.916-23.432-64.513l45.654-8.05c8.727,40.264,29.945,75.929,59.397,102.697l-29.818,35.537
	c-3.315-2.974-6.569-6.037-9.742-9.209C72.482,413.014,60.978,398.481,51.31,382.959z M426.266,426.266
	c-3.173,3.173-6.427,6.236-9.742,9.209l-29.819-35.536c12.976-11.794,24.349-25.321,33.768-40.201l40.218,23.219
	C451.022,398.481,439.518,413.014,426.266,426.266z"/>
<path d="M285.741,224.88c0,4.199,3.405,7.604,7.604,7.604c4.199,0,7.604-3.405,7.604-7.604c0-19.119-16.17-35.037-37.345-38.16
	v-5.41c0-4.199-3.405-7.604-7.604-7.604c-4.199,0-7.604,3.405-7.604,7.604v5.41c-21.174,3.124-37.346,19.04-37.346,38.16
	s16.171,35.037,37.346,38.16v46.817c-12.727-2.663-22.138-11.845-22.138-22.735c0-4.199-3.405-7.604-7.604-7.604
	c-4.199,0-7.604,3.405-7.604,7.604c0,19.119,16.171,35.036,37.346,38.16v5.41c0,4.199,3.405,7.604,7.604,7.604
	c4.199,0,7.604-3.405,7.604-7.604v-5.41c21.174-3.124,37.345-19.04,37.345-38.16c0-19.119-16.17-35.037-37.345-38.16v-46.818
	C276.331,204.808,285.741,213.99,285.741,224.88z M226.258,224.88c0-10.89,9.411-20.071,22.138-22.735v45.47
	C235.669,244.95,226.258,235.768,226.258,224.88z M285.741,287.122c0,10.89-9.41,20.07-22.137,22.735v-45.47
	C276.331,267.05,285.741,276.232,285.741,287.122z"/>
<g>
</g>
<g>
</g>
<g>
</g>
<g>
</g>
<g>
</g>
<g>
</g>
<g>
</g>
<g>
</g>
<g>
</g>
<g>
</g>
<g>
</g>
<g>
</g>
<g>
</g>
<g>
</g>
<g>
</g>
</svg>
