<?xml version="1.0" encoding="iso-8859-1"?>
<!-- Generator: Adobe Illustrator 19.0.0, SVG Export Plug-In . SVG Version: 6.00 Build 0)  -->
<svg version="1.1" id="Capa_1" xmlns="http://www.w3.org/2000/svg" xmlns:xlink="http://www.w3.org/1999/xlink" x="0px" y="0px"
	 viewBox="0 0 512 512" style="enable-background:new 0 0 512 512;" xml:space="preserve">
<polygon style="fill:#38C183;" points="452.175,33.396 452.175,390.751 256.003,504.395 59.831,390.751 59.831,33.396 "/>
<rect x="59.828" y="33.396" style="fill:#2FAD71;" width="392.344" height="54.231"/>
<path style="fill:#FFD488;" d="M479.335,57.725H32.665c-13.841,0-25.061-11.22-25.061-25.061l0,0
	c0-13.84,11.219-25.061,25.061-25.061h446.671c13.84,0,25.061,11.22,25.061,25.061l0,0
	C504.396,46.505,493.176,57.725,479.335,57.725z"/>
<path d="M479.335,0H161.253c-4.2,0-7.604,3.405-7.604,7.604s3.404,7.604,7.604,7.604h318.083c9.626,0,17.457,7.831,17.457,17.457
	s-7.831,17.457-17.457,17.457H32.665c-9.626,0-17.457-7.831-17.457-17.457s7.831-17.457,17.457-17.457h103.239
	c4.2,0,7.604-3.405,7.604-7.604S140.105,0,135.904,0H32.665C14.653,0,0,14.653,0,32.665s14.653,32.665,32.665,32.665h446.671
	c18.011,0,32.665-14.653,32.665-32.665S497.347,0,479.335,0z"/>
<path d="M452.172,75.47c-4.2,0-7.604,3.405-7.604,7.604v303.292L256,495.609L67.432,386.365V83.074c0-4.199-3.404-7.604-7.604-7.604
	s-7.604,3.405-7.604,7.604v307.674c0,2.713,1.446,5.219,3.792,6.58l196.172,113.648c1.179,0.682,2.495,1.024,3.812,1.024
	c1.317,0,2.633-0.342,3.812-1.024l196.172-113.649c2.346-1.36,3.792-3.867,3.792-6.58V83.074
	C459.776,78.873,456.372,75.47,452.172,75.47z"/>
<path d="M413.394,375.538c0,4.199,3.404,7.604,7.604,7.604s7.604-3.405,7.604-7.604v-38.505c0-4.199-3.404-7.604-7.604-7.604
	s-7.604,3.405-7.604,7.604V375.538z"/>
<path d="M420.998,319.288c4.2,0,7.604-3.405,7.604-7.604V83.074c0-4.199-3.404-7.604-7.604-7.604s-7.604,3.405-7.604,7.604v228.612
	C413.394,315.884,416.798,319.288,420.998,319.288z"/>
<path d="M98.606,375.538V83.074c0-4.199-3.404-7.604-7.604-7.604s-7.604,3.405-7.604,7.604v292.466c0,4.199,3.404,7.604,7.604,7.604
	S98.606,379.738,98.606,375.538z"/>
<path d="M208.75,293.31c0-4.199-3.404-7.604-7.604-7.604c-4.2,0-7.604,3.405-7.604,7.604c0,27.2,23.99,49.691,54.854,52.906v11.09
	c0,4.199,3.404,7.604,7.604,7.604s7.604-3.405,7.604-7.604v-11.09c30.864-3.214,54.854-25.706,54.854-52.906
	c0-27.2-23.99-49.691-54.854-52.905v-76.124c22.45,2.942,39.646,18.682,39.646,37.607c0,4.199,3.404,7.604,7.604,7.604
	c4.2,0,7.604-3.405,7.604-7.604c0-27.2-23.99-49.691-54.854-52.906v-11.09c0-4.199-3.404-7.604-7.604-7.604
	s-7.604,3.405-7.604,7.604v11.09c-30.864,3.214-54.854,25.706-54.854,52.906s23.99,49.691,54.854,52.906v76.124
	C225.946,327.975,208.75,312.235,208.75,293.31z M303.25,293.31c0,18.925-17.196,34.665-39.646,37.607v-75.214
	C286.054,258.646,303.25,274.386,303.25,293.31z M208.75,201.888c0-18.925,17.196-34.665,39.646-37.607v75.214
	C225.946,236.553,208.75,220.812,208.75,201.888z"/>
<g>
</g>
<g>
</g>
<g>
</g>
<g>
</g>
<g>
</g>
<g>
</g>
<g>
</g>
<g>
</g>
<g>
</g>
<g>
</g>
<g>
</g>
<g>
</g>
<g>
</g>
<g>
</g>
<g>
</g>
</svg>
