<?xml version="1.0" encoding="iso-8859-1"?>
<!-- Generator: Adobe Illustrator 19.0.0, SVG Export Plug-In . SVG Version: 6.00 Build 0)  -->
<svg version="1.1" id="Capa_1" xmlns="http://www.w3.org/2000/svg" xmlns:xlink="http://www.w3.org/1999/xlink" x="0px" y="0px"
	 viewBox="0 0 512 512" style="enable-background:new 0 0 512 512;" xml:space="preserve">
<path style="fill:#F4B74A;" d="M458.061,277.656c-47.566,47.558-117.884,58.491-175.912,32.784
	c-13.666-6.048-26.64-14.129-38.482-24.241c-3.171-2.701-6.247-5.554-9.244-8.543c-61.751-61.759-61.751-161.879,0-223.638
	c61.758-61.751,161.879-61.751,223.638,0c2.997,2.997,5.841,6.073,8.543,9.244c10.113,11.834,18.193,24.815,24.241,38.482
	C516.552,159.765,505.619,230.09,458.061,277.656z"/>
<path style="fill:#F9C662;" d="M490.845,101.743L282.148,310.44c-13.666-6.048-26.64-14.129-38.482-24.241L466.603,63.262
	C476.716,75.095,484.797,88.077,490.845,101.743z"/>
<path style="fill:#FFD488;" d="M458.059,165.837c0,61.755-50.063,111.818-111.818,111.818c-34.859,0-65.988-15.947-86.5-40.95
	c-15.828-19.291-25.319-43.971-25.319-70.868c0-61.755,50.063-111.818,111.818-111.818c26.903,0,51.584,9.505,70.874,25.333
	C442.113,99.855,458.059,130.985,458.059,165.837z"/>
<path style="fill:#F9C662;" d="M417.116,79.352L259.757,236.711l-0.014-0.007c-4.619-5.629-8.699-11.72-12.154-18.19
	c-3.94-7.353-7.072-15.19-9.295-23.412c-2.523-9.329-3.87-19.143-3.87-29.265c0-61.755,50.063-111.818,111.818-111.818
	c10.129,0,19.942,1.345,29.265,3.87c8.223,2.222,16.059,5.362,23.412,9.302C405.39,70.646,411.481,74.733,417.116,79.352z"/>
<path style="fill:#FFD488;" d="M398.92,67.191L247.588,218.514c-3.94-7.353-7.072-15.19-9.295-23.412L375.508,57.889
	C383.729,60.11,391.566,63.251,398.92,67.191z"/>
<path style="fill:#F4B74A;" d="M367.857,367.86c-47.566,47.558-117.884,58.491-175.912,32.784
	c-13.666-6.048-26.64-14.129-38.482-24.241c-3.171-2.701-6.247-5.554-9.244-8.543c-61.751-61.759-61.751-161.879,0-223.638
	c61.759-61.751,161.879-61.751,223.638,0c2.997,2.997,5.841,6.073,8.543,9.244c10.113,11.834,18.193,24.815,24.241,38.482
	C426.348,249.968,415.415,320.294,367.857,367.86z"/>
<path style="fill:#F9C662;" d="M400.641,191.948L191.944,400.644c-13.666-6.048-26.64-14.129-38.482-24.241L376.4,153.466
	C386.512,165.3,394.592,178.281,400.641,191.948z"/>
<path style="fill:#FFD488;" d="M367.856,256.041c0,61.755-50.063,111.818-111.818,111.818c-34.859,0-65.988-15.947-86.5-40.95
	c-15.828-19.291-25.319-43.971-25.319-70.868c0-61.755,50.063-111.818,111.818-111.818c26.903,0,51.584,9.505,70.874,25.333
	C351.909,190.06,367.856,221.189,367.856,256.041z"/>
<path style="fill:#F9C662;" d="M326.913,169.555l-157.36,157.36l-0.014-0.007c-4.619-5.629-8.699-11.72-12.154-18.19
	c-3.94-7.353-7.072-15.19-9.295-23.412c-2.523-9.329-3.87-19.143-3.87-29.265c0-61.755,50.063-111.818,111.818-111.818
	c10.129,0,19.942,1.345,29.265,3.87c8.223,2.222,16.059,5.362,23.412,9.302C315.185,160.85,321.277,164.936,326.913,169.555z"/>
<path style="fill:#FFD488;" d="M308.715,157.394L157.384,308.718c-3.94-7.353-7.072-15.19-9.295-23.412l137.214-137.214
	C293.526,150.314,301.362,153.454,308.715,157.394z"/>
<path style="fill:#F4B74A;" d="M277.653,458.064c-47.566,47.558-117.884,58.491-175.912,32.784
	c-13.666-6.048-26.64-14.129-38.482-24.241c-3.171-2.701-6.247-5.554-9.244-8.543c-61.751-61.759-61.751-161.879,0-223.638
	c61.759-61.751,161.879-61.751,223.638,0c2.997,2.997,5.841,6.073,8.543,9.244c10.113,11.834,18.193,24.815,24.241,38.482
	C336.145,340.173,325.211,410.498,277.653,458.064z"/>
<path style="fill:#F9C662;" d="M310.437,282.151L101.74,490.848c-13.666-6.048-26.64-14.129-38.482-24.241l222.937-222.937
	C296.308,255.503,304.389,268.485,310.437,282.151z"/>
<path style="fill:#FFD488;" d="M277.651,346.245c0,61.755-50.063,111.818-111.818,111.818c-34.859,0-65.988-15.947-86.5-40.95
	c-15.828-19.291-25.319-43.971-25.319-70.868c0-61.755,50.063-111.818,111.818-111.818c26.903,0,51.584,9.505,70.874,25.333
	C261.705,280.263,277.651,311.393,277.651,346.245z"/>
<path style="fill:#F9C662;" d="M236.708,259.76L79.349,417.119l-0.014-0.007c-4.619-5.629-8.699-11.72-12.154-18.19
	c-3.94-7.353-7.072-15.19-9.295-23.412c-2.523-9.329-3.87-19.143-3.87-29.265c0-61.755,50.063-111.818,111.818-111.818
	c10.129,0,19.942,1.345,29.265,3.87c8.223,2.222,16.059,5.362,23.412,9.302C224.981,251.053,231.073,255.14,236.708,259.76z"/>
<path style="fill:#FFD488;" d="M218.511,247.598L67.18,398.922c-3.94-7.353-7.072-15.19-9.295-23.412L195.1,238.296
	C203.321,240.518,211.158,243.659,218.511,247.598z"/>
<path d="M210.326,84.591c1.299,0.866,2.767,1.279,4.218,1.279c2.463,0,4.882-1.192,6.349-3.396
	c5.483-8.229,11.85-15.988,18.924-23.063c45.899-45.906,115.719-57.258,173.739-28.244c3.766,1.884,8.344,0.357,10.226-3.408
	c1.883-3.765,0.358-8.343-3.408-10.225c-63.897-31.952-140.789-19.453-191.335,31.1c-7.782,7.783-14.79,16.325-20.829,25.389
	C205.875,77.526,206.823,82.257,210.326,84.591z"/>
<path d="M463.454,48.636c-6.285-6.285-13.098-12.093-20.251-17.264c-3.408-2.465-8.174-1.7-10.641,1.711
	c-2.466,3.411-1.7,8.175,1.712,10.641c6.497,4.697,12.688,9.976,18.401,15.688c58.682,58.682,58.682,154.166,0.001,212.848
	c-7.091,7.089-14.851,13.454-23.068,18.919c-3.505,2.331-4.457,7.061-2.126,10.566c1.467,2.207,3.887,3.401,6.353,3.401
	c1.45,0,2.915-0.413,4.213-1.276c9.055-6.023,17.602-13.031,25.405-20.832C528.078,218.413,528.078,113.26,463.454,48.636z"/>
<path d="M432.438,237.476c1.35,0.979,2.913,1.449,4.464,1.449c2.361,0,4.689-1.093,6.179-3.152
	c16.472-22.749,24.379-50.782,22.265-78.933c-2.137-28.454-14.44-55.255-34.645-75.465c-20.209-20.203-47.009-32.507-75.462-34.644
	c-28.153-2.114-56.179,5.793-78.925,22.266c-3.408,2.469-4.17,7.234-1.702,10.643c2.469,3.409,7.235,4.17,10.643,1.702
	c19.829-14.361,44.282-21.257,68.842-19.412c24.819,1.864,48.197,12.597,65.826,30.222c17.626,17.63,28.359,41.009,30.223,65.828
	c1.844,24.565-5.049,49.017-19.412,68.852C428.267,230.242,429.029,235.007,432.438,237.476z"/>
<path d="M256.038,90.285c-44.274,0-85.898,17.243-117.204,48.554c-7.782,7.783-14.79,16.325-20.829,25.389
	c-2.334,3.503-1.386,8.234,2.117,10.568c3.503,2.334,8.235,1.386,10.567-2.117c5.483-8.229,11.85-15.988,18.924-23.063
	c28.427-28.431,66.222-44.089,106.424-44.089s78.001,15.658,106.433,44.089c58.682,58.682,58.682,154.166,0.001,212.848
	c-7.091,7.089-14.851,13.454-23.068,18.919c-3.505,2.331-4.457,7.061-2.126,10.566c1.467,2.207,3.887,3.401,6.353,3.401
	c1.45,0,2.915-0.413,4.213-1.276c9.055-6.023,17.602-13.031,25.405-20.832c64.625-64.626,64.625-169.779,0-234.404
	C341.939,107.529,300.313,90.285,256.038,90.285z"/>
<path d="M342.234,327.68c1.35,0.979,2.913,1.449,4.464,1.449c2.361,0,4.689-1.093,6.179-3.152
	c16.472-22.749,24.379-50.782,22.265-78.933c-2.137-28.454-14.44-55.255-34.645-75.465c-20.209-20.203-47.009-32.507-75.462-34.644
	c-28.151-2.114-56.179,5.793-78.925,22.266c-3.408,2.469-4.17,7.234-1.702,10.643c2.469,3.409,7.236,4.17,10.643,1.702
	c19.829-14.362,44.278-21.257,68.842-19.412c24.819,1.864,48.197,12.597,65.826,30.222c17.626,17.63,28.359,41.009,30.223,65.828
	c1.844,24.565-5.049,49.018-19.412,68.852C338.062,320.447,338.824,325.212,342.234,327.68z"/>
<path d="M165.834,180.489c-44.275,0-85.9,17.241-117.208,48.549C17.321,260.345,0.078,301.969,0.078,346.244
	s17.242,85.9,48.548,117.207C79.934,494.758,121.558,512,165.834,512c44.274,0,85.899-17.241,117.207-48.549
	c31.307-31.307,48.548-72.932,48.548-117.207s-17.242-85.9-48.548-117.207C251.733,197.73,210.108,180.489,165.834,180.489z
	 M272.262,452.674c-28.428,28.428-66.224,44.084-106.427,44.084s-78.001-15.656-106.428-44.084
	c-28.429-28.428-44.085-66.225-44.085-106.428s15.656-78,44.085-106.429c28.428-28.428,66.225-44.084,106.428-44.084
	s78,15.656,106.427,44.084c28.429,28.428,44.085,66.225,44.085,106.429C316.347,386.448,300.691,424.246,272.262,452.674z"/>
<path d="M81.377,261.787c-46.57,46.57-46.57,122.345,0,168.914c22.864,22.864,53.368,35.02,84.458,35.019
	c14.928,0,29.993-2.803,44.41-8.568c3.908-1.563,5.809-5.998,4.247-9.907c-1.563-3.908-5.998-5.809-9.907-4.247
	c-38.775,15.507-82.907,6.449-112.43-23.076c-40.627-40.627-40.627-106.731,0-147.358c40.626-40.626,106.73-40.626,147.357,0
	c40.627,40.627,40.627,106.731,0.001,147.358c-5.004,5.003-10.505,9.497-16.353,13.358c-3.512,2.319-4.479,7.047-2.16,10.559
	c2.32,3.513,7.048,4.478,10.56,2.16c6.703-4.425,13.005-9.573,18.732-15.299c46.57-46.57,46.57-122.345,0-168.914
	C203.721,215.218,127.948,215.218,81.377,261.787z"/>
<path d="M192.697,317.507c0,4.209,3.411,7.621,7.621,7.621c4.21,0,7.621-3.412,7.621-7.621c0-17.801-14.895-32.644-34.485-35.751
	v-4.482c0-4.209-3.411-7.621-7.621-7.621c-4.21,0-7.621,3.412-7.621,7.621v4.482c-19.591,3.107-34.485,17.95-34.485,35.751
	c0,17.8,14.896,32.644,34.485,35.751v41.97c-11.112-2.589-19.244-10.683-19.244-20.246c0-4.209-3.411-7.621-7.621-7.621
	c-4.21,0-7.621,3.412-7.621,7.621c0,17.801,14.896,32.644,34.485,35.751v4.482c0,4.209,3.411,7.621,7.621,7.621
	c4.21,0,7.621-3.412,7.621-7.621v-4.482c19.591-3.106,34.485-17.95,34.485-35.751c0-17.8-14.895-32.644-34.485-35.751v-41.97
	C184.566,299.85,192.697,307.944,192.697,317.507z M138.969,317.507c0-9.563,8.131-17.657,19.244-20.246v40.492
	C147.101,335.164,138.969,327.07,138.969,317.507z M192.697,374.982c0,9.563-8.131,17.657-19.243,20.246v-40.492
	C184.566,357.325,192.697,365.419,192.697,374.982z"/>
<g>
</g>
<g>
</g>
<g>
</g>
<g>
</g>
<g>
</g>
<g>
</g>
<g>
</g>
<g>
</g>
<g>
</g>
<g>
</g>
<g>
</g>
<g>
</g>
<g>
</g>
<g>
</g>
<g>
</g>
</svg>
