<?xml version="1.0" encoding="iso-8859-1"?>
<!-- Generator: Adobe Illustrator 19.0.0, SVG Export Plug-In . SVG Version: 6.00 Build 0)  -->
<svg version="1.1" id="Capa_1" xmlns="http://www.w3.org/2000/svg" xmlns:xlink="http://www.w3.org/1999/xlink" x="0px" y="0px"
	 viewBox="0 0 512 512" style="enable-background:new 0 0 512 512;" xml:space="preserve">
<circle style="fill:#E05F5F;" cx="256.002" cy="256.052" r="248.289"/>
<path style="fill:#FFD488;" d="M504.286,256.054H255.956L131.812,41.026c118.763-68.558,270.604-27.869,339.163,90.884
	C493.594,171.079,504.327,213.855,504.286,256.054z"/>
<path style="fill:#38C183;" d="M256.003,256.054L131.848,471.113c-36.564-21.059-68.244-51.735-90.864-90.914
	c-68.568-118.753-27.879-270.604,90.874-339.173L256.003,256.054z"/>
<path d="M477.607,128.11C443.432,68.917,388.252,26.576,322.23,8.885C256.208-8.806,187.25,0.274,128.056,34.449
	C68.863,68.624,26.521,123.804,8.83,189.826S0.218,324.807,34.393,384c3.534,6.12,7.349,12.145,11.338,17.909
	c2.392,3.453,7.125,4.312,10.576,1.922c3.452-2.389,4.313-7.124,1.923-10.576c-3.756-5.425-7.346-11.096-10.673-16.858
	C15.414,320.722,6.875,255.86,23.514,193.761C39.496,134.115,76.879,83.887,129.143,51.526l118.084,204.527L129.138,460.584
	c-19.688-12.182-37.625-27.178-53.087-44.615c-2.783-3.141-7.586-3.429-10.729-0.644c-3.142,2.785-3.429,7.589-0.645,10.729
	c38.532,43.455,91.48,72.713,149.085,82.386c13.965,2.345,28.047,3.503,42.095,3.503c44.682,0,89.014-11.723,128.089-34.283
	c59.193-34.176,101.535-89.356,119.225-155.377C520.861,256.263,511.783,187.304,477.607,128.11z M376.345,464.497
	c-48.309,27.89-105.157,38.174-160.065,28.953c-26.007-4.367-50.999-12.987-73.97-25.278l118.081-204.519l130.96,0.002
	c4.198,0,7.601-3.403,7.601-7.601s-3.402-7.601-7.601-7.601l-130.96-0.002L142.307,43.925
	C196.462,14.846,258.65,7.586,318.295,23.569c62.099,16.639,114.002,56.466,146.147,112.142
	c20.177,34.947,31.048,73.514,32.235,112.744l-79.99-0.001c-4.198,0-7.601,3.403-7.601,7.601c0,4.198,3.402,7.601,7.601,7.601
	l79.955,0.001c-0.612,18.269-3.307,36.598-8.155,54.693C471.848,380.449,432.021,432.352,376.345,464.497z"/>
<path d="M87.299,292.246c0-4.198-3.402-7.601-7.601-7.601c-4.199,0-7.601,3.403-7.601,7.601c0,19.111,16.164,35.021,37.329,38.143
	v5.408c0,4.198,3.402,7.601,7.601,7.601c4.199,0,7.601-3.403,7.601-7.601v-5.408c21.165-3.121,37.329-19.032,37.329-38.143
	c0-19.111-16.164-35.022-37.329-38.143v-46.797c12.722,2.662,22.128,11.84,22.128,22.725c0,4.198,3.402,7.601,7.601,7.601
	s7.601-3.403,7.601-7.601c0-19.111-16.164-35.021-37.329-38.143v-5.408c0-4.198-3.402-7.601-7.601-7.601
	c-4.199,0-7.601,3.403-7.601,7.601v5.408c-21.165,3.121-37.329,19.032-37.329,38.143s16.164,35.022,37.329,38.143v46.797
	C96.706,312.307,87.299,303.13,87.299,292.246z M146.757,292.246c0,10.885-9.406,20.063-22.128,22.725v-45.45
	C137.351,272.183,146.757,281.36,146.757,292.246z M87.299,230.029c0-10.885,9.406-20.063,22.128-22.725v45.45
	C96.706,250.092,87.299,240.915,87.299,230.029z"/>
<path d="M318.498,86.2c11.226,0,21.947,5.524,30.189,15.554c2.666,3.244,7.455,3.711,10.699,1.047
	c3.243-2.665,3.712-7.455,1.047-10.698C349.249,78.494,334.357,71,318.498,71c-26.751,0-49.419,21.722-56.818,51.476h-6.747
	c-4.199,0-7.601,3.403-7.601,7.601s3.402,7.601,7.601,7.601h4.401c-0.126,1.924-0.209,3.864-0.209,5.827
	c0,1.963,0.083,3.903,0.209,5.827h-4.401c-4.199,0-7.601,3.403-7.601,7.601s3.402,7.601,7.601,7.601h6.747
	c7.399,29.755,30.066,51.476,56.818,51.476c15.858,0,30.751-7.495,41.934-21.104c2.665-3.243,2.196-8.032-1.047-10.698
	c-3.241-2.664-8.031-2.196-10.699,1.047c-8.242,10.03-18.963,15.554-30.189,15.554c-18.634,0-34.598-15.054-41.076-36.275h43.576
	c4.199,0,7.601-3.403,7.601-7.601s-3.402-7.601-7.601-7.601h-46.444c-0.15-1.916-0.227-3.86-0.227-5.827
	c0-1.967,0.077-3.911,0.227-5.827h46.444c4.199,0,7.601-3.403,7.601-7.601c0-4.198-3.402-7.601-7.601-7.601h-43.576
	C283.899,101.255,299.864,86.2,318.498,86.2z"/>
<path d="M315.16,305.154c-20.184,0-36.605,16.421-36.605,36.605v35.615h-13.225c-4.199,0-7.601,3.403-7.601,7.601
	s3.402,7.601,7.601,7.601h13.225v42.387h-13.225c-4.199,0-7.601,3.403-7.601,7.601c0,4.198,3.402,7.601,7.601,7.601h71.373
	c4.199,0,7.601-3.403,7.601-7.601c0-4.198-3.402-7.601-7.601-7.601h-42.947v-42.387h26.832c4.199,0,7.601-3.403,7.601-7.601
	s-3.402-7.601-7.601-7.601h-26.832v-35.616c0-11.802,9.602-21.404,21.404-21.404c11.801,0,21.402,9.601,21.402,21.404v17.435
	c0,4.198,3.402,7.601,7.601,7.601s7.601-3.403,7.601-7.601v-17.435C351.763,321.574,335.343,305.154,315.16,305.154z"/>
<g>
</g>
<g>
</g>
<g>
</g>
<g>
</g>
<g>
</g>
<g>
</g>
<g>
</g>
<g>
</g>
<g>
</g>
<g>
</g>
<g>
</g>
<g>
</g>
<g>
</g>
<g>
</g>
<g>
</g>
</svg>
