<?xml version="1.0" encoding="iso-8859-1"?>
<!-- Generator: Adobe Illustrator 19.0.0, SVG Export Plug-In . SVG Version: 6.00 Build 0)  -->
<svg version="1.1" id="Capa_1" xmlns="http://www.w3.org/2000/svg" xmlns:xlink="http://www.w3.org/1999/xlink" x="0px" y="0px"
	 viewBox="0 0 512 512" style="enable-background:new 0 0 512 512;" xml:space="preserve">
<rect x="125.222" y="7.604" style="fill:#DDDDDD;" width="338.214" height="496.792"/>
<rect x="166.588" y="60.767" style="fill:#467EB7;" width="255.483" height="60.829"/>
<rect x="336.906" y="60.767" style="fill:#FFD488;" width="85.16" height="60.829"/>
<rect x="166.588" y="170.258" style="fill:#467EB7;" width="255.483" height="60.829"/>
<rect x="251.742" y="170.258" style="fill:#FFD488;" width="85.16" height="60.829"/>
<g>
	<rect x="166.588" y="279.755" style="fill:#467EB7;" width="255.483" height="60.829"/>
	<rect x="166.588" y="389.242" style="fill:#467EB7;" width="255.483" height="60.829"/>
</g>
<g>
	<rect x="336.906" y="389.242" style="fill:#FFD488;" width="85.16" height="60.829"/>
	<path style="fill:#FFD488;" d="M247.547,403.881c0,54.951-44.539,99.49-99.49,99.49c-3.995,0-7.928-0.233-11.791-0.7
		c-12.562-1.48-24.414-5.302-35.09-11.021c-9.774-5.232-18.574-12.045-26.036-20.105c-14.823-15.948-24.454-36.763-26.249-59.787
		c-0.213-2.595-0.314-5.221-0.314-7.878c0-54.941,44.539-99.48,99.48-99.48c2.656,0,5.282,0.101,7.878,0.314
		c23.025,1.795,43.839,11.426,59.787,26.249c8.06,7.462,14.873,16.262,20.105,26.036c5.718,10.676,9.54,22.528,11.021,35.09
		C247.314,395.952,247.547,399.896,247.547,403.881z"/>
</g>
<g>
	<path style="fill:#F9C662;" d="M215.722,330.964L75.14,471.546c-14.823-15.948-24.454-36.763-26.249-59.787l107.043-107.043
		C178.96,306.51,199.774,316.141,215.722,330.964z"/>
	<path style="fill:#F9C662;" d="M246.848,392.09L136.266,502.671c-12.562-1.48-24.414-5.302-35.09-11.021L235.827,357
		C241.545,367.676,245.368,379.528,246.848,392.09z"/>
</g>
<path d="M463.429,111.967c-4.199,0-7.604,3.405-7.604,7.604v377.221H227.259c-4.199,0-7.604,3.405-7.604,7.604
	S223.06,512,227.259,512h236.17c4.199,0,7.604-3.405,7.604-7.604V119.571C471.033,115.37,467.628,111.967,463.429,111.967z"/>
<path d="M463.429,0H125.218c-4.199,0-7.604,3.405-7.604,7.604v269.104c0,4.199,3.405,7.604,7.604,7.604s7.604-3.405,7.604-7.604
	v-261.5h323.003v79.014c0,4.199,3.405,7.604,7.604,7.604c4.199,0,7.604-3.405,7.604-7.604V7.604C471.033,3.405,467.628,0,463.429,0z
	"/>
<path d="M166.582,129.199h255.48c4.199,0,7.604-3.405,7.604-7.604V60.767c0-4.199-3.405-7.604-7.604-7.604h-255.48
	c-4.199,0-7.604,3.405-7.604,7.604v60.829C158.979,125.795,162.383,129.199,166.582,129.199z M259.348,113.991V68.371H329.3v45.621
	H259.348z M414.459,113.991h-69.952V68.371h69.952V113.991z M174.186,68.371h69.952v45.621h-69.952V68.371z"/>
<path d="M158.979,231.086c0,4.199,3.405,7.604,7.604,7.604h21.643c4.199,0,7.604-3.405,7.604-7.604s-3.405-7.604-7.604-7.604
	h-14.039v-45.621h69.952v45.621h-30.565c-4.199,0-7.604,3.405-7.604,7.604s3.405,7.604,7.604,7.604h208.489
	c4.199,0,7.604-3.405,7.604-7.604v-60.829c0-4.199-3.405-7.604-7.604-7.604H166.582c-4.199,0-7.604,3.405-7.604,7.604V231.086z
	 M259.348,177.862H329.3v45.621h-69.952V177.862z M414.459,223.482h-69.952v-45.621h69.952V223.482z"/>
<path d="M166.582,287.354h77.556v53.225c0,4.199,3.405,7.604,7.604,7.604h170.32c4.199,0,7.604-3.405,7.604-7.604V279.75
	c0-4.199-3.405-7.604-7.604-7.604h-255.48c-4.199,0-7.604,3.405-7.604,7.604S162.383,287.354,166.582,287.354z M259.348,287.354
	H329.3v45.621h-69.952V287.354z M414.459,332.974h-69.952v-45.621h69.952V332.974z"/>
<path d="M261.611,442.466c-4.199,0-7.604,3.405-7.604,7.604s3.405,7.604,7.604,7.604h160.453c4.199,0,7.604-3.405,7.604-7.604
	v-60.829c0-4.199-3.405-7.604-7.604-7.604H269.722c-4.199,0-7.604,3.405-7.604,7.604c0,4.199,3.405,7.604,7.604,7.604h59.578v45.621
	H261.611z M344.507,396.845h69.952v45.621h-69.952V396.845z"/>
<path d="M166.407,363.016c4.438,3.698,6.881,8.494,6.881,13.507c0,4.199,3.405,7.604,7.604,7.604s7.604-3.405,7.604-7.604
	c0-17.033-14.161-31.251-32.835-34.337v-3.969c0-4.199-3.405-7.604-7.604-7.604s-7.604,3.405-7.604,7.604v3.969
	c-18.674,3.086-32.835,17.305-32.835,34.337c0,17.033,14.161,31.252,32.835,34.337v39.23c-4.042-1.005-7.722-2.818-10.746-5.337
	c-4.438-3.698-6.881-8.494-6.881-13.507c0-4.199-3.405-7.604-7.604-7.604c-4.199,0-7.604,3.405-7.604,7.604
	c0,17.033,14.161,31.252,32.835,34.337v3.969c0,4.199,3.405,7.604,7.604,7.604s7.604-3.405,7.604-7.604v-3.969
	c18.674-3.085,32.835-17.305,32.835-34.337s-14.161-31.252-32.835-34.337v-39.23C159.703,358.684,163.383,360.497,166.407,363.016z
	 M129.707,390.029c-4.438-3.698-6.881-8.494-6.881-13.507c0-5.013,2.443-9.809,6.881-13.507c3.023-2.519,6.704-4.332,10.746-5.337
	v37.687C136.411,394.362,132.732,392.549,129.707,390.029z M166.407,417.741c4.438,3.698,6.881,8.494,6.881,13.507
	c0,5.013-2.443,9.809-6.881,13.507c-3.023,2.519-6.704,4.332-10.746,5.337v-37.687C159.703,413.409,163.383,415.221,166.407,417.741
	z"/>
<path d="M255.146,403.885c0-59.049-48.04-107.089-107.089-107.089s-107.09,48.04-107.09,107.089s48.04,107.089,107.089,107.089
	S255.146,462.934,255.146,403.885z M148.057,495.767c-50.664,0-91.881-41.217-91.881-91.881s41.218-91.881,91.881-91.881
	s91.881,41.218,91.881,91.881S198.721,495.767,148.057,495.767z"/>
<g>
</g>
<g>
</g>
<g>
</g>
<g>
</g>
<g>
</g>
<g>
</g>
<g>
</g>
<g>
</g>
<g>
</g>
<g>
</g>
<g>
</g>
<g>
</g>
<g>
</g>
<g>
</g>
<g>
</g>
</svg>
