<?xml version="1.0" encoding="iso-8859-1"?>
<!-- Generator: Adobe Illustrator 19.0.0, SVG Export Plug-In . SVG Version: 6.00 Build 0)  -->
<svg version="1.1" id="Capa_1" xmlns="http://www.w3.org/2000/svg" xmlns:xlink="http://www.w3.org/1999/xlink" x="0px" y="0px"
	 viewBox="0 0 512 512" style="enable-background:new 0 0 512 512;" xml:space="preserve">
<path style="fill:#FFD488;" d="M152.07,343.023c0,27.994-22.69,50.684-50.684,50.684c-2.035,0-4.039-0.119-6.006-0.357
	c-6.4-0.754-12.437-2.701-17.876-5.614c-4.979-2.666-9.462-6.136-13.264-10.242c-7.552-8.125-12.458-18.729-13.372-30.458
	c-0.108-1.323-0.16-2.66-0.16-4.014c0-27.989,22.69-50.679,50.679-50.679c1.353,0,2.691,0.052,4.014,0.161
	c11.73,0.914,22.333,5.821,30.458,13.372c4.107,3.802,7.577,8.285,10.243,13.264c2.913,5.439,4.861,11.476,5.614,17.876
	C151.95,338.984,152.07,340.993,152.07,343.023z"/>
<g>
	<path style="fill:#F9C662;" d="M135.856,305.876l-71.618,71.618c-7.552-8.124-12.458-18.729-13.372-30.458l54.532-54.532
		C117.128,293.418,127.731,298.325,135.856,305.876z"/>
	<path style="fill:#F9C662;" d="M151.713,337.016l-56.335,56.335c-6.4-0.754-12.437-2.701-17.876-5.614l68.596-68.596
		C149.012,324.579,150.959,330.617,151.713,337.016z"/>
</g>
<path style="fill:#FFD488;" d="M274.84,290.983c0,27.994-22.69,50.684-50.684,50.684c-2.035,0-4.039-0.119-6.006-0.357
	c-6.4-0.754-12.437-2.701-17.876-5.614c-4.979-2.666-9.462-6.136-13.264-10.242c-7.552-8.124-12.459-18.729-13.372-30.458
	c-0.108-1.323-0.16-2.66-0.16-4.014c0-27.989,22.69-50.679,50.679-50.679c1.353,0,2.691,0.052,4.013,0.16
	c11.73,0.915,22.333,5.821,30.458,13.372c4.107,3.802,7.577,8.285,10.242,13.264c2.913,5.439,4.861,11.476,5.614,17.876
	C274.721,286.944,274.84,288.954,274.84,290.983z"/>
<g>
	<path style="fill:#F9C662;" d="M258.627,253.837l-71.619,71.618c-7.552-8.124-12.459-18.729-13.372-30.458l54.532-54.532
		C239.899,241.379,250.502,246.286,258.627,253.837z"/>
	<path style="fill:#F9C662;" d="M274.483,284.977l-56.335,56.335c-6.4-0.754-12.437-2.701-17.876-5.614l68.596-68.596
		C271.782,272.54,273.73,278.577,274.483,284.977z"/>
</g>
<path style="fill:#FFD488;" d="M149.038,192.464c0,27.994-22.69,50.684-50.684,50.684c-2.035,0-4.039-0.119-6.006-0.357
	c-6.4-0.754-12.437-2.701-17.876-5.614c-4.979-2.666-9.462-6.136-13.264-10.243c-7.552-8.124-12.458-18.729-13.372-30.458
	c-0.108-1.323-0.16-2.66-0.16-4.014c0-27.989,22.69-50.679,50.679-50.679c1.353,0,2.691,0.052,4.014,0.16
	c11.73,0.915,22.333,5.821,30.458,13.372c4.107,3.802,7.577,8.285,10.243,13.264c2.913,5.439,4.861,11.476,5.614,17.876
	C148.919,188.425,149.038,190.435,149.038,192.464z"/>
<g>
	<path style="fill:#F9C662;" d="M132.825,155.318l-71.619,71.618c-7.552-8.124-12.458-18.729-13.372-30.458l54.532-54.532
		C114.097,142.859,124.7,147.766,132.825,155.318z"/>
	<path style="fill:#F9C662;" d="M148.681,186.458l-56.335,56.335c-6.4-0.754-12.437-2.701-17.876-5.614l68.596-68.596
		C145.98,174.02,147.928,180.058,148.681,186.458z"/>
</g>
<path style="fill:#E05F5F;" d="M460.901,168.731l43.52,102.546l-47.589,20.196c2.256,23.061,0.496,46.048-4.91,68.047l31.049,73.161
	l-80.956,34.357l-24.16-56.928l-1.367,1.305c-18.227,17.296-39.28,31.006-62.042,40.666c-14.325,6.079-29.32,10.555-44.728,13.306
	l47.119-98.464l-93.747-54.06l58.637-90.75L159.8,144.335c41.598-25.469,91.838-37.065,143.438-29.73
	c3.039,0.434,5.21,0.819,6.319,1.128c3.464-17.212,15.107-32.483,32.493-39.86l9.981-4.236l37.085,87.384
	c9.769,8.611,18.799,18.225,26.867,28.775L460.901,168.731z"/>
<rect x="448.615" y="251.122" transform="matrix(0.9205 -0.3907 0.3907 0.9205 -66.5635 206.5898)" style="fill:#CE5151;" width="51.697" height="31.537"/>
<path style="fill:#2E3842;" d="M382.36,256.984L382.36,256.984c-8.091,3.434-17.433-0.342-20.867-8.433l-11.842-27.905
	c-3.434-8.091,0.342-17.433,8.433-20.867l0,0c8.091-3.434,17.433,0.342,20.867,8.433l11.842,27.905
	C394.227,244.208,390.45,253.55,382.36,256.984z"/>
<g>
	<path style="fill:#E05F5F;" d="M100.309,383.502l27.786,82.108c-6.315-1.486-12.596-3.292-18.871-5.426
		c-43.71-14.869-78.796-43.102-101.645-77.943L100.309,383.502z"/>
	<path style="fill:#E05F5F;" d="M245.999,398.844l-65.364,76.098c-11.082-23.966-18.076-49.822-20.832-76.443L245.999,398.844z"/>
	<path style="fill:#E05F5F;" d="M135.35,122.627L51.704,67.248c22.4-13.98,47.184-24.14,73.255-30.189L135.35,122.627z"/>
</g>
<path d="M63.602,308.409c-3.469-2.342-8.18-1.431-10.522,2.037c-6.513,9.639-9.956,20.905-9.956,32.58
	c0,7.862,1.541,15.493,4.582,22.68c1.223,2.891,4.03,4.628,6.984,4.628c0.984,0,1.985-0.193,2.949-0.6
	c3.855-1.631,5.658-6.078,4.028-9.933c-2.245-5.308-3.384-10.953-3.384-16.775c0-8.639,2.544-16.97,7.358-24.095
	C67.982,315.463,67.07,310.752,63.602,308.409z"/>
<path d="M101.386,284.765c-8.48,0-16.659,1.784-24.311,5.301c-3.803,1.748-5.469,6.249-3.721,10.052
	c1.748,3.803,6.249,5.469,10.052,3.721c5.652-2.598,11.701-3.916,17.979-3.916c23.767,0,43.103,19.336,43.103,43.103
	c0,14.922-7.555,28.577-20.209,36.528c-3.544,2.227-4.612,6.905-2.385,10.45c1.44,2.292,3.904,3.548,6.425,3.548
	c1.377,0,2.772-0.376,4.025-1.162c17.096-10.742,27.303-29.196,27.303-49.363C159.645,310.901,133.511,284.765,101.386,284.765z"/>
<path d="M224.155,247.883c5.933,0,11.675,1.18,17.069,3.51c3.844,1.658,8.302-0.111,9.963-3.954
	c1.659-3.843-0.111-8.303-3.954-9.963c-7.303-3.153-15.067-4.751-23.078-4.751c-32.125,0-58.261,26.136-58.261,58.261
	s26.136,58.261,58.261,58.261c2.681,0,5.38-0.185,8.021-0.549c4.146-0.571,7.044-4.397,6.472-8.543
	c-0.571-4.146-4.39-7.043-8.543-6.472c-1.957,0.27-3.959,0.406-5.951,0.406c-23.767,0-43.103-19.336-43.103-43.103
	C181.052,267.219,200.388,247.883,224.155,247.883z"/>
<path d="M98.354,250.728c32.125,0,58.261-26.136,58.261-58.261s-26.136-58.261-58.261-58.261s-58.261,26.136-58.261,58.261
	S66.229,250.728,98.354,250.728z M98.354,149.363c23.767,0,43.103,19.336,43.103,43.103s-19.336,43.103-43.103,43.103
	s-43.103-19.336-43.103-43.103S74.587,149.363,98.354,149.363z"/>
<path d="M385.926,205.251c-2.451-5.776-7.006-10.253-12.824-12.604c-5.818-2.351-12.203-2.296-17.98,0.156
	c-11.925,5.061-17.51,18.879-12.448,30.804l11.843,27.905c3.793,8.939,12.508,14.315,21.658,14.315c3.056,0,6.161-0.6,9.146-1.867
	c11.925-5.061,17.51-18.879,12.448-30.804L385.926,205.251z M379.398,250.008c-4.23,1.795-9.134-0.186-10.93-4.417l-11.843-27.904
	c-1.796-4.232,0.186-9.135,4.418-10.931c1.059-0.45,2.16-0.662,3.245-0.662c3.246,0,6.339,1.908,7.685,5.079l11.842,27.905
	C385.612,243.309,383.63,248.212,379.398,250.008z"/>
<path d="M383.762,341.334c-3.853,1.635-5.651,6.084-4.016,9.937c1.225,2.887,4.03,4.62,6.98,4.62c0.987,0,1.992-0.194,2.957-0.604
	c10.147-4.306,18.008-12.305,22.137-22.523s4.032-21.434-0.274-31.579c-8.888-20.944-33.159-30.751-54.104-21.863
	c-3.853,1.635-5.651,6.084-4.016,9.937c1.636,3.853,6.085,5.651,9.937,4.016c13.25-5.622,28.605,0.581,34.229,13.832
	c2.723,6.419,2.785,13.515,0.173,19.979C395.154,333.549,390.181,338.61,383.762,341.334z"/>
<path d="M511.396,268.316l-43.52-102.546c-0.785-1.85-2.274-3.312-4.137-4.065s-3.95-0.736-5.8,0.051l-39.589,16.801
	c-6.953-8.571-14.641-16.643-22.926-24.068l-36.419-85.812c-0.785-1.85-2.274-3.312-4.137-4.065c-1.863-0.753-3.95-0.736-5.8,0.051
	l-9.981,4.236c-16.764,7.114-29.473,21.086-35.072,38.166c-51.306-7.224-103.919,3.715-148.175,30.81
	c-2.229,1.365-3.597,3.781-3.621,6.393c-0.024,2.613,1.3,5.054,3.502,6.459l35.324,22.534c3.528,2.25,8.214,1.216,10.465-2.313
	c2.251-3.529,1.216-8.214-2.313-10.466l-24.759-15.794c38.988-20.803,83.881-28.81,127.726-22.577
	c3.97,0.567,5.158,0.87,5.355,0.926c2.03,0.566,4.202,0.262,5.997-0.841c1.796-1.101,3.052-2.9,3.467-4.965
	c3.098-15.396,13.575-28.248,28.023-34.379l3.004-1.275l34.124,80.407c0.443,1.044,1.115,1.975,1.965,2.724
	c9.297,8.194,17.795,17.266,25.287,26.965l10.679,25.165c1.225,2.887,4.03,4.62,6.98,4.62c0.987,0,1.992-0.194,2.958-0.604
	c3.853-1.635,5.651-6.084,4.016-9.937l-8.106-19.102l30.969-13.143l37.598,88.593l-33.639,14.276l-9.359-22.053
	c-1.635-3.853-6.084-5.65-9.937-4.016c-3.853,1.635-5.651,6.084-4.016,9.937l11.855,27.933c1.986,21.584,0.369,43.236-4.826,64.372
	c-0.391,1.59-0.256,3.263,0.383,4.77l28.088,66.184l-67.003,28.436l-21.199-49.952c-0.972-2.291-3.006-3.958-5.444-4.461
	c-2.438-0.504-4.966,0.221-6.766,1.94l-1.351,1.289c-17.474,16.582-37.589,29.767-59.787,39.187
	c-9.162,3.888-18.616,7.094-28.244,9.581l40.432-84.49c1.71-3.572,0.38-7.858-3.051-9.836l-86.841-50.079l54.311-84.053
	c1.094-1.695,1.469-3.756,1.04-5.728c-0.43-1.972-1.628-3.689-3.329-4.776l-66.26-42.269c-3.531-2.252-8.215-1.217-10.465,2.313
	c-2.251,3.529-1.216,8.214,2.313,10.466l59.833,38.168l-54.5,84.347c-1.127,1.744-1.489,3.874-1.001,5.893
	c0.487,2.019,1.782,3.748,3.58,4.786l87.668,50.555l-44.089,92.133c-1.227,2.565-0.917,5.599,0.805,7.862
	c1.722,2.263,4.566,3.37,7.363,2.871c15.879-2.837,31.475-7.476,46.357-13.791c21.106-8.957,40.464-21.08,57.666-36.105
	l19.967,47.048c0.785,1.85,2.274,3.312,4.137,4.065c0.911,0.368,1.875,0.552,2.84,0.552c1.007,0,2.015-0.201,2.961-0.602
	l80.956-34.357c1.85-0.785,3.312-2.274,4.065-4.137c0.754-1.863,0.736-3.95-0.051-5.8l-30.074-70.863
	c4.796-20.569,6.464-41.572,4.972-62.551l42.536-18.053C511.234,276.618,513.031,272.169,511.396,268.316z"/>
<path d="M107.489,381.072c-1.03-3.042-3.864-5.105-7.076-5.149l-92.731-1.263c-2.786-0.042-5.398,1.474-6.747,3.932
	c-1.349,2.458-1.231,5.459,0.306,7.803c24.527,37.401,62.01,66.154,105.541,80.963c6.463,2.199,13.05,4.093,19.576,5.629
	c0.577,0.135,1.159,0.202,1.737,0.202c2.108,0,4.153-0.881,5.607-2.481c1.852-2.038,2.454-4.919,1.571-7.528L107.489,381.072z
	 M111.665,453.008c-35.575-12.102-66.768-34.216-89.2-62.987l72.383,0.986l21.499,63.53
	C114.781,454.047,113.22,453.537,111.665,453.008z"/>
<path d="M246.029,391.265l-86.195-0.345c-2.117-0.003-4.205,0.897-5.648,2.492c-1.444,1.595-2.142,3.728-1.92,5.867
	c2.864,27.671,10.094,54.198,21.49,78.844c1.082,2.34,3.281,3.97,5.835,4.325c0.35,0.048,0.698,0.073,1.045,0.073
	c2.192,0,4.298-0.952,5.749-2.64l65.364-76.098c1.926-2.242,2.373-5.399,1.144-8.087
	C251.664,393.006,248.985,391.277,246.029,391.265z M182.791,460.801c-6.967-17.414-11.803-35.735-14.433-54.689l61.196,0.245
	L182.791,460.801z"/>
<path d="M47.519,73.567l83.646,55.379c1.266,0.839,2.724,1.26,4.184,1.26c1.38,0,2.762-0.377,3.983-1.132
	c2.514-1.553,3.897-4.427,3.54-7.362L132.48,36.145c-0.26-2.135-1.414-4.06-3.176-5.294c-1.763-1.235-3.966-1.661-6.061-1.175
	C96.145,35.965,70.725,46.442,47.69,60.818c-2.188,1.365-3.531,3.749-3.565,6.328C44.091,69.725,45.37,72.143,47.519,73.567z
	 M118.469,46.495l7.378,60.751l-59.843-39.62C82.414,58.544,99.99,51.466,118.469,46.495z"/>
<g>
</g>
<g>
</g>
<g>
</g>
<g>
</g>
<g>
</g>
<g>
</g>
<g>
</g>
<g>
</g>
<g>
</g>
<g>
</g>
<g>
</g>
<g>
</g>
<g>
</g>
<g>
</g>
<g>
</g>
</svg>
