<?xml version="1.0" encoding="iso-8859-1"?>
<!-- Generator: Adobe Illustrator 19.0.0, SVG Export Plug-In . SVG Version: 6.00 Build 0)  -->
<svg version="1.1" id="Capa_1" xmlns="http://www.w3.org/2000/svg" xmlns:xlink="http://www.w3.org/1999/xlink" x="0px" y="0px"
	 viewBox="0 0 512 512" style="enable-background:new 0 0 512 512;" xml:space="preserve">
<path style="fill:#38C183;" d="M448.996,76.394c16.56,14.434,33.12,28.868,49.682,43.301c6.878,5.994,7.321,16.505,1.021,23.102
	c-39.001,40.851-86.908,72.271-140.078,91.755c-9.431-25.738-18.862-51.474-28.293-77.212
	C376.741,140.701,417.216,112.856,448.996,76.394z"/>
<path style="fill:#49E298;" d="M394.54,38.597c16.512,3.044,33.023,6.089,49.535,9.133c8.972,1.654,14.708,10.472,12.648,19.359
	c-12.748,55.021-37.964,106.465-73.79,150.32c-21.228-17.342-42.455-34.683-63.683-52.026
	c27.414-33.557,46.836-72.828,56.889-114.843C378.111,42.301,386.207,37.062,394.54,38.597z"/>
<path style="fill:#DDDDDD;" d="M365.292,122.452H87.936c-30.974,0-56.082,25.109-56.082,56.082v197.288
	c0,30.974,25.109,56.082,56.082,56.082h277.356c30.974,0,56.082-25.109,56.082-56.082V178.534
	C421.374,147.561,396.266,122.452,365.292,122.452z"/>
<path style="fill:#49E298;" d="M176.819,414.602c-5.178,16.016-10.356,32.032-15.534,48.049
	c-2.795,8.646-12.246,13.167-20.756,9.985c-47.72-17.845-91.237-45.372-127.807-80.845c-6.522-6.326-6.486-16.802,0.129-23.032
	c12.253-11.54,24.507-23.081,36.76-34.622c6.144-5.786,15.75-5.775,21.85,0.058c27.623,26.414,60.244,47.047,95.945,60.691
	C175.29,397.897,179.416,406.571,176.819,414.602z"/>
<path d="M365.292,114.59h-54.533V80.355c0-21.692-17.648-39.341-39.341-39.341h-99.342c-21.692,0-39.341,17.648-39.341,39.341
	v34.235H87.936c-35.26,0-63.945,28.685-63.945,63.944v138.678c0,4.342,3.519,7.862,7.862,7.862s7.862-3.52,7.862-7.862V178.534
	c0-26.589,21.633-48.22,48.222-48.22h277.356c26.589,0,48.22,21.632,48.22,48.22v85.433c0,4.342,3.519,7.862,7.862,7.862
	s7.862-3.52,7.862-7.862v-85.433C429.236,143.275,400.551,114.59,365.292,114.59z M148.459,114.59V80.355
	c0-13.022,10.595-23.617,23.617-23.617h99.342c13.022,0,23.617,10.595,23.617,23.617v34.235
	C295.035,114.59,148.459,114.59,148.459,114.59z"/>
<path d="M421.374,282.314c-4.343,0-7.862,3.52-7.862,7.862v85.646c0,26.589-21.632,48.22-48.22,48.22H199.024
	c-4.343,0-7.862,3.52-7.862,7.862c0,4.342,3.519,7.862,7.862,7.862h166.268c35.259,0,63.944-28.685,63.944-63.944v-85.646
	C429.236,285.834,425.717,282.314,421.374,282.314z"/>
<path d="M461.092,50.357c-3.601-5.489-9.139-9.167-15.593-10.356l-49.527-9.13c-12.464-2.302-24.533,5.527-27.471,17.819
	c-3.778,15.805-8.978,31.377-15.457,46.281c-1.731,3.982,0.093,8.613,4.076,10.344c3.98,1.731,8.614-0.093,10.344-4.076
	c6.845-15.746,12.34-32.196,16.332-48.894c0.992-4.152,5.082-6.792,9.325-6.012l49.529,9.131c2.192,0.404,4.072,1.653,5.295,3.516
	c1.234,1.882,1.633,4.128,1.124,6.328c-5.516,23.817-13.49,47.153-23.702,69.362c-1.813,3.945-0.086,8.613,3.86,10.427
	c1.064,0.49,2.18,0.721,3.279,0.721c2.976,0,5.824-1.698,7.148-4.58c10.656-23.176,18.978-47.529,24.734-72.385
	C465.874,62.432,464.703,55.863,461.092,50.357z"/>
<path d="M170.214,387.54c-34.91-13.341-66.307-33.201-93.317-59.03c-9.123-8.722-23.476-8.764-32.674-0.099L7.462,363.033
	c-4.763,4.487-7.413,10.562-7.461,17.106c-0.048,6.57,2.526,12.711,7.25,17.293c37.576,36.45,81.49,64.229,130.526,82.566
	c2.735,1.023,5.566,1.531,8.385,1.531c3.537,0,7.056-0.801,10.347-2.391c5.892-2.848,10.246-7.845,12.258-14.071L184.3,417.02
	C188.188,404.994,182.001,392.045,170.214,387.54z M169.339,412.184l-15.534,48.05c-0.678,2.101-2.149,3.788-4.138,4.75
	c-2.012,0.973-4.278,1.077-6.383,0.288c-46.991-17.573-89.076-44.194-125.085-79.125c-1.611-1.564-2.49-3.655-2.473-5.891
	c0.017-2.21,0.91-4.26,2.518-5.775l36.761-34.623c1.55-1.461,3.534-2.192,5.514-2.192c1.987,0,3.972,0.737,5.512,2.209
	c28.532,27.282,61.697,48.26,98.571,62.352C168.572,403.745,170.652,408.118,169.339,412.184z"/>
<path d="M511.977,130.618c-0.294-6.553-3.177-12.538-8.119-16.853l-22.942-20.032c-3.269-2.855-8.236-2.519-11.093,0.752
	c-2.857,3.271-2.519,8.237,0.752,11.093l22.942,20.032c1.675,1.463,2.652,3.493,2.753,5.714c0.102,2.258-0.71,4.407-2.283,6.05
	c-15.456,16.16-32.502,30.948-50.66,43.956c-3.529,2.528-4.342,7.439-1.812,10.97c1.535,2.143,3.949,3.284,6.397,3.284
	c1.586,0,3.186-0.478,4.571-1.471c18.95-13.575,36.737-29.007,52.867-45.87C509.852,143.534,512.268,137.111,511.977,130.618z"/>
<path d="M91.297,377.361c-12.939,0-23.465,10.527-23.465,23.464c0,12.938,10.527,23.464,23.465,23.464s23.464-10.526,23.464-23.464
	C114.761,387.887,104.235,377.361,91.297,377.361z M91.297,408.566c-4.268,0-7.741-3.473-7.741-7.74c0-4.268,3.473-7.74,7.741-7.74
	c4.267,0,7.74,3.473,7.74,7.74C99.037,405.093,95.565,408.566,91.297,408.566z"/>
<path d="M218.752,365.75c0,4.342,3.519,7.862,7.862,7.862s7.862-3.52,7.862-7.862v-7.409c25.037-3.264,44.285-21.867,44.285-44.258
	s-19.248-40.993-44.285-44.257V211.92c16.316,2.874,28.562,14.492,28.562,28.354c0,4.342,3.519,7.862,7.862,7.862
	s7.862-3.52,7.862-7.862c0-22.391-19.248-40.994-44.285-44.258v-7.409c0-4.342-3.519-7.862-7.862-7.862s-7.862,3.52-7.862,7.862
	v7.409c-25.038,3.264-44.286,21.866-44.286,44.258s19.248,40.993,44.286,44.257v57.906c-16.317-2.874-28.563-14.492-28.563-28.354
	c0-4.342-3.519-7.862-7.862-7.862s-7.862,3.52-7.862,7.862c0,22.391,19.248,40.994,44.286,44.258L218.752,365.75L218.752,365.75z
	 M263.038,314.083c0,13.862-12.246,25.48-28.562,28.354v-56.708C250.792,288.604,263.038,300.221,263.038,314.083z M190.19,240.274
	c0-13.862,12.246-25.48,28.563-28.354v56.708C202.436,265.753,190.19,254.136,190.19,240.274z"/>
<g>
</g>
<g>
</g>
<g>
</g>
<g>
</g>
<g>
</g>
<g>
</g>
<g>
</g>
<g>
</g>
<g>
</g>
<g>
</g>
<g>
</g>
<g>
</g>
<g>
</g>
<g>
</g>
<g>
</g>
</svg>
