<?xml version="1.0" encoding="iso-8859-1"?>
<!-- Generator: Adobe Illustrator 19.0.0, SVG Export Plug-In . SVG Version: 6.00 Build 0)  -->
<svg version="1.1" id="Capa_1" xmlns="http://www.w3.org/2000/svg" xmlns:xlink="http://www.w3.org/1999/xlink" x="0px" y="0px"
	 viewBox="0 0 512.002 512.002" style="enable-background:new 0 0 512.002 512.002;" xml:space="preserve">
<polyline style="fill:#F4B74A;" points="288.245,420.226 286.917,373.467 285.646,328.67 283.643,257.929 282.372,212.869 
	280.041,130.686 278.78,86.327 277.191,30.048 234.812,30.048 233.223,86.327 231.962,130.686 229.875,204.553 228.625,248.701 
	226.358,328.67 225.082,373.467 223.764,420.226 "/>
<path style="fill:#FFD488;" d="M283.643,257.929c15.924,7.268,26.614,20.617,26.614,35.852c0,14.588-9.8,27.44-24.611,34.888
	c-8.529,4.291-18.71,6.781-29.644,6.781c-10.934,0-21.116-2.49-29.644-6.781c-14.811-7.448-24.611-20.299-24.611-34.888v-21.19
	h-42.379v21.19c0,23.192,10.563,44.751,29.728,60.729c10.383,8.656,22.652,15.066,35.99,18.954
	c9.831,2.871,20.257,4.365,30.915,4.365c10.659,0,21.083-1.493,30.915-4.365c13.338-3.888,25.607-10.298,35.99-18.954
	c19.166-15.976,29.728-37.537,29.728-60.729s-10.563-44.763-29.728-60.739c-11.548-9.619-25.449-16.485-40.535-20.173l-52.496-8.317
	c-16.761-7.088-28.128-20.797-28.128-36.509c0-16.359,12.321-30.544,30.216-37.356c7.247-2.765,15.416-4.323,24.039-4.323
	c8.624,0,16.792,1.557,24.039,4.323c17.895,6.812,30.216,20.999,30.216,37.356v21.19h42.379v-21.19
	c0-23.192-10.563-44.763-29.728-60.729c-12.459-10.393-27.652-17.555-44.127-20.988c-7.374-1.547-15.012-2.341-22.778-2.341
	s-15.404,0.795-22.778,2.341c-16.475,3.433-31.668,10.595-44.127,20.988c-19.166,15.966-29.728,37.537-29.728,60.729
	s10.563,44.763,29.728,60.729c11.294,9.419,24.823,16.188,39.529,19.928"/>
<polygon style="fill:#F4B74A;" points="229.878,204.553 228.628,248.701 227.566,286.133 284.443,286.133 283.645,257.929 
	282.374,212.869 281.682,188.453 230.332,188.453 "/>
<g>
	<path style="fill:#FFD488;" d="M504.396,198.322L504.396,198.322c-53.094-16.495-109.508,13.173-126.005,66.267l0,0l0,0
		C431.486,281.084,487.899,251.416,504.396,198.322L504.396,198.322z"/>
	<path style="fill:#FFD488;" d="M465.907,96.421L465.907,96.421c-46.948-0.579-85.478,37.011-86.058,83.959l0,0l0,0
		C426.798,180.96,465.328,143.371,465.907,96.421L465.907,96.421z"/>
	<path style="fill:#FFD488;" d="M400.053,27.022L400.053,27.022c-31.427,9.718-49.026,43.072-39.309,74.499l0,0l0,0
		C392.171,91.803,409.771,58.449,400.053,27.022L400.053,27.022z"/>
	<path style="fill:#FFD488;" d="M7.608,198.322L7.608,198.322c53.094-16.495,109.508,13.173,126.005,66.267l0,0l0,0
		C80.517,281.084,24.103,251.416,7.608,198.322L7.608,198.322z"/>
	<path style="fill:#FFD488;" d="M46.096,96.421L46.096,96.421c46.948-0.579,85.478,37.011,86.058,83.959l0,0l0,0
		C85.204,180.96,46.674,143.371,46.096,96.421L46.096,96.421z"/>
	<path style="fill:#FFD488;" d="M111.95,27.022L111.95,27.022c31.427,9.718,49.026,43.072,39.309,74.499l0,0l0,0
		C119.832,91.803,102.233,58.449,111.95,27.022L111.95,27.022z"/>
</g>
<path style="fill:#F9C662;" d="M343.845,450.754v34.228h-175.68v-34.228c0-16.86,13.667-30.527,30.517-30.527h114.636
	C330.178,420.226,343.845,433.892,343.845,450.754z"/>
<path style="fill:#FFD488;" d="M343.845,450.754v34.228H207.33v-34.228c0-16.86,13.667-30.527,30.527-30.527h75.461
	C330.178,420.226,343.845,433.892,343.845,450.754z"/>
<path d="M327.778,101.476c-11.804-9.847-26.077-17.105-41.562-21.196l-1.424-50.447c-0.116-4.114-3.486-7.389-7.601-7.389h-42.379
	c-4.116,0-7.485,3.275-7.601,7.389l-1.424,50.447c-15.488,4.093-29.759,11.349-41.557,21.192
	c-20.936,17.44-32.466,41.082-32.466,66.571s11.53,49.13,32.463,66.569c4.467,3.726,9.323,7.114,14.432,10.072
	c1.2,0.694,2.51,1.025,3.803,1.025c2.625,0,5.178-1.361,6.588-3.796c2.104-3.635,0.863-8.286-2.771-10.39
	c-4.365-2.527-8.507-5.416-12.314-8.592c-17.406-14.499-26.992-33.991-26.992-54.886s9.586-40.387,26.996-54.889
	c11.374-9.488,25.484-16.191,40.816-19.386c13.791-2.893,28.64-2.894,42.445,0.002c15.322,3.193,29.433,9.895,40.812,19.387
	c17.406,14.5,26.992,33.992,26.992,54.886v13.586h-27.171v-13.586c0-19.18-13.455-36.217-35.109-44.462
	c-8.386-3.2-17.387-4.822-26.751-4.822c-9.365,0-18.365,1.622-26.744,4.82c-21.659,8.246-35.115,25.282-35.115,44.463
	c0,16.801,10.599,32.229,27.986,41.258l-2.98,105.24c-6.269-5.904-9.8-13.179-9.8-20.761v-21.19c0-4.199-3.404-7.604-7.604-7.604
	h-42.379c-4.2,0-7.604,3.405-7.604,7.604v21.19c0,25.477,11.53,49.118,32.464,66.569c9.703,8.089,20.815,14.332,33.093,18.608
	l-0.949,33.667h-17.685c-21.025,0-38.13,17.106-38.13,38.131v34.228c0,4.199,3.404,7.604,7.604,7.604h98.996
	c4.2,0,7.604-3.405,7.604-7.604s-3.404-7.604-7.604-7.604h-91.393v-26.624c0-12.64,10.284-22.923,22.922-22.923h114.63
	c12.64,0,22.922,10.284,22.922,22.923v26.624h-43.737c-4.2,0-7.604,3.405-7.604,7.604s3.404,7.604,7.604,7.604h51.341
	c4.2,0,7.604-3.405,7.604-7.604v-34.228c0-21.025-17.105-38.131-38.13-38.131h-17.681l-0.956-33.666
	c12.281-4.277,23.393-10.521,33.096-18.609c20.934-17.451,32.464-41.092,32.464-66.569c0-25.483-11.529-49.128-32.465-66.582
	c-4.044-3.369-8.419-6.47-13.001-9.219c-3.6-2.158-8.272-0.992-10.432,2.611c-2.161,3.601-0.993,8.272,2.61,10.433
	c3.912,2.346,7.643,4.991,11.086,7.859c17.408,14.511,26.994,34.008,26.994,54.898c0,20.884-9.586,40.377-26.994,54.888
	c-9.549,7.962-20.736,13.847-33.253,17.495c-9.226,2.694-18.909,4.06-28.783,4.06c-9.874,0-19.558-1.367-28.788-4.061
	c-12.513-3.648-23.699-9.533-33.248-17.494c-17.408-14.51-26.994-34.004-26.994-54.888v-13.586h27.171v13.586
	c0,17.031,10.766,32.613,28.796,41.681c9.871,4.967,21.305,7.592,33.062,7.592c11.758,0,23.189-2.625,33.059-7.591
	c18.033-9.068,28.8-24.65,28.8-41.682c0-16.27-10.134-31.472-26.745-40.597l-3.109-109.852c9.236,6.358,14.647,15.22,14.647,24.712
	v21.19c0,4.199,3.404,7.604,7.604,7.604h42.379c4.2,0,7.604-3.405,7.604-7.604v-21.19
	C360.239,142.556,348.709,118.913,327.778,101.476z M241.084,77.32l1.119-39.668h27.595l1.119,39.668
	C261.059,76.091,250.938,76.091,241.084,77.32z M279.583,383.077l0.838,29.548h-48.835l0.832-29.548
	c7.69,1.554,15.585,2.355,23.583,2.355C263.999,385.432,271.894,384.631,279.583,383.077z M209.35,168.044
	c0-9.49,5.409-18.352,14.647-24.711l-1.37,48.385C214.253,185.42,209.35,176.944,209.35,168.044z M234.102,323.784l3.371-119.068
	c0.001-0.068,0.006-0.136,0.006-0.204l1.933-68.285c5.277-1.496,10.835-2.259,16.59-2.259c5.753,0,11.31,0.762,16.59,2.259
	l5.309,187.557c-6.724,2.652-14.195,4.061-21.898,4.061C248.298,327.845,240.827,326.436,234.102,323.784z M302.653,293.781
	c0,7.583-3.531,14.856-9.801,20.761l-1.205-42.59C298.622,278.04,302.653,285.787,302.653,293.781z"/>
<path d="M506.653,191.059c-27.619-8.581-56.925-5.893-82.524,7.568c-25.597,13.462-44.419,36.086-52.998,63.704
	c-1.246,4.011,0.995,8.271,5.005,9.517c10.605,3.295,21.458,4.928,32.255,4.928c17.322,0,34.498-4.204,50.267-12.497
	c25.597-13.462,44.42-36.086,52.999-63.704C512.904,196.567,510.662,192.305,506.653,191.059z M388.325,259.362
	c8.24-20.335,23.242-36.943,42.884-47.273c19.644-10.33,41.824-13.279,63.252-8.545
	C477.464,245.387,432.439,269.068,388.325,259.362z"/>
<path d="M372.247,180.287c-0.053,4.199,3.31,7.645,7.509,7.697c0.393,0.005,0.783,0.007,1.175,0.007
	c24.301,0,47.219-9.322,64.646-26.324c17.708-17.277,27.628-40.414,27.933-65.152c0.053-4.199-3.31-7.645-7.509-7.697
	c-24.741-0.315-48.112,9.041-65.821,26.318C382.472,132.412,372.552,155.55,372.247,180.287z M457.798,104.332
	c-2.02,17.627-9.968,33.89-22.84,46.449c-12.873,12.559-29.328,20.104-46.998,21.688c2.021-17.626,9.969-33.891,22.841-46.449
	C423.673,113.462,440.127,105.917,457.798,104.332z"/>
<path d="M407.317,24.775c-1.24-4.012-5.493-6.259-9.511-5.019c-17.139,5.3-31.19,16.958-39.562,32.825
	c-8.372,15.868-10.065,34.046-4.764,51.185c0.595,1.926,1.932,3.537,3.716,4.478c1.104,0.583,2.323,0.879,3.548,0.879
	c0.754,0,1.512-0.113,2.247-0.34C398.374,97.844,418.258,60.158,407.317,24.775z M366.189,91.193
	c-1.543-10.765,0.333-21.71,5.506-31.514c5.174-9.804,13.149-17.532,22.906-22.333C397.738,59.458,386.213,81.302,366.189,91.193z"
	/>
<path d="M64.198,189.518c-4.069-1.041-8.211,1.415-9.25,5.484s1.415,8.21,5.484,9.25c29.022,7.417,52.17,27.747,63.247,55.108
	c-44.11,9.704-89.135-13.977-106.134-55.816c5.183-1.142,10.444-1.84,15.715-2.083c4.195-0.194,7.44-3.751,7.246-7.946
	c-0.193-4.194-3.739-7.441-7.946-7.246c-9.193,0.424-18.348,2.035-27.21,4.789c-4.01,1.246-6.251,5.507-5.005,9.517
	c14.403,46.358,57.285,76.161,103.461,76.159c10.614,0,21.405-1.576,32.061-4.886c1.925-0.598,3.534-1.937,4.473-3.722
	c0.939-1.785,1.13-3.87,0.531-5.795C129.627,226.136,100.963,198.916,64.198,189.518z"/>
<path d="M131.072,187.991c0.39,0,0.784-0.002,1.175-0.007c4.199-0.052,7.561-3.498,7.509-7.697
	c-0.625-50.68-42.052-91.477-92.594-91.477c-0.385,0-0.774,0.002-1.161,0.007c-2.016,0.024-3.941,0.85-5.348,2.293
	c-1.409,1.444-2.186,3.387-2.161,5.404c0.305,24.738,10.225,47.876,27.934,65.152C83.853,178.671,106.77,187.991,131.072,187.991z
	 M124.04,172.469c-17.669-1.586-34.122-9.131-46.994-21.688c-12.871-12.557-20.819-28.82-22.84-46.445
	C90.547,107.64,119.843,136.219,124.04,172.469z"/>
<path d="M158.524,103.768c5.3-17.14,3.608-35.318-4.764-51.185c-8.372-15.867-22.422-27.524-39.562-32.825
	c-4.017-1.241-8.271,1.007-9.511,5.019c-5.3,17.14-3.608,35.318,4.764,51.185s22.422,27.525,39.562,32.825
	c0.748,0.232,1.505,0.342,2.249,0.342C154.508,109.127,157.514,107.031,158.524,103.768z M145.813,91.2
	c-9.761-4.802-17.738-12.529-22.913-22.336c-5.175-9.806-7.05-20.754-5.505-31.521c9.76,4.802,17.738,12.529,22.913,22.336
	S147.359,80.433,145.813,91.2z"/>
<g>
</g>
<g>
</g>
<g>
</g>
<g>
</g>
<g>
</g>
<g>
</g>
<g>
</g>
<g>
</g>
<g>
</g>
<g>
</g>
<g>
</g>
<g>
</g>
<g>
</g>
<g>
</g>
<g>
</g>
</svg>
