<?xml version="1.0" encoding="iso-8859-1"?>
<!-- Generator: Adobe Illustrator 19.0.0, SVG Export Plug-In . SVG Version: 6.00 Build 0)  -->
<svg version="1.1" id="Capa_1" xmlns="http://www.w3.org/2000/svg" xmlns:xlink="http://www.w3.org/1999/xlink" x="0px" y="0px"
	 viewBox="0 0 511.999 511.999" style="enable-background:new 0 0 511.999 511.999;" xml:space="preserve">
<polygon style="fill:#38C183;" points="504.38,122.902 382.306,8.562 260.23,122.902 315.882,122.902 315.882,503.436 
	448.728,503.436 448.728,122.902 "/>
<path style="fill:#F4B74A;" d="M321.403,449.601c-55.289,55.28-137.023,67.988-204.475,38.107
	c-15.886-7.031-30.965-16.422-44.729-28.177c-3.687-3.14-7.262-6.456-10.745-9.93c-71.776-71.786-71.776-188.163,0-259.949
	c71.786-71.776,188.163-71.776,259.949,0c3.482,3.482,6.79,7.058,9.93,10.745c11.755,13.755,21.147,28.844,28.177,44.729
	C389.391,312.569,376.683,394.312,321.403,449.601z"/>
<path style="fill:#F9C662;" d="M359.51,245.128L116.928,487.708c-15.886-7.031-30.965-16.422-44.729-28.177l259.133-259.134
	C343.086,214.153,352.479,229.242,359.51,245.128z"/>
<path style="fill:#FFD488;" d="M339.188,319.628c0,81.605-66.155,147.758-147.758,147.758c-46.063,0-87.199-21.073-114.302-54.113
	c-20.915-25.491-33.457-58.105-33.457-93.646c0-81.605,66.155-147.758,147.758-147.758c35.55,0,68.164,12.56,93.655,33.476
	C318.115,232.438,339.188,273.573,339.188,319.628z"/>
<path style="fill:#F9C662;" d="M285.084,205.344L77.145,413.283l-0.018-0.009c-6.104-7.438-11.495-15.487-16.062-24.036
	c-5.205-9.717-9.346-20.072-12.283-30.938c-3.335-12.328-5.113-25.297-5.113-38.672c0-81.605,66.155-147.758,147.758-147.758
	c13.385,0,26.352,1.779,38.672,5.113c10.866,2.936,21.221,7.086,30.938,12.292C269.587,193.84,277.637,199.239,285.084,205.344z"/>
<path style="fill:#FFD488;" d="M261.038,189.273L61.065,389.236c-5.205-9.717-9.346-20.072-12.283-30.938L230.1,176.982
	C240.965,179.918,251.321,184.068,261.038,189.273z"/>
<path d="M509.588,117.341L387.513,3.001c-2.93-2.744-7.487-2.744-10.417,0l-122.074,114.34c-2.283,2.137-3.026,5.453-1.877,8.361
	c1.149,2.907,3.959,4.819,7.086,4.819h48.033v20.535c0,4.208,3.411,7.619,7.619,7.619c4.208,0,7.619-3.411,7.619-7.619v-28.153
	c0-4.208-3.411-7.619-7.619-7.619h-36.373l102.796-96.282L485.1,115.283h-36.372c-4.208,0-7.619,3.411-7.619,7.619v260.784
	c0,4.208,3.411,7.619,7.619,7.619s7.619-3.411,7.619-7.619V130.521h48.033c3.127,0,5.937-1.911,7.086-4.819
	C512.615,122.793,511.871,119.478,509.588,117.341z"/>
<path d="M448.728,406.543c-4.208,0-7.619,3.411-7.619,7.619v81.655H323.501v-6.481c0-4.208-3.411-7.619-7.619-7.619
	c-4.208,0-7.619,3.411-7.619,7.619v14.1c0,4.208,3.411,7.619,7.619,7.619h132.847c4.208,0,7.619-3.411,7.619-7.619v-89.273
	C456.347,409.955,452.936,406.543,448.728,406.543z"/>
<path d="M382.856,319.628c0-105.554-85.874-191.428-191.428-191.428c-4.208,0-7.619,3.411-7.619,7.619s3.411,7.619,7.619,7.619
	c97.151,0,176.19,79.039,176.19,176.19s-79.039,176.19-176.19,176.19s-176.19-79.039-176.19-176.19
	c0-83.82,59.571-156.496,141.647-172.807c4.127-0.82,6.808-4.83,5.987-8.958c-0.82-4.127-4.828-6.81-8.958-5.987
	C64.73,149.599,0,228.56,0,319.628c0,105.554,85.874,191.428,191.428,191.428S382.856,425.181,382.856,319.628z"/>
<path d="M81.559,429.497c30.291,30.291,70.08,45.437,109.87,45.437c39.789,0,79.578-15.145,109.869-45.437
	c60.583-60.583,60.583-159.156,0-219.739s-159.157-60.582-219.739,0C20.976,270.339,20.976,368.914,81.559,429.497z
	 M191.428,179.551c35.887,0,71.774,13.66,99.095,40.981c54.641,54.641,54.641,143.549,0,198.19s-143.549,54.642-198.19,0
	c-54.641-54.641-54.641-143.549,0-198.19C119.654,193.211,155.541,179.551,191.428,179.551z"/>
<path d="M156.13,355.392c0-4.208-3.411-7.619-7.619-7.619s-7.619,3.411-7.619,7.619c0,21.699,18.654,39.726,42.918,42.889v7.18
	c0,4.208,3.411,7.619,7.619,7.619s7.619-3.411,7.619-7.619v-7.18c24.264-3.163,42.918-21.191,42.918-42.889
	s-18.654-39.726-42.918-42.889v-56.117c15.812,2.785,27.68,14.044,27.68,27.478c0,4.208,3.411,7.619,7.619,7.619
	s7.619-3.411,7.619-7.619c0-21.699-18.654-39.726-42.918-42.889v-7.18c0-4.208-3.411-7.619-7.619-7.619s-7.619,3.411-7.619,7.619
	v7.18c-24.264,3.163-42.918,21.191-42.918,42.889s18.654,39.727,42.918,42.891v56.117
	C167.997,380.083,156.13,368.825,156.13,355.392z M226.727,355.392c0,13.434-11.867,24.692-27.68,27.478v-54.956
	C214.86,330.699,226.727,341.958,226.727,355.392z M156.13,283.862c0-13.434,11.867-24.692,27.68-27.478v54.956
	C167.997,308.555,156.13,297.296,156.13,283.862z"/>
<g>
</g>
<g>
</g>
<g>
</g>
<g>
</g>
<g>
</g>
<g>
</g>
<g>
</g>
<g>
</g>
<g>
</g>
<g>
</g>
<g>
</g>
<g>
</g>
<g>
</g>
<g>
</g>
<g>
</g>
</svg>
