<?xml version="1.0" encoding="iso-8859-1"?>
<!-- Generator: Adobe Illustrator 19.0.0, SVG Export Plug-In . SVG Version: 6.00 Build 0)  -->
<svg version="1.1" id="Capa_1" xmlns="http://www.w3.org/2000/svg" xmlns:xlink="http://www.w3.org/1999/xlink" x="0px" y="0px"
	 viewBox="0 0 512 512" style="enable-background:new 0 0 512 512;" xml:space="preserve">
<g>
	<path style="fill:#DDDDDD;" d="M196.867,135.704c-19.545-7.077-36.809-14.586-42.75-18.015
		c-15.533-8.967-20.854-28.826-11.89-44.351c8.967-15.533,28.826-20.854,44.359-11.886c5.942,3.431,21.069,14.624,36.965,28.019
		l91.58,52.874c19.541,7.064,36.806,14.574,42.747,18.003c15.541,8.973,20.862,28.83,11.898,44.355
		c-8.967,15.533-28.826,20.854-44.366,11.881c-5.942-3.431-21.077-14.628-36.97-28.011"/>
	<path style="fill:#DDDDDD;" d="M223.562,188.573c-15.901,13.387-31.036,24.585-36.978,28.016
		c-15.533,8.967-35.391,3.647-44.354-11.878c-8.967-15.533-3.647-35.391,11.886-44.359c5.942-3.431,23.199-10.934,42.747-18.003
		l91.58-52.874c15.889-13.391,31.023-24.588,36.965-28.019c15.541-8.973,35.399-3.652,44.362,11.873
		c8.967,15.533,3.647,35.391-11.893,44.363c-5.942,3.431-23.207,10.939-42.743,18.011"/>
	<path style="fill:#DDDDDD;" d="M229.305,86.15c-3.644-20.464-5.773-39.171-5.773-46.031c0-17.936,14.537-32.473,32.464-32.473
		c17.936,0,32.473,14.537,32.473,32.473c0,6.861-2.13,25.558-5.783,46.022v105.748c3.653,20.455,5.783,39.162,5.783,46.022
		c0,17.945-14.537,32.482-32.464,32.482c-17.936,0-32.473-14.537-32.473-32.482c0-6.861,2.13-25.567,5.773-46.022"/>
</g>
<path style="fill:#FFD488;" d="M315.219,139.016c0,32.709-26.511,59.22-59.22,59.22c-2.377,0-4.719-0.139-7.018-0.416
	c-7.477-0.881-14.532-3.156-20.886-6.56c-5.817-3.115-11.056-7.169-15.497-11.967c-8.823-9.493-14.556-21.882-15.625-35.587
	c-0.126-1.545-0.188-3.107-0.188-4.689c0-32.703,26.511-59.214,59.214-59.214c1.581,0,3.144,0.06,4.689,0.188
	c13.705,1.068,26.095,6.801,35.587,15.625c4.798,4.442,8.853,9.68,11.967,15.497c3.404,6.354,5.679,13.409,6.559,20.886
	C315.08,134.297,315.219,136.644,315.219,139.016z"/>
<g>
	<path style="fill:#F9C662;" d="M296.276,95.613l-83.68,83.68c-8.823-9.493-14.556-21.882-15.625-35.587l63.716-63.716
		C274.393,81.057,286.782,86.79,296.276,95.613z"/>
	<path style="fill:#F9C662;" d="M314.803,131.998l-65.823,65.823c-7.477-0.881-14.532-3.156-20.886-6.56l80.15-80.15
		C311.647,117.465,313.921,124.52,314.803,131.998z"/>
</g>
<path style="fill:#CE5151;" d="M296.116,504.355h-80.232c-9.955,0-18.364-7.39-19.643-17.263l-9.78-75.529h139.077l-9.78,75.529
	C314.48,496.966,306.072,504.355,296.116,504.355z"/>
<g>
	<path style="fill:#E05F5F;" d="M330.395,411.564h-148.79c-8.086,0-14.64-6.554-14.64-14.64v-21.411
		c0-8.086,6.554-14.64,14.64-14.64h148.79c8.086,0,14.64,6.554,14.64,14.64v21.411C345.035,405.008,338.481,411.564,330.395,411.564
		z"/>
	<path style="fill:#E05F5F;" d="M322.069,438.37l-6.311,48.722c-1.274,9.869-9.685,17.26-19.646,17.26h-49.649
		c-9.95,0-18.361-7.391-19.635-17.26l-6.311-48.722H322.069z"/>
</g>
<path style="fill:#CE5151;" d="M209.781,396.923v-21.41c0-8.086,6.554-14.641,14.64-14.641h-42.817
	c-8.086,0-14.64,6.554-14.64,14.641v21.41c0,8.086,6.554,14.641,14.64,14.641h42.817
	C216.335,411.564,209.781,405.008,209.781,396.923z"/>
<path style="fill:#38C183;" d="M352.75,263.611h-19.363c-29.649,0-53.684,24.035-53.684,53.684v19.363h19.363
	c29.649,0,53.684-24.035,53.684-53.684V263.611z"/>
<path d="M361.701,153.725c-5.097-2.942-17.668-8.597-33.588-14.704c14.548-5.591,27.782-11.354,33.588-14.706
	c9.285-5.361,15.926-14.013,18.7-24.364s1.351-21.163-4.008-30.444c-11.058-19.153-35.644-25.736-54.807-14.673
	c-5.096,2.942-16.285,11.008-29.537,21.745c2.437-15.395,4.067-29.746,4.067-36.459c0-22.123-17.998-40.12-40.119-40.12
	c-22.117,0-40.11,17.997-40.11,40.119c0,6.704,1.627,21.055,4.06,36.458c-12.112-9.805-23.724-18.392-29.538-21.749
	c-9.281-5.358-20.091-6.783-30.443-4.009c-10.351,2.774-19.002,9.412-24.361,18.693c-5.356,9.278-6.779,20.087-4.005,30.437
	c2.775,10.35,9.413,19.001,18.693,24.359c5.806,3.352,19.047,9.118,33.605,14.713c-14.549,5.587-27.79,11.35-33.605,14.707
	c-3.657,2.111-4.91,6.788-2.798,10.445c1.416,2.453,3.986,3.824,6.629,3.824c1.297,0,2.612-0.33,3.816-1.026
	c4.634-2.675,17.414-8.324,32.64-14.133c2.978,14.114,10.419,26.597,20.775,35.904c-12.665,10.293-23.964,18.55-28.594,21.223
	c-11.856,6.844-27.068,2.772-33.909-9.079c-3.315-5.745-4.197-12.435-2.48-18.839c1.093-4.079-1.327-8.272-5.406-9.365
	c-4.076-1.09-8.272,1.327-9.365,5.406c-2.773,10.35-1.35,21.162,4.009,30.443c7.42,12.853,20.929,20.045,34.803,20.045
	c6.802,0,13.693-1.729,19.995-5.369c5.804-3.351,17.415-11.933,29.536-21.739c-2.431,15.392-4.058,29.735-4.058,36.44
	c0,22.127,17.997,40.128,40.119,40.128c22.117,0,40.11-18.001,40.11-40.128c0-6.717-1.628-21.06-4.064-36.444
	c12.117,9.804,23.727,18.386,29.534,21.738c6.306,3.641,13.194,5.37,19.999,5.37c13.876-0.001,27.391-7.196,34.812-20.049
	C387.456,189.371,380.862,164.788,361.701,153.725z M329.232,68.077c11.859-6.846,27.075-2.776,33.918,9.075
	c3.316,5.744,4.197,12.435,2.48,18.839c-1.717,6.405-5.827,11.761-11.575,15.079c-4.628,2.672-17.405,8.322-32.634,14.137
	c-2.976-14.115-10.416-26.6-20.771-35.909C313.294,79.014,324.591,70.756,329.232,68.077z M255.997,15.292
	c13.69,0,24.827,11.137,24.827,24.827c0,5.35-1.499,19.249-4.082,35.345c-6.535-2.138-13.502-3.309-20.742-3.309
	c-7.24,0-14.21,1.172-20.745,3.311c-2.579-16.106-4.075-30.003-4.075-35.346C231.178,26.429,242.312,15.292,255.997,15.292z
	 M146.37,95.991c-1.717-6.404-0.837-13.091,2.477-18.832c6.846-11.855,22.059-15.932,33.914-9.088
	c4.637,2.677,15.936,10.936,28.587,21.227c-10.355,9.308-17.794,21.793-20.771,35.907c-15.234-5.818-28.013-11.469-32.638-14.139
	C152.196,107.75,148.087,102.396,146.37,95.991z M204.428,139.018c0-28.437,23.134-51.571,51.571-51.571
	s51.571,23.134,51.571,51.571s-23.134,51.571-51.571,51.571S204.428,167.455,204.428,139.018z M256.006,262.747
	c-13.69,0-24.827-11.141-24.827-24.836c0-5.346,1.496-19.241,4.075-35.34c6.536,2.139,13.504,3.311,20.746,3.311
	c7.24,0,14.209-1.171,20.744-3.31c2.583,16.088,4.081,29.983,4.081,35.339C280.823,251.605,269.689,262.747,256.006,262.747z
	 M363.155,200.879c-6.845,11.855-22.063,15.93-33.922,9.083c-4.632-2.674-15.93-10.929-28.589-21.22
	c10.356-9.308,17.797-21.792,20.775-35.906c15.218,5.805,27.997,11.454,32.636,14.132
	C365.914,173.816,369.996,189.028,363.155,200.879z"/>
<path d="M242.571,155.306c0-3.378-2.739-6.117-6.117-6.117c-3.378,0-6.117,2.739-6.117,6.117c0,10.514,8.339,19.354,19.545,21.756
	v1.046c0,3.378,2.739,6.117,6.117,6.117s6.117-2.739,6.117-6.117v-1.046c11.205-2.402,19.545-11.243,19.545-21.756
	s-8.339-19.353-19.545-21.756v-19.822c4.298,1.718,7.311,5.148,7.311,9.004c0,3.378,2.739,6.117,6.117,6.117
	c3.378,0,6.117-2.739,6.117-6.117c0-10.513-8.339-19.353-19.545-21.756V99.93c0-3.378-2.739-6.117-6.117-6.117
	s-6.117,2.739-6.117,6.117v1.046c-11.205,2.402-19.545,11.243-19.545,21.756s8.339,19.353,19.545,21.756v19.823
	C245.583,162.592,242.571,159.161,242.571,155.306z M269.426,155.306c0,3.856-3.013,7.286-7.311,9.005v-18.009
	C266.414,148.019,269.426,151.45,269.426,155.306z M242.571,122.732c0-3.856,3.013-7.286,7.311-9.004v18.008
	C245.583,130.017,242.571,126.587,242.571,122.732z"/>
<path d="M330.395,353.225h-14.476c-4.223,0-7.646,3.423-7.646,7.646s3.423,7.646,7.646,7.646h14.476
	c3.857,0,6.995,3.138,6.995,6.994v21.41c0,3.857-3.138,6.995-6.995,6.995H181.604c-3.857,0-6.994-3.138-6.994-6.995v-21.41
	c0-3.857,3.138-6.994,6.994-6.994H290.43c4.223,0,7.646-3.423,7.646-7.646s-3.423-7.646-7.646-7.646h-26.784v-62.443
	c0-4.223-3.423-7.646-7.646-7.646c-4.223,0-7.646,3.423-7.646,7.646v62.443h-66.749c-12.289,0-22.286,9.998-22.286,22.286v21.41
	c0,12.289,9.998,22.287,22.286,22.287h148.79c12.289,0,22.287-9.998,22.287-22.287v-21.41
	C352.682,363.223,342.684,353.225,330.395,353.225z"/>
<path d="M323.591,426.579c-4.195-0.543-8.022,2.414-8.565,6.601l-6.852,52.934c-0.78,6.039-5.965,10.594-12.063,10.594h-80.224
	c-6.097,0-11.283-4.554-12.063-10.596l-6.851-52.932c-0.542-4.187-4.381-7.146-8.564-6.601c-4.188,0.542-7.144,4.377-6.602,8.565
	l6.851,52.929C190.421,501.713,202.125,512,215.888,512h80.224c13.762,0,25.467-10.287,27.229-23.924l6.851-52.932
	C330.735,430.955,327.779,427.121,323.591,426.579z"/>
<path d="M352.75,255.964h-19.364c-33.818,0-61.33,27.512-61.33,61.33v19.363c0,4.223,3.423,7.646,7.646,7.646h19.364
	c33.818,0,61.33-27.512,61.33-61.33v-19.363C360.396,259.388,356.972,255.964,352.75,255.964z M345.103,282.974
	c0,25.385-20.652,46.037-46.037,46.037h-0.904l23.471-23.471c2.986-2.986,2.986-7.828,0-10.813c-2.985-2.986-7.827-2.986-10.813,0
	l-23.471,23.471v-0.904c0-25.385,20.652-46.037,46.037-46.037h11.718v11.717H345.103z"/>
<g>
</g>
<g>
</g>
<g>
</g>
<g>
</g>
<g>
</g>
<g>
</g>
<g>
</g>
<g>
</g>
<g>
</g>
<g>
</g>
<g>
</g>
<g>
</g>
<g>
</g>
<g>
</g>
<g>
</g>
</svg>
