<?xml version="1.0" encoding="iso-8859-1"?>
<!-- Generator: Adobe Illustrator 19.0.0, SVG Export Plug-In . SVG Version: 6.00 Build 0)  -->
<svg version="1.1" id="Capa_1" xmlns="http://www.w3.org/2000/svg" xmlns:xlink="http://www.w3.org/1999/xlink" x="0px" y="0px"
	 viewBox="0 0 511.999 511.999" style="enable-background:new 0 0 511.999 511.999;" xml:space="preserve">
<polygon style="fill:#DDDDDD;" points="255.998,7.59 8.096,151.299 503.901,151.299 "/>
<g>
	<rect x="30.741" y="438.789" style="fill:#C2C4C2;" width="450.515" height="48.435"/>
	<rect x="70.413" y="175.152" style="fill:#C2C4C2;" width="63.068" height="239.767"/>
</g>
<path style="fill:#DDDDDD;" d="M133.484,206.189v208.734H92.676V219.896c0-7.57,6.137-13.706,13.706-13.706H133.484z"/>
<rect x="53.386" y="151.292" style="fill:#C2C4C2;" width="97.137" height="33.856"/>
<path style="fill:#DDDDDD;" d="M150.523,162.771v22.382H76.325v-12.158c0-5.646,4.578-10.224,10.224-10.224L150.523,162.771
	L150.523,162.771z"/>
<rect x="53.383" y="404.932" style="fill:#C2C4C2;" width="97.137" height="33.856"/>
<path style="fill:#DDDDDD;" d="M150.52,416.401v22.382H76.322v-12.158c0-5.646,4.578-10.224,10.224-10.224H150.52z"/>
<rect x="224.457" y="175.152" style="fill:#C2C4C2;" width="63.068" height="239.767"/>
<path style="fill:#DDDDDD;" d="M287.529,206.189v208.734h-40.808V219.896c0-7.57,6.137-13.706,13.707-13.706H287.529z"/>
<rect x="207.428" y="404.932" style="fill:#C2C4C2;" width="97.137" height="33.856"/>
<path style="fill:#DDDDDD;" d="M304.565,416.401v22.382h-74.199v-12.158c0-5.646,4.578-10.224,10.224-10.224H304.565z"/>
<rect x="378.511" y="175.152" style="fill:#C2C4C2;" width="63.068" height="239.767"/>
<path style="fill:#DDDDDD;" d="M441.574,206.189v208.734h-40.808V219.896c0-7.57,6.137-13.706,13.706-13.706H441.574z"/>
<rect x="361.482" y="151.292" style="fill:#C2C4C2;" width="97.137" height="33.856"/>
<path style="fill:#DDDDDD;" d="M458.615,162.771v22.382h-74.199v-12.158c0-5.646,4.578-10.224,10.224-10.224L458.615,162.771
	L458.615,162.771z"/>
<rect x="361.471" y="404.932" style="fill:#C2C4C2;" width="97.137" height="33.856"/>
<g>
	<path style="fill:#DDDDDD;" d="M458.611,416.401v22.382h-74.199v-12.158c0-5.646,4.578-10.224,10.224-10.224H458.611z"/>
	<rect x="8.094" y="470.024" style="fill:#DDDDDD;" width="495.805" height="34.384"/>
</g>
<path style="fill:#EFEFEF;" d="M331.225,131.176c0,41.551-33.677,75.228-75.228,75.228c-3.02,0-5.995-0.176-8.915-0.529
	c-9.498-1.119-18.46-4.01-26.533-8.334c-7.391-3.956-14.044-9.108-19.686-15.202c-11.208-12.059-18.491-27.797-19.847-45.207
	c-0.161-1.963-0.238-3.948-0.238-5.957c0-41.542,33.677-75.221,75.221-75.221c2.009,0,3.994,0.077,5.957,0.238
	c17.41,1.357,33.148,8.64,45.207,19.847c6.094,5.642,11.247,12.297,15.202,19.687c4.324,8.073,7.213,17.034,8.334,26.533
	C331.049,125.181,331.225,128.163,331.225,131.176z"/>
<path d="M503.902,462.439h-15.056v-23.654c0-4.191-3.397-7.589-7.589-7.589h-15.056v-26.269c0-4.191-3.397-7.589-7.589-7.589h-9.445
	V192.746h9.445c4.192,0,7.589-3.398,7.589-7.589v-26.269h37.701c3.433,0,6.437-2.304,7.329-5.618
	c0.891-3.315-0.553-6.815-3.522-8.537l-70.188-40.687c-3.624-2.1-8.27-0.866-10.371,2.76c-2.103,3.625-0.866,8.269,2.759,10.371
	l45.771,26.534H352.161c-4.192,0-7.589,3.398-7.589,7.589s3.397,7.589,7.589,7.589h1.729v26.269c0,4.191,3.397,7.589,7.589,7.589
	h9.444v204.593h-9.444c-4.192,0-7.589,3.398-7.589,7.589v26.269h-41.737v-26.269c0-4.191-3.397-7.589-7.589-7.589h-9.444V223.605
	c0-4.191-3.397-7.589-7.589-7.589c-4.192,0-7.589,3.398-7.589,7.589v173.734h-47.89V223.605c0-4.191-3.397-7.589-7.589-7.589
	c-4.192,0-7.589,3.398-7.589,7.589v173.734h-9.444c-4.192,0-7.589,3.398-7.589,7.589v26.269h-41.736v-26.269
	c0-4.191-3.397-7.589-7.589-7.589h-9.444V192.746h9.444c4.192,0,7.589-3.398,7.589-7.589v-26.269h0.798
	c4.192,0,7.589-3.398,7.589-7.589c0-4.191-3.397-7.589-7.589-7.589H36.319l219.68-127.349l154.054,89.306
	c3.626,2.101,8.271,0.867,10.371-2.76c2.103-3.625,0.866-8.269-2.759-10.371L259.805,1.024c-2.354-1.365-5.259-1.365-7.612,0
	L4.29,144.732c-2.97,1.721-4.414,5.222-3.522,8.537c0.891,3.314,3.898,5.618,7.329,5.618h37.701v26.269
	c0,4.191,3.397,7.589,7.589,7.589h9.444v204.593h-9.444c-4.192,0-7.589,3.398-7.589,7.589v26.269H30.742
	c-4.192,0-7.589,3.398-7.589,7.589v23.654H8.097c-4.192,0-7.589,3.398-7.589,7.589v34.384c0,4.191,3.397,7.589,7.589,7.589h495.805
	c4.192,0,7.589-3.398,7.589-7.589v-34.384C511.491,465.837,508.093,462.439,503.902,462.439z M369.068,158.888h81.955v18.68h-81.955
	V158.888z M386.101,192.746h47.889v204.593h-47.889V192.746z M369.068,412.516h81.955v18.68h-81.955V412.516z M215.022,412.516
	h81.955v18.68h-81.955V412.516z M60.975,158.888h81.955v18.68H60.975V158.888z M78.007,192.746h47.89v204.593h-47.89V192.746z
	 M60.975,412.516h81.955v18.68H60.975V412.516z M496.313,496.823H15.686v-19.206h96.173c4.192,0,7.589-3.398,7.589-7.589
	s-3.397-7.589-7.589-7.589H38.33v-16.065h435.337v16.065H137.156c-4.192,0-7.589,3.398-7.589,7.589s3.397,7.589,7.589,7.589h359.156
	v19.206H496.313z"/>
<path d="M248.409,81.524v1.477c-14.225,2.989-24.828,14.176-24.828,27.488s10.603,24.499,24.828,27.488v25.589
	c-5.657-2.176-9.65-6.653-9.65-11.698c0-4.191-3.397-7.589-7.589-7.589s-7.589,3.398-7.589,7.589
	c0,13.313,10.603,24.499,24.828,27.488v1.477c0,4.191,3.397,7.589,7.589,7.589c4.192,0,7.589-3.398,7.589-7.589v-1.477
	c14.225-2.989,24.828-14.176,24.828-27.488s-10.603-24.499-24.828-27.488V98.793c5.657,2.176,9.65,6.653,9.65,11.698
	c0,4.191,3.397,7.589,7.589,7.589c4.192,0,7.589-3.398,7.589-7.589c0-13.313-10.603-24.499-24.828-27.488v-1.477
	c0-4.191-3.397-7.589-7.589-7.589C251.805,73.936,248.409,77.333,248.409,81.524z M238.759,110.49c0-5.044,3.993-9.52,9.65-11.698
	v23.395C242.75,120.011,238.759,115.535,238.759,110.49z M273.236,151.869c0,5.044-3.993,9.52-9.65,11.698v-23.395
	C269.243,142.349,273.236,146.825,273.236,151.869z"/>
<path d="M173.184,131.18c0,45.664,37.15,82.814,82.814,82.814s82.814-37.15,82.814-82.814s-37.15-82.814-82.814-82.814
	S173.184,85.516,173.184,131.18z M323.632,131.18c0,37.295-30.341,67.636-67.636,67.636s-67.636-30.341-67.636-67.636
	s30.341-67.636,67.636-67.636S323.632,93.885,323.632,131.18z"/>
<g>
</g>
<g>
</g>
<g>
</g>
<g>
</g>
<g>
</g>
<g>
</g>
<g>
</g>
<g>
</g>
<g>
</g>
<g>
</g>
<g>
</g>
<g>
</g>
<g>
</g>
<g>
</g>
<g>
</g>
</svg>
