<?xml version="1.0" encoding="iso-8859-1"?>
<!-- Generator: Adobe Illustrator 19.0.0, SVG Export Plug-In . SVG Version: 6.00 Build 0)  -->
<svg version="1.1" id="Capa_1" xmlns="http://www.w3.org/2000/svg" xmlns:xlink="http://www.w3.org/1999/xlink" x="0px" y="0px"
	 viewBox="0 0 512 512" style="enable-background:new 0 0 512 512;" xml:space="preserve">
<circle style="fill:#F4B74A;" cx="302.074" cy="209.975" r="202.328"/>
<path style="fill:#FFD488;" d="M464.723,209.974c0,89.826-72.819,162.645-162.645,162.645c-38.612,0-74.073-13.448-101.969-35.92
	c-8.738-7.045-16.731-14.968-23.848-23.644c-4.017-4.894-7.759-10.033-11.185-15.386c-16.232-25.306-25.643-55.405-25.643-87.695
	c0-86.206,67.079-156.752,151.889-162.299c3.548-0.224,7.137-0.347,10.757-0.347c11.552,0,22.818,1.203,33.677,3.497
	c19.525,4.109,37.755,11.725,54.008,22.156c5.363,3.426,10.502,7.168,15.406,11.195c8.677,7.117,16.599,15.11,23.634,23.848
	C451.274,135.911,464.723,171.372,464.723,209.974z"/>
<g>
	<path style="fill:#F9C662;" d="M428.801,108.025L200.107,336.699l-47.054,47.054c-8.921-16.65-16.018-34.391-21.044-53.019
		L389.761,72.981c5.363,3.426,10.502,7.168,15.406,11.195C413.844,91.293,421.767,99.287,428.801,108.025z"/>
	<path style="fill:#F9C662;" d="M335.753,50.826L156.55,230.019c-5.73-10.696-10.288-22.095-13.52-34.054L291.32,47.675
		c3.548-0.224,7.137-0.347,10.757-0.347C313.629,47.328,324.895,48.532,335.753,50.826z"/>
</g>
<path style="fill:#F4B74A;" d="M352.995,445.193c-60.859,60.849-150.828,74.838-225.075,41.946
	c-17.486-7.739-34.085-18.077-49.236-31.016c-4.058-3.456-7.994-7.107-11.827-10.93c-79.008-79.018-79.008-207.12,0-286.138
	c79.018-79.008,207.12-79.008,286.138,0c3.834,3.834,7.474,7.769,10.93,11.827c12.939,15.141,23.277,31.75,31.016,49.236
	C427.834,294.355,413.844,384.334,352.995,445.193z"/>
<path style="fill:#F9C662;" d="M394.942,220.119L127.921,487.139c-17.486-7.739-34.085-18.077-49.236-31.016l285.241-285.241
	C376.863,186.023,387.202,202.633,394.942,220.119z"/>
<path style="fill:#FFD488;" d="M372.572,302.124c0,89.826-72.819,162.645-162.645,162.645c-50.704,0-95.984-23.196-125.818-59.564
	c-23.022-28.059-36.828-63.959-36.828-103.081c0-89.826,72.819-162.645,162.645-162.645c39.132,0,75.032,13.826,103.091,36.848
	C349.376,206.15,372.572,251.43,372.572,302.124z"/>
<path style="fill:#F9C662;" d="M313.017,176.327L84.129,405.215l-0.02-0.01c-6.719-8.187-12.653-17.048-17.68-26.458
	c-5.73-10.695-10.288-22.095-13.52-34.054c-3.671-13.571-5.628-27.845-5.628-42.568c0-89.826,72.819-162.645,162.645-162.645
	c14.733,0,29.007,1.958,42.568,5.628c11.96,3.232,23.359,7.8,34.054,13.53C295.959,163.664,304.819,169.608,313.017,176.327z"/>
<path style="fill:#FFD488;" d="M286.549,158.637L66.429,378.747c-5.73-10.695-10.288-22.095-13.52-34.054l199.585-199.585
	C264.453,148.339,275.852,152.907,286.549,158.637z"/>
<path d="M209.927,92.149c-56.087,0-108.816,21.842-148.475,61.501c-81.869,81.869-81.869,215.08,0,296.949
	C102.391,491.538,156.149,512,209.927,512c53.763,0,107.545-20.472,148.475-61.402c81.868-81.869,81.868-215.08,0-296.949
	C318.742,113.99,266.012,92.149,209.927,92.149z M347.586,439.783c-75.905,75.907-199.415,75.906-275.32,0
	c-36.77-36.77-57.02-85.659-57.02-137.659c0-52.001,20.25-100.89,57.021-137.66s85.659-57.021,137.66-57.021
	s100.89,20.25,137.66,57.021C423.492,240.37,423.492,363.878,347.586,439.783z"/>
<path d="M209.927,131.83c-45.487,0-88.252,17.713-120.417,49.878c-66.398,66.398-66.398,174.435,0,240.832
	c32.164,32.164,74.929,49.878,120.417,49.878s88.252-17.713,120.417-49.878c24.125-24.126,40.293-54.513,46.756-87.879
	c0.803-4.147-1.907-8.159-6.053-8.962c-4.156-0.804-8.159,1.908-8.962,6.053c-5.882,30.359-20.597,58.014-42.557,79.974
	c-29.276,29.276-68.199,45.398-109.601,45.398s-80.326-16.123-109.602-45.398c-60.434-60.434-60.434-158.769,0-219.203
	c29.276-29.276,68.2-45.398,109.602-45.398s80.325,16.123,109.601,45.398c29.277,29.276,45.398,68.199,45.398,109.602
	c0,4.223,3.423,7.647,7.647,7.647s7.647-3.424,7.647-7.647c0-45.487-17.713-88.252-49.877-120.417
	C298.177,149.543,255.414,131.83,209.927,131.83z"/>
<path d="M450.548,61.501C410.888,21.841,358.159,0,302.074,0c-56.086,0-108.816,21.841-148.475,61.501
	c-4.975,4.975-9.733,10.23-14.144,15.618c-2.675,3.268-2.194,8.086,1.074,10.761c3.268,2.674,8.085,2.194,10.761-1.075
	c4.091-4.998,8.505-9.873,13.123-14.49c36.771-36.771,85.66-57.021,137.661-57.021s100.889,20.25,137.659,57.021
	c75.907,75.907,75.907,199.415,0,275.32c-4.62,4.621-9.495,9.036-14.489,13.122c-3.268,2.674-3.75,7.492-1.076,10.761
	c1.512,1.848,3.708,2.804,5.923,2.804c1.704,0,3.419-0.566,4.839-1.729c5.385-4.407,10.64-9.166,15.618-14.144
	C532.417,276.58,532.417,143.37,450.548,61.501z"/>
<path d="M435.14,303.871c1.276,0.815,2.701,1.204,4.11,1.204c2.522,0,4.992-1.248,6.451-3.531
	c20.55-32.169,29.701-70.918,25.766-109.107c-3.993-38.744-21.389-75.279-48.981-102.873
	c-34.689-34.69-82.667-52.732-131.669-49.508c-4.214,0.277-7.405,3.919-7.127,8.133c0.276,4.215,3.917,7.401,8.133,7.128
	c44.581-2.942,88.274,13.487,119.848,45.061c25.117,25.117,40.949,58.367,44.584,93.626c3.583,34.769-4.742,70.037-23.44,99.307
	C430.54,296.869,431.582,301.597,435.14,303.871z"/>
<path d="M214.66,80.439c1.408,0,2.834-0.389,4.109-1.203c15.443-9.866,32.384-16.841,50.351-20.731
	c4.127-0.894,6.749-4.964,5.855-9.092c-0.893-4.127-4.958-6.75-9.093-5.856c-19.746,4.277-38.368,11.945-55.346,22.79
	c-3.559,2.274-4.601,7.002-2.328,10.561C209.667,79.191,212.137,80.439,214.66,80.439z"/>
<path d="M259.81,286.401c4.224,0,7.647-3.424,7.647-7.647V256.69c0-24.456-19.896-44.352-44.352-44.352
	s-44.352,19.896-44.352,44.352v47.044h-18.71c-4.223,0-7.647,3.424-7.647,7.647s3.424,7.647,7.647,7.647h18.71v57.587h-18.71
	c-4.223,0-7.647,3.424-7.647,7.647s3.424,7.647,7.647,7.647h90.326c4.223,0,7.647-3.424,7.647-7.647s-3.423-7.647-7.647-7.647
	h-56.322v-57.587h35.928c4.223,0,7.647-3.424,7.647-7.647s-3.424-7.647-7.647-7.647h-35.928V256.69
	c0-16.023,13.035-29.058,29.058-29.058s29.058,13.035,29.058,29.058v22.064C252.163,282.978,255.586,286.401,259.81,286.401z"/>
<g>
</g>
<g>
</g>
<g>
</g>
<g>
</g>
<g>
</g>
<g>
</g>
<g>
</g>
<g>
</g>
<g>
</g>
<g>
</g>
<g>
</g>
<g>
</g>
<g>
</g>
<g>
</g>
<g>
</g>
</svg>
