<?xml version="1.0" encoding="iso-8859-1"?>
<!-- Generator: Adobe Illustrator 19.0.0, SVG Export Plug-In . SVG Version: 6.00 Build 0)  -->
<svg version="1.1" id="Capa_1" xmlns="http://www.w3.org/2000/svg" xmlns:xlink="http://www.w3.org/1999/xlink" x="0px" y="0px"
	 viewBox="0 0 512 512" style="enable-background:new 0 0 512 512;" xml:space="preserve">
<path style="fill:#DDDDDD;" d="M396.376,198.303h4.839c7.165,0,12.973,5.809,12.973,12.973v35.248v55.493H114.292
	c-17.063,0-30.896-13.833-30.896-30.896v-41.922c0-17.063,13.833-30.896,30.896-30.896h42.049h240.035V198.303z"/>
<path style="fill:#FFD488;" d="M401.096,90.482c0,45.765-37.094,82.859-82.859,82.859c-3.326,0-6.603-0.194-9.82-0.583
	c-10.462-1.233-20.332-4.416-29.224-9.179c-8.14-4.357-15.469-10.031-21.684-16.744c-12.345-13.283-20.367-30.617-21.861-49.794
	c-0.177-2.162-0.261-4.349-0.261-6.56c0-45.757,37.094-82.851,82.851-82.851c2.213,0,4.4,0.084,6.56,0.261
	c19.176,1.494,36.511,9.517,49.794,21.861c6.713,6.215,12.387,13.544,16.744,21.683c4.762,8.891,7.946,18.763,9.179,29.224
	C400.901,83.878,401.096,87.163,401.096,90.482z"/>
<g>
	<path style="fill:#F9C662;" d="M374.59,29.753L257.508,146.836c-12.345-13.283-20.367-30.617-21.861-49.794l89.15-89.15
		C343.973,9.386,361.308,17.409,374.59,29.753z"/>
	<path style="fill:#F9C662;" d="M400.513,80.661l-92.097,92.097c-10.462-1.233-20.332-4.416-29.224-9.179L391.335,51.438
		C396.097,60.329,399.28,70.199,400.513,80.661z"/>
</g>
<path style="fill:#FFD488;" d="M286.896,189.654c0,45.765-37.094,82.859-82.859,82.859c-3.326,0-6.603-0.194-9.82-0.583
	c-10.462-1.233-20.332-4.416-29.224-9.179c-8.14-4.357-15.469-10.031-21.684-16.744c-12.345-13.283-20.367-30.617-21.861-49.794
	c-0.177-2.162-0.261-4.349-0.261-6.56c0-45.757,37.094-82.851,82.851-82.851c2.213,0,4.4,0.084,6.56,0.261
	c19.176,1.494,36.511,9.517,49.794,21.861c6.713,6.215,12.387,13.544,16.744,21.683c4.762,8.891,7.946,18.763,9.179,29.224
	C286.702,183.052,286.896,186.335,286.896,189.654z"/>
<g>
	<path style="fill:#F9C662;" d="M260.391,128.926L143.309,246.009c-12.345-13.283-20.367-30.617-21.861-49.794l89.15-89.15
		C229.773,108.56,247.109,116.581,260.391,128.926z"/>
	<path style="fill:#F9C662;" d="M286.313,179.834l-92.097,92.097c-10.462-1.233-20.332-4.416-29.224-9.179L277.134,150.61
		C281.897,159.502,285.08,169.372,286.313,179.834z"/>
</g>
<path style="fill:#C17F49;" d="M414.187,278.695V485.77c0,10.271-8.329,18.601-18.601,18.601H114.287
	c-17.057,0-30.891-13.834-30.891-30.899V229.194c0,17.065,13.834,30.899,30.891,30.899h281.299
	C405.857,260.094,414.187,268.423,414.187,278.695z"/>
<path style="fill:#A56637;" d="M121.564,260.094V504.37h-7.278c-17.057,0-30.891-13.834-30.891-30.899V229.194
	c0,17.065,13.834,30.899,30.891,30.899h7.278V260.094z"/>
<path style="fill:#2E3842;" d="M360.751,414.463h54.376c7.443,0,13.478-6.034,13.478-13.478v-49.38
	c0-7.443-6.034-13.478-13.478-13.478h-54.376c-21.08,0-38.168,17.088-38.168,38.168l0,0
	C322.583,397.374,339.671,414.463,360.751,414.463z"/>
<circle style="fill:#FFD488;" cx="359.902" cy="376.29" r="15.269"/>
<path d="M298.52,113.274c0-4.214-3.415-7.63-7.63-7.63c-4.215,0-7.63,3.416-7.63,7.63c0,14.493,11.719,26.643,27.346,29.68v2.224
	c0,4.214,3.415,7.63,7.63,7.63c4.215,0,7.63-3.416,7.63-7.63v-2.224c15.627-3.037,27.346-15.187,27.346-29.68
	s-11.719-26.643-27.346-29.68V53.72c7.093,2.298,12.087,7.697,12.087,13.977c0,4.214,3.415,7.63,7.63,7.63s7.63-3.416,7.63-7.63
	c0-14.493-11.719-26.643-27.346-29.681v-2.224c0-4.214-3.415-7.63-7.63-7.63c-4.215,0-7.63,3.416-7.63,7.63v2.224
	c-15.627,3.037-27.346,15.187-27.346,29.68s11.719,26.643,27.346,29.68v29.872C303.512,124.953,298.52,119.553,298.52,113.274z
	 M337.952,113.274c0,6.28-4.993,11.678-12.087,13.976V99.297C332.959,101.595,337.952,106.994,337.952,113.274z M298.52,67.697
	c0-6.28,4.993-11.679,12.087-13.977v27.954C303.512,79.376,298.52,73.977,298.52,67.697z"/>
<path d="M235.38,98.115c4.215,0,7.63-3.416,7.63-7.63c0-41.479,33.746-75.227,75.226-75.227s75.227,33.746,75.227,75.227
	s-33.747,75.226-75.227,75.226c-2.986,0-5.989-0.176-8.926-0.523c-4.178-0.491-7.978,2.497-8.472,6.681
	c-0.494,4.184,2.497,7.977,6.681,8.472c3.53,0.417,7.135,0.629,10.716,0.629c49.894,0,90.486-40.591,90.486-90.485
	S368.13,0,318.236,0s-90.485,40.591-90.485,90.486C227.751,94.699,231.167,98.115,235.38,98.115z"/>
<path d="M196.407,196.55v29.873c-7.093-2.298-12.087-7.697-12.087-13.977c0-4.214-3.415-7.63-7.63-7.63
	c-4.215,0-7.63,3.416-7.63,7.63c0,14.493,11.719,26.643,27.346,29.681v2.224c0,4.214,3.415,7.63,7.63,7.63s7.63-3.416,7.63-7.63
	v-2.224c15.627-3.037,27.346-15.188,27.346-29.681s-11.719-26.643-27.346-29.68v-29.872c7.093,2.298,12.087,7.697,12.087,13.976
	c0,4.214,3.415,7.63,7.63,7.63c4.215,0,7.63-3.416,7.63-7.63c0-14.493-11.719-26.643-27.346-29.68v-2.224
	c0-4.214-3.415-7.63-7.63-7.63s-7.63,3.416-7.63,7.63v2.224c-15.627,3.037-27.346,15.187-27.346,29.68
	C169.061,181.363,180.78,193.513,196.407,196.55z M223.754,212.446c0,6.28-4.993,11.679-12.087,13.977v-27.954
	C218.76,200.768,223.754,206.166,223.754,212.446z M196.407,152.893v27.953c-7.093-2.298-12.087-7.697-12.087-13.976
	S189.313,155.191,196.407,152.893z"/>
<path d="M137.352,246.455c1.576,0,3.164-0.486,4.528-1.494c3.389-2.504,4.106-7.282,1.602-10.67
	c-9.598-12.989-14.671-28.422-14.671-44.631c0-26.686,13.683-50.824,36.604-64.569c3.613-2.167,4.786-6.853,2.619-10.467
	c-2.167-3.613-6.851-4.786-10.468-2.619c-27.149,16.28-44.016,46.037-44.016,77.655c0,19.497,6.106,38.065,17.657,53.699
	C132.707,245.384,135.013,246.455,137.352,246.455z"/>
<path d="M188.259,116.089c5.15-1.1,10.459-1.656,15.78-1.656c41.479,0,75.227,33.747,75.227,75.228
	c0,16.209-5.073,31.641-14.671,44.631c-2.504,3.389-1.786,8.166,1.602,10.67c1.364,1.008,2.952,1.494,4.528,1.494
	c2.338,0,4.646-1.071,6.142-3.096c11.551-15.633,17.657-34.202,17.657-53.699c0-49.894-40.591-90.487-90.486-90.487
	c-6.388,0-12.77,0.67-18.965,1.992c-4.121,0.88-6.749,4.934-5.87,9.054C180.084,114.341,184.139,116.966,188.259,116.089z"/>
<path d="M309.07,190.673c-4.215,0-7.63,3.416-7.63,7.63c0,4.214,3.415,7.63,7.63,7.63h92.144c2.946,0,5.344,2.397,5.344,5.343v9.751
	H304.321c-4.215,0-7.63,3.416-7.63,7.63c0,4.214,3.415,7.63,7.63,7.63h102.236v5.15c0,4.214,3.415,7.63,7.63,7.63
	c4.215,0,7.63-3.416,7.63-7.63v-30.16c0-11.36-9.242-20.602-20.603-20.602L309.07,190.673L309.07,190.673z"/>
<path d="M414.187,428.179c-4.215,0-7.63,3.416-7.63,7.63v49.961c0,6.05-4.922,10.971-10.971,10.971H114.287
	c-12.826,0-23.261-10.438-23.261-23.27V259.88c6.469,4.918,14.53,7.843,23.264,7.843h281.296c6.05,0,10.971,4.922,10.971,10.971
	v38.087c0,4.214,3.415,7.63,7.63,7.63c4.215,0,7.63-3.416,7.63-7.63v-38.087c0-14.464-11.767-26.23-26.23-26.23H114.29
	c-12.802,0-23.221-10.395-23.264-23.188v-0.081c0-0.007-0.001-0.014-0.001-0.021c0.01-9.121,5.387-17.439,13.706-21.195
	c3.84-1.733,5.548-6.252,3.815-10.092c-1.735-3.84-6.252-5.549-10.093-3.815c-13.782,6.222-22.687,20.01-22.687,35.128
	c0,0.026,0.002,0.052,0.002,0.078v244.193c0,21.245,17.279,38.529,38.52,38.529h281.298c14.464,0,26.23-11.767,26.23-26.23v-49.961
	C421.816,431.595,418.4,428.179,414.187,428.179z"/>
<path d="M415.128,330.497h-54.376c-25.253,0-45.798,20.545-45.798,45.798c0,25.253,20.544,45.798,45.798,45.798h13.823
	c4.215,0,7.63-3.416,7.63-7.63s-3.415-7.63-7.63-7.63h-13.823c-16.839,0-30.539-13.7-30.539-30.539
	c0-16.839,13.7-30.539,30.539-30.539h54.376c3.225,0,5.848,2.624,5.848,5.849v49.381c0,3.225-2.624,5.848-5.848,5.848h-15.121
	c-4.215,0-7.63,3.416-7.63,7.63c0,4.214,3.415,7.63,7.63,7.63h15.121c11.639,0,21.107-9.469,21.107-21.107v-49.381
	C436.235,339.965,426.767,330.497,415.128,330.497z"/>
<path d="M337.006,376.294c0,12.625,10.271,22.897,22.897,22.897s22.898-10.271,22.898-22.897c0-12.625-10.272-22.897-22.898-22.897
	S337.006,363.67,337.006,376.294z M367.541,376.294c0,4.212-3.426,7.638-7.639,7.638c-4.212,0-7.638-3.426-7.638-7.638
	s3.426-7.638,7.638-7.638C364.115,368.657,367.541,372.084,367.541,376.294z"/>
<path d="M152.748,92.511c4.215,0,7.63-3.416,7.63-7.63V46.225c0-4.214-3.415-7.63-7.63-7.63c-4.215,0-7.63,3.416-7.63,7.63v38.656
	C145.118,89.095,148.533,92.511,152.748,92.511z"/>
<path d="M190.891,77.251c4.215,0,7.63-3.416,7.63-7.63V30.965c0-4.214-3.415-7.63-7.63-7.63s-7.63,3.416-7.63,7.63v38.656
	C183.261,73.835,186.676,77.251,190.891,77.251z"/>
<g>
</g>
<g>
</g>
<g>
</g>
<g>
</g>
<g>
</g>
<g>
</g>
<g>
</g>
<g>
</g>
<g>
</g>
<g>
</g>
<g>
</g>
<g>
</g>
<g>
</g>
<g>
</g>
<g>
</g>
</svg>
