<?xml version="1.0" encoding="iso-8859-1"?>
<!-- Generator: Adobe Illustrator 19.0.0, SVG Export Plug-In . SVG Version: 6.00 Build 0)  -->
<svg version="1.1" id="Capa_1" xmlns="http://www.w3.org/2000/svg" xmlns:xlink="http://www.w3.org/1999/xlink" x="0px" y="0px"
	 viewBox="0 0 512.001 512.001" style="enable-background:new 0 0 512.001 512.001;" xml:space="preserve">
<path style="fill:#FFD488;" d="M419.281,170.888c0-89.423-71.885-162.055-161.019-163.265
	C167.154,6.387,93.18,78.937,92.722,170.051c-0.238,47.453,19.769,90.233,51.882,120.212c9.041,8.44,14.068,20.327,14.068,32.695
	v39.595h194.655v-39.889c0-12.405,5.276-24.157,14.325-32.64C399.426,260.233,419.281,217.881,419.281,170.888z"/>
<path style="fill:#F9C662;" d="M161.221,170.05c-0.146,47.452,11.47,90.236,30.11,120.21c5.254,8.446,8.174,20.325,8.174,32.696
	v39.591h-40.837v-39.591c0-12.371-5.024-24.249-14.066-32.696c-32.11-29.974-52.12-72.758-51.879-120.21
	C93.162,80.107,165.25,8.26,254.754,7.622C203.053,8.731,161.482,80.412,161.221,170.05z"/>
<path style="fill:#DDDDDD;" d="M296.684,473.467h-81.367c-31.284,0-56.644-25.36-56.644-56.644v-54.273h194.655v54.273
	C353.328,448.108,327.967,473.467,296.684,473.467z"/>
<path style="fill:#525D66;" d="M286.924,473.467c0,17.078-13.845,30.924-30.924,30.924s-30.924-13.845-30.924-30.924"/>
<path style="fill:#2E3842;" d="M245.956,473.467h-20.88c0,17.078,13.845,30.924,30.924,30.924c3.664,0,7.178-0.641,10.439-1.811
	C254.5,498.297,245.956,486.881,245.956,473.467z"/>
<circle style="fill:#FFDEA9;" cx="329.354" cy="117.664" r="39.245"/>
<path style="fill:#C2C4C2;" d="M196.355,416.824v-54.273h-37.682v54.273c0,31.284,25.36,56.644,56.644,56.644h37.682
	C221.715,473.467,196.355,448.108,196.355,416.824z"/>
<circle style="fill:#FFDEA9;" cx="349.766" cy="191.45" r="16.483"/>
<path d="M377.611,50.83C345.864,18.675,303.515,0.628,258.365,0.015c-32.188-0.423-63.619,8.031-90.884,24.483
	c-3.597,2.172-4.754,6.848-2.583,10.446c2.171,3.597,6.848,4.755,10.446,2.583c24.828-14.984,53.468-22.69,82.813-22.296
	c41.127,0.558,79.704,16.997,108.623,46.289c28.947,29.32,44.889,68.16,44.889,109.367c0,43.486-17.481,83.825-49.224,113.583
	c-10.631,9.969-16.729,23.888-16.729,38.192v14.524c0,4.202,3.406,7.609,7.609,7.609s7.609-3.407,7.609-7.609v-14.524
	c0-10.114,4.344-19.987,11.921-27.09c34.339-32.194,54.033-77.639,54.033-124.685C426.889,125.654,409.389,83.016,377.611,50.83z"/>
<path d="M151.064,337.187c0,4.202,3.407,7.609,7.609,7.609s7.609-3.407,7.609-7.609v-14.23c0-14.533-6.008-28.477-16.485-38.256
	c-31.654-29.549-49.684-71.324-49.466-114.612c0.223-44.474,19.343-86.757,52.458-116.002c3.149-2.782,3.447-7.591,0.667-10.74
	c-2.783-3.149-7.59-3.448-10.74-0.667c-36.361,32.114-57.356,78.525-57.601,127.332c-0.238,47.519,19.553,93.376,54.299,125.812
	c7.404,6.912,11.651,16.801,11.651,27.132L151.064,337.187L151.064,337.187z"/>
<path d="M353.327,354.943H158.673c-4.202,0-7.609,3.407-7.609,7.609v54.273c0,35.429,28.823,64.253,64.252,64.253h2.909
	c3.543,17.615,19.133,30.924,37.775,30.924c18.642,0,34.231-13.308,37.774-30.924h2.91c35.429,0,64.251-28.823,64.251-64.253
	v-54.273C360.936,358.349,357.53,354.943,353.327,354.943z M256.001,496.782c-10.192,0-18.871-6.576-22.033-15.706h44.066
	C274.871,490.206,266.193,496.782,256.001,496.782z M345.718,416.824c0,27.038-21.997,49.035-49.034,49.035h-81.367
	c-27.038,0-49.035-21.997-49.035-49.035V370.16h179.436V416.824z"/>
<path d="M220.421,228.326c0-4.202-3.407-7.609-7.609-7.609s-7.609,3.407-7.609,7.609c0,21.821,18.776,39.948,43.189,43.109v69.139
	c0,4.202,3.407,7.609,7.609,7.609c4.203,0,7.609-3.407,7.609-7.609v-69.139c24.412-3.161,43.188-21.288,43.188-43.109
	s-18.776-39.948-43.188-43.109v-56.594c15.974,2.788,27.97,14.156,27.97,27.722c0,4.202,3.406,7.609,7.609,7.609
	s7.609-3.407,7.609-7.609c0-21.821-18.776-39.948-43.188-43.109v-7.277c0-4.202-3.406-7.609-7.609-7.609
	c-4.202,0-7.609,3.407-7.609,7.609v7.277c-24.413,3.161-43.189,21.288-43.189,43.109s18.776,39.948,43.189,43.109v56.594
	C232.419,253.26,220.421,241.893,220.421,228.326z M291.58,228.326c0,13.566-11.997,24.934-27.97,27.722v-55.442
	C279.583,203.393,291.58,214.76,291.58,228.326z M220.421,156.345c0-13.566,11.998-24.934,27.971-27.722v55.442
	C232.419,181.279,220.421,169.911,220.421,156.345z"/>
<path d="M298.302,406.609l28.219,2.76c0.253,0.024,0.502,0.037,0.75,0.037c3.868,0,7.179-2.938,7.564-6.868
	c0.408-4.183-2.65-7.905-6.832-8.314l-28.219-2.76c-4.194-0.414-7.904,2.65-8.314,6.832
	C291.062,402.478,294.121,406.2,298.302,406.609z"/>
<path d="M182.1,395.241l90.431,8.847c0.253,0.024,0.502,0.037,0.75,0.037c3.868,0,7.179-2.938,7.564-6.868
	c0.408-4.183-2.65-7.905-6.832-8.314l-90.431-8.847c-4.185-0.408-7.905,2.65-8.314,6.832
	C174.86,391.11,177.919,394.832,182.1,395.241z"/>
<path d="M182.1,428.763l144.421,14.128c0.253,0.024,0.502,0.037,0.75,0.037c3.868,0,7.179-2.938,7.564-6.869
	c0.408-4.182-2.65-7.904-6.832-8.313l-144.422-14.128c-4.177-0.413-7.905,2.65-8.313,6.832
	C174.86,424.632,177.919,428.354,182.1,428.763z"/>
<g>
</g>
<g>
</g>
<g>
</g>
<g>
</g>
<g>
</g>
<g>
</g>
<g>
</g>
<g>
</g>
<g>
</g>
<g>
</g>
<g>
</g>
<g>
</g>
<g>
</g>
<g>
</g>
<g>
</g>
</svg>
