<?xml version="1.0" encoding="iso-8859-1"?>
<!-- Generator: Adobe Illustrator 19.0.0, SVG Export Plug-In . SVG Version: 6.00 Build 0)  -->
<svg version="1.1" id="Capa_1" xmlns="http://www.w3.org/2000/svg" xmlns:xlink="http://www.w3.org/1999/xlink" x="0px" y="0px"
	 viewBox="0 0 512 512" style="enable-background:new 0 0 512 512;" xml:space="preserve">
<path style="fill:#467EB7;" d="M411.858,6.616H100.142c-23.54,0-42.621,19.082-42.621,42.621v413.525
	c0,23.539,19.082,42.621,42.621,42.621h311.715c23.539,0,42.621-19.082,42.621-42.621V49.238
	C454.479,25.699,435.396,6.616,411.858,6.616z"/>
<g>
	<path style="fill:#DDDDDD;" d="M413.766,74.56v62.285c0,15.034-12.194,27.229-27.229,27.229H125.468
		c-10.209,0-19.096-5.619-23.747-13.925c-2.219-3.929-3.481-8.469-3.481-13.304V74.56c0-15.034,12.184-27.229,27.229-27.229h261.069
		c8.296,0,15.737,3.715,20.724,9.578C411.323,61.663,413.766,67.831,413.766,74.56z"/>
	<path style="fill:#DDDDDD;" d="M144.077,244.995H112.53c-7.895,0-14.294-6.399-14.294-14.294v-19.612
		c0-7.895,6.399-14.294,14.294-14.294h31.547c7.895,0,14.294,6.4,14.294,14.294V230.7
		C158.371,238.595,151.971,244.995,144.077,244.995z"/>
	<path style="fill:#DDDDDD;" d="M229.207,244.995H197.66c-7.895,0-14.294-6.399-14.294-14.294v-19.612
		c0-7.895,6.399-14.294,14.294-14.294h31.547c7.895,0,14.294,6.4,14.294,14.294V230.7
		C243.501,238.595,237.102,244.995,229.207,244.995z"/>
	<path style="fill:#DDDDDD;" d="M314.337,244.995h-31.547c-7.895,0-14.294-6.399-14.294-14.294v-19.612
		c0-7.895,6.399-14.294,14.294-14.294h31.547c7.895,0,14.294,6.4,14.294,14.294V230.7
		C328.632,238.595,322.232,244.995,314.337,244.995z"/>
	<path style="fill:#DDDDDD;" d="M399.469,244.995h-31.547c-7.895,0-14.294-6.399-14.294-14.294v-19.612
		c0-7.895,6.4-14.294,14.294-14.294h31.547c7.895,0,14.294,6.4,14.294,14.294V230.7
		C413.763,238.595,407.363,244.995,399.469,244.995z"/>
	<path style="fill:#DDDDDD;" d="M144.077,318.605H112.53c-7.895,0-14.294-6.399-14.294-14.294v-19.612
		c0-7.895,6.399-14.294,14.294-14.294h31.547c7.895,0,14.294,6.399,14.294,14.294v19.612
		C158.371,312.206,151.971,318.605,144.077,318.605z"/>
	<path style="fill:#DDDDDD;" d="M229.207,318.605H197.66c-7.895,0-14.294-6.399-14.294-14.294v-19.612
		c0-7.895,6.399-14.294,14.294-14.294h31.547c7.895,0,14.294,6.399,14.294,14.294v19.612
		C243.501,312.206,237.102,318.605,229.207,318.605z"/>
	<path style="fill:#DDDDDD;" d="M314.337,318.605h-31.547c-7.895,0-14.294-6.399-14.294-14.294v-19.612
		c0-7.895,6.399-14.294,14.294-14.294h31.547c7.895,0,14.294,6.399,14.294,14.294v19.612
		C328.632,312.206,322.232,318.605,314.337,318.605z"/>
	<path style="fill:#DDDDDD;" d="M399.469,318.605h-31.547c-7.895,0-14.294-6.399-14.294-14.294v-19.612
		c0-7.895,6.4-14.294,14.294-14.294h31.547c7.895,0,14.294,6.399,14.294,14.294v19.612
		C413.763,312.206,407.363,318.605,399.469,318.605z"/>
	<path style="fill:#DDDDDD;" d="M144.077,392.216H112.53c-7.895,0-14.294-6.399-14.294-14.294V358.31
		c0-7.895,6.399-14.294,14.294-14.294h31.547c7.895,0,14.294,6.399,14.294,14.294v19.612
		C158.371,385.817,151.971,392.216,144.077,392.216z"/>
	<path style="fill:#DDDDDD;" d="M229.207,392.216H197.66c-7.895,0-14.294-6.399-14.294-14.294V358.31
		c0-7.895,6.399-14.294,14.294-14.294h31.547c7.895,0,14.294,6.399,14.294,14.294v19.612
		C243.501,385.817,237.102,392.216,229.207,392.216z"/>
	<path style="fill:#DDDDDD;" d="M314.337,392.216h-31.547c-7.895,0-14.294-6.399-14.294-14.294V358.31
		c0-7.895,6.399-14.294,14.294-14.294h31.547c7.895,0,14.294,6.399,14.294,14.294v19.612
		C328.632,385.817,322.232,392.216,314.337,392.216z"/>
	<path style="fill:#DDDDDD;" d="M144.077,465.827H112.53c-7.895,0-14.294-6.399-14.294-14.294v-19.612
		c0-7.895,6.399-14.294,14.294-14.294h31.547c7.895,0,14.294,6.399,14.294,14.294v19.612
		C158.371,459.428,151.971,465.827,144.077,465.827z"/>
	<path style="fill:#DDDDDD;" d="M229.207,465.827H197.66c-7.895,0-14.294-6.399-14.294-14.294v-19.612
		c0-7.895,6.399-14.294,14.294-14.294h31.547c7.895,0,14.294,6.399,14.294,14.294v19.612
		C243.501,459.428,237.102,465.827,229.207,465.827z"/>
	<path style="fill:#DDDDDD;" d="M314.337,465.827h-31.547c-7.895,0-14.294-6.399-14.294-14.294v-19.612
		c0-7.895,6.399-14.294,14.294-14.294h31.547c7.895,0,14.294,6.399,14.294,14.294v19.612
		C328.632,459.428,322.232,465.827,314.337,465.827z"/>
	<path style="fill:#DDDDDD;" d="M399.469,465.827h-31.547c-7.895,0-14.294-6.399-14.294-14.294V358.31
		c0-7.895,6.4-14.294,14.294-14.294h31.547c7.895,0,14.294,6.399,14.294,14.294v93.223
		C413.763,459.428,407.363,465.827,399.469,465.827z"/>
</g>
<g>
	<path style="fill:#C2C4C2;" d="M127.798,244.996H112.53c-7.899,0-14.291-6.403-14.291-14.291V211.09
		c0-7.899,6.392-14.291,14.291-14.291h15.268c-7.889,0-14.291,6.392-14.291,14.291v19.615
		C113.507,238.593,119.91,244.996,127.798,244.996z"/>
	<path style="fill:#C2C4C2;" d="M212.935,244.996h-15.279c-7.889,0-14.291-6.403-14.291-14.291V211.09
		c0-7.899,6.403-14.291,14.291-14.291h15.279c-7.899,0-14.301,6.392-14.301,14.291v19.615
		C198.634,238.593,205.036,244.996,212.935,244.996z"/>
	<path style="fill:#C2C4C2;" d="M298.061,244.996h-15.268c-7.899,0-14.291-6.403-14.291-14.291V211.09
		c0-7.899,6.392-14.291,14.291-14.291h15.268c-7.899,0-14.291,6.392-14.291,14.291v19.615
		C283.77,238.593,290.163,244.996,298.061,244.996z"/>
	<path style="fill:#C2C4C2;" d="M383.188,244.996h-15.268c-7.889,0-14.291-6.403-14.291-14.291V211.09
		c0-7.899,6.403-14.291,14.291-14.291h15.268c-7.889,0-14.291,6.392-14.291,14.291v19.615
		C368.896,238.593,375.299,244.996,383.188,244.996z"/>
	<path style="fill:#C2C4C2;" d="M127.798,318.61H112.53c-7.899,0-14.291-6.403-14.291-14.301v-19.605
		c0-7.899,6.392-14.301,14.291-14.301h15.268c-7.889,0-14.291,6.403-14.291,14.301v19.605
		C113.507,312.207,119.91,318.61,127.798,318.61z"/>
	<path style="fill:#C2C4C2;" d="M212.935,318.61h-15.279c-7.889,0-14.291-6.403-14.291-14.301v-19.605
		c0-7.899,6.403-14.301,14.291-14.301h15.279c-7.899,0-14.301,6.403-14.301,14.301v19.605
		C198.634,312.207,205.036,318.61,212.935,318.61z"/>
	<path style="fill:#C2C4C2;" d="M298.061,318.61h-15.268c-7.899,0-14.291-6.403-14.291-14.301v-19.605
		c0-7.899,6.392-14.301,14.291-14.301h15.268c-7.899,0-14.291,6.403-14.291,14.301v19.605
		C283.77,312.207,290.163,318.61,298.061,318.61z"/>
	<path style="fill:#C2C4C2;" d="M383.188,318.61h-15.268c-7.889,0-14.291-6.403-14.291-14.301v-19.605
		c0-7.899,6.403-14.301,14.291-14.301h15.268c-7.889,0-14.291,6.403-14.291,14.301v19.605
		C368.896,312.207,375.299,318.61,383.188,318.61z"/>
	<path style="fill:#C2C4C2;" d="M127.798,392.213H112.53c-7.899,0-14.291-6.392-14.291-14.291v-19.615
		c0-7.889,6.392-14.291,14.291-14.291h15.268c-7.889,0-14.291,6.403-14.291,14.291v19.615
		C113.507,385.821,119.91,392.213,127.798,392.213z"/>
	<path style="fill:#C2C4C2;" d="M212.935,392.213h-15.279c-7.889,0-14.291-6.392-14.291-14.291v-19.615
		c0-7.889,6.403-14.291,14.291-14.291h15.279c-7.899,0-14.301,6.403-14.301,14.291v19.615
		C198.634,385.821,205.036,392.213,212.935,392.213z"/>
	<path style="fill:#C2C4C2;" d="M298.061,392.213h-15.268c-7.899,0-14.291-6.392-14.291-14.291v-19.615
		c0-7.889,6.392-14.291,14.291-14.291h15.268c-7.899,0-14.291,6.403-14.291,14.291v19.615
		C283.77,385.821,290.163,392.213,298.061,392.213z"/>
	<path style="fill:#C2C4C2;" d="M127.798,465.827H112.53c-7.899,0-14.291-6.403-14.291-14.291v-19.615
		c0-7.899,6.392-14.291,14.291-14.291h15.268c-7.889,0-14.291,6.392-14.291,14.291v19.615
		C113.507,459.425,119.91,465.827,127.798,465.827z"/>
	<path style="fill:#C2C4C2;" d="M212.935,465.827h-15.279c-7.889,0-14.291-6.403-14.291-14.291v-19.615
		c0-7.899,6.403-14.291,14.291-14.291h15.279c-7.899,0-14.301,6.392-14.301,14.291v19.615
		C198.634,459.425,205.036,465.827,212.935,465.827z"/>
	<path style="fill:#C2C4C2;" d="M298.061,465.827h-15.268c-7.899,0-14.291-6.403-14.291-14.291v-19.615
		c0-7.899,6.392-14.291,14.291-14.291h15.268c-7.899,0-14.291,6.392-14.291,14.291v19.615
		C283.77,459.425,290.163,465.827,298.061,465.827z"/>
	<path style="fill:#C2C4C2;" d="M383.188,465.827h-15.268c-7.889,0-14.291-6.403-14.291-14.291v-93.229
		c0-7.889,6.403-14.291,14.291-14.291h15.268c-7.889,0-14.291,6.403-14.291,14.291v93.229
		C368.896,459.425,375.299,465.827,383.188,465.827z"/>
</g>
<g>
	<path style="fill:#EFEFEF;" d="M336.244,47.331L219.501,164.073h-94.033c-10.209,0-19.096-5.619-23.747-13.925L204.538,47.331
		H336.244z"/>
	<path style="fill:#EFEFEF;" d="M407.262,56.909L300.098,164.073h-47.413L369.427,47.331h17.111
		C394.833,47.331,402.274,51.046,407.262,56.909z"/>
</g>
<path d="M454.479,351.992c3.654,0,6.616-2.962,6.616-6.616V49.238C461.095,22.088,439.008,0,411.858,0H100.142
	c-27.15,0-49.238,22.088-49.238,49.238v413.525c0,27.149,22.087,49.237,49.238,49.237h311.715c27.15,0,49.237-22.088,49.237-49.237
	v-91.937c0-3.654-2.962-6.616-6.616-6.616c-3.654,0-6.616,2.962-6.616,6.616v91.937c0,19.853-16.152,36.005-36.005,36.005H100.142
	c-19.853,0-36.005-16.152-36.005-36.005V49.238c0-19.853,16.152-36.005,36.005-36.005h311.715c19.853,0,36.005,16.152,36.005,36.005
	v296.139C447.863,349.03,450.825,351.992,454.479,351.992z"/>
<path d="M164.987,211.089c0-11.531-9.381-20.911-20.911-20.911H112.53c-11.53,0-20.911,9.38-20.911,20.911V230.7
	c0,11.531,9.381,20.911,20.911,20.911h31.547c11.53,0,20.911-9.38,20.911-20.911V211.089z M151.755,230.7
	c0,4.233-3.445,7.678-7.678,7.678H112.53c-4.233,0-7.678-3.445-7.678-7.678v-19.612c0-4.233,3.445-7.678,7.678-7.678h31.547
	c4.233,0,7.678,3.445,7.678,7.678V230.7z"/>
<path d="M250.118,211.089c0-11.531-9.381-20.911-20.911-20.911h-31.546c-11.53,0-20.911,9.38-20.911,20.911V230.7
	c0,11.531,9.381,20.911,20.911,20.911h31.546c11.53,0,20.911-9.38,20.911-20.911V211.089z M236.885,230.7
	c0,4.233-3.445,7.678-7.678,7.678h-31.546c-4.233,0-7.678-3.445-7.678-7.678v-19.612c0-4.233,3.445-7.678,7.678-7.678h31.546
	c4.233,0,7.678,3.445,7.678,7.678V230.7z"/>
<path d="M335.248,211.089c0-11.531-9.381-20.911-20.911-20.911h-31.547c-11.53,0-20.91,9.38-20.91,20.911V230.7
	c0,11.531,9.38,20.911,20.91,20.911h31.547c11.53,0,20.911-9.38,20.911-20.911V211.089z M322.015,230.7
	c0,4.233-3.445,7.678-7.678,7.678h-31.547c-4.232,0-7.677-3.445-7.677-7.678v-19.612c0-4.233,3.445-7.678,7.677-7.678h31.547
	c4.233,0,7.678,3.445,7.678,7.678V230.7z"/>
<path d="M420.378,211.089c0-11.531-9.381-20.911-20.911-20.911h-31.546c-11.53,0-20.911,9.38-20.911,20.911V230.7
	c0,11.531,9.381,20.911,20.911,20.911h31.546c11.53,0,20.911-9.38,20.911-20.911V211.089z M407.146,230.7
	c0,4.233-3.445,7.678-7.678,7.678h-31.546c-4.233,0-7.678-3.445-7.678-7.678v-19.612c0-4.233,3.445-7.678,7.678-7.678h31.546
	c4.233,0,7.678,3.445,7.678,7.678V230.7z"/>
<path d="M164.987,284.699c0-11.531-9.381-20.911-20.911-20.911H112.53c-11.53,0-20.911,9.38-20.911,20.911v19.612
	c0,11.531,9.381,20.911,20.911,20.911h31.547c11.53,0,20.911-9.38,20.911-20.911V284.699z M151.755,304.311
	c0,4.233-3.445,7.678-7.678,7.678H112.53c-4.233,0-7.678-3.445-7.678-7.678v-19.612c0-4.233,3.445-7.678,7.678-7.678h31.547
	c4.233,0,7.678,3.445,7.678,7.678V304.311z"/>
<path d="M250.118,284.699c0-11.531-9.381-20.911-20.911-20.911h-31.546c-11.53,0-20.911,9.38-20.911,20.911v19.612
	c0,11.531,9.381,20.911,20.911,20.911h31.546c11.53,0,20.911-9.38,20.911-20.911V284.699z M236.885,304.311
	c0,4.233-3.445,7.678-7.678,7.678h-31.546c-4.233,0-7.678-3.445-7.678-7.678v-19.612c0-4.233,3.445-7.678,7.678-7.678h31.546
	c4.233,0,7.678,3.445,7.678,7.678V304.311z"/>
<path d="M335.248,284.699c0-11.531-9.381-20.911-20.911-20.911h-31.547c-11.53,0-20.91,9.38-20.91,20.911v19.612
	c0,11.531,9.38,20.911,20.91,20.911h31.547c11.53,0,20.911-9.38,20.911-20.911V284.699z M322.015,304.311
	c0,4.233-3.445,7.678-7.678,7.678h-31.547c-4.232,0-7.677-3.445-7.677-7.678v-19.612c0-4.233,3.445-7.678,7.677-7.678h31.547
	c4.233,0,7.678,3.445,7.678,7.678V304.311z"/>
<path d="M420.378,284.699c0-11.531-9.381-20.911-20.911-20.911h-31.546c-11.53,0-20.911,9.38-20.911,20.911v19.612
	c0,11.531,9.381,20.911,20.911,20.911h31.546c11.53,0,20.911-9.38,20.911-20.911V284.699z M407.146,304.311
	c0,4.233-3.445,7.678-7.678,7.678h-31.546c-4.233,0-7.678-3.445-7.678-7.678v-19.612c0-4.233,3.445-7.678,7.678-7.678h31.546
	c4.233,0,7.678,3.445,7.678,7.678V304.311z"/>
<path d="M164.987,358.31c0-11.531-9.381-20.911-20.911-20.911H112.53c-11.53,0-20.911,9.38-20.911,20.911v19.612
	c0,11.531,9.381,20.911,20.911,20.911h31.547c11.53,0,20.911-9.38,20.911-20.911V358.31z M151.755,377.922
	c0,4.233-3.445,7.678-7.678,7.678H112.53c-4.233,0-7.678-3.445-7.678-7.678V358.31c0-4.233,3.445-7.678,7.678-7.678h31.547
	c4.233,0,7.678,3.445,7.678,7.678V377.922z"/>
<path d="M250.118,358.31c0-11.531-9.381-20.911-20.911-20.911h-31.546c-11.53,0-20.911,9.38-20.911,20.911v19.612
	c0,11.531,9.381,20.911,20.911,20.911h31.546c11.53,0,20.911-9.38,20.911-20.911V358.31z M236.885,377.922
	c0,4.233-3.445,7.678-7.678,7.678h-31.546c-4.233,0-7.678-3.445-7.678-7.678V358.31c0-4.233,3.445-7.678,7.678-7.678h31.546
	c4.233,0,7.678,3.445,7.678,7.678V377.922z"/>
<path d="M335.248,358.31c0-11.531-9.381-20.911-20.911-20.911h-31.547c-11.53,0-20.91,9.38-20.91,20.911v19.612
	c0,11.531,9.38,20.911,20.91,20.911h31.547c11.53,0,20.911-9.38,20.911-20.911V358.31z M322.015,377.922
	c0,4.233-3.445,7.678-7.678,7.678h-31.547c-4.232,0-7.677-3.445-7.677-7.678V358.31c0-4.233,3.445-7.678,7.677-7.678h31.547
	c4.233,0,7.678,3.445,7.678,7.678V377.922z"/>
<path d="M144.077,411.011H112.53c-11.53,0-20.911,9.38-20.911,20.911v19.612c0,11.531,9.381,20.911,20.911,20.911h31.547
	c11.53,0,20.911-9.38,20.911-20.911v-19.612C164.987,420.391,155.606,411.011,144.077,411.011z M151.755,451.533
	c0,4.233-3.445,7.678-7.678,7.678H112.53c-4.233,0-7.678-3.445-7.678-7.678v-19.612c0-4.233,3.445-7.678,7.678-7.678h31.547
	c4.233,0,7.678,3.445,7.678,7.678V451.533z"/>
<path d="M229.207,411.011h-31.546c-11.53,0-20.911,9.38-20.911,20.911v19.612c0,11.531,9.381,20.911,20.911,20.911h31.546
	c11.53,0,20.911-9.38,20.911-20.911v-19.612C250.118,420.391,240.737,411.011,229.207,411.011z M236.885,451.533
	c0,4.233-3.445,7.678-7.678,7.678h-31.546c-4.233,0-7.678-3.445-7.678-7.678v-19.612c0-4.233,3.445-7.678,7.678-7.678h31.546
	c4.233,0,7.678,3.445,7.678,7.678V451.533z"/>
<path d="M314.338,411.011h-31.548c-11.53,0-20.91,9.38-20.91,20.911v19.612c0,11.531,9.38,20.911,20.91,20.911h31.547
	c11.53,0,20.911-9.38,20.911-20.911v-19.612C335.248,420.391,325.868,411.011,314.338,411.011z M322.015,451.533
	c0,4.233-3.445,7.678-7.678,7.678h-31.547c-4.232,0-7.677-3.445-7.677-7.678v-19.612c0-4.233,3.445-7.678,7.677-7.678h31.547
	c4.233,0,7.678,3.445,7.678,7.678V451.533z"/>
<path d="M399.468,337.4h-31.546c-11.53,0-20.911,9.38-20.911,20.911v93.223c0,11.531,9.381,20.911,20.911,20.911h31.546
	c11.53,0,20.911-9.38,20.911-20.911V358.31C420.378,346.781,410.998,337.4,399.468,337.4z M407.146,451.533
	c0,4.233-3.445,7.678-7.678,7.678h-31.546c-4.233,0-7.678-3.445-7.678-7.678V358.31c0-4.233,3.445-7.678,7.678-7.678h31.546
	c4.233,0,7.678,3.445,7.678,7.678V451.533z"/>
<path d="M420.378,74.561c0-18.662-15.182-33.845-33.844-33.845H175.975c-3.654,0-6.616,2.962-6.616,6.616
	c0,3.654,2.962,6.616,6.616,6.616h210.559c11.365,0,20.611,9.247,20.611,20.612v62.282c0,11.366-9.247,20.612-20.611,20.612h-261.07
	c-11.366,0-20.612-9.247-20.612-20.612V74.561c0-11.366,9.247-20.612,20.612-20.612h25.062c3.654,0,6.616-2.962,6.616-6.616
	c0-3.654-2.962-6.616-6.616-6.616h-25.062c-18.662,0-33.845,15.183-33.845,33.845v62.282c0,18.662,15.183,33.845,33.845,33.845
	h261.07c18.662,0,33.844-15.183,33.844-33.845L420.378,74.561L420.378,74.561z"/>
<g>
</g>
<g>
</g>
<g>
</g>
<g>
</g>
<g>
</g>
<g>
</g>
<g>
</g>
<g>
</g>
<g>
</g>
<g>
</g>
<g>
</g>
<g>
</g>
<g>
</g>
<g>
</g>
<g>
</g>
</svg>
