<?xml version="1.0" encoding="iso-8859-1"?>
<!-- Generator: Adobe Illustrator 19.0.0, SVG Export Plug-In . SVG Version: 6.00 Build 0)  -->
<svg version="1.1" id="Capa_1" xmlns="http://www.w3.org/2000/svg" xmlns:xlink="http://www.w3.org/1999/xlink" x="0px" y="0px"
	 viewBox="0 0 512 512" style="enable-background:new 0 0 512 512;" xml:space="preserve">
<path style="fill:#DDDDDD;" d="M448.003,51.801H63.997c-31.691,0-57.381,25.691-57.381,57.381v251.717
	c0,31.69,25.691,57.381,57.381,57.381h384.006c31.69,0,57.381-25.691,57.381-57.381V109.182
	C505.384,77.492,479.693,51.801,448.003,51.801z"/>
<rect x="67.69" y="112.884" style="fill:#C2C4C2;" width="376.62" height="244.325"/>
<g>
	<polygon style="fill:#EFEFEF;" points="375.473,112.88 131.138,357.204 67.693,357.204 67.693,295.144 249.957,112.88 	"/>
	<polygon style="fill:#EFEFEF;" points="444.313,112.88 444.313,153.28 240.389,357.204 189.962,357.204 434.287,112.88 	"/>
	<polygon style="fill:#EFEFEF;" points="444.313,190.82 444.313,259.711 346.819,357.204 277.928,357.204 	"/>
</g>
<g>
	<path style="fill:#2E3842;" d="M116.624,191.527h-51.91c-10.119,0-18.321-8.202-18.321-18.321l0,0
		c0-10.119,8.202-18.321,18.321-18.321h51.909c10.119,0,18.321,8.202,18.321,18.321l0,0
		C134.945,183.325,126.742,191.527,116.624,191.527z"/>
	<path style="fill:#2E3842;" d="M116.624,315.195h-51.91c-10.119,0-18.321-8.202-18.321-18.321l0,0
		c0-10.119,8.202-18.321,18.321-18.321h51.909c10.119,0,18.321,8.202,18.321,18.321l0,0
		C134.945,306.993,126.742,315.195,116.624,315.195z"/>
</g>
<circle style="fill:#FFD488;" cx="303.556" cy="235.041" r="77.136"/>
<path style="fill:#F4B74A;" d="M303.552,157.901v42.1c-19.35,0-35.036,15.686-35.036,35.036c0,6.382,1.71,12.378,4.692,17.528
	l-36.471,21.05c-6.565-11.349-10.321-24.521-10.321-38.578C226.416,192.438,260.953,157.901,303.552,157.901z"/>
<g>
	<path style="fill:#2E3842;" d="M102.035,460.198H83.55c-6.471,0-11.717-5.246-11.717-11.717v-30.202h41.919v30.202
		C113.752,454.953,108.506,460.198,102.035,460.198z"/>
	<path style="fill:#2E3842;" d="M428.449,460.198h-18.485c-6.471,0-11.717-5.246-11.717-11.717v-30.202h41.919v30.202
		C440.166,454.953,434.921,460.198,428.449,460.198z"/>
</g>
<path d="M505.384,158.429c3.654,0,6.616-2.962,6.616-6.616v-42.63c0-35.288-28.709-63.997-63.997-63.997H63.997
	C28.709,45.185,0,73.893,0,109.182v251.717c0,35.288,28.709,63.997,63.997,63.997h1.219v23.586c0,10.109,8.225,18.333,18.333,18.333
	h18.485c10.109,0,18.333-8.225,18.333-18.333v-23.586h271.263v23.586c0,10.109,8.224,18.333,18.333,18.333h18.485
	c10.11,0,18.334-8.225,18.334-18.333v-23.586h1.219c35.288,0,63.997-28.709,63.997-63.997V177.261c0-3.654-2.962-6.616-6.616-6.616
	s-6.616,2.962-6.616,6.616v183.637c0,27.992-22.772,50.764-50.764,50.764H63.997c-27.992,0-50.764-22.773-50.764-50.764V109.182
	c0-27.992,22.772-50.764,50.764-50.764h384.006c27.992,0,50.764,22.773,50.764,50.764v42.63
	C498.767,155.466,501.729,158.429,505.384,158.429z M433.551,424.895v23.586c0,2.812-2.288,5.101-5.102,5.101h-18.485
	c-2.812,0-5.101-2.288-5.101-5.101v-23.586H433.551z M107.135,424.895v23.586c0,2.812-2.288,5.101-5.101,5.101H83.55
	c-2.812,0-5.101-2.288-5.101-5.101v-23.586H107.135z"/>
<path d="M67.693,334.026c-3.654,0-6.616,2.962-6.616,6.616v16.56c0,3.654,2.962,6.616,6.616,6.616h38.68
	c3.654,0,6.616-2.962,6.616-6.616s-2.962-6.616-6.616-6.616H74.309v-9.944C74.309,336.988,71.347,334.026,67.693,334.026z"/>
<path d="M131.821,363.818h312.492c3.654,0,6.616-2.962,6.616-6.616V112.877c0-3.654-2.962-6.616-6.616-6.616H67.693
	c-3.654,0-6.616,2.962-6.616,6.616v16.56c0,3.654,2.962,6.616,6.616,6.616c3.654,0,6.616-2.962,6.616-6.616v-9.944h363.388v231.092
	H131.821c-3.654,0-6.616,2.962-6.616,6.616C125.205,360.856,128.167,363.818,131.821,363.818z"/>
<path d="M61.077,216.979v36.122c0,3.654,2.962,6.616,6.616,6.616s6.616-2.962,6.616-6.616v-36.122c0-3.654-2.962-6.616-6.616-6.616
	S61.077,213.324,61.077,216.979z"/>
<path d="M141.56,173.206c0-13.751-11.187-24.937-24.937-24.937H64.714c-13.751,0-24.937,11.187-24.937,24.937
	c0,13.751,11.187,24.937,24.937,24.937h51.909C130.374,198.143,141.56,186.957,141.56,173.206z M53.009,173.206
	c0-6.454,5.25-11.705,11.705-11.705h51.909c6.454,0,11.705,5.25,11.705,11.705c0,6.454-5.25,11.705-11.705,11.705H64.714
	C58.259,184.911,53.009,179.661,53.009,173.206z"/>
<path d="M141.56,296.874c0-13.751-11.187-24.937-24.937-24.937H64.714c-13.751,0-24.937,11.187-24.937,24.937
	c0,13.751,11.187,24.938,24.937,24.938h51.909C130.374,321.811,141.56,310.625,141.56,296.874z M53.009,296.874
	c0-6.454,5.25-11.705,11.705-11.705h51.909c6.454,0,11.705,5.25,11.705,11.705s-5.25,11.706-11.705,11.706H64.714
	C58.259,308.579,53.009,303.328,53.009,296.874z"/>
<path d="M387.314,235.04c0-46.184-37.573-83.757-83.757-83.757S219.8,188.856,219.8,235.04s37.573,83.757,83.757,83.757
	S387.314,281.224,387.314,235.04z M275.13,235.04c0-15.674,12.752-28.426,28.427-28.426c15.675,0,28.426,12.752,28.426,28.426
	s-12.751,28.426-28.426,28.426C287.882,263.466,275.13,250.715,275.13,235.04z M310.173,305.245v-29.077
	c10.302-1.652,19.352-7.092,25.674-14.844l25.169,14.531C349.426,292.124,331.122,303.286,310.173,305.245z M367.652,264.405
	l-25.176-14.535c1.763-4.611,2.738-9.608,2.738-14.831c0-5.223-0.975-10.221-2.738-14.831l25.176-14.534
	c4.115,8.947,6.429,18.889,6.429,29.365C374.081,245.516,371.768,255.458,367.652,264.405z M361.017,194.226l-25.169,14.531
	c-6.322-7.752-15.372-13.192-25.674-14.844v-29.077C331.122,166.794,349.426,177.957,361.017,194.226z M296.941,164.836v29.077
	c-10.302,1.651-19.353,7.092-25.675,14.844l-25.168-14.531C257.687,177.957,275.991,166.794,296.941,164.836z M239.461,205.675
	l25.175,14.534c-1.763,4.611-2.738,9.608-2.738,14.831c0,5.223,0.975,10.221,2.738,14.831l-25.175,14.534
	c-4.116-8.947-6.43-18.889-6.43-29.366C233.032,224.563,235.345,214.622,239.461,205.675z M246.097,275.855l25.168-14.531
	c6.322,7.752,15.373,13.193,25.675,14.844v29.077C275.99,303.286,257.687,292.124,246.097,275.855z"/>
<g>
</g>
<g>
</g>
<g>
</g>
<g>
</g>
<g>
</g>
<g>
</g>
<g>
</g>
<g>
</g>
<g>
</g>
<g>
</g>
<g>
</g>
<g>
</g>
<g>
</g>
<g>
</g>
<g>
</g>
</svg>
