<?xml version="1.0" encoding="iso-8859-1"?>
<!-- Generator: Adobe Illustrator 19.0.0, SVG Export Plug-In . SVG Version: 6.00 Build 0)  -->
<svg version="1.1" id="Capa_1" xmlns="http://www.w3.org/2000/svg" xmlns:xlink="http://www.w3.org/1999/xlink" x="0px" y="0px"
	 viewBox="0 0 512 512" style="enable-background:new 0 0 512 512;" xml:space="preserve">
<path style="fill:#E05F5F;" d="M49.035,296.451c6.639-16.333,22.669-27.853,41.393-27.853c18.715,0,34.747,11.52,41.393,27.853
	c6.639-16.333,22.669-27.853,41.393-27.853c18.715,0,34.747,11.52,41.393,27.853c6.639-16.333,22.669-27.853,41.393-27.853
	c18.715,0,34.747,11.52,41.393,27.853c6.639-16.333,22.669-27.853,41.393-27.853c18.715,0,34.747,11.52,41.393,27.853
	c6.639-16.333,22.669-27.853,41.393-27.853c18.715,0,34.747,11.52,41.393,27.853c0-114.304-92.661-206.965-206.965-206.965
	S49.035,182.147,49.035,296.451z"/>
<path style="fill:#CE5151;" d="M255.999,89.487c-68.582,0-124.18,92.658-124.18,206.964c-6.644-16.335-22.674-27.855-41.397-27.855
	s-34.753,11.52-41.387,27.855C49.035,182.145,141.693,89.487,255.999,89.487z"/>
<path d="M417.286,166.519c-3.37,2.52-4.059,7.295-1.539,10.665c21.008,28.093,33.985,60.526,38.14,94.923
	c-9.003-7.075-20.286-11.128-32.316-11.128c-13.027,0-25.162,4.765-34.489,12.955c-3.044-48.158-15.817-92.874-36.741-127.75
	c-9.525-15.875-20.316-29.009-32.021-39.188c29.321,9.612,56.187,26.045,78.638,48.497c2.977,2.975,7.8,2.975,10.775,0
	c2.975-2.975,2.975-7.8,0-10.774c-38.728-38.728-89.656-60.814-144.116-62.703v-23.33c0-4.208-3.41-7.619-7.619-7.619
	c-4.209,0-7.619,3.411-7.619,7.619v23.331C133.575,86.045,41.416,180.68,41.416,296.451c0,3.644,2.581,6.778,6.158,7.478
	c0.49,0.095,0.98,0.142,1.465,0.142c3.049,0,5.871-1.839,7.054-4.751c5.704-14.034,19.182-23.103,34.334-23.103
	c15.147,0,28.624,9.07,34.335,23.106c1.168,2.871,3.959,4.747,7.058,4.747c3.099,0,5.89-1.879,7.056-4.75
	c5.704-14.034,19.182-23.103,34.334-23.103c15.147,0,28.624,9.07,34.335,23.106c1.168,2.871,3.959,4.748,7.058,4.747
	c3.099-0.001,5.89-1.879,7.057-4.75c5.704-14.034,19.181-23.103,34.334-23.103c15.148,0,28.624,9.07,34.335,23.106
	c1.168,2.871,3.959,4.748,7.059,4.747c3.099,0,5.89-1.879,7.056-4.75c5.703-14.034,19.181-23.103,34.335-23.103
	c15.147,0,28.624,9.07,34.335,23.106c1.168,2.871,3.959,4.748,7.058,4.747c3.1,0,5.89-1.879,7.057-4.75
	c5.704-14.034,19.182-23.103,34.334-23.103c15.147,0,28.624,9.07,34.336,23.106c1.374,3.375,4.945,5.307,8.521,4.606
	c3.576-0.699,6.156-3.833,6.156-7.477c0-46.7-14.742-91.097-42.634-128.393C425.429,164.688,420.655,163.999,417.286,166.519z
	 M173.213,260.979c-12.305,0-23.822,4.243-32.921,11.616c0.784-11.135,2.104-22.126,3.98-32.854
	c0.725-4.145-2.048-8.092-6.193-8.818c-4.144-0.729-8.093,2.047-8.818,6.193c-2.102,12.019-3.555,24.338-4.348,36.821
	c-9.328-8.191-21.463-12.958-34.486-12.958c-12.022,0-23.295,4.044-32.294,11.106c9.47-77.38,63.459-141.187,135.485-164.975
	c-3.511,3.055-6.945,6.377-10.289,9.964c-20.296,21.762-36.465,52.243-46.76,88.147c-1.16,4.045,1.179,8.264,5.224,9.424
	c0.702,0.201,1.409,0.297,2.104,0.297c3.313,0,6.361-2.178,7.32-5.521c9.636-33.603,24.592-61.943,43.256-81.954
	c12.155-13.033,25.494-22.034,39.368-26.684c-5.565,11.029-10.404,26.927-14.584,47.828c-6.82,34.097-10.995,77.804-12.021,124.925
	C197.973,265.591,186.023,260.979,173.213,260.979z M256,260.979c-12.573,0-24.321,4.433-33.511,12.105
	c1.032-45.936,5.099-88.417,11.712-121.485C244.632,99.447,255.89,97.105,256,97.105c0.109,0,11.368,2.342,21.799,54.493
	c6.614,33.07,10.681,75.554,11.713,121.491C280.319,265.414,268.57,260.979,256,260.979z M338.786,260.979
	c-12.812,0-24.762,4.609-34.025,12.552c-1.025-47.119-5.201-90.824-12.021-124.92c-4.184-20.923-9.029-36.831-14.6-47.863
	c22.077,7.345,42.547,25.63,59.135,53.276c19.366,32.275,31.319,73.722,34.452,118.591
	C362.623,265.23,351.097,260.979,338.786,260.979z"/>
<path d="M256,286.377c-4.208,0-7.619,3.411-7.619,7.619v181.942c0,11.482-9.341,20.824-20.823,20.824s-20.824-9.342-20.824-20.824
	c0-4.208-3.411-7.619-7.619-7.619s-7.619,3.411-7.619,7.619c0,19.885,16.178,36.062,36.062,36.062s36.062-16.177,36.062-36.062
	V293.996C263.619,289.788,260.208,286.377,256,286.377z"/>
<path d="M469.138,97.55V72.318c5.934,1.969,10.098,6.501,10.098,11.768c0,3.647,2.956,6.603,6.603,6.603
	c3.647,0,6.603-2.956,6.603-6.603c0-12.374-9.981-22.753-23.304-25.377v-1.811c0-3.647-2.956-6.603-6.603-6.603
	c-3.647,0-6.603,2.956-6.603,6.603v1.811c-13.323,2.624-23.303,13.002-23.303,25.377s9.981,22.753,23.303,25.377v25.232
	c-5.933-1.969-10.097-6.501-10.097-11.768c0-3.647-2.956-6.603-6.603-6.603c-3.647,0-6.603,2.956-6.603,6.603
	c0,12.374,9.981,22.753,23.303,25.377v1.811c0,3.647,2.956,6.603,6.603,6.603c3.647,0,6.603-2.956,6.603-6.603v-1.811
	c13.323-2.624,23.304-13.002,23.304-25.377S482.461,100.174,469.138,97.55z M445.834,84.086c0-5.267,4.165-9.799,10.097-11.768
	v23.536C449.999,93.886,445.834,89.354,445.834,84.086z M469.138,134.695v-23.536c5.934,1.969,10.098,6.501,10.098,11.768
	C479.236,128.194,475.071,132.726,469.138,134.695z"/>
<path d="M359.937,72.632c0-3.647-2.956-6.603-6.603-6.603c-3.647,0-6.603,2.956-6.603,6.603c0,12.374,9.981,22.753,23.304,25.377
	v1.811c0,3.647,2.956,6.603,6.603,6.603s6.603-2.956,6.603-6.603v-1.811c13.323-2.624,23.303-13.002,23.303-25.377
	s-9.981-22.753-23.303-25.377V22.024c5.933,1.969,10.097,6.5,10.097,11.767c0,3.647,2.956,6.603,6.603,6.603
	c3.647,0,6.603-2.956,6.603-6.603c0-12.374-9.981-22.751-23.303-25.375V6.603c0-3.647-2.956-6.603-6.603-6.603
	s-6.603,2.956-6.603,6.603v1.812c-13.323,2.624-23.304,13.001-23.304,25.375s9.981,22.753,23.304,25.377V84.4
	C364.101,82.431,359.937,77.899,359.937,72.632z M393.338,72.632c0,5.267-4.165,9.799-10.097,11.768V60.864
	C389.174,62.832,393.338,67.364,393.338,72.632z M359.937,33.791c0-5.267,4.165-9.799,10.098-11.768v23.536
	C364.101,43.591,359.937,39.059,359.937,33.791z"/>
<path d="M42.862,150.115c0,3.647,2.956,6.603,6.603,6.603s6.603-2.956,6.603-6.603v-1.811c13.323-2.624,23.304-13.002,23.304-25.377
	s-9.981-22.753-23.304-25.377V72.318c5.933,1.969,10.098,6.501,10.098,11.768c0,3.647,2.956,6.603,6.603,6.603
	s6.603-2.956,6.603-6.603c0-12.374-9.981-22.753-23.304-25.377v-1.811c0-3.647-2.956-6.603-6.603-6.603s-6.603,2.956-6.603,6.603
	v1.811c-13.323,2.624-23.304,13.002-23.304,25.377s9.981,22.753,23.304,25.377v25.232c-5.933-1.969-10.098-6.501-10.098-11.768
	c0-3.647-2.956-6.603-6.603-6.603s-6.603,2.956-6.603,6.603c0,12.374,9.981,22.753,23.304,25.377V150.115z M66.166,122.927
	c0,5.267-4.165,9.799-10.098,11.768v-23.536C62.001,113.127,66.166,117.659,66.166,122.927z M32.764,84.086
	c0-5.267,4.165-9.799,10.098-11.768v23.536C36.929,93.886,32.764,89.354,32.764,84.086z"/>
<path d="M120.189,72.632c0-3.647-2.956-6.603-6.603-6.603s-6.603,2.956-6.603,6.603c0,12.374,9.981,22.753,23.304,25.377v1.811
	c0,3.647,2.956,6.603,6.603,6.603c3.647,0,6.603-2.956,6.603-6.603v-1.811c13.323-2.624,23.304-13.002,23.304-25.377
	s-9.981-22.753-23.304-25.377V22.024c5.933,1.969,10.098,6.5,10.098,11.767c0,3.647,2.956,6.603,6.603,6.603
	c3.647,0,6.603-2.956,6.603-6.603c0-12.374-9.981-22.751-23.304-25.375V6.603c0-3.647-2.956-6.603-6.603-6.603
	c-3.647,0-6.603,2.956-6.603,6.603v1.812c-13.323,2.624-23.304,13.001-23.304,25.375s9.981,22.753,23.304,25.377V84.4
	C124.354,82.431,120.189,77.899,120.189,72.632z M153.591,72.632c0,5.267-4.165,9.799-10.098,11.768V60.864
	C149.426,62.832,153.591,67.364,153.591,72.632z M120.189,33.791c0-5.267,4.165-9.799,10.098-11.767v23.535
	C124.354,43.591,120.189,39.058,120.189,33.791z"/>
<g>
</g>
<g>
</g>
<g>
</g>
<g>
</g>
<g>
</g>
<g>
</g>
<g>
</g>
<g>
</g>
<g>
</g>
<g>
</g>
<g>
</g>
<g>
</g>
<g>
</g>
<g>
</g>
<g>
</g>
</svg>
