<?xml version="1.0" encoding="iso-8859-1"?>
<!-- Generator: Adobe Illustrator 19.0.0, SVG Export Plug-In . SVG Version: 6.00 Build 0)  -->
<svg version="1.1" id="Capa_1" xmlns="http://www.w3.org/2000/svg" xmlns:xlink="http://www.w3.org/1999/xlink" x="0px" y="0px"
	 viewBox="0 0 512 512" style="enable-background:new 0 0 512 512;" xml:space="preserve">
<path style="fill:#DDDDDD;" d="M362.396,424.341h64.44c20.728,0,37.533-16.804,37.533-37.533V45.137
	c0-20.728-16.804-37.533-37.533-37.533H85.165c-20.728,0-37.533,16.804-37.533,37.533v341.671c0,20.728,16.804,37.533,37.533,37.533
	h64.44"/>
<path style="fill:#C2C4C2;" d="M71.803,386.808V45.137c0-20.729,16.804-37.533,37.533-37.533H85.165
	c-20.729,0-37.533,16.804-37.533,37.533v341.671c0,20.729,16.804,37.533,37.533,37.533h24.17
	C88.607,424.341,71.803,407.537,71.803,386.808z"/>
<path style="fill:#FFD488;" d="M361.684,379.616c12.79,0,23.151-10.361,23.151-23.151v-51.379c0-12.79-10.361-23.151-23.151-23.151
	H150.317c-12.779,0-23.151,10.361-23.151,23.151v51.379c0,12.79,10.373,23.151,23.151,23.151"/>
<path style="fill:#467EB7;" d="M337.048,330.772v153.884c0,10.909-8.831,19.74-19.73,19.74H194.692
	c-10.909,0-19.74-8.831-19.74-19.74V330.772H337.048z"/>
<rect x="174.952" y="330.772" style="fill:#3570A0;" width="162.096" height="36.347"/>
<rect x="212.83" y="330.772" style="fill:#525D66;" width="30.415" height="173.623"/>
<rect x="212.83" y="330.772" style="fill:#2E3842;" width="30.415" height="36.344"/>
<path d="M426.836,0H85.165C60.276,0,40.028,20.249,40.028,45.137v341.671c0,24.888,20.248,45.137,45.137,45.137h64.44
	c4.199,0,7.604-3.405,7.604-7.604s-3.405-7.604-7.604-7.604h-64.44c-16.503,0-29.929-13.427-29.929-29.929V45.137
	c0.001-16.503,13.427-29.929,29.929-29.929h341.671c16.503,0,29.929,13.427,29.929,29.929v68.181c0,4.199,3.405,7.604,7.604,7.604
	s7.604-3.405,7.604-7.604V45.137C471.972,20.249,451.725,0,426.836,0z"/>
<path d="M464.368,131.062c-4.199,0-7.604,3.405-7.604,7.604v248.142c0,16.503-13.426,29.929-29.929,29.929h-64.44
	c-4.199,0-7.604,3.405-7.604,7.604s3.405,7.604,7.604,7.604h64.44c24.888,0,45.137-20.249,45.137-45.137V138.666
	C471.972,134.466,468.568,131.062,464.368,131.062z"/>
<path d="M337.053,348.518c-4.199,0-7.604,3.405-7.604,7.604v128.536c0,6.69-5.443,12.134-12.134,12.134h-66.468v-140.67
	c0-4.199-3.405-7.604-7.604-7.604s-7.604,3.405-7.604,7.604v140.67h-15.206v-140.67c0-4.199-3.405-7.604-7.604-7.604
	s-7.604,3.405-7.604,7.604v140.67h-10.537c-6.69,0-12.134-5.443-12.134-12.134V356.122c0-4.199-3.405-7.604-7.604-7.604
	s-7.604,3.405-7.604,7.604v128.536c0,15.076,12.266,27.342,27.342,27.342h18.141h30.415h74.072
	c15.076,0,27.342-12.266,27.342-27.342V356.122C344.657,351.923,341.252,348.518,337.053,348.518z"/>
<path d="M150.317,387.22c4.199,0,7.604-3.405,7.604-7.604s-3.405-7.604-7.604-7.604c-8.573,0-15.548-6.974-15.548-15.547v-51.379
	c0-8.573,6.974-15.548,15.548-15.548h15.752c4.199,0,7.604-3.405,7.604-7.604s-3.405-7.604-7.604-7.604h-15.752
	c-16.959,0-30.755,13.797-30.755,30.755v51.379C119.562,373.424,133.359,387.22,150.317,387.22z"/>
<path d="M361.684,387.22c16.959,0,30.755-13.797,30.755-30.754v-51.379c0-16.959-13.797-30.755-30.755-30.755H191.418
	c-4.199,0-7.604,3.405-7.604,7.604s3.405,7.604,7.604,7.604h170.266c8.573,0,15.548,6.974,15.548,15.548v51.379
	c0,8.573-6.974,15.547-15.548,15.547c-4.199,0-7.604,3.405-7.604,7.604S357.484,387.22,361.684,387.22z"/>
<path d="M361.642,330.775c0-4.199-3.405-7.604-7.604-7.604H157.966c-4.199,0-7.604,3.405-7.604,7.604s3.405,7.604,7.604,7.604
	h196.072C358.238,338.379,361.642,334.974,361.642,330.775z"/>
<path d="M397.382,195.018c4.199,0,7.604-3.405,7.604-7.604V87.052c0-3.493-2.38-6.536-5.768-7.379
	c-3.386-0.84-6.917,0.731-8.554,3.817l-30.999,58.455l-31.007-58.456c-1.636-3.084-5.164-4.658-8.554-3.816
	c-3.388,0.844-5.768,3.886-5.768,7.379v100.362c0,4.199,3.405,7.604,7.604,7.604s7.604-3.405,7.604-7.604v-69.799l23.404,44.123
	c1.319,2.486,3.903,4.04,6.718,4.04c2.814,0,5.399-1.555,6.717-4.041l23.394-44.115v69.792
	C389.778,191.613,393.182,195.018,397.382,195.018z"/>
<path d="M121.733,190.109l12.261-32.366h37.294l12.261,32.366c1.152,3.041,4.042,4.912,7.112,4.912c0.895,0,1.806-0.159,2.692-0.495
	c3.928-1.487,5.905-5.877,4.417-9.804L159.751,84.355c-1.119-2.955-3.95-4.91-7.111-4.91c-3.161,0-5.992,1.955-7.111,4.91
	l-38.018,100.367c-1.487,3.928,0.49,8.317,4.417,9.804C115.857,196.015,120.245,194.035,121.733,190.109z M152.639,108.514
	l12.886,34.02h-25.772L152.639,108.514z"/>
<path d="M246.926,195.02c4.199,0,7.604-3.405,7.604-7.604V94.652h27.372c4.199,0,7.604-3.405,7.604-7.604s-3.405-7.604-7.604-7.604
	h-69.953c-4.199,0-7.604,3.405-7.604,7.604s3.405,7.604,7.604,7.604h27.373v92.763C239.322,191.615,242.727,195.02,246.926,195.02z"
	/>
<g>
</g>
<g>
</g>
<g>
</g>
<g>
</g>
<g>
</g>
<g>
</g>
<g>
</g>
<g>
</g>
<g>
</g>
<g>
</g>
<g>
</g>
<g>
</g>
<g>
</g>
<g>
</g>
<g>
</g>
</svg>
