<?xml version="1.0" encoding="iso-8859-1"?>
<!-- Generator: Adobe Illustrator 19.0.0, SVG Export Plug-In . SVG Version: 6.00 Build 0)  -->
<svg version="1.1" id="Capa_1" xmlns="http://www.w3.org/2000/svg" xmlns:xlink="http://www.w3.org/1999/xlink" x="0px" y="0px"
	 viewBox="0 0 511.999 511.999" style="enable-background:new 0 0 511.999 511.999;" xml:space="preserve">
<path style="fill:#FFD488;" d="M219.185,274.37h-91.967c-9.154,0-17.067,6.389-18.996,15.339l-17.819,82.694h165.596l-17.819-82.694
	C236.253,280.759,228.34,274.37,219.185,274.37z"/>
<path style="fill:#F4B74A;" d="M256,372.408h-19.76l-17.824-82.7c-1.926-8.952-9.845-15.34-19-15.34h19.77
	c9.155,0,17.073,6.387,19,15.34L256,372.408z"/>
<path style="fill:#FFD488;" d="M301.983,148.808h-91.967c-9.154,0-17.067,6.389-18.996,15.339l-17.818,82.694h165.596
	l-17.819-82.694C319.051,155.198,311.138,148.808,301.983,148.808z"/>
<path style="fill:#F4B74A;" d="M338.798,246.846h-19.76l-17.824-82.7c-1.926-8.952-9.845-15.34-19-15.34h19.77
	c9.155,0,17.073,6.387,19,15.34L338.798,246.846z"/>
<path style="fill:#FFD488;" d="M467.58,399.932h-91.967c-9.155,0-17.067,6.389-18.996,15.339l-17.819,82.694h165.596l-17.819-82.694
	C484.647,406.321,476.734,399.932,467.58,399.932z"/>
<path style="fill:#F4B74A;" d="M504.394,497.97h-19.76l-17.824-82.7c-1.926-8.952-9.845-15.34-19-15.34h19.77
	c9.155,0,17.073,6.387,19,15.34L504.394,497.97z"/>
<path style="fill:#FFD488;" d="M301.983,399.932h-91.967c-9.154,0-17.067,6.389-18.996,15.339l-17.818,82.694h165.596
	l-17.819-82.694C319.051,406.321,311.138,399.932,301.983,399.932z"/>
<path style="fill:#F4B74A;" d="M338.798,497.97h-19.76l-17.824-82.7c-1.926-8.952-9.845-15.34-19-15.34h19.77
	c9.155,0,17.073,6.387,19,15.34L338.798,497.97z"/>
<path style="fill:#FFD488;" d="M136.387,399.932H44.42c-9.154,0-17.067,6.389-18.996,15.339l-17.82,82.694h165.596l-17.819-82.694
	C153.454,406.321,145.541,399.932,136.387,399.932z"/>
<path style="fill:#F4B74A;" d="M173.201,497.97h-19.76l-17.824-82.7c-1.926-8.952-9.845-15.34-19-15.34h19.77
	c9.155,0,17.073,6.387,19,15.34L173.201,497.97z"/>
<path style="fill:#FFD488;" d="M384.781,274.374h-91.967c-9.154,0-17.067,6.389-18.996,15.339l-17.818,82.694h165.596
	l-17.819-82.694C401.849,280.764,393.936,274.374,384.781,274.374z"/>
<path style="fill:#F4B74A;" d="M421.596,372.412h-19.76l-17.824-82.7c-1.926-8.952-9.845-15.34-19-15.34h19.77
	c9.155,0,17.073,6.387,19,15.34L421.596,372.412z"/>
<path d="M173.201,254.45h165.596c2.298,0,4.472-1.039,5.916-2.827c1.444-1.788,2.001-4.132,1.518-6.379l-17.819-82.694
	c-2.664-12.366-13.779-21.341-26.429-21.341h-8.83c-4.199,0-7.604,3.405-7.604,7.604s3.405,7.604,7.604,7.604h8.83
	c5.534,0,10.397,3.927,11.563,9.336l15.835,73.489H182.618l15.835-73.489c1.166-5.41,6.028-9.336,11.563-9.336h57.79
	c4.199,0,7.604-3.405,7.604-7.604s-3.405-7.604-7.604-7.604h-57.79c-12.65,0-23.765,8.976-26.429,21.341l-17.819,82.694
	c-0.485,2.246,0.073,4.591,1.518,6.379C168.729,253.411,170.904,254.45,173.201,254.45z"/>
<path d="M511.828,496.369l-17.819-82.695c-2.664-12.366-13.78-21.341-26.429-21.341h-91.967c-12.65,0-23.765,8.976-26.429,21.342
	l-10.386,48.199l-10.386-48.199c-2.664-12.366-13.779-21.342-26.429-21.342h-91.967c-12.65,0-23.765,8.976-26.429,21.342
	l-10.386,48.199l-10.386-48.199c-2.664-12.366-13.779-21.342-26.429-21.342H44.419c-12.65,0-23.765,8.976-26.429,21.342
	L0.172,496.369c-0.485,2.246,0.073,4.591,1.518,6.379c1.444,1.787,3.617,2.827,5.916,2.827h42.231c4.199,0,7.604-3.405,7.604-7.604
	c0-4.199-3.405-7.604-7.604-7.604H17.022l15.834-73.488c1.166-5.41,6.029-9.337,11.563-9.337h91.967
	c5.534,0,10.397,3.927,11.563,9.337l15.835,73.489H75.186c-4.199,0-7.604,3.405-7.604,7.604c0,4.199,3.405,7.604,7.604,7.604h98.016
	h165.596h165.596c2.298,0,4.472-1.039,5.916-2.827C511.755,500.959,512.311,498.615,511.828,496.369z M182.618,490.366
	l15.835-73.489c1.166-5.41,6.028-9.337,11.563-9.337h91.967c5.534,0,10.397,3.927,11.563,9.337l15.835,73.489L182.618,490.366
	L182.618,490.366z M348.215,490.366l15.835-73.489c1.166-5.41,6.028-9.337,11.563-9.337h91.967c5.534,0,10.397,3.927,11.563,9.337
	l15.835,73.489L348.215,490.366L348.215,490.366z"/>
<path d="M384.781,266.771h-91.967c-12.65,0-23.765,8.976-26.429,21.341l-10.385,48.198l-10.386-48.199
	c-2.664-12.365-13.78-21.341-26.429-21.341h-91.967c-12.65,0-23.765,8.976-26.429,21.341l-17.82,82.695
	c-0.485,2.246,0.073,4.591,1.518,6.379c1.444,1.787,3.617,2.827,5.916,2.827H256h165.596c2.298,0,4.472-1.039,5.916-2.827
	c1.444-1.788,2.001-4.132,1.518-6.379l-17.819-82.694C408.546,275.746,397.431,266.771,384.781,266.771z M99.82,364.804
	l15.835-73.489c1.166-5.41,6.028-9.336,11.563-9.336h91.967c5.534,0,10.397,3.927,11.563,9.336l15.835,73.489H99.82z
	 M265.416,364.804l15.834-73.488c1.166-5.41,6.029-9.337,11.563-9.337h91.967c5.534,0,10.397,3.927,11.563,9.336l15.835,73.489
	H265.416z"/>
<path d="M256,116.925c4.199,0,7.604-3.405,7.604-7.604V14.027c0-4.199-3.405-7.604-7.604-7.604s-7.604,3.405-7.604,7.604v95.294
	C248.396,113.521,251.8,116.925,256,116.925z"/>
<path d="M145.594,196.386c1.408,2.439,3.964,3.803,6.592,3.803c1.29,0,2.598-0.328,3.795-1.02c3.637-2.1,4.883-6.75,2.783-10.387
	L81.825,55.521c-2.1-3.637-6.75-4.883-10.387-2.783c-3.637,2.1-4.883,6.75-2.783,10.387L145.594,196.386z"/>
<path d="M3.803,235.581l69.424,40.082c1.197,0.691,2.505,1.02,3.795,1.02c2.628,0,5.184-1.364,6.592-3.803
	c2.1-3.637,0.854-8.287-2.783-10.387l-69.424-40.082c-3.638-2.101-8.288-0.855-10.387,2.783
	C-1.08,228.831,0.166,233.481,3.803,235.581z"/>
<path d="M356.018,199.169c1.197,0.691,2.505,1.02,3.795,1.02c2.628,0,5.184-1.365,6.592-3.803l76.938-133.261
	c2.1-3.637,0.854-8.287-2.783-10.387c-3.638-2.101-8.288-0.854-10.387,2.783l-76.938,133.261
	C351.136,192.42,352.382,197.071,356.018,199.169z"/>
<path d="M428.385,272.88c1.408,2.439,3.964,3.803,6.592,3.803c1.29,0,2.598-0.328,3.795-1.02l69.424-40.082
	c3.637-2.1,4.883-6.75,2.783-10.387c-2.1-3.638-6.751-4.884-10.387-2.783l-69.424,40.082
	C427.532,264.592,426.286,269.243,428.385,272.88z"/>
<g>
</g>
<g>
</g>
<g>
</g>
<g>
</g>
<g>
</g>
<g>
</g>
<g>
</g>
<g>
</g>
<g>
</g>
<g>
</g>
<g>
</g>
<g>
</g>
<g>
</g>
<g>
</g>
<g>
</g>
</svg>
