<?xml version="1.0" encoding="iso-8859-1"?>
<!-- Generator: Adobe Illustrator 19.0.0, SVG Export Plug-In . SVG Version: 6.00 Build 0)  -->
<svg version="1.1" id="Capa_1" xmlns="http://www.w3.org/2000/svg" xmlns:xlink="http://www.w3.org/1999/xlink" x="0px" y="0px"
	 viewBox="0 0 512 512" style="enable-background:new 0 0 512 512;" xml:space="preserve">
<circle style="fill:#467EB7;" cx="220.174" cy="220.792" r="212.572"/>
<path style="fill:#EFEFEF;" d="M385.318,220.794c0,91.199-73.939,165.138-165.148,165.138c-6.162,0-12.254-0.334-18.244-0.993
	c-82.614-9.081-146.894-79.108-146.894-164.144c0-85.047,64.279-155.063,146.894-164.144c5.99-0.659,12.082-0.993,18.244-0.993
	C311.38,55.656,385.318,129.584,385.318,220.794z"/>
<path style="fill:#DDDDDD;" d="M348.831,220.794c0,85.037-64.279,155.063-146.904,164.144
	c-82.614-9.081-146.894-79.108-146.894-164.144c0-85.047,64.279-155.063,146.894-164.144
	C284.551,65.731,348.831,135.747,348.831,220.794z"/>
<g>
	<path style="fill:#2E3842;" d="M235.885,221.071V105.015c0-8.676-7.034-15.71-15.71-15.71l0,0c-8.676,0-15.71,7.034-15.71,15.71
		V221.07"/>
	<path style="fill:#2E3842;" d="M216.606,205.288l-88.268,59.411c-7.157,4.906-8.981,14.683-4.075,21.84l0,0
		c4.906,7.157,14.683,8.981,21.84,4.075l88.268-59.411"/>
</g>
<circle style="fill:#467EB7;" cx="220.174" cy="220.792" r="26.323"/>
<circle style="fill:#F4B74A;" cx="390.876" cy="390.257" r="113.528"/>
<path style="fill:#FFD488;" d="M471.145,390.256c0,44.333-35.94,80.273-80.273,80.273c-21.244,0-40.562-8.26-54.914-21.741
	c-10.531-9.862-18.386-22.541-22.389-36.843c-1.936-6.892-2.97-14.169-2.97-21.69c0-44.333,35.94-80.273,80.273-80.273
	c7.521,0,14.798,1.034,21.69,2.97c14.301,4.004,26.981,11.859,36.843,22.389C462.895,349.694,471.145,369.012,471.145,390.256z"/>
<path style="fill:#F9C662;" d="M449.404,335.342L335.957,448.789c-10.531-9.862-18.386-22.541-22.389-36.843l98.993-98.993
	C426.863,316.956,439.542,324.811,449.404,335.342z"/>
<path d="M257.251,422.42c-12.143,2.218-24.618,3.343-37.076,3.343c-113.022,0.001-204.972-91.948-204.972-204.97
	c0-47.783,16.797-94.296,47.295-130.972c2.684-3.228,2.244-8.021-0.985-10.705c-3.226-2.683-8.019-2.244-10.705,0.984
	C18.044,119.501,0,169.467,0,220.793c0,58.81,22.902,114.101,64.488,155.686c41.585,41.586,96.876,64.487,155.686,64.487
	c13.371,0,26.765-1.208,39.807-3.59c4.129-0.754,6.866-4.714,6.112-8.844S261.377,421.667,257.251,422.42z"/>
<path d="M79.11,72.086c38.235-36.282,88.332-56.264,141.066-56.264c113.022,0,204.971,91.949,204.971,204.971
	c0,11.768-1.004,23.566-2.986,35.065c-0.714,4.137,2.063,8.069,6.2,8.782c0.437,0.075,0.871,0.111,1.299,0.111
	c3.632,0,6.845-2.611,7.482-6.311c2.129-12.35,3.208-25.016,3.208-37.647c0-58.81-22.902-114.101-64.488-155.686
	C334.277,23.52,278.986,0.618,220.175,0.618c-56.644,0-110.459,21.464-151.531,60.439c-3.046,2.89-3.172,7.701-0.282,10.747
	C71.253,74.851,76.063,74.975,79.11,72.086z"/>
<path d="M380.046,263.027c4.104,0.882,8.147-1.732,9.027-5.838c2.551-11.887,3.843-24.133,3.843-36.397
	c0-95.249-77.491-172.74-172.741-172.74s-172.74,77.491-172.74,172.74s77.491,172.74,172.741,172.74
	c13.468,0,26.882-1.557,39.873-4.626c4.086-0.966,6.615-5.061,5.65-9.145c-0.966-4.087-5.061-6.618-9.145-5.65
	c-9.401,2.222-19.05,3.559-28.776,4.023v-18.479c0-4.198-3.402-7.602-7.602-7.602s-7.602,3.404-7.602,7.602v18.489
	c-23.141-1.105-44.989-7.226-64.481-17.298l9.234-15.994c2.099-3.636,0.853-8.285-2.782-10.384c-3.638-2.1-8.286-0.854-10.384,2.782
	l-9.221,15.973c-18.88-12.194-34.999-28.313-47.194-47.194l15.973-9.222c3.636-2.099,4.881-6.748,2.782-10.384
	c-2.1-3.637-6.749-4.881-10.384-2.782l-15.994,9.234c-10.073-19.491-16.193-41.339-17.298-64.481h18.49
	c4.199,0,7.602-3.404,7.602-7.602s-3.402-7.602-7.602-7.602H62.824c1.105-23.141,7.226-44.989,17.298-64.48l15.995,9.234
	c1.198,0.691,2.504,1.02,3.794,1.02c2.627,0,5.182-1.363,6.59-3.802c2.099-3.636,0.853-8.285-2.782-10.384l-15.973-9.222
	c12.195-18.881,28.314-34.999,47.194-47.194l9.221,15.973c1.408,2.439,3.963,3.802,6.59,3.802c1.289,0,2.598-0.328,3.794-1.02
	c3.636-2.099,4.881-6.748,2.782-10.384l-9.234-15.995c21.613-11.168,46.123-17.485,72.083-17.485s50.47,6.315,72.083,17.485
	l-9.234,15.995c-2.099,3.636-0.853,8.285,2.782,10.384c1.198,0.691,2.504,1.02,3.794,1.02c2.627,0,5.182-1.364,6.59-3.802
	l9.221-15.973c18.881,12.195,34.999,28.313,47.194,47.194l-15.973,9.222c-3.636,2.099-4.881,6.748-2.782,10.384
	c1.409,2.439,3.963,3.802,6.59,3.802c1.289,0,2.598-0.328,3.794-1.02l15.995-9.234c10.073,19.491,16.193,41.339,17.298,64.48
	h-18.489c-4.199,0-7.602,3.404-7.602,7.602s3.402,7.602,7.602,7.602h18.486c-0.412,8.637-1.516,17.221-3.315,25.606
	C373.327,258.105,375.941,262.147,380.046,263.027z"/>
<path d="M254.1,220.793c0-18.706-15.219-33.925-33.926-33.925s-33.925,15.218-33.925,33.925s15.218,33.925,33.925,33.925
	S254.1,239.499,254.1,220.793z M201.454,220.793c0-10.323,8.398-18.721,18.721-18.721c10.324,0,18.722,8.398,18.722,18.721
	c0,10.323-8.398,18.721-18.722,18.721C209.853,239.514,201.454,231.116,201.454,220.793z"/>
<path d="M235.885,183.059c4.199,0,7.602-3.404,7.602-7.602v-70.443c0-12.854-10.457-23.312-23.312-23.312
	s-23.312,10.458-23.312,23.312v70.443c0,4.198,3.402,7.602,7.602,7.602c4.199,0,7.602-3.404,7.602-7.602v-70.443
	c0-4.471,3.638-8.108,8.108-8.108s8.108,3.638,8.108,8.108v70.443C228.283,179.656,231.686,183.059,235.885,183.059z"/>
<path d="M132.635,270.968l45.561-31.231c3.463-2.374,4.346-7.105,1.972-10.567c-2.375-3.463-7.105-4.346-10.568-1.972
	l-45.561,31.231c-5.136,3.521-8.594,8.83-9.736,14.952c-1.142,6.121,0.168,12.321,3.688,17.456
	c3.521,5.136,8.831,8.594,14.952,9.736c1.443,0.27,2.89,0.402,4.326,0.402c4.658,0,9.205-1.4,13.131-4.091l45.562-31.232
	c3.463-2.374,4.346-7.105,1.972-10.567c-2.375-3.463-7.105-4.346-10.568-1.972l-45.562,31.232c-1.787,1.224-3.943,1.679-6.071,1.283
	c-2.129-0.397-3.976-1.6-5.201-3.386c-1.225-1.787-1.68-3.943-1.283-6.072S130.849,272.193,132.635,270.968z"/>
<path d="M390.874,269.129c-66.789,0-121.127,54.337-121.127,121.126s54.337,121.126,121.127,121.126S512,457.044,512,390.255
	S457.664,269.129,390.874,269.129z M390.874,496.178c-58.407,0-105.924-47.517-105.924-105.923s47.517-105.923,105.924-105.923
	c58.406,0,105.923,47.517,105.923,105.923S449.279,496.178,390.874,496.178z"/>
<path d="M476.347,369.806c-0.98-4.082-5.078-6.598-9.168-5.616c-4.082,0.98-6.596,5.085-5.616,9.167
	c3.217,13.389,2.542,27.389-1.952,40.485c-6.3,18.36-19.373,33.169-36.811,41.697c-17.437,8.528-37.151,9.755-55.513,3.455
	c-37.903-13.006-58.159-54.423-45.154-92.325c6.3-18.36,19.373-33.169,36.811-41.697c17.436-8.528,37.153-9.755,55.513-3.455
	c16.782,5.759,30.842,17.416,39.592,32.824c2.073,3.651,6.714,4.93,10.364,2.856c3.652-2.073,4.93-6.714,2.856-10.365
	c-10.582-18.636-27.586-32.734-47.877-39.697c-22.203-7.618-46.044-6.134-67.127,4.178c-21.087,10.312-36.894,28.218-44.512,50.421
	c-15.726,45.832,8.766,95.913,54.598,111.64c9.352,3.209,18.99,4.802,28.595,4.802c13.197,0,26.328-3.011,38.532-8.98
	c21.087-10.312,36.894-28.218,44.512-50.421C479.425,402.943,480.239,386.01,476.347,369.806z"/>
<path d="M411.936,366.369c0,4.198,3.402,7.602,7.602,7.602c4.199,0,7.602-3.404,7.602-7.602c0-15.099-12.305-27.745-28.663-30.787
	v-2.654c0-4.198-3.402-7.602-7.602-7.602c-4.199,0-7.602,3.404-7.602,7.602v2.654c-16.359,3.043-28.664,15.688-28.664,30.787
	c0,15.099,12.306,27.744,28.664,30.787v32.157c-7.864-2.365-13.461-8.264-13.461-15.171c0-4.198-3.402-7.602-7.602-7.602
	s-7.602,3.404-7.602,7.602c0,15.099,12.306,27.745,28.664,30.787v2.654c0,4.198,3.402,7.602,7.602,7.602
	c4.199,0,7.602-3.404,7.602-7.602v-2.654c16.359-3.043,28.663-15.688,28.663-30.787c0-15.099-12.305-27.745-28.663-30.787v-32.156
	C406.338,353.563,411.936,359.464,411.936,366.369z M369.811,366.369c0-6.905,5.598-12.806,13.461-15.171v30.341
	C375.409,379.175,369.811,373.274,369.811,366.369z M411.936,414.142c0,6.905-5.597,12.806-13.46,15.17v-30.341
	C406.338,401.337,411.936,407.236,411.936,414.142z"/>
<g>
</g>
<g>
</g>
<g>
</g>
<g>
</g>
<g>
</g>
<g>
</g>
<g>
</g>
<g>
</g>
<g>
</g>
<g>
</g>
<g>
</g>
<g>
</g>
<g>
</g>
<g>
</g>
<g>
</g>
</svg>
