<?xml version="1.0" encoding="iso-8859-1"?>
<!-- Generator: Adobe Illustrator 19.0.0, SVG Export Plug-In . SVG Version: 6.00 Build 0)  -->
<svg version="1.1" id="Capa_1" xmlns="http://www.w3.org/2000/svg" xmlns:xlink="http://www.w3.org/1999/xlink" x="0px" y="0px"
	 viewBox="0 0 512.001 512.001" style="enable-background:new 0 0 512.001 512.001;" xml:space="preserve">
<circle style="fill:#F4B74A;" cx="302.004" cy="209.958" r="202.253"/>
<path style="fill:#FFD488;" d="M464.596,209.957c0,89.793-72.792,162.585-162.585,162.585c-38.598,0-74.046-13.443-101.932-35.907
	c-8.735-7.043-16.725-14.962-23.839-23.636c-4.016-4.892-7.756-10.029-11.181-15.38c-16.226-25.297-25.633-55.384-25.633-87.663
	c0-86.175,67.054-156.694,151.832-162.238c3.547-0.224,7.134-0.347,10.753-0.347c11.548,0,22.81,1.203,33.665,3.496
	c19.518,4.107,37.741,11.721,53.988,22.148c5.361,3.425,10.498,7.165,15.4,11.191c8.674,7.114,16.593,15.105,23.625,23.839
	C451.153,135.921,464.596,171.369,464.596,209.957z"/>
<g>
	<path style="fill:#F9C662;" d="M428.689,108.046L200.08,336.635l-47.037,47.037c-8.918-16.644-16.012-34.378-21.037-52.999
		L389.664,73.015c5.361,3.425,10.498,7.165,15.4,11.191C413.737,91.32,421.657,99.311,428.689,108.046z"/>
	<path style="fill:#F9C662;" d="M335.676,50.868L156.539,229.994c-5.728-10.692-10.284-22.086-13.515-34.042L291.259,47.718
		c3.547-0.224,7.134-0.347,10.753-0.347C313.559,47.372,324.821,48.574,335.676,50.868z"/>
</g>
<path style="fill:#F4B74A;" d="M352.911,445.089c-60.837,60.827-150.772,74.81-224.991,41.93
	c-17.48-7.736-34.072-18.071-49.218-31.005c-4.056-3.455-7.991-7.104-11.823-10.926c-78.979-78.989-78.979-207.043,0-286.032
	c78.989-78.979,207.043-78.979,286.032,0c3.832,3.832,7.471,7.766,10.926,11.823c12.934,15.135,23.269,31.738,31.004,49.218
	C427.721,294.307,413.737,384.253,352.911,445.089z"/>
<path style="fill:#F9C662;" d="M394.841,220.098L127.919,487.02c-17.48-7.736-34.072-18.071-49.218-31.005L363.837,170.88
	C376.771,186.015,387.105,202.618,394.841,220.098z"/>
<path style="fill:#FFD488;" d="M372.48,302.073c0,89.793-72.792,162.585-162.585,162.585c-50.686,0-95.949-23.187-125.771-59.542
	C61.11,377.067,47.31,341.181,47.31,302.073c0-89.793,72.792-162.585,162.585-162.585c39.117,0,75.004,13.821,103.053,36.834
	C349.293,206.135,372.48,251.398,372.48,302.073z"/>
<path style="fill:#F9C662;" d="M312.947,176.323L84.144,405.126l-0.02-0.01c-6.717-8.184-12.648-17.041-17.673-26.449
	c-5.728-10.692-10.284-22.086-13.515-34.042c-3.669-13.566-5.626-27.835-5.626-42.552c0-89.793,72.792-162.585,162.585-162.585
	c14.728,0,28.997,1.957,42.552,5.626c11.955,3.231,23.35,7.797,34.042,13.525C295.896,163.664,304.753,169.606,312.947,176.323z"/>
<path style="fill:#FFD488;" d="M286.489,158.639L66.451,378.667c-5.728-10.692-10.284-22.086-13.515-34.042l199.511-199.511
	C264.402,148.345,275.797,152.911,286.489,158.639z"/>
<path d="M209.895,92.175c-56.066,0-108.776,21.834-148.42,61.478c-81.839,81.839-81.839,215,0,296.839
	c30.379,30.379,68.699,50.469,110.82,58.101c12.565,2.277,25.2,3.407,37.784,3.407c28.627,0,56.973-5.852,83.514-17.382
	c3.872-1.682,5.647-6.185,3.966-10.057c-1.682-3.872-6.184-5.648-10.057-3.966c-35.427,15.389-74.322,19.868-112.482,12.954
	c-39.044-7.074-74.569-25.702-102.736-53.868c-36.755-36.757-56.997-85.628-56.997-137.609c0-51.982,20.243-100.852,57-137.609
	s85.627-57,137.609-57c51.981,0,100.852,20.243,137.609,57s57,85.627,57,137.609s-20.243,100.852-57,137.609
	c-9.339,9.34-19.613,17.731-30.534,24.943c-3.523,2.326-4.494,7.068-2.167,10.591c2.326,3.523,7.068,4.494,10.591,2.167
	c11.779-7.778,22.856-16.825,32.921-26.891c39.644-39.644,61.478-92.354,61.478-148.419s-21.834-108.776-61.478-148.42
	C318.67,114.009,265.961,92.175,209.895,92.175z"/>
<path d="M330.267,181.701c-66.372-66.372-174.369-66.373-240.743,0c-66.373,66.373-66.373,174.37,0,240.742
	c33.187,33.187,76.779,49.779,120.371,49.779c43.593,0,87.186-16.594,120.372-49.779
	C396.639,356.071,396.639,248.074,330.267,181.701z M100.333,411.634c-60.412-60.412-60.412-158.71,0-219.122
	c30.206-30.205,69.883-45.309,109.561-45.309c39.677,0,79.355,15.103,109.561,45.309c60.412,60.412,60.412,158.71,0,219.122
	C259.045,472.046,160.747,472.047,100.333,411.634z"/>
<path d="M140.524,87.907c1.421,1.163,3.134,1.73,4.837,1.73c2.213,0,4.409-0.956,5.92-2.803c4.089-4.996,8.502-9.869,13.118-14.485
	c18.579-18.579,40.238-32.962,64.374-42.75c3.913-1.587,5.797-6.044,4.211-9.957c-1.586-3.913-6.044-5.796-9.957-4.211
	c-26.042,10.56-49.404,26.074-69.439,46.107c-4.973,4.973-9.729,10.226-14.139,15.612C136.776,80.418,137.257,85.234,140.524,87.907
	z"/>
<path d="M450.428,61.539C399.46,10.57,326.961-10.554,256.492,5.03c-4.122,0.911-6.725,4.992-5.814,9.115
	c0.912,4.122,4.993,6.725,9.115,5.813c65.341-14.45,132.567,5.135,179.824,52.392c75.877,75.878,75.877,199.341,0,275.218
	c-4.617,4.617-9.491,9.03-14.485,13.118c-3.267,2.674-3.748,7.49-1.073,10.757c1.51,1.847,3.706,2.803,5.92,2.803
	c1.703,0,3.416-0.567,4.837-1.729c5.384-4.407,10.638-9.165,15.611-14.139c39.644-39.644,61.478-92.354,61.478-148.42
	C511.905,153.893,490.073,101.183,450.428,61.539z"/>
<path d="M435.027,303.819c1.275,0.814,2.7,1.203,4.107,1.203c2.523,0,4.991-1.247,6.45-3.53
	c20.542-32.157,29.69-70.891,25.756-109.067c-3.991-38.73-21.38-75.252-48.964-102.835c-27.58-27.58-64.095-44.967-102.819-48.958
	c-38.169-3.934-76.899,5.21-109.053,25.749c-3.558,2.273-4.6,6.999-2.327,10.557c2.273,3.558,6.998,4.6,10.557,2.327
	c29.257-18.688,64.51-27.009,99.254-23.426c35.24,3.631,68.473,19.457,93.577,44.56c25.106,25.107,40.934,58.345,44.566,93.591
	c3.582,34.755-4.74,70.011-23.432,99.27C430.427,296.82,431.469,301.546,435.027,303.819z"/>
<path d="M212.002,227.61c14.802,0,28.906,7.244,39.714,20.395c2.68,3.261,7.495,3.733,10.759,1.053
	c3.261-2.681,3.733-7.497,1.053-10.759c-13.765-16.753-32.064-25.979-51.525-25.979c-33.371,0-61.593,27.569-70.338,65.121H131.59
	c-4.222,0-7.644,3.423-7.644,7.644c0,4.222,3.423,7.644,7.644,7.644h7.669c-0.26,3.072-0.395,6.189-0.395,9.343
	c0,3.154,0.135,6.271,0.395,9.343h-7.669c-4.222,0-7.644,3.423-7.644,7.644c0,4.222,3.423,7.644,7.644,7.644h10.075
	c8.745,37.552,36.967,65.122,70.338,65.122c19.461,0,37.76-9.226,51.525-25.979c2.681-3.261,2.209-8.078-1.053-10.759
	c-3.261-2.681-8.079-2.209-10.759,1.053c-10.808,13.153-24.912,20.396-39.714,20.396c-25.194,0-46.666-20.845-54.584-49.833h57.747
	c4.222,0,7.644-3.423,7.644-7.644c0-4.222-3.423-7.644-7.644-7.644h-60.542c-0.3-3.063-0.472-6.176-0.472-9.343
	c0-3.166,0.172-6.279,0.472-9.343h60.542c4.222,0,7.644-3.423,7.644-7.644c0-4.222-3.423-7.644-7.644-7.644h-57.747
	C165.337,248.453,186.809,227.61,212.002,227.61z"/>
<g>
</g>
<g>
</g>
<g>
</g>
<g>
</g>
<g>
</g>
<g>
</g>
<g>
</g>
<g>
</g>
<g>
</g>
<g>
</g>
<g>
</g>
<g>
</g>
<g>
</g>
<g>
</g>
<g>
</g>
</svg>
