<?xml version="1.0" encoding="iso-8859-1"?>
<!-- Generator: Adobe Illustrator 19.0.0, SVG Export Plug-In . SVG Version: 6.00 Build 0)  -->
<svg version="1.1" id="Capa_1" xmlns="http://www.w3.org/2000/svg" xmlns:xlink="http://www.w3.org/1999/xlink" x="0px" y="0px"
	 viewBox="0 0 511.999 511.999" style="enable-background:new 0 0 511.999 511.999;" xml:space="preserve">
<path style="fill:#DDDDDD;" d="M431.335,122.092h6.043c8.949,0,16.204,7.255,16.204,16.204v44.026v69.314H78.998
	c-21.313,0-38.59-17.277-38.59-38.59v-52.363c0-21.313,17.277-38.59,38.59-38.59h52.521L431.335,122.092L431.335,122.092z"/>
<path style="fill:#38C183;" d="M405.922,149.469L202.802,352.589c-8.954,8.954-23.472,8.954-32.427,0L67.661,249.876
	c-8.954-8.954-8.954-23.472,0-32.427l203.12-203.119c8.954-8.954,23.472-8.954,32.427,0l102.714,102.714
	C414.876,125.998,414.876,140.515,405.922,149.469z"/>
<path style="fill:#49E298;" d="M304.579,72.651c-9.712,9.712-25.457,9.712-35.169,0c-2.979-2.979-5.041-6.528-6.191-10.294
	l-147.53,147.529c3.767,1.151,7.315,3.213,10.294,6.192c9.712,9.712,9.712,25.457,0,35.169c-2.979,2.979-6.528,5.041-10.294,6.192
	l47.124,47.124c1.151-3.767,3.213-7.315,6.192-10.294c9.712-9.712,25.457-9.712,35.169,0c2.979,2.979,5.041,6.528,6.192,10.294
	l147.53-147.528c-3.767-1.151-7.315-3.213-10.294-6.192c-9.712-9.712-9.712-25.457,0-35.169c2.979-2.979,6.528-5.041,10.294-6.191
	l-47.124-47.124C309.62,66.123,307.559,69.671,304.579,72.651z"/>
<circle style="fill:#38C183;" cx="236.795" cy="183.461" r="45.465"/>
<path style="fill:#C17F49;" d="M453.581,222.505v258.647c0,12.83-10.403,23.233-23.233,23.233H78.992
	c-21.305,0-38.584-17.279-38.584-38.595V160.677c0,21.315,17.279,38.595,38.584,38.595h351.356
	C443.178,199.271,453.581,209.675,453.581,222.505z"/>
<path style="fill:#A56637;" d="M88.082,199.271v305.113h-9.089c-21.305,0-38.584-17.279-38.584-38.595V160.677
	c0,21.315,17.279,38.595,38.584,38.595h9.089V199.271z"/>
<path style="fill:#2E3842;" d="M386.838,392.086h67.919c9.297,0,16.835-7.537,16.835-16.835v-61.678
	c0-9.297-7.537-16.835-16.835-16.835h-67.919c-26.33,0-47.674,21.344-47.674,47.674l0,0
	C339.164,370.742,360.509,392.086,386.838,392.086z"/>
<circle style="fill:#FFD488;" cx="385.775" cy="344.411" r="19.07"/>
<path d="M32.794,415.295c0,4.206,3.408,7.615,7.615,7.615s7.615-3.409,7.615-7.615V194.937c8.201,7.422,19.067,11.949,30.973,11.949
	h317.377h33.975c8.612,0,15.619,7.006,15.619,15.618v53.925c0,4.206,3.408,7.615,7.615,7.615c4.207,0,7.615-3.409,7.615-7.615
	v-53.925c0-17.009-13.839-30.848-30.849-30.848h-33.975H78.996c-17.053,0-30.93-13.853-30.973-30.898v-0.082
	c0-0.008-0.001-0.016-0.001-0.024c0.016-17.066,13.904-30.946,30.974-30.946h52.522c4.207,0,7.615-3.409,7.615-7.615
	c0-4.206-3.408-7.615-7.615-7.615H78.996c-25.478,0-46.205,20.728-46.205,46.206c0,0.026,0.002,0.052,0.002,0.078V415.295z"/>
<path d="M453.581,404.779c-4.207,0-7.615,3.409-7.615,7.615v68.757c0,8.612-7.006,15.618-15.619,15.618H78.992
	c-17.076,0-30.969-13.898-30.969-30.98v-25.11c0-4.206-3.408-7.615-7.615-7.615s-7.615,3.409-7.615,7.615v25.11
	c0,25.481,20.725,46.21,46.199,46.21h351.356c17.01,0,30.849-13.838,30.849-30.848v-68.757
	C461.196,408.188,457.788,404.779,453.581,404.779z"/>
<path d="M431.333,129.707h6.044c4.736,0,8.589,3.853,8.589,8.589v44.026c0,4.206,3.408,7.615,7.615,7.615
	c4.207,0,7.615-3.409,7.615-7.615v-44.026c0-13.134-10.684-23.819-23.819-23.819h-6.044c-4.207,0-7.615,3.409-7.615,7.615
	C423.718,126.297,427.128,129.707,431.333,129.707z"/>
<path d="M243.205,52.67l32.959-32.957c2.891-2.892,6.737-4.484,10.83-4.484c4.092,0,7.937,1.592,10.829,4.484l102.711,102.711
	c5.972,5.971,5.972,15.688,0.001,21.66l-23.604,23.603c-2.975,2.974-2.975,7.795-0.001,10.769c1.487,1.487,3.436,2.231,5.385,2.231
	c1.948,0,3.898-0.743,5.384-2.231l23.605-23.603c11.909-11.91,11.909-31.287,0-43.197L308.593,8.945
	C302.825,3.177,295.154,0,286.994,0c-8.161,0-15.832,3.177-21.598,8.945l-32.958,32.957c-2.975,2.974-2.975,7.795-0.001,10.769
	S240.232,55.644,243.205,52.67z"/>
<path d="M106.65,178.457c1.487,1.487,3.436,2.231,5.385,2.231c1.948,0,3.898-0.743,5.385-2.231L225.693,70.185
	c2.974-2.974,2.974-7.796,0-10.769c-2.974-2.974-7.795-2.974-10.77,0L106.65,167.687
	C103.676,170.661,103.676,175.483,106.65,178.457z"/>
<path d="M336.471,178.457c1.487,1.487,3.437,2.231,5.385,2.231s3.898-0.743,5.385-2.231l16.039-16.039
	c1.89-1.89,2.65-4.632,2.004-7.225c-0.646-2.593-2.603-4.658-5.159-5.44c-2.729-0.836-5.128-2.279-7.145-4.304
	c-3.259-3.255-5.054-7.586-5.054-12.193s1.795-8.939,5.066-12.206c2.004-2.011,4.404-3.455,7.132-4.291
	c2.556-0.783,4.513-2.847,5.159-5.44c0.647-2.593-0.115-5.336-2.004-7.225L316.157,56.97c-1.889-1.89-4.631-2.65-7.225-2.005
	c-2.593,0.646-4.658,2.603-5.44,5.16c-0.833,2.718-2.279,5.121-4.303,7.145c-3.256,3.258-7.587,5.053-12.195,5.053
	c-4.609,0-8.939-1.795-12.205-5.065c-2.012-2.005-3.456-4.403-4.291-7.131c-0.783-2.556-2.848-4.514-5.44-5.161
	c-2.591-0.648-5.337,0.114-7.226,2.004L147.12,167.687c-2.974,2.974-2.974,7.796,0.001,10.77c2.973,2.974,7.795,2.973,10.769,0
	L261.342,74.996c0.829,1.067,1.725,2.082,2.682,3.036c6.132,6.139,14.289,9.52,22.968,9.52c0.001,0,0.001,0,0.001,0
	c8.679,0,16.837-3.381,22.967-9.517c0.957-0.957,1.853-1.975,2.682-3.043l32.61,32.61c-1.068,0.83-2.082,1.726-3.037,2.684
	c-6.139,6.132-9.52,14.289-9.52,22.969c0,8.68,3.381,16.837,9.507,22.955c0.958,0.963,1.979,1.863,3.051,2.696l-8.783,8.783
	C333.497,170.661,333.497,175.483,336.471,178.457z"/>
<path d="M236.787,130.38c-14.177,0-27.506,5.521-37.533,15.548c-7.009,7.01-11.903,15.797-14.151,25.411
	c-0.957,4.096,1.586,8.191,5.682,9.149c4.094,0.956,8.19-1.587,9.148-5.682c1.601-6.847,5.091-13.109,10.09-18.109
	c7.149-7.15,16.652-11.086,26.762-11.086c10.11,0,19.614,3.937,26.763,11.085c5.001,5.001,8.488,11.263,10.09,18.109
	c0.821,3.512,3.951,5.883,7.408,5.883c0.574,0,1.159-0.065,1.74-0.201c4.096-0.957,6.639-5.053,5.682-9.149
	c-2.247-9.613-7.14-18.401-14.15-25.411C264.295,135.901,250.965,130.38,236.787,130.38z"/>
<path d="M454.757,289.123h-67.919c-30.486,0-55.289,24.803-55.289,55.289s24.803,55.289,55.289,55.289h67.919
	c13.482,0,24.45-10.969,24.45-24.45v-61.678C479.207,300.092,468.239,289.123,454.757,289.123z M463.977,375.251
	c0,5.084-4.136,9.22-9.22,9.22h-67.919c-22.089,0-40.059-17.97-40.059-40.059s17.97-40.059,40.059-40.059h67.919
	c5.084,0,9.22,4.136,9.22,9.22V375.251z"/>
<path d="M385.778,317.727c-14.713,0-26.684,11.971-26.684,26.685s11.971,26.685,26.684,26.685s26.684-11.971,26.684-26.685
	S400.492,317.727,385.778,317.727z M385.778,355.867c-6.316,0-11.454-5.139-11.454-11.455s5.139-11.455,11.454-11.455
	s11.454,5.139,11.454,11.455S392.095,355.867,385.778,355.867z"/>
<g>
</g>
<g>
</g>
<g>
</g>
<g>
</g>
<g>
</g>
<g>
</g>
<g>
</g>
<g>
</g>
<g>
</g>
<g>
</g>
<g>
</g>
<g>
</g>
<g>
</g>
<g>
</g>
<g>
</g>
</svg>
