<?xml version="1.0" encoding="iso-8859-1"?>
<!-- Generator: Adobe Illustrator 19.0.0, SVG Export Plug-In . SVG Version: 6.00 Build 0)  -->
<svg version="1.1" id="Capa_1" xmlns="http://www.w3.org/2000/svg" xmlns:xlink="http://www.w3.org/1999/xlink" x="0px" y="0px"
	 viewBox="0 0 512 512" style="enable-background:new 0 0 512 512;" xml:space="preserve">
<path style="fill:#DDDDDD;" d="M426.944,427.23c0,42.608-76.537,77.156-170.941,77.156c-94.415,0-170.952-34.548-170.952-77.156
	c0-13.797,8.03-26.751,22.091-37.959c26.883-21.431,75.847-36.487,132.942-38.862c5.239-0.223,10.548-0.335,15.919-0.335
	C350.407,350.073,426.944,384.621,426.944,427.23z"/>
<path style="fill:#C2C4C2;" d="M256.003,427.23l-148.861-37.959c26.883-21.431,75.847-36.487,132.942-38.862L256.003,427.23z"/>
<path style="fill:#E05F5F;" d="M111.856,170.805c0,108.619,57.713,203.754,144.145,256.424
	c86.432-52.67,144.145-147.806,144.145-256.424c0-13.671-0.915-27.129-2.685-40.315c-21.991-163.756-260.929-163.756-282.919,0
	C112.769,143.677,111.856,157.134,111.856,170.805z"/>
<circle style="fill:#F9C662;" cx="255.995" cy="156.18" r="92.394"/>
<path style="fill:#F4B74A;" d="M255.999,63.784c-5.542,0-10.969,0.489-16.243,1.424c43.284,7.676,76.153,45.486,76.153,90.972
	s-32.871,83.296-76.153,90.972c5.274,0.935,10.701,1.424,16.243,1.424c51.03,0,92.396-41.368,92.396-92.397
	C348.397,105.151,307.029,63.784,255.999,63.784z"/>
<path d="M278.881,130.768c0,4.205,3.408,7.614,7.614,7.614s7.614-3.409,7.614-7.614c0-15.952-13.118-29.297-30.495-32.363v-3.214
	c0-4.205-3.408-7.614-7.614-7.614c-4.205,0-7.614,3.409-7.614,7.614v3.214c-17.377,3.066-30.495,16.412-30.495,32.363
	s13.118,29.297,30.495,32.363v35.243c-8.884-2.447-15.267-9.044-15.267-16.781c0-4.205-3.409-7.614-7.614-7.614
	s-7.614,3.409-7.614,7.614c0,15.952,13.118,29.297,30.495,32.363v3.214c0,4.205,3.409,7.614,7.614,7.614
	c4.206,0,7.614-3.409,7.614-7.614v-3.214c17.377-3.066,30.495-16.412,30.495-32.363s-13.118-29.297-30.495-32.363v-35.243
	C272.498,116.434,278.881,123.03,278.881,130.768z M233.119,130.768c0-7.738,6.383-14.335,15.267-16.781v33.563
	C239.502,145.103,233.119,138.506,233.119,130.768z M278.881,181.593c0,7.738-6.383,14.335-15.267,16.781v-33.563
	C272.498,167.258,278.881,173.855,278.881,181.593z"/>
<path d="M255.999,56.17c-55.146,0-100.012,44.864-100.012,100.011s44.864,100.012,100.012,100.012s100.012-44.864,100.012-100.012
	C356.011,101.035,311.147,56.17,255.999,56.17z M255.999,240.964c-46.75,0-84.783-38.034-84.783-84.783s38.034-84.782,84.783-84.782
	s84.783,38.033,84.783,84.782S302.749,240.964,255.999,240.964z"/>
<path d="M367.657,360.655c-3.939-1.472-8.324,0.526-9.799,4.465c-1.472,3.939,0.527,8.326,4.465,9.799
	c35.696,13.348,57.007,32.904,57.007,52.311c0,17.186-16.616,34.542-45.586,47.618c-31.324,14.138-73.14,21.925-117.744,21.925
	c-55.43,0-106.839-12.237-137.52-32.734c-3.496-2.335-8.225-1.396-10.561,2.102c-2.336,3.496-1.395,8.225,2.101,10.561
	c33.086,22.104,87.658,35.3,145.979,35.3c100.126,0,178.559-37.236,178.559-84.77C434.558,400.82,410.174,376.554,367.657,360.655z"
	/>
<path d="M175.013,367.11c21.762,26.222,47.819,48.825,77.024,66.622c1.216,0.741,2.59,1.112,3.962,1.112
	c1.373,0,2.746-0.371,3.962-1.112c44.276-26.981,81.321-64.999,107.126-109.942c26.607-46.34,40.671-99.241,40.671-152.984
	c0-13.822-0.926-27.727-2.752-41.327c-3.777-28.117-13.77-52.792-29.707-73.339c-2.579-3.324-7.361-3.927-10.683-1.35
	c-3.322,2.578-3.927,7.36-1.35,10.683c14.269,18.397,23.234,40.613,26.647,66.032c1.737,12.932,2.617,26.155,2.617,39.301
	c0,51.087-13.364,101.366-38.649,145.402c-23.758,41.379-57.54,76.584-97.882,102.062c-40.341-25.479-74.123-60.683-97.881-102.062
	c-25.285-44.036-38.649-94.315-38.649-145.402c0-13.147,0.88-26.37,2.617-39.301c3.532-26.298,12.988-49.135,28.107-67.877
	c13.637-16.905,31.958-30.207,52.984-38.467c47.648-18.722,102.983-10.616,140.975,20.649c3.246,2.672,8.046,2.207,10.718-1.041
	c2.672-3.247,2.206-8.046-1.041-10.718C311.64-0.668,250.32-9.724,197.607,10.986c-50.119,19.691-83.146,62.88-90.614,118.492
	c-1.826,13.601-2.752,27.505-2.752,41.327c0,53.743,14.064,106.644,40.671,152.984c6.022,10.489,12.665,20.595,19.861,30.277
	c-23.546,6.515-43.594,15.499-58.448,26.264c-18.896,13.693-28.884,29.911-28.884,46.9c0,9.396,3.039,18.569,9.03,27.265
	c1.477,2.143,3.857,3.294,6.277,3.294c1.489,0,2.994-0.436,4.314-1.345c3.463-2.387,4.335-7.128,1.949-10.591
	c-4.208-6.105-6.341-12.371-6.341-18.623C92.669,403.033,124.826,379.679,175.013,367.11z"/>
<g>
</g>
<g>
</g>
<g>
</g>
<g>
</g>
<g>
</g>
<g>
</g>
<g>
</g>
<g>
</g>
<g>
</g>
<g>
</g>
<g>
</g>
<g>
</g>
<g>
</g>
<g>
</g>
<g>
</g>
</svg>
