<?xml version="1.0" encoding="iso-8859-1"?>
<!-- Generator: Adobe Illustrator 19.0.0, SVG Export Plug-In . SVG Version: 6.00 Build 0)  -->
<svg version="1.1" id="Capa_1" xmlns="http://www.w3.org/2000/svg" xmlns:xlink="http://www.w3.org/1999/xlink" x="0px" y="0px"
	 viewBox="0 0 512 512" style="enable-background:new 0 0 512 512;" xml:space="preserve">
<path style="fill:#FFD488;" d="M447.489,399.419c0,54.951-44.539,99.49-99.49,99.49c-3.995,0-7.928-0.233-11.791-0.7
	c-12.562-1.48-24.414-5.302-35.09-11.021c-9.774-5.232-18.574-12.045-26.036-20.105c-14.823-15.948-24.454-36.762-26.249-59.787
	c-0.213-2.595-0.314-5.221-0.314-7.878c0-54.941,44.539-99.48,99.48-99.48c2.656,0,5.282,0.101,7.878,0.314
	c23.025,1.795,43.839,11.426,59.787,26.249c8.06,7.462,14.873,16.262,20.105,26.036c5.718,10.676,9.54,22.528,11.021,35.09
	C447.256,391.491,447.489,395.435,447.489,399.419z"/>
<g>
	<path style="fill:#F9C662;" d="M415.664,326.503L275.083,467.084c-14.823-15.948-24.454-36.762-26.249-59.787l107.043-107.043
		C378.902,302.047,399.716,311.679,415.664,326.503z"/>
	<path style="fill:#F9C662;" d="M446.79,387.628L336.208,498.21c-12.562-1.48-24.414-5.302-35.09-11.021l134.65-134.65
		C441.487,363.215,445.309,375.066,446.79,387.628z"/>
</g>
<path style="fill:#FFD488;" d="M447.491,123.285c0,54.951-44.539,99.49-99.49,99.49c-3.995,0-7.928-0.233-11.791-0.7
	c-12.562-1.48-24.414-5.302-35.09-11.021c-9.774-5.232-18.574-12.045-26.036-20.105c-14.823-15.948-24.454-36.762-26.249-59.787
	c-0.213-2.595-0.314-5.221-0.314-7.878c0-54.941,44.539-99.48,99.48-99.48c2.656,0,5.282,0.101,7.878,0.314
	c23.025,1.795,43.839,11.426,59.787,26.249c8.06,7.462,14.873,16.262,20.105,26.036c5.718,10.676,9.54,22.528,11.021,35.09
	C447.258,115.357,447.491,119.301,447.491,123.285z"/>
<g>
	<path style="fill:#F9C662;" d="M415.666,50.369L275.085,190.95c-14.823-15.948-24.454-36.762-26.249-59.787L355.879,24.12
		C378.904,25.914,399.718,35.546,415.666,50.369z"/>
	<path style="fill:#F9C662;" d="M446.792,111.494L336.21,222.075c-12.562-1.48-24.414-5.302-35.09-11.021l134.65-134.65
		C441.489,87.08,445.311,98.932,446.792,111.494z"/>
</g>
<path style="fill:#FFD488;" d="M206.58,261.351c0,54.951-44.539,99.49-99.49,99.49c-3.995,0-7.928-0.233-11.791-0.7
	c-12.562-1.48-24.414-5.302-35.09-11.021c-9.774-5.232-18.574-12.045-26.036-20.105C19.35,313.068,9.719,292.254,7.924,269.229
	c-0.213-2.595-0.314-5.221-0.314-7.878c0-54.941,44.539-99.48,99.48-99.48c2.656,0,5.282,0.101,7.878,0.314
	c23.025,1.795,43.839,11.426,59.787,26.249c8.06,7.462,14.873,16.262,20.105,26.036c5.718,10.676,9.54,22.528,11.021,35.09
	C206.346,253.423,206.58,257.367,206.58,261.351z"/>
<g>
	<path style="fill:#F9C662;" d="M174.755,188.435L34.173,329.016C19.35,313.068,9.719,292.254,7.924,269.229l107.043-107.043
		C137.992,163.98,158.807,173.612,174.755,188.435z"/>
	<path style="fill:#F9C662;" d="M205.88,249.56L95.299,360.142c-12.562-1.48-24.414-5.302-35.09-11.021l134.65-134.65
		C200.577,225.146,204.4,236.998,205.88,249.56z"/>
</g>
<path d="M240.812,29.16L219.369,7.718c-2.97-2.97-7.784-2.97-10.753,0c-2.97,2.97-2.97,7.784,0,10.753l8.462,8.462h-5.832
	c-55.405,0-100.48,45.075-100.48,100.481c0,4.199,3.405,7.604,7.604,7.604s7.604-3.405,7.604-7.604
	c0-47.02,38.253-85.274,85.273-85.274h5.832l-8.462,8.462c-2.97,2.97-2.97,7.784,0,10.753c1.484,1.485,3.431,2.227,5.376,2.227
	c1.946,0,3.892-0.742,5.376-2.227l21.443-21.442c1.426-1.425,2.227-3.36,2.227-5.376C243.04,32.52,242.238,30.585,240.812,29.16z"/>
<path d="M511.743,340.678c-1.079-4.058-5.247-6.473-9.302-5.396l-11.565,3.073l2.926-5.044
	c13.467-23.216,17.087-50.288,10.192-76.227c-6.894-25.939-23.476-47.641-46.693-61.108c-3.632-2.106-8.285-0.871-10.393,2.763
	c-2.107,3.633-0.87,8.285,2.763,10.393c19.703,11.428,33.776,29.846,39.626,51.859c5.851,22.013,2.779,44.987-8.65,64.69
	l-2.927,5.045l-3.074-11.566c-1.079-4.058-5.247-6.474-9.302-5.396c-4.058,1.079-6.474,5.244-5.396,9.302l7.789,29.307
	c0.905,3.405,3.98,5.653,7.344,5.653c0.647,0,1.304-0.083,1.958-0.257l29.307-7.788
	C510.406,348.902,512.822,344.737,511.743,340.678z"/>
<path d="M221.805,441.02c-19.726,11.389-42.706,14.415-64.706,8.518c-22.002-5.895-40.39-20.005-51.779-39.731l-2.916-5.051
	l11.56,3.097c4.052,1.084,8.225-1.32,9.313-5.378c1.087-4.056-1.321-8.225-5.378-9.313l-29.291-7.848
	c-1.947-0.521-4.023-0.248-5.77,0.76c-1.747,1.009-3.02,2.669-3.543,4.617l-7.848,29.291c-1.087,4.056,1.321,8.225,5.377,9.313
	c0.659,0.176,1.321,0.261,1.973,0.261c3.357,0,6.43-2.241,7.34-5.638l3.097-11.559l2.916,5.05
	c13.419,23.244,35.088,39.87,61.013,46.817c8.657,2.32,17.441,3.467,26.17,3.467c17.411,0,34.595-4.566,50.077-13.506
	c3.637-2.1,4.883-6.75,2.783-10.387C230.092,440.166,225.442,438.919,221.805,441.02z"/>
<path d="M376.059,450.085h-72.215c-4.199,0-7.604,3.405-7.604,7.604c0,4.199,3.405,7.604,7.604,7.604h72.215
	c4.199,0,7.604-3.405,7.604-7.604C383.663,453.489,380.259,450.085,376.059,450.085z"/>
<path d="M354.262,318.746c-20.374,0-36.95,16.576-36.95,36.95v36.121h-13.468c-4.199,0-7.604,3.405-7.604,7.604
	c0,4.199,3.405,7.604,7.604,7.604h13.468v26.409c0,4.199,3.405,7.604,7.604,7.604c4.199,0,7.604-3.405,7.604-7.604v-26.409h27.235
	c4.199,0,7.604-3.405,7.604-7.604c0-4.199-3.405-7.604-7.604-7.604H332.52v-36.121c0-11.989,9.753-21.742,21.742-21.742
	s21.742,9.753,21.742,21.742v17.64c0,4.199,3.405,7.604,7.604,7.604s7.604-3.405,7.604-7.604v-17.64
	C391.212,335.321,374.637,318.746,354.262,318.746z"/>
<path d="M348.001,292.332c-59.049,0-107.089,48.04-107.089,107.089s48.04,107.09,107.089,107.09s107.09-48.041,107.09-107.09
	S407.051,292.332,348.001,292.332z M348.001,491.302c-50.663,0-91.881-41.218-91.881-91.882s41.217-91.881,91.881-91.881
	s91.882,41.217,91.882,91.881S398.665,491.302,348.001,491.302z"/>
<path d="M347.401,65.225c11.385,0,22.255,5.6,30.611,15.769c2.665,3.244,7.457,3.714,10.702,1.047
	c3.244-2.666,3.714-7.458,1.047-10.702c-11.298-13.749-26.343-21.321-42.361-21.321c-27.046,0-49.959,21.981-57.419,52.084h-6.894
	c-4.199,0-7.604,3.405-7.604,7.604c0,4.199,3.405,7.604,7.604,7.604h4.544c-0.132,1.975-0.217,3.966-0.217,5.982
	s0.085,4.007,0.217,5.982h-4.544c-4.199,0-7.604,3.405-7.604,7.604c0,4.199,3.405,7.604,7.604,7.604h6.894
	c7.46,30.101,30.373,52.083,57.419,52.083c16.019,0,31.064-7.572,42.361-21.321c2.666-3.244,2.197-8.037-1.047-10.702
	c-3.244-2.666-8.037-2.197-10.702,1.047c-8.356,10.169-19.228,15.769-30.611,15.769c-18.925,0-35.134-15.31-41.678-36.875h44.207
	c4.199,0,7.604-3.405,7.604-7.604c0-4.199-3.405-7.604-7.604-7.604h-47.071c-0.156-1.967-0.237-3.962-0.237-5.982
	s0.081-4.015,0.237-5.982h47.071c4.199,0,7.604-3.405,7.604-7.604c0-4.199-3.405-7.604-7.604-7.604h-44.207
	C312.268,80.535,328.477,65.225,347.401,65.225z"/>
<path d="M348.001,230.379c59.049,0,107.09-48.04,107.09-107.089c0-17.599-4.364-35.052-12.618-50.473
	c-1.983-3.704-6.591-5.097-10.293-3.116c-3.703,1.982-5.097,6.59-3.116,10.293c7.077,13.221,10.818,28.192,10.818,43.296
	c0,50.663-41.218,91.881-91.882,91.881s-91.881-41.217-91.881-91.881S297.337,31.409,348,31.409c24.543,0,47.616,9.558,64.97,26.911
	c2.969,2.97,7.783,2.97,10.753,0s2.97-7.783,0-10.753C403.498,27.341,376.605,16.202,348,16.202
	c-59.049,0-107.089,48.04-107.089,107.089S288.952,230.379,348.001,230.379z"/>
<path d="M114.694,327.025v-3.969c18.674-3.086,32.835-17.305,32.835-34.337c0-17.033-14.161-31.251-32.835-34.337v-39.23
	c4.042,1.005,7.722,2.818,10.746,5.337c4.438,3.698,6.881,8.494,6.881,13.507c0,4.199,3.405,7.604,7.604,7.604
	c4.199,0,7.604-3.405,7.604-7.604c0-17.033-14.161-31.251-32.835-34.337v-3.969c0-4.199-3.405-7.604-7.604-7.604
	s-7.604,3.405-7.604,7.604v3.969c-18.674,3.086-32.835,17.305-32.835,34.337s14.161,31.251,32.835,34.337v39.23
	c-4.042-1.005-7.722-2.818-10.746-5.337c-4.438-3.698-6.881-8.494-6.881-13.507c0-4.199-3.405-7.604-7.604-7.604
	s-7.604,3.405-7.604,7.604c0,17.033,14.161,31.251,32.835,34.337v3.969c0,4.199,3.405,7.604,7.604,7.604
	S114.694,331.224,114.694,327.025z M125.439,275.212c4.438,3.698,6.881,8.494,6.881,13.507s-2.443,9.809-6.881,13.507
	c-3.023,2.519-6.704,4.332-10.746,5.337v-37.686C118.736,270.879,122.415,272.691,125.439,275.212z M88.74,247.5
	c-4.438-3.698-6.881-8.494-6.881-13.507s2.443-9.809,6.881-13.507c3.023-2.519,6.704-4.332,10.746-5.337v37.686
	C95.444,251.832,91.764,250.019,88.74,247.5z"/>
<path d="M214.178,261.355c0-59.049-48.04-107.089-107.089-107.089S0,202.306,0,261.355s48.041,107.089,107.09,107.089
	S214.178,320.404,214.178,261.355z M15.208,261.355c0-50.663,41.218-91.881,91.882-91.881s91.881,41.217,91.881,91.881
	s-41.217,91.881-91.881,91.881S15.208,312.019,15.208,261.355z"/>
<g>
</g>
<g>
</g>
<g>
</g>
<g>
</g>
<g>
</g>
<g>
</g>
<g>
</g>
<g>
</g>
<g>
</g>
<g>
</g>
<g>
</g>
<g>
</g>
<g>
</g>
<g>
</g>
<g>
</g>
</svg>
