<?xml version="1.0" encoding="iso-8859-1"?>
<!-- Generator: Adobe Illustrator 19.0.0, SVG Export Plug-In . SVG Version: 6.00 Build 0)  -->
<svg version="1.1" id="Capa_1" xmlns="http://www.w3.org/2000/svg" xmlns:xlink="http://www.w3.org/1999/xlink" x="0px" y="0px"
	 viewBox="0 0 512 512" style="enable-background:new 0 0 512 512;" xml:space="preserve">
<path style="fill:#2FAD71;" d="M504.396,264.253v154.771c0,19.506-15.812,35.319-35.319,35.319H42.922
	c-19.506,0-35.319-15.812-35.319-35.319V255.129"/>
<path style="fill:#38C183;" d="M42.922,57.658h426.155c19.506,0,35.319,15.812,35.319,35.319v207.432
	c0,19.506-15.812,35.319-35.319,35.319H42.922c-19.506,0-35.319-15.812-35.319-35.319V92.977
	C7.604,73.471,23.416,57.658,42.922,57.658z"/>
<path style="fill:#49E298;" d="M61.473,243.55c21.156,0,38.307,17.15,38.307,38.307c0,6.491-1.62,12.6-4.469,17.958h321.377
	c-2.849-5.357-4.469-11.467-4.469-17.958c0-21.156,17.151-38.307,38.307-38.307c6.491,0,12.6,1.62,17.958,4.469V145.366
	c-5.357,2.849-11.467,4.469-17.958,4.469c-21.156,0-38.307-17.15-38.307-38.307c0-6.491,1.62-12.6,4.469-17.958H95.311
	c2.849,5.357,4.469,11.467,4.469,17.958c0,21.156-17.15,38.307-38.307,38.307c-6.491,0-12.6-1.62-17.958-4.469v102.653
	C48.873,245.17,54.983,243.55,61.473,243.55z"/>
<circle style="fill:#38C183;" cx="256" cy="196.69" r="70.027"/>
<path d="M469.077,50.054H42.922C19.255,50.054,0,69.309,0,92.977v162.152v45.279v118.616c0,23.668,19.255,42.923,42.922,42.923
	h426.155c23.668,0,42.923-19.255,42.923-42.923V300.409v-36.155V92.977C512,69.309,492.745,50.054,469.077,50.054z M15.208,92.977
	c0-15.282,12.433-27.714,27.714-27.714h426.155c15.282,0,27.715,12.433,27.715,27.714v171.277v36.155
	c0,15.282-12.433,27.714-27.715,27.714H42.922c-15.281,0-27.714-12.433-27.714-27.714V255.13V92.977z M469.077,446.739H42.922
	c-15.281,0-27.714-12.433-27.714-27.715v-85.878c7.484,6.346,17.157,10.184,27.714,10.184h426.155
	c10.557,0,20.231-3.839,27.715-10.184v85.878C496.792,434.306,484.359,446.739,469.077,446.739z"/>
<path d="M39.6,254.536c2.288,1.375,5.13,1.449,7.486,0.196c4.465-2.374,9.305-3.579,14.387-3.579
	c16.929,0,30.703,13.773,30.703,30.703c0,5.081-1.204,9.922-3.579,14.387c-1.253,2.357-1.179,5.198,0.196,7.486
	c1.375,2.288,3.849,3.687,6.518,3.687h321.377c2.669,0,5.143-1.4,6.518-3.688s1.449-5.13,0.195-7.486
	c-2.374-4.464-3.578-9.304-3.578-14.386c0-16.929,13.773-30.703,30.703-30.703c5.081,0,9.922,1.204,14.388,3.579
	c2.357,1.253,5.198,1.179,7.486-0.196c2.288-1.375,3.687-3.849,3.687-6.518V145.365c0-2.669-1.4-5.143-3.688-6.518
	c-2.287-1.375-5.129-1.449-7.486-0.196c-4.465,2.374-9.305,3.578-14.387,3.578c-16.929,0-30.703-13.773-30.703-30.703
	c0-5.081,1.204-9.923,3.578-14.387c1.253-2.356,1.179-5.198-0.196-7.486c-1.374-2.288-3.849-3.688-6.518-3.688H95.311
	c-2.67,0-5.143,1.399-6.518,3.687c-1.375,2.288-1.449,5.13-0.196,7.486c2.374,4.466,3.579,9.306,3.579,14.388
	c0,16.929-13.773,30.703-30.703,30.703c-5.082,0-9.923-1.204-14.386-3.578c-2.358-1.253-5.199-1.179-7.486,0.195
	c-2.288,1.375-3.688,3.849-3.688,6.518v102.653C35.912,250.688,37.312,253.162,39.6,254.536z M51.12,156.253
	c3.386,0.783,6.865,1.185,10.353,1.185c25.315,0,45.911-20.595,45.911-45.911c0-3.488-0.401-6.967-1.185-10.354H405.8
	c-0.783,3.386-1.185,6.865-1.185,10.354c0,25.315,20.595,45.911,45.911,45.911c3.488,0,6.967-0.401,10.354-1.185v80.879
	c-3.386-0.784-6.865-1.185-10.354-1.185c-25.315,0-45.911,20.596-45.911,45.911c0,3.489,0.401,6.966,1.185,10.353H106.199
	c0.783-3.386,1.185-6.865,1.185-10.353c0-25.315-20.596-45.911-45.911-45.911c-3.488,0-6.966,0.401-10.353,1.185v-80.879H51.12z"/>
<path d="M256,274.327c42.808,0,77.634-34.827,77.634-77.635S298.807,119.056,256,119.056c-21.866,0-42.836,9.296-57.532,25.506
	c-2.821,3.112-2.585,7.92,0.526,10.741c3.112,2.822,7.92,2.585,10.741-0.526c11.819-13.036,28.681-20.512,46.265-20.512
	c34.423,0,62.426,28.005,62.426,62.428S290.422,259.119,256,259.119s-62.428-28.005-62.428-62.427
	c0-6.906,1.118-13.688,3.323-20.157c1.356-3.974-0.768-8.295-4.744-9.651c-3.973-1.355-8.295,0.769-9.651,4.744
	c-2.746,8.052-4.138,16.484-4.138,25.064C178.365,239.5,213.192,274.327,256,274.327z"/>
<path d="M362.54,189.333h57.46c4.199,0,7.604-3.405,7.604-7.604c0-4.199-3.405-7.604-7.604-7.604h-57.46
	c-4.199,0-7.604,3.405-7.604,7.604C354.936,185.928,358.34,189.333,362.54,189.333z"/>
<path d="M362.54,219.259h35.912c4.199,0,7.604-3.405,7.604-7.604s-3.405-7.604-7.604-7.604H362.54c-4.199,0-7.604,3.405-7.604,7.604
	S358.34,219.259,362.54,219.259z"/>
<path d="M92,189.333h57.46c4.199,0,7.604-3.405,7.604-7.604c0-4.199-3.405-7.604-7.604-7.604H92c-4.199,0-7.604,3.405-7.604,7.604
	C84.396,185.928,87.8,189.333,92,189.333z"/>
<path d="M149.459,204.051h-35.912c-4.199,0-7.604,3.405-7.604,7.604s3.405,7.604,7.604,7.604h35.912
	c4.199,0,7.604-3.405,7.604-7.604S153.659,204.051,149.459,204.051z"/>
<path d="M68.489,278.477c-1.152-2.878-4.12-4.768-7.203-4.689c-3.102,0.079-5.93,2.109-6.968,5.037
	c-1.065,3.001-0.121,6.416,2.336,8.438c2.549,2.099,6.291,2.28,9.039,0.451C68.661,285.735,69.879,281.772,68.489,278.477z"/>
<path d="M57.256,118.316c2.832,1.912,6.718,1.626,9.267-0.636c2.227-1.977,3.098-5.171,2.187-8.003
	c-0.999-3.102-3.966-5.287-7.237-5.281c-3.276,0.006-6.23,2.172-7.235,5.281C53.209,112.858,54.459,116.473,57.256,118.316z"/>
<path d="M447.238,273.935c-3.175,0.607-5.649,3.316-6.054,6.507c-0.389,3.07,1.208,6.16,3.929,7.629
	c2.724,1.471,6.161,1.122,8.526-0.883c2.536-2.151,3.386-5.81,2.049-8.856C454.276,275.118,450.686,273.228,447.238,273.935z"/>
<path d="M441.702,114.911c1.246,2.953,4.286,4.88,7.501,4.677c2.927-0.184,5.57-2.11,6.617-4.853
	c2.465-6.454-4.593-12.689-10.674-9.44C441.696,107.136,440.295,111.309,441.702,114.911z"/>
<path d="M472.299,417.108H37.375c-4.199,0-7.604,3.405-7.604,7.604c0,4.199,3.405,7.604,7.604,7.604H472.3
	c4.199,0,7.604-3.405,7.604-7.604C479.904,420.513,476.499,417.108,472.299,417.108z"/>
<path d="M472.299,387.219H37.375c-4.199,0-7.604,3.405-7.604,7.604c0,4.199,3.405,7.604,7.604,7.604H472.3
	c4.199,0,7.604-3.405,7.604-7.604C479.904,390.623,476.499,387.219,472.299,387.219z"/>
<path d="M37.375,372.538h284.528c4.199,0,7.604-3.405,7.604-7.604s-3.405-7.604-7.604-7.604H37.375
	c-4.199,0-7.604,3.405-7.604,7.604S33.176,372.538,37.375,372.538z"/>
<path d="M472.299,357.33H347.251c-4.199,0-7.604,3.405-7.604,7.604s3.405,7.604,7.604,7.604h125.049
	c4.199,0,7.604-3.405,7.604-7.604S476.499,357.33,472.299,357.33z"/>
<g>
</g>
<g>
</g>
<g>
</g>
<g>
</g>
<g>
</g>
<g>
</g>
<g>
</g>
<g>
</g>
<g>
</g>
<g>
</g>
<g>
</g>
<g>
</g>
<g>
</g>
<g>
</g>
<g>
</g>
</svg>
