<?xml version="1.0" encoding="iso-8859-1"?>
<!-- Generator: Adobe Illustrator 19.0.0, SVG Export Plug-In . SVG Version: 6.00 Build 0)  -->
<svg version="1.1" id="Capa_1" xmlns="http://www.w3.org/2000/svg" xmlns:xlink="http://www.w3.org/1999/xlink" x="0px" y="0px"
	 viewBox="0 0 512 512" style="enable-background:new 0 0 512 512;" xml:space="preserve">
<path style="fill:#DDDDDD;" d="M475.626,430.366H36.373c-15.889,0-28.77-12.881-28.77-28.77V187.754
	c0-15.889,12.881-28.77,28.77-28.77h439.252c15.889,0,28.77,12.881,28.77,28.77v213.843
	C504.396,417.486,491.515,430.366,475.626,430.366z"/>
<path style="fill:#5997C9;" d="M400.006,112.753c2.283-27.326-31.292-41.918-49.713-21.606
	c-21.52,23.729-43.557,58.641-61.443,99.796c-30.592,70.388-39.55,137.19-24.735,166.484
	c31.525-9.154,74.254-61.278,104.846-131.666C386.847,184.604,397.338,144.675,400.006,112.753z"/>
<path style="fill:#1A6EC1;" d="M382.824,84.047c-2.91-1.125-8.334,3.599-14.569,14.904c-14.701,26.695-32.565,63.417-50.45,104.57
	c-30.598,70.392-51.758,131.893-53.694,153.904c-14.813-29.29-5.85-96.094,24.738-166.486c17.884-41.153,39.926-76.06,61.44-99.794
	C359.475,81.016,372.432,79.566,382.824,84.047z"/>
<circle style="fill:#5997C9;" cx="416.17" cy="253.8" r="18.756"/>
<path d="M81.527,422.763H36.373c-11.671,0-21.165-9.495-21.165-21.165V187.754c0-11.671,9.495-21.165,21.165-21.165h238.893
	c4.2,0,7.604-3.405,7.604-7.604c0-4.199-3.404-7.604-7.604-7.604H36.373C16.317,151.381,0,167.698,0,187.754v213.843
	c0,20.056,16.317,36.373,36.373,36.373h45.153c4.2,0,7.604-3.405,7.604-7.604C89.131,426.167,85.727,422.763,81.527,422.763z"/>
<path d="M475.626,151.381h-11.781c-4.2,0-7.604,3.405-7.604,7.604c0,4.199,3.404,7.604,7.604,7.604h11.781
	c11.672,0,21.166,9.495,21.166,21.165v213.843c0,11.671-9.495,21.165-21.166,21.165H367.021v-132.8c0-4.199-3.404-7.604-7.604-7.604
	s-7.604,3.405-7.604,7.604v132.8H106.875c-4.2,0-7.604,3.405-7.604,7.604c0,4.199,3.404,7.604,7.604,7.604h368.751
	c20.056,0,36.374-16.317,36.374-36.373V187.754C512,167.698,495.682,151.381,475.626,151.381z"/>
<path d="M281.875,187.911c-0.003,0.008-0.006,0.016-0.009,0.024c-29.924,68.858-40.132,136.079-26.078,169.567l-3.674,8.455
	c-1.673,3.852,0.092,8.331,3.944,10.005c0.987,0.429,2.015,0.633,3.026,0.633c2.936,0,5.732-1.71,6.978-4.576l3.672-8.449
	c34.077-12.571,76.267-65.908,106.198-134.776c0-0.001,0.001-0.002,0.001-0.002c0-0.001,0.001-0.003,0.001-0.004
	c15.942-36.683,26.648-73.808,30.621-105.773c9.049,3.608,21.092,9.917,24.937,17.897c1.613,3.349,1.587,6.698-0.082,10.539
	c-2.992,6.887-8.517,14.716-14.368,23.003c-14.795,20.963-33.182,47.023-27.206,80.283c0.18,5.312,1.954,10.617,5.435,15.141
	c5.185,6.739,13.012,10.274,20.922,10.274c5.612,0,11.265-1.779,16.045-5.458c5.581-4.294,9.155-10.504,10.066-17.486
	c0.91-6.982-0.954-13.9-5.248-19.481c-7.622-9.905-20.948-12.884-31.86-7.89c3.649-17.383,14.42-32.66,24.27-46.615
	c6.314-8.944,12.277-17.394,15.892-25.713c3.416-7.862,3.359-15.885-0.166-23.201c-7.269-15.089-27.499-23.689-37.615-27.163
	c-1.08-13.186-9.114-24.594-21.635-30.036c-14.464-6.285-30.666-2.78-41.284,8.927c-5.141,5.67-10.331,11.984-15.425,18.768
	c-2.521,3.359-1.843,8.125,1.515,10.647c3.357,2.52,8.125,1.843,10.646-1.515c4.813-6.41,9.702-12.359,14.53-17.683
	c7.486-8.255,17.284-8.097,23.957-5.196c6.673,2.901,13.474,9.956,12.547,21.061c-0.002,0.029-0.006,0.06-0.009,0.089
	c-0.002,0.033-0.008,0.066-0.01,0.099c-2.569,30.41-12.268,66.874-27.452,103.423l-66.04-28.702
	c8.454-18.629,17.858-36.137,28.02-52.122c2.254-3.544,1.207-8.244-2.338-10.496c-3.542-2.253-8.244-1.208-10.497,2.338
	c-11.836,18.619-22.676,39.19-32.216,61.141C281.884,187.896,281.879,187.903,281.875,187.911z M409.364,244.964
	c4.875-3.75,11.892-2.836,15.641,2.038c3.75,4.874,2.836,11.89-2.038,15.639c-4.874,3.75-11.892,2.836-15.641-2.038
	C403.576,255.731,404.49,248.715,409.364,244.964z M268.348,347.684c-4.292-13.366-4.801-33.225-1.368-57.003
	c3.995-27.661,12.913-58.535,25.873-89.707l66.042,28.703c-13.949,30.742-30.438,58.325-47.937,80.118
	C295.916,328.528,281.048,341.704,268.348,347.684z"/>
<path d="M154.11,263.603c0-4.199-3.404-7.604-7.604-7.604H39.037c-4.2,0-7.604,3.405-7.604,7.604c0,4.199,3.404,7.604,7.604,7.604
	h107.469C150.706,271.207,154.11,267.803,154.11,263.603z"/>
<path d="M227.108,300.101c0-4.199-3.404-7.604-7.604-7.604H95.721c-4.2,0-7.604,3.405-7.604,7.604c0,4.199,3.404,7.604,7.604,7.604
	h123.783C223.704,307.705,227.108,304.301,227.108,300.101z"/>
<path d="M39.037,292.497c-4.2,0-7.604,3.405-7.604,7.604c0,4.199,3.404,7.604,7.604,7.604h31.335c4.2,0,7.604-3.405,7.604-7.604
	c0-4.199-3.404-7.604-7.604-7.604H39.037z"/>
<path d="M236.431,386.985c-3.993,3.993-5.976,4.439-6.313,4.486c-2.648-1.286-6.348-12.38-8.132-17.736
	c-3.072-9.218-5.975-17.925-11.299-23.25c-3.525-3.524-7.338-5.083-11.344-4.639c-6.817,0.759-10.544,6.655-14.491,12.898
	c-5.125,8.108-9.276,13.846-16.04,13.846c-4.2,0-7.604,3.405-7.604,7.604s3.404,7.604,7.604,7.604
	c15.665,0,23.627-12.594,28.895-20.928c0.892-1.411,2.073-3.28,3.068-4.637c2.464,3.348,4.747,10.196,6.784,16.31
	c4.134,12.401,8.408,25.224,19.086,27.744c1.171,0.276,2.319,0.4,3.438,0.4c8.152-0.001,14.747-6.593,17.104-8.951
	c2.97-2.97,2.97-7.784,0-10.753C244.216,384.017,239.402,384.017,236.431,386.985z"/>
<path d="M390.847,397.939h82.123c4.2,0,7.604-3.405,7.604-7.604c0-4.199-3.404-7.604-7.604-7.604h-82.123
	c-4.2,0-7.604,3.405-7.604,7.604C383.243,394.534,386.646,397.939,390.847,397.939z"/>
<path d="M390.847,364.481h38.527c4.2,0,7.604-3.405,7.604-7.604c0-4.199-3.404-7.604-7.604-7.604h-38.527
	c-4.2,0-7.604,3.405-7.604,7.604C383.243,361.077,386.646,364.481,390.847,364.481z"/>
<g>
</g>
<g>
</g>
<g>
</g>
<g>
</g>
<g>
</g>
<g>
</g>
<g>
</g>
<g>
</g>
<g>
</g>
<g>
</g>
<g>
</g>
<g>
</g>
<g>
</g>
<g>
</g>
<g>
</g>
</svg>
