<?xml version="1.0" encoding="iso-8859-1"?>
<!-- Generator: Adobe Illustrator 19.0.0, SVG Export Plug-In . SVG Version: 6.00 Build 0)  -->
<svg version="1.1" id="Capa_1" xmlns="http://www.w3.org/2000/svg" xmlns:xlink="http://www.w3.org/1999/xlink" x="0px" y="0px"
	 viewBox="0 0 512 512" style="enable-background:new 0 0 512 512;" xml:space="preserve">
<path style="fill:#F4B74A;" d="M314.392,77.848c0,0.284,0,0.568-0.01,0.852c-0.142,12.085-3.346,23.43-8.881,33.295l-114.637,10.828
	c-6.935-8.243-11.994-18.118-14.539-28.956c-1.206-5.15-1.845-10.514-1.845-16.019c0-38.638,31.328-69.956,69.956-69.956
	C283.073,7.892,314.392,39.209,314.392,77.848z"/>
<path style="fill:#E05F5F;" d="M504.396,251.682v111.763h-51.869c-6.955,22.183-17.59,42.722-31.2,60.925v79.741h-88.236v-62.047
	l-1.774,0.665c-23.618,8.834-48.437,13.245-73.242,13.245c-25.432,0-50.864-4.632-74.991-13.91v62.047H94.847V424.37
	c-8.6-11.496-16.011-23.931-22.052-37.11l-10.113-26.985c-5.884-14.223-8.534-29.255-9.343-43.414
	c-1.827-32.36,6.133-64.513,21.988-92.776c5.063-9.043,10.987-18.765,17.016-26.881c26.424-35.623,61.838-61.081,100.932-75.278
	c59.92-21.792,128.517-17.12,186.728,17.969c2.636,1.592,4.488,2.792,5.389,3.51c9.943-14.537,26.685-24.075,45.632-24.075h10.883
	v95.243c5.65,11.783,10.218,24.205,13.532,37.11h48.959V251.682z"/>
<path style="fill:#DD9F3A;" d="M314.381,78.7c-0.142,12.085-3.346,23.43-8.881,33.295l-114.637,10.828
	c-6.935-8.243-11.994-18.118-14.539-28.956c5.556-2.565,11.213-4.897,16.952-6.975C231.751,72.9,273.806,69.819,314.381,78.7z"/>
<g>
	<rect x="452.527" y="331.807" style="fill:#CE5151;" width="51.869" height="31.643"/>
	<path style="fill:#CE5151;" d="M333.092,442.064l-1.774,0.665c-23.618,8.834-48.437,13.245-73.242,13.245
		c-25.432,0-50.864-4.632-74.991-13.91v62.047H94.847V424.37c-8.6-11.496-16.011-23.931-22.052-37.11l-10.113-26.985
		c-5.884-14.223-8.534-29.255-9.343-43.414c-1.827-32.36,6.133-64.513,21.988-92.776c5.063-9.043,10.987-18.765,17.016-26.881
		c26.424-35.623,61.838-61.081,100.932-75.278c0,0-104.032,105.395-84.725,190.773C137.907,442.533,239.245,442.064,333.092,442.064
		z"/>
</g>
<path style="fill:#2E3842;" d="M397.268,302.403L397.268,302.403c-8.819,0-15.967-7.149-15.967-15.967v-30.415
	c0-8.819,7.149-15.967,15.967-15.967l0,0c8.819,0,15.967,7.149,15.967,15.967v30.415
	C413.236,295.255,406.087,302.403,397.268,302.403z"/>
<path d="M504.396,244.078h-43.15c-3.064-10.656-7-21.126-11.737-31.219v-22.983c0-4.199-3.404-7.604-7.604-7.604
	s-7.604,3.405-7.604,7.604v24.696c0,1.139,0.256,2.262,0.747,3.288c5.37,11.197,9.663,22.911,12.784,34.83v27.413
	c0,4.199,3.404,7.604,7.604,7.604c4.2,0,7.604-3.405,7.604-7.604v-20.817h33.752v96.555h-36.661v-24.036
	c0-4.199-3.404-7.604-7.604-7.604c-4.2,0-7.604,3.405-7.604,7.604v30.436c-6.623,20.707-16.602,40.074-29.686,57.574
	c-0.983,1.315-1.514,2.912-1.514,4.553v72.137h-73.027v-54.443c0-2.494-1.223-4.829-3.274-6.25c-2.049-1.419-4.666-1.746-7.001-0.87
	l-1.768,0.663c-22.642,8.469-46.387,12.762-70.578,12.762c-24.821,0-49.134-4.51-72.263-13.403
	c-2.337-0.898-4.969-0.589-7.034,0.829c-2.065,1.418-3.299,3.762-3.299,6.268v54.443h-73.028v-72.137
	c0-1.642-0.531-3.24-1.516-4.555c-8.316-11.116-15.458-23.135-21.228-35.724c-1.751-3.818-6.264-5.492-10.081-3.743
	c-3.817,1.75-5.493,6.264-3.743,10.081c5.866,12.796,13.046,25.045,21.361,36.445v77.238c0,4.199,3.405,7.604,7.604,7.604h88.235
	c4.199,0,7.604-3.405,7.604-7.604v-51.271c21.746,7.13,44.365,10.738,67.388,10.738c23.007,0,45.64-3.611,67.413-10.748v51.281
	c0,4.199,3.404,7.604,7.604,7.604h88.235c4.2,0,7.604-3.405,7.604-7.604V426.87c12.49-17.127,22.261-35.871,29.103-55.823h46.362
	c4.2,0,7.604-3.405,7.604-7.604V251.682C512,247.483,508.596,244.078,504.396,244.078z"/>
<path d="M69.708,357.367c-4.957-11.979-7.91-25.753-8.777-40.935c-1.716-30.398,5.555-61.045,21.03-88.633
	c5.837-10.424,11.384-19.192,16.488-26.065c24.762-33.383,58.449-58.509,97.424-72.662c60.029-21.831,125.71-15.513,180.199,17.331
	c3.466,2.094,4.426,2.824,4.583,2.949c1.654,1.316,3.778,1.889,5.867,1.571c2.09-0.314,3.953-1.482,5.146-3.226
	c8.893-13.002,23.605-20.764,39.355-20.764h3.278v37.595c0,4.199,3.404,7.604,7.604,7.604s7.604-3.405,7.604-7.604v-45.199
	c0-4.199-3.404-7.604-7.604-7.604h-10.882c-18.275,0-35.489,7.921-47.351,21.502c-58.397-35.096-128.724-41.822-192.994-18.449
	c-41.783,15.173-77.899,42.11-104.441,77.891c-5.489,7.39-11.393,16.709-17.543,27.695c-10.392,18.526-17.38,38.342-20.791,58.602
	c-6.323,0.746-17.436,1.014-24.745-4.692c-5.275-4.118-7.95-11.16-7.95-20.929c0-4.199-3.405-7.604-7.604-7.604S0,249.145,0,253.345
	c0,14.693,4.642,25.767,13.798,32.916c8.504,6.64,19.197,8.296,27.753,8.296c1.57,0,3.066-0.057,4.465-0.148
	c-0.59,7.611-0.7,15.254-0.269,22.885c0.965,16.891,4.299,32.33,9.908,45.887c1.213,2.93,4.044,4.698,7.029,4.698
	c0.969,0,1.954-0.187,2.905-0.58C69.47,365.694,71.313,361.247,69.708,357.367z"/>
<path d="M420.84,286.436v-30.415c0-12.997-10.575-23.571-23.572-23.571c-12.997,0-23.571,10.575-23.571,23.571v30.415
	c0,12.998,10.575,23.572,23.571,23.572C410.266,310.007,420.84,299.434,420.84,286.436z M405.632,286.436
	c0,4.612-3.752,8.364-8.364,8.364s-8.363-3.752-8.363-8.364v-30.415c0-4.611,3.751-8.363,8.363-8.363s8.364,3.752,8.364,8.363
	V286.436z"/>
<path d="M179.389,111.226c0.933,0,1.881-0.172,2.8-0.537c3.904-1.548,5.813-5.967,4.266-9.871
	c-2.902-7.318-4.373-15.046-4.373-22.97c0-34.381,27.971-62.352,62.352-62.352s62.352,27.971,62.352,62.352
	c0,3.554-0.297,7.08-0.883,10.48c-0.713,4.139,2.064,8.071,6.203,8.784c4.147,0.714,8.072-2.064,8.785-6.203
	c0.732-4.25,1.103-8.645,1.103-13.062c0-42.767-34.793-77.56-77.56-77.56c-42.767,0-77.56,34.794-77.56,77.56
	c0,9.852,1.831,19.465,5.442,28.575C173.5,109.407,176.362,111.226,179.389,111.226z"/>
<path d="M365.501,380.857c-4.2,0-7.604,3.405-7.604,7.604s3.404,7.604,7.604,7.604c22.828,0,41.399-18.571,41.399-41.399
	s-18.571-41.399-41.399-41.399c-4.2,0-7.604,3.405-7.604,7.604c0,4.199,3.404,7.604,7.604,7.604
	c14.441,0,26.191,11.75,26.191,26.191S379.944,380.857,365.501,380.857z"/>
<g>
</g>
<g>
</g>
<g>
</g>
<g>
</g>
<g>
</g>
<g>
</g>
<g>
</g>
<g>
</g>
<g>
</g>
<g>
</g>
<g>
</g>
<g>
</g>
<g>
</g>
<g>
</g>
<g>
</g>
</svg>
