<?xml version="1.0" encoding="iso-8859-1"?>
<!-- Generator: Adobe Illustrator 19.0.0, SVG Export Plug-In . SVG Version: 6.00 Build 0)  -->
<svg version="1.1" id="Capa_1" xmlns="http://www.w3.org/2000/svg" xmlns:xlink="http://www.w3.org/1999/xlink" x="0px" y="0px"
	 viewBox="0 0 512 512" style="enable-background:new 0 0 512 512;" xml:space="preserve">
<path style="fill:#C17F49;" d="M455.306,365.842c0-110.074-89.233-219.39-199.307-219.39S56.693,255.767,56.693,365.842
	s89.233,138.554,199.307,138.554S455.306,475.916,455.306,365.842z"/>
<path style="fill:#A56637;" d="M255.997,504.395c-110.075,0-199.305-28.479-199.305-138.554s89.23-219.389,199.305-219.389
	c-64.897,0-117.517,109.315-117.517,219.389S191.1,504.395,255.997,504.395z"/>
<path style="fill:#C17F49;" d="M288.903,78.734c0-17.056,29.631-25.18,29.631-71.13h-125.07c0,45.951,29.631,54.074,29.631,71.13"/>
<path style="fill:#A56637;" d="M243.613,78.735h-20.528c0-17.053-29.622-25.184-29.622-71.133h38.991
	C232.456,53.551,243.613,61.682,243.613,78.735z"/>
<g>
	<path style="fill:#467EB7;" d="M288.565,112.592h-65.13c-9.35,0-16.928,7.58-16.928,16.928l0,0c0,9.35,7.58,16.928,16.928,16.928
		h65.131c9.35,0,16.929-7.58,16.929-16.928l0,0C305.494,120.172,297.915,112.592,288.565,112.592z"/>
	<path style="fill:#467EB7;" d="M288.565,78.734h-65.13c-9.35,0-16.928,7.58-16.928,16.928l0,0c0,9.35,7.58,16.928,16.928,16.928
		h65.131c9.35,0,16.929-7.58,16.929-16.928l0,0C305.494,86.314,297.915,78.734,288.565,78.734z"/>
</g>
<g>
	<path style="fill:#1A6EC1;" d="M239.425,141.493c3.062,3.062,7.3,4.958,11.974,4.958h-27.962c-4.674,0-8.912-1.896-11.974-4.958
		c-3.062-3.072-4.958-7.3-4.958-11.974c0-9.348,7.584-16.931,16.931-16.931h27.962c-9.348,0-16.931,7.584-16.931,16.931
		C234.467,134.194,236.363,138.421,239.425,141.493z"/>
	<path style="fill:#1A6EC1;" d="M239.425,107.631c3.062,3.062,7.3,4.958,11.974,4.958h-27.962c-4.674,0-8.912-1.896-11.974-4.958
		c-3.062-3.062-4.958-7.29-4.958-11.964c0-9.358,7.584-16.931,16.931-16.931h27.962c-9.348,0-16.931,7.574-16.931,16.931
		C234.467,100.341,236.363,104.569,239.425,107.631z"/>
</g>
<path d="M234.93,359.456c0-4.199-3.405-7.604-7.604-7.604s-7.604,3.405-7.604,7.604c0,15.103,12.308,27.753,28.672,30.796v2.655
	c0,4.199,3.405,7.604,7.604,7.604c4.199,0,7.604-3.405,7.604-7.604v-2.655c16.364-3.044,28.673-15.693,28.673-30.796
	c0-15.104-12.309-27.753-28.673-30.796v-32.167c7.866,2.365,13.465,8.267,13.465,15.175c0,4.199,3.405,7.604,7.604,7.604
	c4.199,0,7.604-3.405,7.604-7.604c0-15.103-12.309-27.753-28.673-30.796v-2.655c0-4.199-3.405-7.604-7.604-7.604
	c-4.199,0-7.604,3.405-7.604,7.604v2.655c-16.364,3.044-28.672,15.693-28.672,30.796s12.308,27.752,28.672,30.796v32.167
	C240.53,372.267,234.93,366.364,234.93,359.456z M277.069,359.456c0,6.907-5.6,12.81-13.465,15.175v-30.35
	C271.469,346.646,277.069,352.549,277.069,359.456z M234.93,311.669c0-6.907,5.599-12.81,13.464-15.175v30.35
	C240.53,324.478,234.93,318.577,234.93,311.669z"/>
<path d="M419.437,231.31c-2.4-3.447-7.139-4.297-10.585-1.897c-3.447,2.4-4.296,7.139-1.897,10.585
	c26.276,37.749,40.748,82.441,40.748,125.842c-0.001,89.34-60.916,130.951-191.704,130.951S64.297,455.181,64.297,365.842
	c0-51.862,20.588-105.061,56.486-145.956c37.263-42.451,85.285-65.83,135.217-65.83c25.703,0,50.909,6.18,74.918,18.371
	c22.813,11.583,43.485,27.991,61.438,48.767c2.746,3.176,7.548,3.527,10.726,0.782c3.177-2.746,3.527-7.548,0.782-10.726
	c-19.252-22.278-41.478-39.902-66.06-52.383c-10.256-5.207-20.724-9.393-31.353-12.577c4.118-4.39,6.648-10.287,6.648-16.767
	c0-6.561-2.593-12.522-6.802-16.929c4.21-4.406,6.802-10.369,6.802-16.929c0-10.015-6.035-18.642-14.656-22.45
	c1.328-2.145,3.31-4.61,5.865-7.725c9.214-11.23,21.831-26.61,21.831-57.884c0-4.199-3.405-7.604-7.604-7.604h-125.07
	c-4.199,0-7.604,3.405-7.604,7.604c0,31.275,12.618,46.655,21.83,57.885c2.556,3.116,4.537,5.58,5.866,7.725
	c-8.622,3.808-14.656,12.435-14.656,22.45c0,6.561,2.593,12.522,6.802,16.929c-4.21,4.406-6.802,10.369-6.802,16.929
	c0,6.479,2.529,12.374,6.646,16.764c-10.346,3.099-20.542,7.152-30.537,12.169c-24.364,12.229-46.453,29.521-65.656,51.397
	c-38.299,43.631-60.265,100.487-60.265,155.99c0,53.844,20.917,93.254,62.17,117.135C144.993,502.506,192.339,512,255.999,512
	c63.661,0,111.006-9.494,144.742-29.023c41.253-23.88,62.17-63.291,62.17-117.135C462.91,319.363,447.471,271.586,419.437,231.31z
	 M214.109,95.664c0-5.142,4.183-9.325,9.326-9.325h65.131c5.142,0,9.326,4.183,9.326,9.325s-4.183,9.325-9.326,9.325h-65.131
	C218.292,104.988,214.109,100.805,214.109,95.664z M201.383,15.208h109.233c-1.774,20.776-10.725,31.687-18.066,40.636
	c-4.063,4.952-7.958,9.715-9.924,15.287h-53.254c-1.965-5.572-5.861-10.335-9.924-15.287
	C212.107,46.895,203.157,35.984,201.383,15.208z M223.434,138.846c-5.142,0-9.326-4.183-9.326-9.326
	c0-5.142,4.183-9.326,9.326-9.326h65.131c5.142,0,9.326,4.183,9.326,9.326c0,5.142-4.183,9.326-9.326,9.326H223.434z"/>
<path d="M184.783,383.573c-2.351-3.48-7.077-4.394-10.558-2.044c-3.48,2.351-4.395,7.078-2.044,10.558
	c18.852,27.903,50.186,44.563,83.818,44.563c55.74,0,101.088-45.348,101.088-101.087S311.74,234.476,255.999,234.476
	s-101.087,45.348-101.087,101.087c0,10.245,1.53,20.358,4.546,30.057c1.247,4.011,5.509,6.248,9.519,5.002
	c4.01-1.247,6.249-5.509,5.002-9.519c-2.561-8.236-3.86-16.828-3.86-25.54c0-47.354,38.526-85.879,85.879-85.879
	c47.354,0,85.88,38.526,85.88,85.879s-38.526,85.879-85.88,85.879C227.425,421.442,200.802,407.285,184.783,383.573z"/>
<g>
</g>
<g>
</g>
<g>
</g>
<g>
</g>
<g>
</g>
<g>
</g>
<g>
</g>
<g>
</g>
<g>
</g>
<g>
</g>
<g>
</g>
<g>
</g>
<g>
</g>
<g>
</g>
<g>
</g>
</svg>
