<?xml version="1.0" encoding="iso-8859-1"?>
<!-- Generator: Adobe Illustrator 19.0.0, SVG Export Plug-In . SVG Version: 6.00 Build 0)  -->
<svg version="1.1" id="Capa_1" xmlns="http://www.w3.org/2000/svg" xmlns:xlink="http://www.w3.org/1999/xlink" x="0px" y="0px"
	 viewBox="0 0 512.001 512.001" style="enable-background:new 0 0 512.001 512.001;" xml:space="preserve">
<path style="fill:#38C183;" d="M304.881,231.079H29.589c-12.136,0-21.974-9.838-21.974-21.974V69.895
	c0-12.136,9.838-21.974,21.974-21.974h275.292c12.136,0,21.974,9.838,21.974,21.974v139.21
	C326.855,221.242,317.017,231.079,304.881,231.079z"/>
<path style="fill:#49E298;" d="M288.263,110.347c-13.162,0-23.833-10.671-23.833-23.833c0-4.038,1.008-7.839,2.78-11.172H67.261
	c1.773,3.333,2.78,7.134,2.78,11.172c0,13.162-10.671,23.833-23.833,23.833c-4.038,0-7.839-1.008-11.172-2.78v63.867
	c3.333-1.773,7.135-2.78,11.172-2.78c13.162,0,23.833,10.671,23.833,23.833c0,4.038-1.008,7.839-2.78,11.172h199.949
	c-1.773-3.333-2.78-7.135-2.78-11.172c0-13.162,10.671-23.833,23.833-23.833c4.038,0,7.839,1.008,11.172,2.78v-63.867
	C296.102,109.34,292.3,110.347,288.263,110.347z"/>
<circle style="fill:#38C183;" cx="167.24" cy="139.502" r="43.571"/>
<path style="fill:#467EB7;" d="M504.388,302.892V442.1c0,12.143-9.838,21.981-21.981,21.981H207.119
	c-12.133,0-21.971-9.838-21.971-21.981V302.892c0-12.133,9.838-21.971,21.971-21.971h275.288
	C494.55,280.922,504.388,290.76,504.388,302.892z"/>
<path style="fill:#DDDDDD;" d="M299.44,280.922v183.16h-92.321c-12.133,0-21.971-9.838-21.971-21.981V302.893
	c0-12.133,9.838-21.971,21.971-21.971L299.44,280.922L299.44,280.922z"/>
<path d="M304.881,238.695c16.315,0,29.589-13.274,29.589-29.589V69.895c0-16.315-13.273-29.589-29.589-29.589H29.589
	C13.274,40.306,0,53.58,0,69.895v72.17c0,4.205,3.409,7.615,7.615,7.615s7.615-3.409,7.615-7.615v-72.17
	c0-7.917,6.442-14.359,14.359-14.359h275.292c7.917,0,14.359,6.441,14.359,14.359v139.21c0,7.917-6.441,14.359-14.359,14.359H29.589
	c-7.917,0-14.359-6.442-14.359-14.359v-41.656c0-4.205-3.409-7.615-7.615-7.615S0,163.244,0,167.449v41.656
	c0,16.315,13.274,29.589,29.589,29.589h275.292V238.695z"/>
<path d="M46.207,102.732c-2.684,0-5.24-0.636-7.596-1.888c-2.361-1.254-5.204-1.181-7.497,0.196
	c-2.292,1.377-3.693,3.854-3.693,6.527v63.867c0,2.673,1.401,5.151,3.693,6.527c2.292,1.377,5.138,1.452,7.497,0.196
	c2.358-1.254,4.913-1.889,7.596-1.889c8.943,0,16.218,7.276,16.218,16.218c0,2.684-0.636,5.24-1.888,7.596
	c-1.255,2.361-1.181,5.205,0.196,7.497s3.854,3.693,6.527,3.693h199.949c2.673,0,5.151-1.401,6.527-3.693s1.451-5.137,0.196-7.497
	c-1.253-2.357-1.888-4.912-1.888-7.596c0-8.943,7.276-16.218,16.218-16.218c2.684,0,5.24,0.636,7.596,1.888
	c2.36,1.255,5.205,1.181,7.497-0.195c2.292-1.377,3.694-3.854,3.694-6.527v-63.867c0-2.673-1.402-5.151-3.694-6.527
	c-2.291-1.377-5.136-1.451-7.497-0.196c-2.357,1.253-4.912,1.888-7.596,1.888c-8.943,0-16.218-7.276-16.218-16.218
	c0-2.684,0.636-5.24,1.888-7.596c1.255-2.361,1.181-5.205-0.196-7.497s-3.854-3.693-6.527-3.693H67.261
	c-2.673,0-5.151,1.402-6.527,3.693s-1.451,5.136-0.196,7.497c1.253,2.357,1.888,4.912,1.888,7.596
	C62.426,95.456,55.15,102.732,46.207,102.732z M77.655,86.514c0-1.19-0.068-2.378-0.203-3.558h179.566
	c-0.135,1.18-0.203,2.368-0.203,3.558c0,17.34,14.108,31.448,31.448,31.448c1.19,0,2.378-0.068,3.558-0.203v43.483
	c-1.18-0.135-2.368-0.203-3.558-0.203c-17.34,0-31.448,14.108-31.448,31.448c0,1.19,0.068,2.378,0.203,3.558H77.452
	c0.135-1.18,0.203-2.368,0.203-3.558c0-17.34-14.108-31.448-31.448-31.448c-1.19,0-2.378,0.068-3.558,0.203v-43.483
	c1.18,0.135,2.368,0.203,3.558,0.203C63.548,117.961,77.655,103.854,77.655,86.514z"/>
<path d="M167.235,190.686c28.224,0,51.186-22.962,51.186-51.186s-22.962-51.185-51.186-51.185
	c-28.223,0-51.185,22.962-51.185,51.185C116.05,167.724,139.012,190.686,167.235,190.686z M167.235,103.544
	c19.827,0,35.957,16.13,35.957,35.956c0,19.827-16.13,35.957-35.957,35.957c-19.826,0-35.956-16.13-35.956-35.957
	C131.279,119.674,147.409,103.544,167.235,103.544z"/>
<path d="M482.412,273.306h-87.674c-4.205,0-7.615,3.409-7.615,7.615c0,4.205,3.409,7.615,7.615,7.615h87.674
	c7.917,0,14.359,6.441,14.359,14.359v139.211c0,7.917-6.441,14.359-14.359,14.359H307.059V288.536h62.296
	c4.205,0,7.615-3.409,7.615-7.615c0-4.205-3.409-7.615-7.615-7.615H207.12c-16.315,0-29.589,13.273-29.589,29.589v139.211
	c0,16.315,13.274,29.589,29.589,29.589h275.292c16.315,0,29.589-13.273,29.589-29.589V302.894
	C512,286.579,498.727,273.306,482.412,273.306z M192.76,442.105V302.894c0-7.917,6.442-14.359,14.359-14.359h84.709v167.928h-84.709
	C199.202,456.464,192.76,450.023,192.76,442.105z"/>
<path d="M468.48,424.103H326.859c-4.205,0-7.615,3.409-7.615,7.615c0,4.205,3.409,7.615,7.615,7.615h141.622
	c4.205,0,7.615-3.409,7.615-7.615C476.096,427.512,472.686,424.103,468.48,424.103z"/>
<path d="M276.09,424.103h-52.793c-4.205,0-7.615,3.409-7.615,7.615c0,4.205,3.409,7.615,7.615,7.615h52.793
	c4.205,0,7.615-3.409,7.615-7.615C283.705,427.512,280.296,424.103,276.09,424.103z"/>
<path d="M223.299,411.92h37.564c4.205,0,7.615-3.409,7.615-7.615c0-4.205-3.409-7.615-7.615-7.615h-37.564
	c-4.205,0-7.615,3.409-7.615,7.615C215.684,408.511,219.093,411.92,223.299,411.92z"/>
<path d="M440.239,316.19c7.624,0,14.939,3.792,20.599,10.68c2.669,3.249,7.468,3.719,10.717,1.049
	c3.249-2.67,3.719-7.469,1.049-10.717c-8.606-10.472-20.1-16.24-32.365-16.24c-20.121,0-37.23,15.863-43.283,37.802h-3.395
	c-4.205,0-7.615,3.409-7.615,7.615c0,4.205,3.409,7.615,7.615,7.615h1.092c-0.024,0.746-0.047,1.492-0.047,2.246
	c0,2.483,0.149,4.925,0.412,7.322h-1.458c-4.205,0-7.615,3.409-7.615,7.615c0,4.205,3.409,7.615,7.615,7.615h5.032
	c7.139,19.266,23.114,32.725,41.648,32.725c12.266,0,23.76-5.768,32.365-16.241c2.67-3.25,2.2-8.048-1.049-10.717
	c-3.25-2.669-8.048-2.2-10.717,1.049c-5.659,6.887-12.974,10.68-20.599,10.68c-10.42,0-19.629-6.942-25.109-17.496h26.946
	c4.205,0,7.615-3.409,7.615-7.615c0-4.205-3.409-7.615-7.615-7.615h-31.723c-0.335-2.376-0.519-4.821-0.519-7.322
	c0-0.754,0.019-1.503,0.051-2.246h32.19c4.205,0,7.615-3.409,7.615-7.615c0-4.205-3.409-7.615-7.615-7.615h-29.188
	C417.824,325.413,428.228,316.19,440.239,316.19z"/>
<path d="M358.325,134.429c49.543,0,89.849,40.306,89.849,89.849v7l-9.502-9.502c-2.973-2.974-7.794-2.974-10.768,0
	c-2.974,2.974-2.974,7.795,0,10.768l22.501,22.502c1.428,1.429,3.365,2.231,5.384,2.231s3.957-0.802,5.384-2.231l22.502-22.502
	c2.974-2.974,2.974-7.795,0-10.768c-2.974-2.974-7.795-2.974-10.768,0l-9.502,9.502v-7c0-57.94-47.138-105.078-105.078-105.078
	c-4.205,0-7.615,3.409-7.615,7.615C350.712,131.019,354.12,134.429,358.325,134.429z"/>
<path d="M153.65,379.094c-49.543,0-89.849-40.306-89.849-89.849v-7l9.502,9.502c2.974,2.975,7.795,2.974,10.768,0
	c2.974-2.974,2.974-7.795,0-10.768l-22.501-22.502c-1.428-1.429-3.365-2.231-5.384-2.231s-3.957,0.802-5.384,2.231L28.3,280.979
	c-2.974,2.974-2.974,7.795,0,10.768c1.486,1.486,3.436,2.231,5.384,2.231c1.948,0,3.898-0.743,5.384-2.231l9.502-9.502v7
	c0,57.94,47.138,105.078,105.078,105.078c4.205,0,7.615-3.409,7.615-7.615C161.264,382.504,157.856,379.094,153.65,379.094z"/>
<g>
</g>
<g>
</g>
<g>
</g>
<g>
</g>
<g>
</g>
<g>
</g>
<g>
</g>
<g>
</g>
<g>
</g>
<g>
</g>
<g>
</g>
<g>
</g>
<g>
</g>
<g>
</g>
<g>
</g>
</svg>
