<?xml version="1.0" encoding="iso-8859-1"?>
<!-- Generator: Adobe Illustrator 19.0.0, SVG Export Plug-In . SVG Version: 6.00 Build 0)  -->
<svg version="1.1" id="Capa_1" xmlns="http://www.w3.org/2000/svg" xmlns:xlink="http://www.w3.org/1999/xlink" x="0px" y="0px"
	 viewBox="0 0 512.001 512.001" style="enable-background:new 0 0 512.001 512.001;" xml:space="preserve">
<path style="fill:#467EB7;" d="M378.234,37.222V210.44c0,15.39-12.481,27.871-27.881,27.871h-284.5
	c-15.401,0-27.881-12.481-27.881-27.871V37.222c0-15.401,12.481-27.881,27.881-27.881h284.5
	C365.754,9.341,378.234,21.821,378.234,37.222z"/>
<path style="fill:#5997C9;" d="M378.234,37.222V210.44c0,15.39-12.481,27.871-27.881,27.871H87.104l228.97-228.97h34.279
	C365.754,9.341,378.234,21.821,378.234,37.222z"/>
<path style="fill:#F4B74A;" d="M126.574,91.801H82.808c-6.019,0-10.899-4.88-10.899-10.899v-21.46
	c0-6.019,4.88-10.899,10.899-10.899h43.765c6.019,0,10.899,4.88,10.899,10.899v21.46C137.473,86.921,132.593,91.801,126.574,91.801z
	"/>
<path style="fill:#38C183;" d="M469.077,440.12H42.923c-19.506,0-35.319-15.812-35.319-35.319V197.369
	c0-19.506,15.812-35.319,35.319-35.319h426.155c19.506,0,35.319,15.812,35.319,35.319v207.432
	C504.396,424.307,488.583,440.12,469.077,440.12z"/>
<path style="fill:#49E298;" d="M450.527,254.228c-21.156,0-38.307-17.15-38.307-38.307c0-6.491,1.62-12.6,4.469-17.958H95.311
	c2.849,5.357,4.469,11.467,4.469,17.958c0,21.156-17.15,38.307-38.307,38.307c-6.491,0-12.6-1.62-17.958-4.469v102.654
	c5.357-2.849,11.467-4.469,17.958-4.469c21.156,0,38.307,17.15,38.307,38.307c0,6.491-1.62,12.6-4.469,17.958h321.377
	c-2.849-5.357-4.469-11.467-4.469-17.958c0-21.156,17.151-38.307,38.307-38.307c6.491,0,12.6,1.62,17.958,4.469V249.759
	C463.127,252.608,457.016,254.228,450.527,254.228z"/>
<circle style="fill:#38C183;" cx="256" cy="301.087" r="70.027"/>
<circle style="fill:#F4B74A;" cx="365.487" cy="389.101" r="113.563"/>
<path style="fill:#FFD488;" d="M445.783,389.103c0,44.346-35.952,80.298-80.298,80.298c-21.251,0-40.575-8.263-54.931-21.747
	c-10.534-9.865-18.391-22.548-22.396-36.854c-1.936-6.894-2.971-14.174-2.971-21.697c0-44.346,35.952-80.298,80.298-80.298
	c7.523,0,14.802,1.034,21.697,2.971c14.306,4.005,26.989,11.862,36.854,22.396C437.53,348.528,445.783,367.852,445.783,389.103z"/>
<path style="fill:#F9C662;" d="M424.035,334.172L310.554,447.653c-10.534-9.865-18.391-22.548-22.396-36.854l99.024-99.024
	C401.487,315.78,414.171,323.638,424.035,334.172z"/>
<path d="M37.972,145.7c4.2,0,7.604-3.405,7.604-7.604V37.221c0-11.18,9.096-20.276,20.276-20.276h284.506
	c11.18,0,20.276,9.095,20.276,20.276v100.875c0,4.199,3.404,7.604,7.604,7.604s7.604-3.405,7.604-7.604V37.221
	c0-19.565-15.918-35.484-35.484-35.484H65.852c-19.567,0-35.484,15.918-35.484,35.484v100.875
	C30.368,142.295,33.773,145.7,37.972,145.7z"/>
<path d="M64.306,123.828v13.259c0,4.199,3.404,7.604,7.604,7.604s7.604-3.405,7.604-7.604v-13.259c0-4.199-3.404-7.604-7.604-7.604
	S64.306,119.629,64.306,123.828z"/>
<path d="M108.388,123.828v13.259c0,4.199,3.404,7.604,7.604,7.604s7.604-3.405,7.604-7.604v-13.259c0-4.199-3.404-7.604-7.604-7.604
	S108.388,119.629,108.388,123.828z"/>
<path d="M86.348,123.828v13.259c0,4.199,3.404,7.604,7.604,7.604c4.2,0,7.604-3.405,7.604-7.604v-13.259
	c0-4.199-3.404-7.604-7.604-7.604C89.751,116.224,86.348,119.629,86.348,123.828z"/>
<path d="M138.033,116.224c-4.2,0-7.604,3.405-7.604,7.604v13.259c0,4.199,3.404,7.604,7.604,7.604s7.604-3.405,7.604-7.604v-13.259
	C145.637,119.629,142.234,116.224,138.033,116.224z"/>
<path d="M270.572,123.828v13.259c0,4.199,3.404,7.604,7.604,7.604s7.604-3.405,7.604-7.604v-13.259c0-4.199-3.404-7.604-7.604-7.604
	S270.572,119.629,270.572,123.828z"/>
<path d="M314.656,123.828v13.259c0,4.199,3.404,7.604,7.604,7.604s7.604-3.405,7.604-7.604v-13.259c0-4.199-3.404-7.604-7.604-7.604
	S314.656,119.629,314.656,123.828z"/>
<path d="M292.614,123.828v13.259c0,4.199,3.404,7.604,7.604,7.604s7.604-3.405,7.604-7.604v-13.259c0-4.199-3.404-7.604-7.604-7.604
	S292.614,119.629,292.614,123.828z"/>
<path d="M344.301,116.224c-4.2,0-7.604,3.405-7.604,7.604v13.259c0,4.199,3.404,7.604,7.604,7.604c4.2,0,7.604-3.405,7.604-7.604
	v-13.259C351.905,119.629,348.501,116.224,344.301,116.224z"/>
<path d="M167.439,123.828v13.259c0,4.199,3.404,7.604,7.604,7.604s7.604-3.405,7.604-7.604v-13.259c0-4.199-3.404-7.604-7.604-7.604
	S167.439,119.629,167.439,123.828z"/>
<path d="M211.522,123.828v13.259c0,4.199,3.404,7.604,7.604,7.604c4.2,0,7.604-3.405,7.604-7.604v-13.259
	c0-4.199-3.404-7.604-7.604-7.604C214.925,116.224,211.522,119.629,211.522,123.828z"/>
<path d="M189.481,123.828v13.259c0,4.199,3.404,7.604,7.604,7.604c4.2,0,7.604-3.405,7.604-7.604v-13.259
	c0-4.199-3.404-7.604-7.604-7.604C192.884,116.224,189.481,119.629,189.481,123.828z"/>
<path d="M241.167,116.224c-4.2,0-7.604,3.405-7.604,7.604v13.259c0,4.199,3.404,7.604,7.604,7.604c4.2,0,7.604-3.405,7.604-7.604
	v-13.259C248.771,119.629,245.368,116.224,241.167,116.224z"/>
<path d="M145.077,80.902v-21.46c0-10.202-8.3-18.503-18.503-18.503H82.809c-10.202,0-18.503,8.3-18.503,18.503v21.46
	c0,10.202,8.3,18.503,18.503,18.503h43.765C136.777,99.405,145.077,91.105,145.077,80.902z M79.514,80.902v-21.46
	c0-1.817,1.478-3.295,3.295-3.295h43.765c1.817,0,3.295,1.478,3.295,3.295v21.46c0,1.817-1.478,3.295-3.295,3.295H82.809
	C80.992,84.197,79.514,82.719,79.514,80.902z"/>
<path d="M344.301,67.3h-96.219c-4.2,0-7.604,3.405-7.604,7.604c0,4.199,3.404,7.604,7.604,7.604H344.3
	c4.2,0,7.604-3.405,7.604-7.604C351.904,70.705,348.501,67.3,344.301,67.3z"/>
<path d="M344.301,40.263h-68.507c-4.2,0-7.604,3.405-7.604,7.604s3.404,7.604,7.604,7.604h68.507c4.2,0,7.604-3.405,7.604-7.604
	S348.501,40.263,344.301,40.263z"/>
<path d="M469.077,154.448H155.251c-4.2,0-7.604,3.405-7.604,7.604c0,4.199,3.404,7.604,7.604,7.604h313.827
	c15.282,0,27.715,12.433,27.715,27.715v207.432c0,8.154-3.571,15.862-9.798,21.145c-3.202,2.717-3.595,7.516-0.878,10.718
	c1.504,1.772,3.646,2.685,5.802,2.685c1.739,0,3.486-0.593,4.916-1.806c9.639-8.178,15.166-20.112,15.166-32.742V197.369
	C512,173.702,492.745,154.448,469.077,154.448z"/>
<path d="M237.754,432.516H42.923c-15.282,0-27.715-12.433-27.715-27.715V197.369c0-15.282,12.433-27.715,27.715-27.715h86.979
	c4.2,0,7.604-3.405,7.604-7.604s-3.404-7.604-7.604-7.604H42.923C19.255,154.448,0,173.702,0,197.369v207.432
	c0,23.668,19.255,42.922,42.923,42.922h194.831c4.2,0,7.604-3.405,7.604-7.604C245.358,435.92,241.954,432.516,237.754,432.516z"/>
<path d="M423.206,194.047c-1.374-2.288-3.849-3.687-6.518-3.687H95.312c-2.67,0-5.143,1.4-6.518,3.687
	c-1.375,2.288-1.45,5.129-0.196,7.486c2.374,4.465,3.578,9.305,3.578,14.388c0,16.929-13.773,30.703-30.702,30.703
	c-5.082,0-9.923-1.204-14.387-3.578c-2.355-1.253-5.197-1.179-7.486,0.196c-2.288,1.375-3.688,3.849-3.688,6.518v102.653
	c0,2.669,1.4,5.143,3.688,6.518c2.289,1.376,5.131,1.449,7.486,0.196c4.464-2.374,9.305-3.579,14.387-3.579
	c16.928,0,30.702,13.773,30.702,30.703c0,5.081-1.204,9.923-3.578,14.388c-1.253,2.357-1.179,5.198,0.196,7.486
	c1.374,2.288,3.849,3.687,6.518,3.687h131.796c4.2,0,7.604-3.405,7.604-7.604c0-4.199-3.404-7.604-7.604-7.604H106.199
	c0.783-3.387,1.185-6.865,1.185-10.354c0-25.315-20.595-45.911-45.91-45.911c-3.488,0-6.967,0.401-10.354,1.185v-80.879
	c3.386,0.784,6.865,1.185,10.354,1.185c25.315,0,45.91-20.596,45.91-45.911c0-3.489-0.401-6.966-1.185-10.354h299.602
	c-0.783,3.387-1.185,6.865-1.185,10.354c0,25.315,20.595,45.911,45.91,45.911c3.488,0,6.967-0.401,10.354-1.185v38.654
	c0,4.199,3.404,7.604,7.604,7.604s7.604-3.405,7.604-7.604v-49.542c0-2.669-1.4-5.143-3.688-6.518
	c-2.289-1.376-5.131-1.449-7.486-0.196c-4.464,2.374-9.305,3.578-14.387,3.578c-16.928,0-30.702-13.773-30.702-30.703
	c0-5.081,1.204-9.923,3.578-14.388C424.656,199.177,424.581,196.335,423.206,194.047z"/>
<path d="M256,238.659c22.15,0,42.839,11.907,53.996,31.075c2.112,3.63,6.769,4.858,10.396,2.747
	c3.63-2.113,4.859-6.768,2.747-10.397c-13.87-23.829-39.596-38.632-67.139-38.632c-42.809,0-77.635,34.827-77.635,77.635
	c0,33.444,21.296,63.038,52.994,73.64c0.8,0.268,1.613,0.394,2.413,0.394c3.18,0,6.146-2.012,7.21-5.194
	c1.332-3.982-0.816-8.291-4.799-9.624c-25.485-8.526-42.609-32.323-42.609-59.218C193.572,266.663,221.577,238.659,256,238.659z"/>
<path d="M149.459,278.518H92c-4.2,0-7.604,3.405-7.604,7.604c0,4.199,3.404,7.604,7.604,7.604h57.46c4.2,0,7.604-3.405,7.604-7.604
	C157.063,281.922,153.66,278.518,149.459,278.518z"/>
<path d="M149.459,308.445h-35.912c-4.2,0-7.604,3.405-7.604,7.604s3.404,7.604,7.604,7.604h35.912c4.2,0,7.604-3.405,7.604-7.604
	S153.66,308.445,149.459,308.445z"/>
<path d="M444.206,220.616c3.88,5.905,13.417,3.375,13.899-3.666c0.456-6.669-7.608-10.674-12.628-6.242
	C442.661,213.195,442.145,217.493,444.206,220.616z"/>
<path d="M56.952,220.616c1.704,2.594,4.972,3.868,7.988,3.193c3.231-0.724,5.671-3.558,5.909-6.859
	c0.49-6.791-7.925-10.785-12.848-6.039C55.372,213.445,54.945,217.577,56.952,220.616z"/>
<path d="M69.594,381.557c-1.854-2.821-5.518-4.044-8.706-2.992c-3.017,0.996-5.136,3.849-5.219,7.026
	c-0.078,2.979,1.665,5.782,4.351,7.059c3.021,1.436,6.739,0.673,8.952-1.837C71.23,388.25,71.468,384.398,69.594,381.557z"/>
<path d="M365.488,267.937c-66.809,0-121.165,54.354-121.165,121.164s54.354,121.164,121.165,121.164s121.164-54.354,121.164-121.164
	S432.298,267.937,365.488,267.937z M365.488,495.057c-58.425,0-105.957-47.532-105.957-105.956s47.532-105.956,105.957-105.956
	c58.424,0,105.956,47.532,105.956,105.956S423.912,495.057,365.488,495.057z"/>
<path d="M365.488,301.199c-16.744,0-33.03,4.728-47.098,13.67c-3.544,2.253-4.591,6.952-2.338,10.497
	c2.253,3.544,6.954,4.59,10.496,2.338c11.626-7.39,25.091-11.296,38.939-11.296c40.084,0,72.695,32.611,72.695,72.695
	s-32.611,72.695-72.695,72.695s-72.695-32.611-72.695-72.695c0-17.748,6.464-34.836,18.203-48.117
	c2.781-3.147,2.484-7.953-0.662-10.733c-3.148-2.782-7.953-2.484-10.734,0.662c-14.196,16.064-22.015,36.728-22.015,58.189
	c0,48.47,39.433,87.903,87.903,87.903s87.903-39.433,87.903-87.903S413.959,301.199,365.488,301.199z"/>
<path d="M344.419,412.995c0-4.199-3.404-7.604-7.604-7.604c-4.2,0-7.604,3.405-7.604,7.604c0,15.103,12.309,27.753,28.673,30.796
	v2.655c0,4.199,3.404,7.604,7.604,7.604s7.604-3.405,7.604-7.604v-2.655c16.364-3.044,28.672-15.693,28.672-30.796
	s-12.308-27.752-28.672-30.796v-32.167c7.866,2.365,13.464,8.267,13.464,15.174c0,4.199,3.404,7.604,7.604,7.604
	s7.604-3.405,7.604-7.604c0-15.104-12.308-27.752-28.672-30.796v-2.655c0-4.199-3.404-7.604-7.604-7.604s-7.604,3.405-7.604,7.604
	v2.655c-16.364,3.044-28.673,15.693-28.673,30.796c0,15.103,12.309,27.753,28.673,30.796v32.167
	C350.018,425.806,344.419,419.903,344.419,412.995z M386.556,412.995c0,6.907-5.599,12.81-13.464,15.174v-30.35
	C380.957,400.185,386.556,406.088,386.556,412.995z M344.419,365.207c0-6.907,5.6-12.81,13.465-15.174v30.35
	C350.018,378.017,344.419,372.116,344.419,365.207z"/>
<g>
</g>
<g>
</g>
<g>
</g>
<g>
</g>
<g>
</g>
<g>
</g>
<g>
</g>
<g>
</g>
<g>
</g>
<g>
</g>
<g>
</g>
<g>
</g>
<g>
</g>
<g>
</g>
<g>
</g>
</svg>
